<svg xmlns="http://www.w3.org/2000/svg" width="167.189" height="196.553" viewBox="0 0 167.189 196.553">
  <g id="avatar_1_" data-name="avatar (1)" transform="translate(-241 -118)">
    <g id="Group_3280" data-name="Group 3280" transform="translate(241 118)">
      <g id="Group_3296" data-name="Group 3296">
        <path id="Path_58097" data-name="Path 58097" d="M178.85,105.908h1.3c11.926-.2,21.572-4.4,28.7-12.414,15.67-17.665,13.065-47.948,12.78-50.838-1.018-21.695-11.275-32.074-19.741-36.917A45.255,45.255,0,0,0,179.99,0H179.3a45.325,45.325,0,0,0-21.9,5.576c-8.548,4.844-18.967,15.223-19.985,37.08-.285,2.89-2.89,33.173,12.781,50.838C157.278,101.512,166.924,105.7,178.85,105.908ZM148.282,43.674c0-.122.041-.244.041-.326,1.343-29.184,22.061-32.318,30.934-32.318h.488c10.99.244,29.672,4.722,30.934,32.318a.792.792,0,0,0,.041.326c.041.285,2.89,27.963-10.054,42.534-5.128,5.78-11.967,8.629-20.962,8.71H179.3c-8.954-.081-15.833-2.931-20.921-8.71C145.474,71.718,148.242,43.918,148.282,43.674Z" transform="translate(-95.968)"/>
        <path id="Path_58098" data-name="Path 58098" d="M203.25,309.86v-.122c0-.326-.041-.651-.041-1.018-.244-8.059-.773-26.9-18.438-32.929-.122-.04-.285-.081-.407-.122-18.357-4.681-33.62-15.264-33.783-15.386a5.494,5.494,0,0,0-6.309,9c.692.488,16.892,11.763,37.162,16.973,9.484,3.378,10.542,13.513,10.827,22.793a8.18,8.18,0,0,0,.041,1.018,73.882,73.882,0,0,1-.855,12.577c-6.594,3.744-32.44,16.688-71.759,16.688-39.156,0-65.165-12.984-71.8-16.729a69.94,69.94,0,0,1-.855-12.577c0-.326.041-.651.041-1.018.285-9.28,1.343-19.415,10.827-22.794,20.27-5.21,36.47-16.525,37.162-16.973a5.494,5.494,0,0,0-6.309-9c-.163.122-15.345,10.705-33.783,15.386-.163.041-.285.081-.407.122-17.665,6.065-18.194,24.91-18.438,32.929a8.166,8.166,0,0,1-.041,1.017v.122c-.041,2.116-.081,12.984,2.076,18.438a5.224,5.224,0,0,0,2.117,2.564c1.221.814,30.486,19.456,79.452,19.456s78.231-18.682,79.452-19.456a5.449,5.449,0,0,0,2.117-2.564C203.331,322.844,203.29,311.977,203.25,309.86Z" transform="translate(-36.073 -153.725)"/>
      </g>
    </g>
  </g>
</svg>
