<svg id="business-and-finance" xmlns="http://www.w3.org/2000/svg" width="43.99" height="43.988" viewBox="0 0 43.99 43.988">
  <path id="Path_1226" data-name="Path 1226" d="M232.129,144.065A8.065,8.065,0,1,1,224.065,136,8.065,8.065,0,0,1,232.129,144.065Zm0,0" transform="translate(-196.205 -123.536)" fill="#ededed"/>
  <path id="Path_1227" data-name="Path 1227" d="M355.73,13.865a5.933,5.933,0,0,1-1.956,4.372,5.748,5.748,0,0,1-3.91,1.493,5.865,5.865,0,1,1,5.865-5.865Zm0,0" transform="translate(-312.475 -7.267)" fill="#ededed"/>
  <path id="Path_1228" data-name="Path 1228" d="M0,296H8.065v16.129H0Zm0,0" transform="translate(0 -268.873)" fill="#ededed"/>
  <g id="Group_2636" data-name="Group 2636" transform="translate(0)">
    <path id="Path_1230" data-name="Path 1230" d="M216.8,128a8.8,8.8,0,1,0,8.8,8.8A8.8,8.8,0,0,0,216.8,128Zm0,16.129a7.332,7.332,0,1,1,7.332-7.332A7.331,7.331,0,0,1,216.8,144.129Zm0,0" transform="translate(-188.938 -116.27)" fill="#94a4ad"/>
    <path id="Path_1231" data-name="Path 1231" d="M342.6,0a6.6,6.6,0,1,0,6.6,6.6A6.6,6.6,0,0,0,342.6,0Zm0,11.73A5.132,5.132,0,1,1,347.73,6.6,5.132,5.132,0,0,1,342.6,11.73Zm0,0" transform="translate(-305.208)" fill="#94a4ad"/>
    <path id="Path_1232" data-name="Path 1232" d="M386.2,26.2a.733.733,0,0,1,.733.733H388.4a2.2,2.2,0,0,0-1.466-2.064V24h-1.466v.868a2.194,2.194,0,0,0,.733,4.264.733.733,0,1,1-.733.733H384a2.2,2.2,0,0,0,1.466,2.064V32.8h1.466V31.93a2.194,2.194,0,0,0-.733-4.264.733.733,0,1,1,0-1.466Zm0,0" transform="translate(-348.809 -21.801)" fill="#94a4ad"/>
    <path id="Path_1233" data-name="Path 1233" d="M274.933,154.933A1.466,1.466,0,0,1,276.4,156.4h1.466a2.933,2.933,0,0,0-2.2-2.828V152H274.2v1.57a2.927,2.927,0,0,0,.733,5.761,1.466,1.466,0,1,1-1.466,1.466H272a2.933,2.933,0,0,0,2.2,2.828v1.57h1.466v-1.57a2.927,2.927,0,0,0-.733-5.761,1.466,1.466,0,0,1,0-2.933Zm0,0" transform="translate(-247.073 -138.07)" fill="#94a4ad"/>
    <path id="Path_1234" data-name="Path 1234" d="M41.678,290.23a3.661,3.661,0,0,0-4.973-1.366l-8.659,4.414a3.645,3.645,0,0,0-1.813-1.132l-9.064-2.427a3.646,3.646,0,0,0-2.108.063L11.95,290.82a2.212,2.212,0,0,1-.7.113H8.8V288H0v1.466H7.331v14.663H0V305.6H8.8v-2.2H9.9a2.194,2.194,0,0,1,.533.066l5.164,1.291a3.655,3.655,0,0,0,.89.11h6.186a3.665,3.665,0,0,0,1.833-.49l15.83-9.139a3.677,3.677,0,0,0,1.833-3.172,3.633,3.633,0,0,0-.493-1.831ZM39.6,293.963l-15.83,9.14a2.208,2.208,0,0,1-1.1.293H16.49a2.2,2.2,0,0,1-.533-.066l-5.164-1.291a3.654,3.654,0,0,0-.89-.11H8.8V292.4h2.457a3.681,3.681,0,0,0,1.16-.188l3.111-1.037a2.186,2.186,0,0,1,1.264-.038l9.065,2.428a2.2,2.2,0,0,1-1.158,4.244l-6.928-1.66-.342,1.427,6.908,1.655a3.666,3.666,0,0,0,4.435-4.672l8.634-4.4a2.2,2.2,0,0,1,2.2,3.81Zm0,0" transform="translate(0 -261.607)" fill="#94a4ad"/>
  </g>
</svg>
