<svg id="calendar_2_" data-name="calendar (2)" xmlns="http://www.w3.org/2000/svg" width="14.898" height="14.898" viewBox="0 0 14.898 14.898">
  <g id="Group_2893" data-name="Group 2893">
    <g id="Group_2892" data-name="Group 2892">
      <path id="Path_58061" data-name="Path 58061" d="M13.152,1.164h-.7V0H11.29V1.164H3.608V0H2.444V1.164h-.7A1.748,1.748,0,0,0,0,2.91V13.152A1.748,1.748,0,0,0,1.746,14.9H13.152A1.748,1.748,0,0,0,14.9,13.152V2.91A1.748,1.748,0,0,0,13.152,1.164Zm.582,11.988a.583.583,0,0,1-.582.582H1.746a.583.583,0,0,1-.582-.582V5.47h12.57Zm0-8.846H1.164V2.91a.583.583,0,0,1,.582-.582h.7V3.492H3.608V2.328H11.29V3.492h1.164V2.328h.7a.583.583,0,0,1,.582.582Z"/>
    </g>
  </g>
  <g id="Group_2895" data-name="Group 2895" transform="translate(2.211 6.693)">
    <g id="Group_2894" data-name="Group 2894">
      <rect id="Rectangle_1665" data-name="Rectangle 1665" width="1.164" height="1.164"/>
    </g>
  </g>
  <g id="Group_2897" data-name="Group 2897" transform="translate(4.539 6.693)">
    <g id="Group_2896" data-name="Group 2896">
      <rect id="Rectangle_1666" data-name="Rectangle 1666" width="1.164" height="1.164"/>
    </g>
  </g>
  <g id="Group_2899" data-name="Group 2899" transform="translate(6.867 6.693)">
    <g id="Group_2898" data-name="Group 2898">
      <rect id="Rectangle_1667" data-name="Rectangle 1667" width="1.164" height="1.164"/>
    </g>
  </g>
  <g id="Group_2901" data-name="Group 2901" transform="translate(9.195 6.693)">
    <g id="Group_2900" data-name="Group 2900">
      <rect id="Rectangle_1668" data-name="Rectangle 1668" width="1.164" height="1.164"/>
    </g>
  </g>
  <g id="Group_2903" data-name="Group 2903" transform="translate(11.523 6.693)">
    <g id="Group_2902" data-name="Group 2902">
      <rect id="Rectangle_1669" data-name="Rectangle 1669" width="1.164" height="1.164"/>
    </g>
  </g>
  <g id="Group_2905" data-name="Group 2905" transform="translate(2.211 9.02)">
    <g id="Group_2904" data-name="Group 2904">
      <rect id="Rectangle_1670" data-name="Rectangle 1670" width="1.164" height="1.164"/>
    </g>
  </g>
  <g id="Group_2907" data-name="Group 2907" transform="translate(4.539 9.02)">
    <g id="Group_2906" data-name="Group 2906">
      <rect id="Rectangle_1671" data-name="Rectangle 1671" width="1.164" height="1.164"/>
    </g>
  </g>
  <g id="Group_2909" data-name="Group 2909" transform="translate(6.867 9.02)">
    <g id="Group_2908" data-name="Group 2908">
      <rect id="Rectangle_1672" data-name="Rectangle 1672" width="1.164" height="1.164"/>
    </g>
  </g>
  <g id="Group_2911" data-name="Group 2911" transform="translate(9.195 9.02)">
    <g id="Group_2910" data-name="Group 2910">
      <rect id="Rectangle_1673" data-name="Rectangle 1673" width="1.164" height="1.164"/>
    </g>
  </g>
  <g id="Group_2913" data-name="Group 2913" transform="translate(2.211 11.348)">
    <g id="Group_2912" data-name="Group 2912">
      <rect id="Rectangle_1674" data-name="Rectangle 1674" width="1.164" height="1.164"/>
    </g>
  </g>
  <g id="Group_2915" data-name="Group 2915" transform="translate(4.539 11.348)">
    <g id="Group_2914" data-name="Group 2914">
      <rect id="Rectangle_1675" data-name="Rectangle 1675" width="1.164" height="1.164"/>
    </g>
  </g>
  <g id="Group_2917" data-name="Group 2917" transform="translate(6.867 11.348)">
    <g id="Group_2916" data-name="Group 2916">
      <rect id="Rectangle_1676" data-name="Rectangle 1676" width="1.164" height="1.164"/>
    </g>
  </g>
  <g id="Group_2919" data-name="Group 2919" transform="translate(9.195 11.348)">
    <g id="Group_2918" data-name="Group 2918">
      <rect id="Rectangle_1677" data-name="Rectangle 1677" width="1.164" height="1.164"/>
    </g>
  </g>
  <g id="Group_2921" data-name="Group 2921" transform="translate(11.523 9.02)">
    <g id="Group_2920" data-name="Group 2920">
      <rect id="Rectangle_1678" data-name="Rectangle 1678" width="1.164" height="1.164"/>
    </g>
  </g>
</svg>
