<svg xmlns="http://www.w3.org/2000/svg" width="43.529" height="37" viewBox="0 0 43.529 37">
  <g id="cloud-computing" transform="translate(0)">
    <path id="Path_2623" data-name="Path 2623" d="M36.982,16.249A12.422,12.422,0,0,0,24.728,4.5,12.788,12.788,0,0,0,14.61,9.584c-.054-.028-.111-.047-.165-.074-.144-.07-.289-.136-.439-.2-.083-.033-.167-.062-.251-.092-.147-.052-.295-.1-.446-.138-.084-.022-.168-.046-.253-.065-.163-.037-.328-.065-.5-.09-.074-.011-.147-.025-.221-.034a6.732,6.732,0,0,0-.731-.043,6.537,6.537,0,0,0-6.529,6.529c0,.094.005.185.012.276A10.032,10.032,0,0,0,0,24.2a9.33,9.33,0,0,0,9.319,9.32h3.74a.725.725,0,1,0,0-1.451H9.319A7.877,7.877,0,0,1,1.451,24.2a8.625,8.625,0,0,1,4.666-7.438l.412-.2v-.457c0-.089.006-.181.011-.272l.007-.127-.009-.136c0-.063-.009-.126-.009-.19a5.044,5.044,0,0,1,5.744-5.03c.057.007.112.017.168.026a4.982,4.982,0,0,1,.575.128c.025.007.05.012.074.019a4.977,4.977,0,0,1,.608.234c.05.022.1.047.149.072a4.964,4.964,0,0,1,.513.289,5.075,5.075,0,0,1,2.327,4.262.725.725,0,0,0,1.451,0A6.514,6.514,0,0,0,15.816,10.4a11.49,11.49,0,0,1,8.912-4.447A10.952,10.952,0,0,1,35.5,16.026a13.815,13.815,0,0,0-2.962.091.726.726,0,0,0,.108,1.443.713.713,0,0,0,.11-.009,13.376,13.376,0,0,1,3.4,0,7.436,7.436,0,0,1,5.924,7.244A7.284,7.284,0,0,1,34.8,32.069H31.922a.725.725,0,1,0,0,1.451H34.8a8.736,8.736,0,0,0,8.726-8.726A8.928,8.928,0,0,0,36.982,16.249Z" transform="translate(0 -4.5)"/>
    <path id="Path_2624" data-name="Path 2624" d="M29.043,30.714a.718.718,0,0,0-.237-.157.728.728,0,0,0-.791.157l-5.8,5.8a.725.725,0,1,0,1.026,1.026L27.8,32.977V47.912a.725.725,0,1,0,1.451,0V32.977l4.566,4.566a.725.725,0,0,0,1.026-1.026Z" transform="translate(-6.039 -11.638)"/>
  </g>
</svg>
