<svg xmlns="http://www.w3.org/2000/svg" width="26.801" height="23.576" viewBox="0 0 26.801 23.576">
  <g id="credit-card_2_" data-name="credit-card (2)" transform="translate(0 0)">
    <g id="Group_608" data-name="Group 608" transform="translate(0)">
      <path id="Path_935" data-name="Path 935" d="M62.269,146.947v2.084h21.18v-2.084a.861.861,0,0,0-.86-.859H63.129A.86.86,0,0,0,62.269,146.947Z" transform="translate(-58.212 -138.181)" fill="none"/>
      <path id="Path_936" data-name="Path 936" d="M45.665,53.522l-.96-4.1,0-.009a.861.861,0,0,0-1.025-.653l-19,4.217a.861.861,0,0,0-.653,1.026l.909,4.132V55.945a2.426,2.426,0,0,1,2.423-2.423H45.665Z" transform="translate(-22.442 -47.18)" fill="none"/>
      <path id="Path_937" data-name="Path 937" d="M62.269,268.749v3.011a.861.861,0,0,0,.86.86h19.46a.861.861,0,0,0,.86-.86v-5.412H62.269Z" transform="translate(-58.212 -250.607)" fill="none"/>
      <path id="Path_938" data-name="Path 938" d="M24.839,31.126l-1.053-4.494A2.426,2.426,0,0,0,20.9,24.8l-19,4.217A2.426,2.426,0,0,0,.058,31.9L2.494,42.978v2.914a2.426,2.426,0,0,0,2.423,2.423h19.46A2.426,2.426,0,0,0,26.8,45.893V33.505A2.427,2.427,0,0,0,24.839,31.126Zm-.462,1.519a.861.861,0,0,1,.86.859v2.084H4.057V33.5a.861.861,0,0,1,.86-.859Zm.86,6.272H4.057V37.153h21.18ZM2.494,33.5V35.7l-.909-4.132a.861.861,0,0,1,.653-1.026l19-4.217a.861.861,0,0,1,1.025.653l0,.009.96,4.1H4.917A2.426,2.426,0,0,0,2.494,33.5ZM25.237,45.893a.861.861,0,0,1-.86.86H4.917a.861.861,0,0,1-.86-.86V40.481h21.18Z" transform="translate(0 -24.739)"/>
    </g>
  </g>
</svg>
