<svg xmlns="http://www.w3.org/2000/svg" width="39.209" height="39.207" viewBox="0 0 39.209 39.207">
  <g id="email" transform="translate(0 -0.001)">
    <g id="Group_721" data-name="Group 721" transform="translate(0 0)">
      <g id="Group_720" data-name="Group 720" transform="translate(0)">
        <path id="Path_488" data-name="Path 488" d="M39.21,15.042c0-.014-.007-.026-.008-.039a.623.623,0,0,0-.027-.133.675.675,0,0,0-.037-.113.63.63,0,0,0-.065-.1.642.642,0,0,0-.089-.1c-.01-.009-.015-.022-.026-.03L32.675,9.645V4.587a1.961,1.961,0,0,0-1.96-1.96H23.633L20.8.424a1.939,1.939,0,0,0-2.383,0l-2.836,2.2H8.5a1.96,1.96,0,0,0-1.96,1.96V9.645L.253,14.526c-.011.009-.016.021-.026.03a.642.642,0,0,0-.089.1.625.625,0,0,0-.065.1.645.645,0,0,0-.037.113A.619.619,0,0,0,.009,15c0,.013-.008.025-.008.039V37.261a1.937,1.937,0,0,0,.109.618.648.648,0,0,0,.719.98,1.946,1.946,0,0,0,1.132.363H37.25a1.947,1.947,0,0,0,1.135-.368.645.645,0,0,0,.717-.975,1.939,1.939,0,0,0,.109-.618V15.042Zm-20-13.587a.627.627,0,0,1,.78,0L21.5,2.626H17.71ZM2.123,37.915,19.213,24.64a.629.629,0,0,1,.779,0l17.1,13.275ZM37.9,36.894,20.8,23.608a1.938,1.938,0,0,0-2.381,0L1.307,36.894V16.038l10.709,8.316a.654.654,0,1,0,.8-1.033L1.938,14.872l4.6-3.572v5.05a.653.653,0,0,0,1.307,0V4.587A.653.653,0,0,1,8.5,3.933H30.714a.653.653,0,0,1,.653.653V16.349a.653.653,0,1,0,1.307,0V11.3l4.6,3.572-10.9,8.463a.654.654,0,1,0,.8,1.033L37.9,16.038Z" transform="translate(-0.001 -0.015)"/>
        <path id="Path_489" data-name="Path 489" d="M162.778,95.151h13.07a.653.653,0,0,0,0-1.307h-13.07a.653.653,0,0,0,0,1.307Z" transform="translate(-149.709 -86.658)"/>
        <path id="Path_490" data-name="Path 490" d="M176.5,145.7a.653.653,0,0,0-.653-.653h-13.07a.653.653,0,0,0,0,1.307h13.07A.653.653,0,0,0,176.5,145.7Z" transform="translate(-149.709 -133.937)"/>
        <path id="Path_491" data-name="Path 491" d="M263.18,196.9a.653.653,0,0,0-.653-.653h-5.881a.653.653,0,1,0,0,1.307h5.881A.653.653,0,0,0,263.18,196.9Z" transform="translate(-236.388 -181.216)"/>
      </g>
    </g>
  </g>
</svg>
