<svg xmlns="http://www.w3.org/2000/svg" width="34.37" height="50.992" viewBox="0 0 34.37 50.992">
  <g id="employee" transform="translate(-83.447 0)">
    <g id="Group_804" data-name="Group 804" transform="translate(83.447)">
      <path id="Path_1061" data-name="Path 1061" d="M117.07,41.316a.747.747,0,0,0-.747.747v7.023a.413.413,0,0,1-.412.412H111.9V34.788a.747.747,0,0,0-1.494,0V49.5h-8.085l2.345-2.579a1.339,1.339,0,0,0,.323-1.074c0-.008,0-.015,0-.023l-2.233-13.193.6-.906a1.694,1.694,0,0,0,1.069.464,1.308,1.308,0,0,0,1.171-.724h0l2.355-4.721,5.366,2.078a5.176,5.176,0,0,1,3.013,4.7v5.052a.747.747,0,1,0,1.494,0V33.524a6.666,6.666,0,0,0-3.942-6.088l-.014-.006-8.93-3.458V21.878a7,7,0,0,0,2.649-4.6,3.233,3.233,0,0,0,1.9-.775,3.171,3.171,0,0,0,.331-4.475V9.258a9.257,9.257,0,1,0-18.515,0V12.1a3,3,0,0,0-.77,2,3.165,3.165,0,0,0,1.1,2.4,3.231,3.231,0,0,0,1.9.774,6.925,6.925,0,0,0,2.8,4.715v1.984L87.4,27.431l-.014.006a6.666,6.666,0,0,0-3.942,6.088V49.085a1.909,1.909,0,0,0,1.906,1.906H92.47a.747.747,0,1,0,0-1.494H90.863V34.788a.747.747,0,1,0-1.494,0V49.5H85.354a.413.413,0,0,1-.412-.412V33.524a5.176,5.176,0,0,1,3.012-4.7l5.362-2.079,2.356,4.721a1.308,1.308,0,0,0,1.171.724,1.693,1.693,0,0,0,1.069-.464l.6.906L96.279,45.821l0,.023a1.339,1.339,0,0,0,.323,1.075L98.943,49.5H95.956a.747.747,0,0,0,0,1.494h19.955a1.909,1.909,0,0,0,1.906-1.906V42.063A.747.747,0,0,0,117.07,41.316ZM106.546,26.2l-2.2,4.4-2.641-1.876,2.712-3.348Zm-4.415,4.657-.569.857H99.7l-.569-.857,1.5-1.066Zm-4.312-6.644v-1.4a7.579,7.579,0,0,0,2.824.535,7.013,7.013,0,0,0,2.794-.582v1.451l-2.807,3.464ZM109.086,14.1a1.673,1.673,0,0,1-.582,1.27,1.74,1.74,0,0,1-.863.4V12.429A1.69,1.69,0,0,1,109.086,14.1ZM93.462,15.764A1.688,1.688,0,0,1,92.018,14.1a1.774,1.774,0,0,1,1.444-1.629Zm.04-4.819a3.693,3.693,0,0,0-.714.161V9.258a7.763,7.763,0,1,1,15.527,0v1.8a3.321,3.321,0,0,0-.673-.13c0-.721.006-.582-2.352-3.117a1.329,1.329,0,0,0-1.7-.207,14.4,14.4,0,0,1-8.706,2.344A1.328,1.328,0,0,0,93.5,10.945Zm1.454,5.407V11.446a15.962,15.962,0,0,0,9.336-2.518c1.081,1.161,1.667,1.77,1.856,2v5.422a5.6,5.6,0,0,1-11.192,0ZM96.91,30.6l-2.2-4.4,2.121-.821,2.713,3.349Zm.857,15.382,2.162-12.774h1.4l2.162,12.774-2.863,3.149Z" transform="translate(-83.447)"/>
    </g>
  </g>
</svg>
