<svg xmlns="http://www.w3.org/2000/svg" width="11.055" height="8.686" viewBox="0 0 11.055 8.686">
  <g id="envelope_3_" data-name="envelope (3)" transform="translate(0 0)">
    <g id="Group_2971" data-name="Group 2971">
      <path id="Path_2537" data-name="Path 2537" d="M1.061,57.5q.21.148,1.265.879T3.942,59.5l.262.188q.2.145.333.234t.321.2a1.861,1.861,0,0,0,.355.166.977.977,0,0,0,.308.056h.012a.978.978,0,0,0,.308-.056,1.863,1.863,0,0,0,.355-.166q.188-.111.321-.2t.333-.234l.262-.188L10,57.5a2.931,2.931,0,0,0,.753-.759,1.629,1.629,0,0,0,.3-.931,1,1,0,0,0-.987-.987H.987a.881.881,0,0,0-.731.321,1.245,1.245,0,0,0-.256.8,1.441,1.441,0,0,0,.339.842A3.062,3.062,0,0,0,1.061,57.5Z" transform="translate(0 -54.82)" fill="#fff"/>
      <path id="Path_2538" data-name="Path 2538" d="M10.438,184.974q-2.023,1.369-3.072,2.128-.352.259-.571.4a3.521,3.521,0,0,1-.583.3,1.775,1.775,0,0,1-.678.151H5.521a1.776,1.776,0,0,1-.679-.151,3.523,3.523,0,0,1-.583-.3q-.219-.145-.571-.4-.833-.611-3.066-2.128A3.269,3.269,0,0,1,0,184.437v4.9a.95.95,0,0,0,.29.7.95.95,0,0,0,.7.29h9.081a.99.99,0,0,0,.987-.987v-4.9A3.4,3.4,0,0,1,10.438,184.974Z" transform="translate(0 -181.636)" fill="#fff"/>
    </g>
  </g>
</svg>
