<svg xmlns="http://www.w3.org/2000/svg" width="6.932" height="12.82" viewBox="0 0 6.932 12.82">
  <g id="facebook-logo" transform="translate(0 0.001)">
    <path id="Path_1056" data-name="Path 1056" d="M28.747,0,27.085,0A2.92,2.92,0,0,0,24.01,3.155V4.61H22.338a.261.261,0,0,0-.261.262V6.979a.261.261,0,0,0,.261.261H24.01v5.319a.261.261,0,0,0,.261.261h2.181a.261.261,0,0,0,.261-.261V7.241h1.955a.261.261,0,0,0,.261-.261V4.871a.262.262,0,0,0-.262-.262H26.714V3.377c0-.593.141-.894.913-.894h1.12a.261.261,0,0,0,.261-.261V.264A.262.262,0,0,0,28.747,0Z" transform="translate(-22.077)" fill="#fff"/>
  </g>
</svg>
