<svg xmlns="http://www.w3.org/2000/svg" width="83.203" height="83.205" viewBox="0 0 83.203 83.205">
  <g id="give-love" transform="translate(0)">
    <g id="Group_2768" data-name="Group 2768" transform="translate(0 47.127)">
      <g id="Group_2767" data-name="Group 2767">
        <path id="Path_2426" data-name="Path 2426" d="M68.421,314.043H55.237a6.009,6.009,0,0,0-5.338-8.775H38.806a5.306,5.306,0,0,1-4.046-1.87l-5.028-5.906a21.285,21.285,0,0,0-16.233-7.5H1.631a1.625,1.625,0,0,0-1.625,1.625v21.069a1.625,1.625,0,0,0,.775,1.385l13.535,8.3a25.052,25.052,0,0,0,13.1,3.7l41,0h0a6.014,6.014,0,0,0,0-12.027Zm1.954,7.968a2.744,2.744,0,0,1-1.953.809h0l-41,0a21.806,21.806,0,0,1-11.4-3.218l-12.76-7.824V293.242H13.5A18.04,18.04,0,0,1,27.256,299.6l5.028,5.906a8.55,8.55,0,0,0,6.521,3.013H49.9a2.763,2.763,0,1,1,0,5.525H32.341a5.913,5.913,0,0,1-3.231-.958l-6.175-4.016a1.625,1.625,0,0,0-2.847,1.37l.023.106a1.625,1.625,0,0,0,.7,1.022l6.524,4.243a9.154,9.154,0,0,0,5,1.484H68.42a2.764,2.764,0,0,1,1.954,4.718Z" transform="translate(-0.006 -289.992)"/>
      </g>
    </g>
    <g id="Group_2770" data-name="Group 2770" transform="translate(59.883 14.242)">
      <g id="Group_2769" data-name="Group 2769">
        <path id="Path_2427" data-name="Path 2427" d="M371.27,88.114a1.62,1.62,0,1,0,.478,1.149A1.634,1.634,0,0,0,371.27,88.114Z" transform="translate(-368.496 -87.638)"/>
      </g>
    </g>
    <g id="Group_2772" data-name="Group 2772" transform="translate(8.775)">
      <g id="Group_2771" data-name="Group 2771">
        <path id="Path_2428" data-name="Path 2428" d="M127.656,12,114.121,3.7a25.052,25.052,0,0,0-13.1-3.7l-41,0h0a6.014,6.014,0,0,0,0,12.027H73.2A6.009,6.009,0,0,0,78.539,20.8H89.632a5.305,5.305,0,0,1,4.046,1.87l5.028,5.906a21.285,21.285,0,0,0,16.233,7.5h11.867a1.625,1.625,0,0,0,1.625-1.625V13.384A1.624,1.624,0,0,0,127.656,12Zm-2.475,20.83H114.939a18.041,18.041,0,0,1-13.758-6.356l-5.028-5.906a8.55,8.55,0,0,0-6.521-3.013H78.539a2.763,2.763,0,1,1,0-5.525H96.1a5.911,5.911,0,0,1,3.231.958l1.772,1.153a1.625,1.625,0,1,0,1.772-2.725L101.1,10.261a9.153,9.153,0,0,0-5-1.484H60.017a2.764,2.764,0,1,1,0-5.527l41,0a21.806,21.806,0,0,1,11.4,3.218l12.76,7.824V32.828Z" transform="translate(-54.004)"/>
      </g>
    </g>
    <g id="Group_2774" data-name="Group 2774" transform="translate(27.301 29.156)">
      <g id="Group_2773" data-name="Group 2773">
        <path id="Path_2429" data-name="Path 2429" d="M187.636,179.411a8.816,8.816,0,0,0-5.333,1.818,8.815,8.815,0,0,0-5.333-1.818A9.128,9.128,0,0,0,168,188.673c0,3.456,2.331,7.137,6.927,10.94a46.632,46.632,0,0,0,6.594,4.53,1.624,1.624,0,0,0,1.56,0,46.648,46.648,0,0,0,6.594-4.53c4.6-3.8,6.927-7.485,6.927-10.94A9.129,9.129,0,0,0,187.636,179.411ZM182.3,200.847c-3.687-2.177-11.05-7.493-11.05-12.174a5.877,5.877,0,0,1,5.717-6.012,5.539,5.539,0,0,1,4.131,1.857,1.625,1.625,0,0,0,2.4,0,5.539,5.539,0,0,1,4.131-1.857,5.877,5.877,0,0,1,5.717,6.012C193.353,193.345,185.988,198.667,182.3,200.847Z" transform="translate(-168.002 -179.411)"/>
      </g>
    </g>
    <g id="Group_2776" data-name="Group 2776" transform="translate(45.853 34.102)">
      <g id="Group_2775" data-name="Group 2775">
        <path id="Path_2430" data-name="Path 2430" d="M285.058,210.453l-.092-.1a1.625,1.625,0,0,0-2.362,2.233l.037.04a1.625,1.625,0,0,0,2.417-2.173Z" transform="translate(-282.16 -209.844)"/>
      </g>
    </g>
    <g id="Group_2778" data-name="Group 2778" transform="translate(39.976 39.248)">
      <g id="Group_2777" data-name="Group 2777">
        <path id="Path_2431" data-name="Path 2431" d="M254.82,241.724a1.625,1.625,0,0,0-2.214.615c-1.234,2.182-4.579,4.349-5.764,5a1.625,1.625,0,0,0,1.561,2.85c.207-.113,5.087-2.811,7.032-6.251A1.625,1.625,0,0,0,254.82,241.724Z" transform="translate(-245.997 -241.513)"/>
      </g>
    </g>
  </g>
</svg>
