<svg xmlns="http://www.w3.org/2000/svg" width="89.467" height="89.361" viewBox="0 0 89.467 89.361">
  <g id="give" transform="translate(0)">
    <path id="Path_2432" data-name="Path 2432" d="M68.322,378.447c-.889.484-1.79.982-2.7,1.487-7.723,4.274-16.476,9.118-24.889,8.369l-29.79-2.655q-.058-.005-.116-.005H2.62V370.925h8.2a1.313,1.313,0,0,0,.845-.309,33.474,33.474,0,0,1,4-2.761,1.31,1.31,0,1,0-1.341-2.251,38.169,38.169,0,0,0-3.97,2.7H1.31A1.31,1.31,0,0,0,0,369.615v17.338a1.31,1.31,0,0,0,1.31,1.31h9.455l29.732,2.65q1.007.09,2.011.088c8.525,0,16.914-4.643,24.379-8.774.907-.5,1.8-1,2.686-1.478a1.31,1.31,0,0,0-1.252-2.3Z" transform="translate(0 -301.639)"/>
    <path id="Path_2433" data-name="Path 2433" d="M175.406,306.917a4.993,4.993,0,0,0-5.928-1.605,4.533,4.533,0,0,0-6.637-3.729l-3.128,1.646a4.494,4.494,0,0,0-6.631-3.717l-2.34,1.266a4.639,4.639,0,0,0-6.786-3.9L127.1,305.7a28.886,28.886,0,0,0-14.995-1.379,29.649,29.649,0,0,0-5.942,1.8,1.31,1.31,0,0,0,1.007,2.419,27.029,27.029,0,0,1,5.414-1.646,26.431,26.431,0,0,1,14.049,1.441l.013.005.043.017c.036.014.072.027.109.038l.053.014c.036.009.072.016.109.022l.051.008a1.269,1.269,0,0,0,.146.01h17.554a2.263,2.263,0,0,1,.284,4.509l-22.233,2.811a1.31,1.31,0,0,0,.008,2.6l9.442,1.136a43.215,43.215,0,0,0,26.291-5.15l11.8-6.548a2.393,2.393,0,0,1,2.247,4.225l-12.667,6.891a1.31,1.31,0,1,0,1.252,2.3l12.667-6.891a5.014,5.014,0,0,0,1.6-7.426Zm-21.078-5.1a1.879,1.879,0,1,1,1.769,3.315h0l-6.91,3.635a4.909,4.909,0,0,0-2.821-2.641l1.951-1.056h0Zm-9.157-2.614a2.019,2.019,0,0,1,1.9,3.564l-5.676,3.072h-8.9Zm12.061,12.871a40.592,40.592,0,0,1-23.538,4.964l11.63-1.47a4.895,4.895,0,0,0,4.2-4.016l7.793-4.1h0l6.742-3.547a1.924,1.924,0,0,1,2.45.58,1.916,1.916,0,0,1-.628,2.79Z" transform="translate(-86.953 -244.63)"/>
    <path id="Path_2434" data-name="Path 2434" d="M106.771,27.962a1.31,1.31,0,0,0,.5-1.784,18.847,18.847,0,0,1-2.584-11.937c.9-6.556,5.018-10.772,11.025-11.277,5.466-.459,10.593,2.4,11.926,6.651a1.31,1.31,0,0,0,2.5,0c1.332-4.251,6.46-7.11,11.926-6.651,6.007.505,10.128,4.72,11.025,11.277a18.953,18.953,0,0,1-2.72,12.174,39.636,39.636,0,0,1-8.58,9.939,71.872,71.872,0,0,1-12.9,8.738c-2.48-1.3-12.44-6.8-18.827-14.811a1.31,1.31,0,0,0-2.049,1.634c7.669,9.616,19.79,15.577,20.3,15.826a1.32,1.32,0,0,0,1.146,0,72.387,72.387,0,0,0,14-9.367,42.305,42.305,0,0,0,9.166-10.626,21.515,21.515,0,0,0,3.06-13.863A15.84,15.84,0,0,0,150.853,4a14.342,14.342,0,0,0-8.57-3.647A16.018,16.018,0,0,0,133.342,2.2a12.425,12.425,0,0,0-4.454,4.017A12.426,12.426,0,0,0,124.433,2.2,16.021,16.021,0,0,0,115.492.353,14.339,14.339,0,0,0,106.922,4a15.84,15.84,0,0,0-4.832,9.886,21.4,21.4,0,0,0,2.9,13.577A1.31,1.31,0,0,0,106.771,27.962Z" transform="translate(-84.109 -0.297)"/>
    <path id="Path_2435" data-name="Path 2435" d="M188.463,98.525a2.542,2.542,0,1,0-2.542,2.542A2.545,2.545,0,0,0,188.463,98.525Z" transform="translate(-151.346 -79.268)"/>
    <path id="Path_2436" data-name="Path 2436" d="M305.277,98.525a2.542,2.542,0,1,0-2.542,2.542A2.545,2.545,0,0,0,305.277,98.525Z" transform="translate(-247.755 -79.268)"/>
    <path id="Path_2437" data-name="Path 2437" d="M229.767,132.563a5.805,5.805,0,0,0,5.564-4.086,1.31,1.31,0,1,0-2.5-.783,3.211,3.211,0,0,1-6.127,0,1.31,1.31,0,1,0-2.5.783A5.8,5.8,0,0,0,229.767,132.563Z" transform="translate(-184.989 -104.681)"/>
  </g>
</svg>
