<svg xmlns="http://www.w3.org/2000/svg" width="13.779" height="6.124" viewBox="0 0 13.779 6.124">
  <g id="Group_301" data-name="Group 301" transform="translate(-0.001 6.124) rotate(-90)">
    <g id="long-arrow-pointing-to-the-right" transform="translate(6.124 0) rotate(90)">
      <path id="Path_118" data-name="Path 118" d="M13.7,2.855,10.638.064a.256.256,0,0,0-.279-.04.231.231,0,0,0-.152.231V2.042H.255A.246.246,0,0,0,0,2.3V3.828a.245.245,0,0,0,.255.255h9.952V5.869a.24.24,0,0,0,.152.231.249.249,0,0,0,.279-.048L13.7,3.23a.261.261,0,0,0,.08-.191A.252.252,0,0,0,13.7,2.855Z" transform="translate(0 0)"/>
    </g>
  </g>
</svg>
