<svg xmlns="http://www.w3.org/2000/svg" width="56.629" height="56.629" viewBox="0 0 56.629 56.629">
  <g id="Group_2784" data-name="Group 2784" transform="translate(-523.186 -1879.832)">
    <g id="Group_3534" data-name="Group 3534">
      <g id="Group_2748" data-name="Group 2748" transform="translate(523.185 1879.832)">
        <path id="Path_2262" data-name="Path 2262" d="M28.314,0A28.315,28.315,0,1,1,0,28.315,28.315,28.315,0,0,1,28.314,0Z" fill="#008f8f"/>
        <g id="email" transform="translate(10.368 10.341)">
          <g id="Group_2747" data-name="Group 2747" transform="translate(0 0)">
            <g id="Group_2746" data-name="Group 2746" transform="translate(0 0)">
              <path id="Path_2257" data-name="Path 2257" d="M35.923,13.783c0-.013-.007-.023-.007-.035a.571.571,0,0,0-.025-.122.62.62,0,0,0-.034-.1.578.578,0,0,0-.06-.09.588.588,0,0,0-.081-.095c-.01-.008-.014-.02-.024-.028L29.936,8.838V4.2a1.8,1.8,0,0,0-1.8-1.8H21.652L19.054.39a1.776,1.776,0,0,0-2.184,0l-2.6,2.017H7.784a1.8,1.8,0,0,0-1.8,1.8V8.838L.232,13.31c-.01.008-.014.019-.024.028a.588.588,0,0,0-.081.095.573.573,0,0,0-.06.09.591.591,0,0,0-.034.1.567.567,0,0,0-.025.12c0,.012-.007.023-.007.035V34.139a1.775,1.775,0,0,0,.1.566.593.593,0,0,0,.659.9,1.783,1.783,0,0,0,1.037.332h32.33a1.784,1.784,0,0,0,1.04-.337.591.591,0,0,0,.657-.893,1.776,1.776,0,0,0,.1-.566V13.783ZM17.6,1.335a.574.574,0,0,1,.714,0L19.7,2.407H16.225ZM1.945,34.738,17.6,22.576a.576.576,0,0,1,.714,0L33.978,34.738ZM34.726,33.8,19.053,21.63a1.776,1.776,0,0,0-2.182,0L1.2,33.8V14.695l9.811,7.619a.6.6,0,0,0,.734-.947l-9.967-7.74,4.212-3.273V14.98a.6.6,0,1,0,1.2,0V4.2a.6.6,0,0,1,.6-.6H28.14a.6.6,0,0,1,.6.6V14.98a.6.6,0,1,0,1.2,0V10.354l4.212,3.273-9.985,7.754a.6.6,0,0,0,.735.946l9.828-7.632Z" transform="translate(-0.001 -0.015)" fill="#a4e0d6"/>
              <path id="Path_2258" data-name="Path 2258" d="M162.724,95.041H174.7a.6.6,0,1,0,0-1.2H162.724a.6.6,0,1,0,0,1.2Z" transform="translate(-150.75 -87.261)" fill="#a4e0d6"/>
              <path id="Path_2259" data-name="Path 2259" d="M175.3,145.643a.6.6,0,0,0-.6-.6H162.724a.6.6,0,1,0,0,1.2H174.7A.6.6,0,0,0,175.3,145.643Z" transform="translate(-150.75 -134.868)" fill="#a4e0d6"/>
              <path id="Path_2260" data-name="Path 2260" d="M262.578,196.843a.6.6,0,0,0-.6-.6h-5.388a.6.6,0,0,0,0,1.2h5.388A.6.6,0,0,0,262.578,196.843Z" transform="translate(-238.031 -182.476)" fill="#a4e0d6"/>
            </g>
          </g>
        </g>
      </g>
    </g>
  </g>
</svg>
