<svg id="Group_2564" data-name="Group 2564" xmlns="http://www.w3.org/2000/svg" width="110" height="110" viewBox="0 0 110 110">
  <g id="Group_2563" data-name="Group 2563">
    <path id="Path_1201" data-name="Path 1201" d="M55,0A55,55,0,1,1,0,55,55,55,0,0,1,55,0Z" fill="#04aa8e" opacity="0.29"/>
    <g id="target" transform="translate(32.446 26)">
      <path id="Path_416" data-name="Path 416" d="M96,408h2.05v2.049H96Zm0,0" transform="translate(-83.703 -355.741)"/>
      <path id="Path_417" data-name="Path 417" d="M3.691,15.387.436,18.761A1.025,1.025,0,0,0,1.173,20.5h6a1.028,1.028,0,0,0,.629-.215L12.8,16.4h1.6a15.39,15.39,0,0,0,12.245,14.04V36.4l-4.459,3.565H18.447V38.943a1.025,1.025,0,0,0-1.025-1.025h-8.2A1.025,1.025,0,0,0,8.2,38.943V57.389a1.025,1.025,0,0,0,1.025,1.025h8.2a1.025,1.025,0,0,0,1.025-1.025V56.7l5.868,1.675a.986.986,0,0,0,.281.04h12.3a3.074,3.074,0,0,0,2.678-4.583,3.074,3.074,0,0,0,.636-4.64,3.069,3.069,0,0,0,.389-3.558,3.074,3.074,0,0,0-1.653-5.665H36.718a3.074,3.074,0,0,0-2.9-4.1H32.794V30.438A15.371,15.371,0,1,0,14.4,14.349H12.864L8.916,10.538a1.024,1.024,0,0,0-.717-.288H1.026A1.025,1.025,0,0,0,.3,12ZM16.4,40.992V56.364H10.249v-16.4H16.4Zm17.421-3.074a1.025,1.025,0,1,1,0,2.05H30.745v2.05h8.2a1.025,1.025,0,1,1,0,2.05H32.794v2.05h5.124a1.025,1.025,0,1,1,0,2.05H32.794v2.05h5.124a1.025,1.025,0,1,1,0,2.05H32.794v2.05h4.1a1.025,1.025,0,0,1,0,2.05H24.74l-6.292-1.8V42.017h4.1a1.027,1.027,0,0,0,.64-.224l4.843-3.875Zm-5.124-2.05V30.745h2.05v5.124Zm1.025-21.52H27.955a2.05,2.05,0,1,1,0,2.05H29.72a1.025,1.025,0,0,0,0-2.05Zm0,5.124a4.1,4.1,0,1,0-3.953-5.124H22.111a7.686,7.686,0,1,1,0,2.05h3.655A4.1,4.1,0,0,0,29.72,19.472Zm0,5.636a9.735,9.735,0,1,0-9.68-10.76H16.453a13.322,13.322,0,1,1,0,2.05H20.04a9.747,9.747,0,0,0,9.68,8.711Zm-22.9-6.661H3.588L5.565,16.4H9.459ZM7.786,12.3l2.122,2.05H5.55L3.5,12.3Zm0,0" transform="translate(-0.002 -0.001)"/>
    </g>
  </g>
  <path id="Path_534" data-name="Path 534" d="M131.559,33.029a3.419,3.419,0,1,0-3.418-3.419A3.423,3.423,0,0,0,131.559,33.029Zm0-4.755a1.337,1.337,0,1,1-1.336,1.336A1.337,1.337,0,0,1,131.559,28.274Zm0,0" transform="translate(-86.22 -6.169)"/>
  <path id="Path_535" data-name="Path 535" d="M220.305,326.566a3.419,3.419,0,1,0,3.418,3.419A3.423,3.423,0,0,0,220.305,326.566Zm0,4.755a1.337,1.337,0,1,1,1.336-1.336A1.338,1.338,0,0,1,220.305,331.321Zm0,0" transform="translate(-158.762 -230.904)"/>
  <path id="Path_536" data-name="Path 536" d="M54.471,19.181a1.61,1.61,0,1,1-1.61-1.61A1.61,1.61,0,0,1,54.471,19.181Zm0,0" transform="translate(-24.234 1.137)"/>
  <path id="Path_537" data-name="Path 537" d="M341.189,333.208a1.61,1.61,0,1,1-1.61-1.61A1.61,1.61,0,0,1,341.189,333.208Zm0,0" transform="translate(-257.584 -245.168)"/>
  <path id="Path_538" data-name="Path 538" d="M355.574,224.581a1.04,1.04,0,0,0-1.472,0l-1.1,1.1-1.1-1.1a1.041,1.041,0,1,0-1.472,1.472l1.1,1.1-1.1,1.1a1.041,1.041,0,1,0,1.472,1.472l1.1-1.1,1.1,1.1a1.041,1.041,0,1,0,1.472-1.472l-1.1-1.1,1.1-1.1A1.041,1.041,0,0,0,355.574,224.581Zm0,0" transform="translate(-267.878 -161.075)"/>
  <path id="Path_539" data-name="Path 539" d="M22.738,154.643a1.041,1.041,0,0,0,1.472,0l1.1-1.1,1.1,1.1a1.041,1.041,0,0,0,1.472-1.472l-1.1-1.1,1.1-1.1a1.041,1.041,0,0,0-1.472-1.473l-1.1,1.1-1.1-1.1a1.041,1.041,0,0,0-1.472,1.473l1.1,1.1-1.1,1.1a1.04,1.04,0,0,0,0,1.472Zm0,0" transform="translate(0.188 -102.148)"/>
</svg>
