<svg xmlns="http://www.w3.org/2000/svg" width="16.541" height="16.541" viewBox="0 0 16.541 16.541">
  <g id="Group_683" data-name="Group 683" transform="translate(0 0)">
    <g id="Group_682" data-name="Group 682">
      <circle id="Ellipse_10" data-name="Ellipse 10" cx="0.808" cy="0.808" r="0.808" transform="translate(7.463 11.42)"/>
      <path id="Path_955" data-name="Path 955" d="M8.27,0a8.27,8.27,0,1,0,8.27,8.27A8.266,8.266,0,0,0,8.27,0Zm0,15.248A6.978,6.978,0,1,1,15.248,8.27,6.974,6.974,0,0,1,8.27,15.248Z"/>
      <path id="Path_956" data-name="Path 956" d="M178.584,128.5A2.587,2.587,0,0,0,176,131.084a.646.646,0,0,0,1.292,0,1.292,1.292,0,1,1,1.292,1.292.646.646,0,0,0-.646.646v1.615a.646.646,0,0,0,1.292,0v-1.051a2.585,2.585,0,0,0-.646-5.087Z" transform="translate(-170.314 -124.349)"/>
    </g>
  </g>
</svg>
