<svg xmlns="http://www.w3.org/2000/svg" width="49.381" height="48.479" viewBox="0 0 49.381 48.479">
  <g id="Group_338" data-name="Group 338" transform="translate(0)">
    <g id="call-center-worker-with-headset" transform="translate(0 0)">
      <path id="Path_461" data-name="Path 461" d="M20.812,32.254a2.535,2.535,0,1,1-2.535-2.535A2.535,2.535,0,0,1,20.812,32.254ZM31.1,29.718a2.535,2.535,0,1,0,2.535,2.536A2.535,2.535,0,0,0,31.1,29.718ZM49.38,30.84v4.819A4.38,4.38,0,0,1,45,40.039H41.821c-3.15,8.745-11.192,14.027-17.131,14.027S10.708,48.784,7.559,40.039H4.38A4.38,4.38,0,0,1,0,35.659V30.84a4.379,4.379,0,0,1,2.3-3.853c.046-6.841,2.04-12.184,5.935-15.877,3.863-3.664,9.4-5.521,16.459-5.521s12.6,1.858,16.459,5.521c3.895,3.694,5.889,9.037,5.935,15.877A4.379,4.379,0,0,1,49.38,30.84ZM40.109,32.27c0-1.127-.058-2.186-.143-3.212-1.944-1.779-5.473-3.128-9.927-3.63a6.459,6.459,0,0,1,1.4,2.661c-2.728-2.149-8.083-1.638-12.134-6.447-.232-.269-.433-.525-.607-.76l-.006-.008h0c-.721-.975-.966-1.554-.98-.913C17.59,25.49,13.672,29.8,9.321,30.408c-.028.608-.05,1.222-.05,1.862a19.833,19.833,0,0,0,1.03,6.385c2.444,2.948,6.48,3.781,10.052,4a4.568,4.568,0,0,1,3.884-1.792c2.349,0,4.254,1.352,4.254,3.02s-1.9,3.019-4.254,3.019a4.471,4.471,0,0,1-3.963-1.929,20.945,20.945,0,0,1-7.688-1.726C16.027,48.319,21.36,51,24.69,51,29.923,51,40.109,44.389,40.109,32.27Zm4.337-5.81C44.168,14.522,37.354,8.216,24.69,8.216S5.212,14.522,4.934,26.46H6.619a21.035,21.035,0,0,1,3.9-9.877c3.151-4.054,7.92-6.11,14.175-6.11s11.024,2.056,14.175,6.11a21.036,21.036,0,0,1,3.9,9.877h1.685Z" transform="translate(0 -5.588)"/>
    </g>
  </g>
</svg>
