<svg xmlns="http://www.w3.org/2000/svg" width="165.338" height="91" viewBox="0 0 165.338 91">
  <g id="Group_2748" data-name="Group 2748" transform="translate(-264 -1885)">
    <path id="Path_2261" data-name="Path 2261" d="M45.5,0A45.5,45.5,0,1,1,0,45.5,45.5,45.5,0,0,1,45.5,0Z" transform="translate(338.338 1885)" fill="#008f8f"/>
    <path id="Path_2262" data-name="Path 2262" d="M45.5,0A45.5,45.5,0,1,1,0,45.5,45.5,45.5,0,0,1,45.5,0Z" transform="translate(264 1885)" fill="#008f8f"/>
    <g id="phone-call" transform="translate(356.229 1902.901)">
      <path id="Path_2256" data-name="Path 2256" d="M44.713,55.634a23.894,23.894,0,0,1-8.185-1.74c-6.74-2.541-14.073-7.564-20.649-14.139S4.28,25.842,1.737,19.1C-.574,12.973-.58,7.943,1.724,5.642c.331-.331.668-.687,1.016-1.054,2.1-2.21,4.476-4.7,7.623-4.585,2.169.09,4.27,1.437,6.422,4.115,6.358,7.908,3.492,10.726.174,13.993l-.586.58c-.543.543-1.568,3.056,7.971,12.6a52.9,52.9,0,0,0,7.891,6.772c1.336.868,3.726,2.182,4.706,1.2l.589-.6c3.263-3.31,6.081-6.168,13.984.185C54.192,41,55.538,43.1,55.628,45.274c.129,3.146-2.376,5.526-4.588,7.625-.365.348-.72.685-1.052,1.014A7.289,7.289,0,0,1,44.713,55.634ZM10.138,1.871C7.9,1.871,5.883,4,4.1,5.878c-.359.378-.707.745-1.05,1.087C1.331,8.679,1.5,13.183,3.488,18.443c2.451,6.5,7.322,13.6,13.716,19.99S30.692,49.694,37.191,52.144c5.26,1.987,9.764,2.156,11.476.443.342-.342.709-.69,1.087-1.048,1.922-1.826,4.1-3.9,4.006-6.192-.065-1.577-1.214-3.275-3.415-5.043-6.585-5.3-8.426-3.426-11.48-.329l-.6.6c-1.46,1.461-3.83,1.138-7.049-.954a54.638,54.638,0,0,1-8.194-7.019c-7.917-7.915-10.449-12.76-7.971-15.243l.6-.589c3.1-3.054,4.977-4.9-.32-11.486-1.772-2.2-3.467-3.348-5.045-3.415C10.236,1.871,10.187,1.871,10.138,1.871Z" transform="translate(0 0)" fill="#a4e0d6"/>
    </g>
    <g id="email" transform="translate(280.661 1901.617)">
      <g id="Group_2747" data-name="Group 2747" transform="translate(0 0)">
        <g id="Group_2746" data-name="Group 2746" transform="translate(0 0)">
          <path id="Path_2257" data-name="Path 2257" d="M57.726,22.139c0-.02-.011-.038-.012-.057a.918.918,0,0,0-.039-.2,1,1,0,0,0-.055-.166.929.929,0,0,0-.1-.144.944.944,0,0,0-.131-.152c-.015-.014-.022-.032-.038-.044l-9.25-7.186V6.745a2.886,2.886,0,0,0-2.886-2.886H34.792L30.618.618a2.855,2.855,0,0,0-3.509,0L22.934,3.859H12.507A2.886,2.886,0,0,0,9.621,6.745v7.448L.372,21.379c-.016.013-.023.031-.038.044a.945.945,0,0,0-.131.152.921.921,0,0,0-.1.144.949.949,0,0,0-.055.166.912.912,0,0,0-.039.192c0,.019-.012.037-.012.057V54.851a2.852,2.852,0,0,0,.161.909A.953.953,0,0,0,1.22,57.2a2.865,2.865,0,0,0,1.666.534H54.84a2.867,2.867,0,0,0,1.671-.542.949.949,0,0,0,1.055-1.435,2.854,2.854,0,0,0,.16-.909V22.139Zm-29.44-20a.922.922,0,0,1,1.148,0l2.22,1.723h-5.58ZM3.125,55.813,28.286,36.269a.925.925,0,0,1,1.147,0L54.6,55.813ZM55.8,54.31,30.616,34.75a2.853,2.853,0,0,0-3.506,0L1.924,54.31V23.6L17.69,35.847a.962.962,0,0,0,1.18-1.521L2.853,21.888l6.768-5.259v7.434a.962.962,0,1,0,1.924,0V6.745a.962.962,0,0,1,.962-.962H45.219a.962.962,0,0,1,.962.962V24.063a.962.962,0,1,0,1.924,0V16.629l6.768,5.259L38.827,34.348a.962.962,0,0,0,1.181,1.52L55.8,23.6Z" transform="translate(-0.001 -0.015)" fill="#a4e0d6"/>
          <path id="Path_2258" data-name="Path 2258" d="M163.087,95.768h19.242a.962.962,0,1,0,0-1.924H163.087a.962.962,0,0,0,0,1.924Z" transform="translate(-143.846 -83.265)" fill="#a4e0d6"/>
          <path id="Path_2259" data-name="Path 2259" d="M183.291,146.006a.962.962,0,0,0-.962-.962H163.087a.962.962,0,0,0,0,1.924h19.242A.962.962,0,0,0,183.291,146.006Z" transform="translate(-143.846 -128.692)" fill="#a4e0d6"/>
          <path id="Path_2260" data-name="Path 2260" d="M266.575,197.206a.962.962,0,0,0-.962-.962h-8.659a.962.962,0,0,0,0,1.924h8.659A.962.962,0,0,0,266.575,197.206Z" transform="translate(-227.13 -174.12)" fill="#a4e0d6"/>
        </g>
      </g>
    </g>
  </g>
</svg>
