<svg xmlns="http://www.w3.org/2000/svg" width="110.449" height="130.133" viewBox="0 0 110.449 130.133">
  <g id="Group_739" data-name="Group 739" transform="translate(-624.08 -1823.473)">
    <g id="beauty" transform="translate(624.08 1823.473)">
      <path id="Path_961" data-name="Path 961" d="M53.408,268.6h35.42a11.041,11.041,0,0,0,11.04-11.04V214.187a28.526,28.526,0,0,0-28.526-28.527h-.449a28.526,28.526,0,0,0-28.526,28.527v43.377a11.041,11.041,0,0,0,11.04,11.04Zm0,0" transform="translate(-42.367 -138.472)" fill="#ff9ec9"/>
      <path id="Path_962" data-name="Path 962" d="M68.989,185.973A28.755,28.755,0,0,0,51.71,212.34v21.631a17.971,17.971,0,0,0,17.971,17.97h28.4a11.233,11.233,0,0,0,1.783-.144v5.912A11.128,11.128,0,0,1,88.74,268.837H53.494A11.127,11.127,0,0,1,42.367,257.71V214.644a28.751,28.751,0,0,1,26.622-28.671Zm0,0" transform="translate(-42.367 -138.705)" fill="#ff75ac"/>
      <path id="Path_963" data-name="Path 963" d="M148.839,86.945h-6.87V99.151h6.87Zm0,0" transform="translate(-116.654 -64.847)" fill="#919191"/>
      <path id="Path_964" data-name="Path 964" d="M158.919,86.945h-3.435V99.151h3.435Zm0,0" transform="translate(-130.169 -64.847)" fill="#545353"/>
      <path id="Path_965" data-name="Path 965" d="M121.01,139.279h14.112a2.287,2.287,0,0,0,2.287-2.287V124.158a2.287,2.287,0,0,0-2.287-2.287H121.01a2.287,2.287,0,0,0-2.287,2.287v12.833A2.287,2.287,0,0,0,121.01,139.279Zm0,0" transform="translate(-99.316 -90.896)" fill="#919191"/>
      <path id="Path_966" data-name="Path 966" d="M177.429,121.871h2.048v17.408h-2.048a2.3,2.3,0,0,1-2.3-2.3v-12.8A2.3,2.3,0,0,1,177.429,121.871Zm0,0" transform="translate(-155.719 -90.896)" fill="#545353"/>
      <path id="Path_967" data-name="Path 967" d="M121.01,25.087h14.112A2.287,2.287,0,0,0,137.41,22.8V2.287A2.287,2.287,0,0,0,135.122,0H121.01a2.287,2.287,0,0,0-2.287,2.287V22.8A2.287,2.287,0,0,0,121.01,25.087Zm0,0" transform="translate(-99.316 0)" fill="#d2d2dd"/>
      <path id="Path_968" data-name="Path 968" d="M101.545,160.586h24.007a2.287,2.287,0,0,0,2.287-2.287V146.319a2.288,2.288,0,0,0-2.287-2.287H101.545a2.288,2.288,0,0,0-2.287,2.287V158.3A2.288,2.288,0,0,0,101.545,160.586Zm0,0" transform="translate(-84.798 -107.424)" fill="#d2d2dd"/>
      <path id="Path_969" data-name="Path 969" d="M183.465,144.031h5.461v16.554h-5.461a2.3,2.3,0,0,1-2.3-2.3V146.334A2.3,2.3,0,0,1,183.465,144.031Zm0,0" transform="translate(-166.701 -107.424)" fill="#919191"/>
      <path id="Path_970" data-name="Path 970" d="M29.954,38.06a1.92,1.92,0,0,0,1.358-3.277L23.919,27.39A16.044,16.044,0,0,0,12.5,22.66H1.919a1.92,1.92,0,1,0,0,3.84H12.5a12.227,12.227,0,0,1,8.7,3.6L28.6,37.5a1.91,1.91,0,0,0,1.357.562Zm0,0" transform="translate(36.395 -16.901)" fill="#727070"/>
      <path id="Path_971" data-name="Path 971" d="M171.3,0h3.6V25.087h-3.6a2.3,2.3,0,0,1-2.3-2.3V2.3A2.3,2.3,0,0,1,171.3,0Zm0,0" transform="translate(-149.594 0)" fill="#919191"/>
    </g>
    <g id="pet-shampoo" transform="translate(692.216 1853.805)">
      <ellipse id="XMLID_185_" cx="9.605" cy="9.605" rx="9.605" ry="9.605" transform="translate(6.113 0)" fill="#5fcdff"/>
      <ellipse id="XMLID_179_" cx="5.182" cy="5.182" rx="5.182" ry="5.182" transform="translate(0 26.043)" fill="#5fcdff"/>
      <ellipse id="XMLID_170_" cx="5.182" cy="5.182" rx="5.182" ry="5.182" transform="translate(22.894 49.045)" fill="#5fcdff"/>
      <ellipse id="XMLID_169_" cx="5.182" cy="5.182" rx="5.182" ry="5.182" transform="translate(31.767 36.447)" fill="#5fcdff"/>
      <ellipse id="XMLID_168_" cx="5.182" cy="5.182" rx="5.182" ry="5.182" transform="translate(15.667 26.043)" fill="#5fcdff"/>
      <ellipse id="XMLID_167_" cx="5.182" cy="5.182" rx="5.182" ry="5.182" transform="translate(5.182 48.187)" fill="#5fcdff"/>
      <ellipse id="XMLID_134_" cx="5.182" cy="5.182" rx="5.182" ry="5.182" transform="translate(30.866 14.029)" fill="#5fcdff"/>
      <path id="Path_978" data-name="Path 978" d="M184.8,199.06a7.293,7.293,0,0,1-7.291,7.295H152a6.43,6.43,0,1,1,4.319-11.185,8.656,8.656,0,0,1-.067-1.041,8.5,8.5,0,0,1,16.947-.951,7.29,7.29,0,0,1,11.6,5.881Z" transform="translate(-142.486 -121.605)" fill="#73d7f9"/>
      <path id="Path_986" data-name="Path 986" d="M166.093,32.757a9.605,9.605,0,1,1,0-18.383,9.609,9.609,0,0,0,0,18.383Z" transform="translate(-147.578 -13.96)" fill="#73d7f9"/>
      <path id="Path_987" data-name="Path 987" d="M228.039,61.124a5.182,5.182,0,1,1,0-8.723,5.183,5.183,0,0,0,0,8.723Z" transform="translate(-189.195 -37.55)" fill="#73d7f9"/>
      <path id="Path_988" data-name="Path 988" d="M145.279,93.334a5.182,5.182,0,1,1,0-8.723,5.183,5.183,0,0,0,0,8.723Z" transform="translate(-137.3 -57.747)" fill="#73d7f9"/>
      <path id="Path_989" data-name="Path 989" d="M187.283,93.334a5.182,5.182,0,1,1,0-8.723,5.179,5.179,0,0,0,0,8.723Z" transform="translate(-163.637 -57.747)" fill="#73d7f9"/>
      <path id="Path_990" data-name="Path 990" d="M159.173,152.71a5.126,5.126,0,0,1-2.8.82,5.18,5.18,0,1,1,0-10.361,5.126,5.126,0,0,1,2.8.82,5.175,5.175,0,0,0,0,8.72Z" transform="translate(-146.01 -94.981)" fill="#73d7f9"/>
      <path id="Path_991" data-name="Path 991" d="M206.663,155a5.117,5.117,0,0,1-2.8.82,5.182,5.182,0,1,1,2.8-9.544,5.179,5.179,0,0,0,0,8.723Z" transform="translate(-175.789 -96.417)" fill="#5fcdff"/>
      <path id="Path_992" data-name="Path 992" d="M185.263,201.349a7.293,7.293,0,0,1-7.291,7.295H152.466a6.429,6.429,0,0,1-6.154-4.561,10,10,0,0,1,13.9-.41,13.737,13.737,0,0,1-.1-1.626,13.248,13.248,0,0,1,9.715-12.766,8.494,8.494,0,0,1,3.834,6.187,7.29,7.29,0,0,1,11.6,5.881Z" transform="translate(-142.95 -123.894)" fill="#5fcdff"/>
      <path id="Path_993" data-name="Path 993" d="M230.453,121.23a5.126,5.126,0,0,1-2.8.82,5.18,5.18,0,1,1,0-10.361,5.126,5.126,0,0,1,2.8.82,5.175,5.175,0,0,0,0,8.72Z" transform="translate(-190.706 -75.241)" fill="#73d7f9"/>
    </g>
  </g>
</svg>
