<svg xmlns="http://www.w3.org/2000/svg" xmlns:xlink="http://www.w3.org/1999/xlink" width="332.313" height="308.092" viewBox="0 0 332.313 308.092">
  <defs>
    <linearGradient id="linear-gradient" x1="0.5" y1="1" x2="0.5" gradientUnits="objectBoundingBox">
      <stop offset="0" stop-color="gray" stop-opacity="0.251"/>
      <stop offset="0.54" stop-color="gray" stop-opacity="0.122"/>
      <stop offset="1" stop-color="gray" stop-opacity="0.102"/>
    </linearGradient>
    <linearGradient id="linear-gradient-2" x1="0.507" y1="1.003" x2="0.507" y2="0" xlink:href="#linear-gradient"/>
  </defs>
  <g id="Group_814" data-name="Group 814" transform="translate(-94.341 -33.732)">
    <g id="undraw_super_thank_you_obwk_1_" data-name="undraw_super_thank_you_obwk (1)" transform="translate(94.341 33.732)">
      <ellipse id="Ellipse_15" data-name="Ellipse 15" cx="80.278" cy="6.139" rx="80.278" ry="6.139" transform="translate(98.298 295.812)" fill="#f54242"/>
      <ellipse id="Ellipse_16" data-name="Ellipse 16" cx="80.278" cy="6.139" rx="80.278" ry="6.139" transform="translate(98.298 295.812)" opacity="0.4"/>
      <path id="Path_1072" data-name="Path 1072" d="M244.952,88c11.255-10.046,28.961-12.093,45.073-11.284,50.6,2.512,96.278,26.942,135.782,54.574,14.3,10.006,28.384,20.785,37.67,34.559,18.9,28.042,13.291,66.893-12.99,89.994-8.942,7.86-19.779,13.887-30.907,19.242-19.786,9.5-41.138,17.122-63.592,19.289-16.014,1.55-32.228.29-48.148-1.87-44.474-6.056-88.135-19.376-124.731-42.219-16.051-10.009-31.179-22.451-37.794-38.647s-2.382-36.712,14.007-46.3c6.778-3.965,14.885-5.754,22.818-7.435,11.679-2.476,23.548-4.916,34.087-9.944,10.892-5.2,23.773-15.248,21.62-26.746C235.535,108.879,233.7,98.038,244.952,88Z" transform="translate(-142.327 -58.128)" fill="#d1d1d1" opacity="0.3"/>
      <path id="Path_1074" data-name="Path 1074" d="M575.273,52.209v.65a4.222,4.222,0,0,1-.025.559v.116c0,.156-.018.312-.033.465v.134a.465.465,0,0,1,0,.073,4.154,4.154,0,0,1-.036.425c-.014.142-.025.225-.036.341-.033.28-.069.559-.113.839-.025.185-.055.363-.083.552a.141.141,0,0,0,0,.04c-.018.091-.033.182-.051.276s-.018.105-.029.16a.4.4,0,0,1-.029.145,1.836,1.836,0,0,0-.058.29c-.022.094-.04.192-.062.29s-.029.142-.047.214-.055.243-.084.363a.05.05,0,0,0,0,.022l-.065.25-.076.3c-.033.123-.069.247-.1.363a.126.126,0,0,1-.029.1l-.109.363c-.116.385-.243.77-.363,1.151l-.131.363-.076.2a25.777,25.777,0,0,1-3.54,6.361c-.087.123-.182.243-.272.363a27.1,27.1,0,0,1-2.233,2.541l-37.122,37.126L493.351,70.522a26.283,26.283,0,0,1-2.9-3.456,25.422,25.422,0,0,1-1.51-2.411,26.267,26.267,0,0,1-3.173-14.925c.04-.476.094-.951.16-1.423.116-.835.276-1.666.472-2.491.04-.167.083-.334.127-.5.022-.084.044-.171.065-.251s.025-.1.04-.152l.109-.363h0c.087-.287.174-.574.269-.86l.134-.392c.2-.555.407-1.089.639-1.648l.142-.323c.073-.163.145-.327.221-.49.123-.261.25-.523.363-.781l.033-.058h0c.058-.12.12-.232.182-.363l.214-.4c.091-.163.185-.327.279-.49.044-.076.091-.152.134-.232s.055-.084.08-.131a.161.161,0,0,0,0-.025h0c.058-.094.116-.189.178-.283s.134-.214.2-.319c.152-.236.309-.472.468-.7l.171-.243.214-.294c.073-.105.149-.207.229-.309l.276-.363c.087-.105.171-.214.254-.319l.091-.109.185-.225c.094-.116.192-.229.29-.341l.127-.149.022-.025.221-.247.247-.272c.232-.251.472-.5.726-.726l.287-.283.447-.421c.1-.091.2-.182.3-.269s.232-.211.363-.312l.232-.2c.076-.069.156-.134.232-.2a5.869,5.869,0,0,1,.472-.363l.24-.189c.4-.3.8-.6,1.216-.882l.247-.167.25-.163.236-.152.363-.218.174-.105.254-.149c.341-.2.683-.392,1.027-.574l.207-.109.32-.163.265-.131.265-.123.265-.127.269-.12.269-.116c.363-.156.726-.3,1.089-.439l.236-.145.29-.105.258-.091.218-.073.5-.16.258-.08.207-.058.2-.058q.181-.054.363-.1l.479-.123c.494-.12.991-.229,1.489-.319l.2-.036.283-.047.29-.047.363-.054.214-.029c.479-.062.958-.113,1.452-.149H513.3a2.094,2.094,0,0,1,.363.022h.247c.385.029.77.069,1.151.113l.516.069.363.051.287.047.287.047.189.033q.744.138,1.481.316l.6.156.167.047.258.073c.167.047.334.094.5.149l.218.069q.545.167,1.089.363l.247.091.323.123.487.2c.189.08.363.16.555.243l.218.094.3.142.265.123.261.131.33.167.262.138c.2.109.406.218.606.334l.254.145c.3.171.588.363.879.534l.236.152.251.163.247.167h0l.163.113c.363.243.693.5,1.035.759l.24.189c.156.123.316.251.472.363.076.062.156.127.232.2l.232.2.363.312c.1.087.2.178.3.269l.418.443.287.283.29-.283.443-.421c.1-.091.2-.182.3-.269s.232-.211.363-.312l.232-.2c.076-.069.156-.134.232-.2a5.872,5.872,0,0,1,.472-.363l.24-.189c.4-.3.8-.6,1.216-.882l.247-.167.251-.163.236-.152.345-.218.174-.105.254-.149c.341-.2.682-.392,1.028-.574l.207-.109.319-.163.265-.131.265-.123.265-.127.269-.12.269-.116c.363-.156.726-.3,1.089-.439.087-.033.178-.069.269-.1l.287-.105.261-.091.214-.073.5-.16.258-.08.207-.058.2-.058c.12-.036.24-.069.363-.1l.475-.123c.494-.12.991-.229,1.489-.319l.2-.036.283-.047.29-.047.363-.054.214-.029c.479-.062.958-.113,1.452-.149h3.34a2.094,2.094,0,0,1,.363.022h.247c.385.029.77.069,1.151.113l.516.069.363.051.287.047.287.047.189.033q.744.138,1.481.316l.6.156.167.047.258.073c.167.047.334.094.5.149l.214.069c.363.113.726.236,1.089.363l.243.091.323.123.487.2c.189.08.363.16.555.243l.218.094.3.142.265.123.261.131.33.167.265.138c.2.109.4.218.6.334l.254.145c.3.171.592.363.879.534l.236.152.251.163.247.167h.018l.164.113c.363.243.693.5,1.035.759l.239.189c.156.123.316.251.472.363.076.062.156.127.232.2l.232.2.3.269c.1.091.2.182.3.276l.17.156h0a.165.165,0,0,1,.026.025c.1.087.192.182.29.272l.131.127c.051.054.1.105.156.156l.287.294c.145.149.29.3.432.457.083.087.167.178.247.269.138.152.272.3.406.461l.428.512c.49.6.948,1.22,1.38,1.852l.174.265c.065.094.123.189.185.283l.156.243c.087.142.174.28.258.421l.229.392c.047.08.094.16.138.24l.105.189.105.189.152.287.149.287q.512,1,.929,2.044l.12.294c.113.287.218.57.32.86l.091.261c.04.123.083.247.12.363s.073.221.105.334l.065.211c.033.1.062.2.091.3s.069.251.105.363c.055.2.105.407.156.614l.076.319c.036.152.069.3.1.457a.952.952,0,0,0,.04.2c.015.065.036.174.051.261s.029.138.04.207l.033.174a.326.326,0,0,0,.029.163c.029.054,0,.105.026.16l.054.327a2.035,2.035,0,0,0,.047.327c.018.109.033.243.047.363s.029.232.04.363l.022.2c0,.12.025.24.036.363v.178c0,.123.022.247.029.363a.054.054,0,0,1,0,.025v.468a2.839,2.839,0,0,0,.018.392h0v.4A4.649,4.649,0,0,1,575.273,52.209Z" transform="translate(-361.016 -25.79)" fill="#ff6584"/>
      <path id="Path_1075" data-name="Path 1075" d="M576.536,52.209v.65a4.2,4.2,0,0,1-.025.559v.116c0,.156-.018.312-.033.465v.134a.5.5,0,0,1,0,.073,4.188,4.188,0,0,1-.036.425c-.014.142-.025.225-.036.341-.033.28-.069.559-.112.839-.025.185-.054.363-.084.552a.168.168,0,0,0,0,.04c-.018.091-.033.182-.051.276s-.018.105-.029.16a.4.4,0,0,1-.029.145,1.877,1.877,0,0,0-.058.29c-.022.094-.04.192-.062.29s-.029.142-.047.214-.055.243-.084.363a.047.047,0,0,0,0,.022l-.065.25-.076.3c-.033.123-.069.247-.1.363a.126.126,0,0,1-.029.1l-.109.363c-.116.385-.243.77-.363,1.151l-.131.363-.076.2a26.267,26.267,0,0,0-11.451-28.318q-.708-.45-1.431-.85a26.241,26.241,0,0,0-31.259,4.487,26.306,26.306,0,0,0-3.206-2.723h0a25.844,25.844,0,0,0-2.716-1.721,26.3,26.3,0,0,0-25.276,0,25.946,25.946,0,0,0-3.729,2.491,26.817,26.817,0,0,0-6.535,7.65.127.127,0,0,1,0,.033,24.936,24.936,0,0,0-1.122,2.247c-.189.421-.363.85-.526,1.278.04-.167.083-.334.127-.5.022-.084.044-.171.065-.251s.025-.1.04-.152l.109-.363h0c.087-.287.174-.574.269-.86l.134-.392c.2-.555.407-1.089.639-1.648l.142-.323c.073-.163.145-.327.221-.49.123-.261.251-.523.363-.781l.033-.058h0c.058-.12.12-.232.182-.363l.214-.4c.091-.163.185-.327.28-.49.044-.076.091-.152.134-.232s.054-.084.08-.131a.147.147,0,0,0,0-.025h0c.058-.094.116-.189.178-.283s.134-.214.2-.319c.152-.236.309-.472.468-.7l.171-.243.214-.294c.073-.105.149-.207.229-.309l.276-.363c.087-.105.171-.214.254-.319l.091-.109.185-.225c.094-.116.192-.229.29-.341l.127-.149.022-.025.221-.247.247-.272c.232-.251.472-.5.726-.726l.287-.283.447-.421c.1-.091.2-.182.3-.269s.232-.211.363-.312l.232-.2c.076-.069.156-.134.232-.2a5.881,5.881,0,0,1,.472-.363l.24-.189c.4-.3.8-.6,1.216-.882l.247-.167.251-.163.236-.152.363-.218.174-.105.254-.149c.341-.2.683-.392,1.028-.574l.207-.109.319-.163.265-.131.265-.123.265-.127.269-.12.269-.116c.363-.156.726-.3,1.089-.439l.243-.16.29-.105.258-.091.218-.073.5-.16.258-.08.207-.058.2-.058q.182-.054.363-.1l.479-.123c.494-.12.991-.229,1.489-.319l.2-.036.283-.047.29-.047.363-.054.214-.029c.479-.062.959-.113,1.452-.149h3.373a2.092,2.092,0,0,1,.363.022h.247c.385.029.77.069,1.151.113l.516.069.363.051.287.047.287.047.189.033q.744.138,1.481.316l.6.156.167.047.258.073c.167.047.334.094.5.149l.218.069q.545.167,1.089.363l.247.091.323.123.486.2c.189.08.363.16.556.243l.218.094.3.142.265.123.261.131.33.167.261.138c.2.109.407.218.606.334l.254.145c.3.171.588.363.879.534l.236.152.25.163.247.167h0l.163.113c.363.243.693.5,1.035.759l.24.189c.156.123.316.251.472.363.076.062.156.127.232.2l.232.2.363.312c.1.087.2.178.3.269l.418.443.287.283.29-.283.443-.421c.1-.091.2-.182.3-.269s.232-.211.363-.312l.232-.2c.076-.069.156-.134.232-.2a5.889,5.889,0,0,1,.472-.363l.24-.189c.4-.3.8-.6,1.216-.882l.247-.167.251-.163.236-.152.345-.218.174-.105.254-.149c.341-.2.683-.392,1.027-.574l.207-.109.319-.163.265-.131.265-.123.265-.127.269-.12.269-.116c.363-.156.726-.3,1.089-.439.087-.033.178-.069.269-.1l.287-.105.261-.091.214-.073.5-.16.258-.08.207-.058.2-.058c.12-.036.24-.069.363-.1l.476-.123c.494-.12.991-.229,1.489-.319l.2-.036.283-.047.29-.047.363-.054.214-.029c.479-.062.959-.113,1.452-.149h3.34a2.093,2.093,0,0,1,.363.022h.247c.385.029.77.069,1.151.113l.515.069.363.051.287.047.287.047.189.033q.744.138,1.481.316l.6.156.167.047.258.073c.167.047.334.094.5.149l.214.069c.363.113.726.236,1.089.363l.243.091.323.123.487.2c.189.08.363.16.555.243l.218.094.3.142.265.123.261.131.33.167.265.138c.2.109.4.218.6.334l.254.145c.3.171.592.363.879.534l.236.152.251.163.247.167h.018l.163.113c.363.243.693.5,1.035.759l.24.189c.156.123.316.251.472.363.076.062.156.127.232.2l.232.2.3.269c.1.091.2.182.3.276l.17.156h0a.167.167,0,0,1,.025.025c.1.087.193.182.291.272l.131.127c.051.054.1.105.156.156l.287.294c.145.149.29.3.432.457.084.087.167.178.247.269.138.152.272.3.407.461l.428.512c.49.6.948,1.22,1.38,1.852l.174.265c.065.094.123.189.185.283l.156.243c.087.142.174.28.258.421l.229.392c.047.08.095.16.138.24l.105.189.105.189.152.287.149.287q.512,1,.93,2.044l.12.294c.112.287.218.57.32.86l.091.261c.04.123.084.247.12.363s.073.221.105.334l.065.211c.033.1.062.2.091.3s.069.251.105.363c.054.2.105.407.156.614l.076.319c.036.152.069.3.1.457a.944.944,0,0,0,.04.2c.014.065.036.174.051.261s.029.138.04.207l.033.174a.327.327,0,0,0,.029.163c.029.054,0,.105.025.16l.055.327a2.008,2.008,0,0,0,.047.327c.018.109.033.243.047.363s.029.232.04.363l.022.2c0,.12.026.24.036.363v.178c0,.123.022.247.029.363a.056.056,0,0,1,0,.025v.468a2.849,2.849,0,0,0,.018.392h0v.4A4.649,4.649,0,0,1,576.536,52.209Z" transform="translate(-362.279 -25.79)" opacity="0.1"/>
      <path id="Path_1076" data-name="Path 1076" d="M851.823,307.41v.577a.047.047,0,0,1,0,.022v.232l-.033.258a1.292,1.292,0,0,1-.025.167h0v.134a.174.174,0,0,1,0,.044v.091a.72.72,0,0,1-.018.087v.065a.206.206,0,0,1-.025.113h0l-.022.076-.022.091-.032.113v.033a.75.75,0,0,1-.036.113c-.033.12-.073.236-.113.363a.422.422,0,0,1-.04.113.441.441,0,0,1-.026.062,7.813,7.813,0,0,1-1.06,1.935l-.083.112a7.984,7.984,0,0,1-.682.773l-11.455,11.342L826.82,312.994a8.065,8.065,0,0,1-.89-1.053,8.281,8.281,0,0,1-.461-.726,8.044,8.044,0,0,1-.969-4.556,2.958,2.958,0,0,1,.051-.436c.036-.254.083-.508.145-.759a.582.582,0,0,1,.036-.152l.022-.076v-.047l.033-.113h0c.025-.087.055-.174.083-.261s.025-.08.04-.12q.087-.258.2-.5l.043-.1.066-.149c.04-.08.076-.16.12-.236v-.018h0l.058-.105.065-.12c.026-.051.054-.1.084-.153l.044-.069.022-.04h0c0-.029.033-.058.051-.087s.044-.065.062-.1.094-.145.145-.214l.051-.076.065-.091.069-.091.087-.113.076-.1.029-.033.055-.069.091-.105.036-.044h0l.069-.076c.022-.029.051-.054.076-.083s.142-.153.218-.229l.087-.083.134-.131.091-.084.109-.094.069-.058.073-.062.142-.116.076-.058c.12-.091.243-.182.363-.269l.076-.051.073-.051.073-.044.109-.069.051-.029.08-.047c.1-.062.207-.12.312-.174l.062-.033.1-.051.08-.04.083-.04.08-.036.08-.036.083-.036.33-.134.084-.029.087-.033.08-.029.065-.022.152-.047.08-.025.062-.018.062-.018.113-.029.145-.036c.149-.04.3-.073.454-.1h.414c.145-.018.291-.036.439-.047h1.216l.363.036.16.022h.338c.153.025.3.058.454.094l.182.047h.051l.08.022.152.047.066.018c.113.036.221.073.33.116l.076.025.1.04.149.058.167.073.069.033.091.04.08.04.08.04.1.051.08.044.185.1.076.047c.091.051.181.105.269.163l.073.044.076.051.076.051h0l.051.036.316.229a.571.571,0,0,0,.073.058l.145.116.069.062.073.058.105.094.091.083.134.131a.956.956,0,0,1,.091.084.65.65,0,0,1,.087-.084l.134-.131.091-.083.105-.094.073-.058.069-.062.145-.116A.572.572,0,0,0,838.9,301l.363-.269.076-.051.076-.051.073-.043.105-.069.054-.029.076-.047c.1-.063.209-.121.316-.174l.062-.033.1-.051.08-.04.08-.04.084-.036.08-.036L840.6,300l.33-.134.083-.029.087-.033.08-.029.065-.022.152-.047.08-.025.062-.018.062-.018.109-.029.145-.036q.229-.058.457-.1h.41c.149-.018.294-.036.439-.047h1.216l.363.036a.38.38,0,0,1,.156.022h.341c.149.025.3.058.45.094l.185.047h.051l.08.022.152.047.065.018c.109.036.222.073.33.116l.073.025.1.04.149.058.171.073.065.033.091.04.083.04.08.04.1.051.083.044.181.1.08.047c.091.051.178.105.269.163l.073.043.072.051.076.051h0l.047.036q.163.109.316.229l.076.058.142.116.073.062.069.058.094.083.091.083.051.047h0l.087.084.04.036.047.047.087.091.134.138c.025.029.051.054.073.083l.127.142.131.156a6.021,6.021,0,0,1,.421.566l.055.08.054.087.047.073.08.131.069.116.044.076.033.058.029.058a.612.612,0,0,1,.047.084l.044.091c.105.2.2.41.287.621,0,.033.025.062.036.091l.1.261a.109.109,0,0,0,.025.084c.025.029.025.073.04.113a.839.839,0,0,1,.029.1l.022.062a.454.454,0,0,0,.025.094l.033.116c.018.062.033.124.047.185a.96.96,0,0,1,.025.1.973.973,0,0,0,.029.142.136.136,0,0,1,0,.058v1.053h0v.069a.465.465,0,0,0,0,.073c0,.04,0,.08,0,.12h0v.123C851.606,307.2,851.827,307.33,851.823,307.41Z" transform="translate(-576.817 -200.084)" fill="#ff6584"/>
      <path id="Path_1077" data-name="Path 1077" d="M852.447,307.359v.577a.047.047,0,0,1,0,.022v.232l-.033.258a1.348,1.348,0,0,1-.025.167h0v.134a.186.186,0,0,1,0,.044v.091a.759.759,0,0,1-.018.087c0,.022,0,.044,0,.065a.206.206,0,0,1-.025.113h0l-.022.076-.022.091-.033.113v.033a.738.738,0,0,1-.036.113c-.033.12-.073.236-.112.363a.414.414,0,0,1-.04.113.429.429,0,0,1-.025.062,7.8,7.8,0,0,0,.222-1.942,8.031,8.031,0,0,0-3.714-6.7c-.145-.094-.291-.178-.439-.261a8.034,8.034,0,0,0-7.711,0,8.367,8.367,0,0,0-.763.476,8,8,0,0,0-1.045.886,8.141,8.141,0,0,0-.98-.835h0a8.347,8.347,0,0,0-.828-.526,7.987,7.987,0,0,0-8.855.762,8.612,8.612,0,0,0-.668.6,7.919,7.919,0,0,0-.879,1.042c-.16.225-.309.457-.443.693h0a7.57,7.57,0,0,0-.341.686c-.058.131-.112.261-.16.392a.585.585,0,0,1,.036-.153l.022-.076v-.047l.033-.112h0c.025-.087.054-.174.083-.261s.025-.08.04-.12q.087-.258.2-.5l.044-.1.065-.149c.04-.08.076-.16.12-.236v-.018h0l.058-.105.065-.12c.025-.051.054-.1.083-.152l.044-.069.022-.04h0c0-.029.033-.058.051-.087s.044-.065.062-.1.094-.145.145-.214l.051-.076.065-.091.069-.091.087-.113.076-.1.029-.033.054-.069.091-.105.036-.044h0l.069-.076c.022-.029.051-.054.076-.083s.142-.152.218-.229l.087-.084.134-.131.091-.084.109-.094.069-.058.073-.062.142-.116.076-.058c.12-.091.243-.182.363-.269l.076-.051.073-.051.073-.044.109-.069.051-.029.08-.047c.1-.062.207-.12.312-.174l.062-.033.1-.051.08-.04.083-.04.08-.036.08-.036.084-.036.33-.134.084-.029.087-.033.08-.029.065-.022.153-.047.08-.025.062-.018.062-.018.113-.029.145-.036c.149-.04.3-.073.454-.1h.414c.145-.018.291-.036.439-.047h1.216l.363.036.16.022h.338c.152.025.3.058.454.094l.181.047h.051l.08.022.152.047.065.018c.113.036.221.073.33.116l.076.025.1.04.149.058.167.073.069.033.091.04.08.04.08.04.1.051.08.044.185.1.076.047c.091.051.182.105.269.163l.072.044.076.051.076.051h0l.051.036.316.229a.559.559,0,0,0,.073.058l.145.116.069.062.072.058.105.094.091.084.134.131a1,1,0,0,1,.091.084.645.645,0,0,1,.087-.084l.134-.131.091-.084.105-.094.073-.058.069-.062.145-.116a.581.581,0,0,0,.073-.058l.363-.269.076-.051.076-.051.073-.044.105-.069.055-.029.076-.047q.156-.094.316-.174l.062-.033.1-.051.08-.04.08-.04.083-.036.08-.036.083-.036.33-.134.084-.029.087-.033.08-.029.065-.022.153-.047.08-.025.062-.018.062-.018.109-.029.145-.036q.229-.058.458-.1h.41c.149-.018.294-.036.439-.047h1.216l.363.036a.379.379,0,0,1,.156.022H846c.149.025.3.058.45.094l.185.047h.051l.08.022.152.047.065.018c.109.036.221.073.33.116l.073.025.1.04.149.058.171.073.065.033.091.04.084.04.08.04.1.051.083.044.182.1.08.047c.091.051.178.105.269.163l.073.043.073.051.076.051h0l.047.036q.163.109.316.229l.076.058.142.116.073.062.069.058.095.083.091.084.051.047h0l.087.084.04.036.047.047.087.091.134.138c.026.029.051.054.073.083l.127.142.131.156a6.056,6.056,0,0,1,.421.566l.054.08.055.087.047.073.08.131.069.116.044.076.033.058.029.058a.607.607,0,0,1,.047.083l.044.091c.105.2.2.41.287.621,0,.033.025.062.036.091l.1.261a.108.108,0,0,0,.025.084c.025.029.025.073.04.113a.806.806,0,0,1,.029.1l.022.062a.459.459,0,0,0,.025.094l.033.116c.018.062.032.123.047.185a.959.959,0,0,1,.025.1.987.987,0,0,0,.029.142.138.138,0,0,1,0,.058V306.7h0v.069a.466.466,0,0,0,0,.073v.12h0v.123C852.359,307.123,852.45,307.279,852.447,307.359Z" transform="translate(-577.44 -200.033)" opacity="0.1"/>
      <path id="Path_1078" data-name="Path 1078" d="M707.406,265.93v.741a.975.975,0,0,1,0,.1.693.693,0,0,1-.033.258c-.033.083,0,.112-.025.167h0a.679.679,0,0,1,0,.083.3.3,0,0,1,0,.051v.131l-.022.087a.4.4,0,0,1,0,.065,1.038,1.038,0,0,1-.025.113h0a.589.589,0,0,0,0,.076.912.912,0,0,0-.025.094l-.033.113a.08.08,0,0,1,0,.029l-.033.116c-.036.116-.072.236-.116.363a.333.333,0,0,1-.04.109l-.022.062a7.99,7.99,0,0,1-1.064,1.939l-.083.109a7.979,7.979,0,0,1-.679.777l-11.331,11.327-11.331-11.327a8.045,8.045,0,0,1-.886-1.056,7.775,7.775,0,0,1-.465-.726,7.988,7.988,0,0,1-.966-4.553,3.5,3.5,0,0,1,.047-.436c.036-.258.084-.508.145-.762a.53.53,0,0,1,.04-.149.518.518,0,0,1,.018-.08.2.2,0,0,1,0-.044l.033-.116h0c.025-.087.051-.174.08-.261l.044-.12c.058-.171.123-.338.193-.5l.044-.1c.022-.051.044-.1.069-.149s.076-.16.116-.24V262.2h0l.055-.109.065-.12.087-.149a.735.735,0,0,1,.04-.073l.025-.04h0l.054-.087c.018-.033.04-.065.062-.1l.142-.214.055-.073.065-.091.069-.094.084-.112a1.015,1.015,0,0,1,.08-.094.322.322,0,0,1,.025-.036l.058-.065.087-.105.04-.047h0l.065-.076.076-.083.218-.225.087-.087.138-.127a.988.988,0,0,1,.091-.083l.105-.094.073-.062.069-.058.145-.116.073-.058c.12-.094.247-.185.363-.269l.076-.051.076-.051.073-.047.105-.065.051-.033.08-.047c.1-.058.207-.12.312-.174l.065-.033-.007-.083.08-.04.08-.036.08-.04.084-.036.08-.036.334-.134.08-.029.087-.033.08-.025.069-.022.152-.051.076-.022.065-.018.062-.018L686,258.1l.145-.036.454-.1h.414c.145-.018.294-.033.439-.044h1.216a3.307,3.307,0,0,1,.363.033l.156.022h.338c.152.029.305.062.454.1l.185.047h.051a.6.6,0,0,1,.076.022l.153.044.069.022.327.112.076.029.1.036.149.062.171.073.065.029.091.044.08.036.08.04.1.051.08.044.185.1.08.044.265.163.072.047.076.051.076.051h0l.051.033c.109.076.214.152.316.232a.553.553,0,0,1,.073.058c.051.036.1.076.145.116l.073.058.069.062.105.094a1,1,0,0,1,.091.083l.138.127.087.087.087-.087.134-.127.091-.083.109-.094.069-.062.073-.058c.047-.04.094-.08.145-.116a.548.548,0,0,1,.073-.058c.12-.094.243-.185.363-.269l.076-.051.076-.051.069-.047.109-.065.051-.033.08-.047c.1-.058.207-.12.312-.174l.062-.033.1-.051.083-.04.08-.036.08-.04.083-.036.08-.036.331-.134.083-.029.087-.033.08-.025.065-.022.153-.051.08-.022.062-.018.062-.018.112-.033.145-.036c.152-.036.3-.069.454-.1h.414c.145-.018.291-.033.439-.044H700l.363.033.156.022h.338c.153.029.3.062.454.1l.185.047h.047a.508.508,0,0,1,.08.022l.153.044.065.022.33.112.076.029.1.036.149.062.171.073.065.029.091.044.08.036.08.04.1.051.08.044.185.1.076.044.269.163.073.047.076.051.076.051h0l.051.033.316.232.073.058.145.116.069.058.072.062.091.08.094.083.051.051h0l.091.083.04.04.047.047.087.087.131.142.076.083c.044.044.084.091.124.138l.131.156a6.577,6.577,0,0,1,.421.566l.054.08.054.087a.871.871,0,0,1,.047.076c.029.04.054.083.08.127s.047.08.069.12l.044.073.033.058.033.058.044.087c0,.029.032.058.047.087.105.2.2.414.283.624a.682.682,0,0,1,.036.091c.036.087.069.174.1.261a.235.235,0,0,0,.029.08l.036.113.033.1a.091.091,0,0,0,.018.065c.018.022,0,.062.029.091l.033.116a.9.9,0,0,0,.047.189l.022.1.033.138v.062a.5.5,0,0,1,0,.08.335.335,0,0,1,0,.062.262.262,0,0,1,0,.055v.1a.846.846,0,0,1,0,.1.911.911,0,0,1,0,.1.23.23,0,0,0,.018.109v.446h0v.265h0v.12C707.406,265.763,707.406,265.843,707.406,265.93Z" transform="translate(-484.922 -173.638)" fill="#ff6584"/>
      <path id="Path_1079" data-name="Path 1079" d="M707.541,265.93v.741a.943.943,0,0,1,0,.1.691.691,0,0,1-.033.258c-.033.083,0,.112-.026.167h0a.679.679,0,0,1,0,.083.253.253,0,0,1,0,.051v.131l-.022.087a.416.416,0,0,1,0,.065.984.984,0,0,1-.025.113h0a.663.663,0,0,0,0,.076.926.926,0,0,0-.025.094l-.033.113a.089.089,0,0,1,0,.029l-.033.116c-.036.116-.072.236-.116.363a.33.33,0,0,1-.04.109l-.022.062a8.021,8.021,0,0,0-3.5-8.641c-.142-.091-.287-.178-.436-.258a8.02,8.02,0,0,0-7.715,0,7.139,7.139,0,0,0-.759.476,7.725,7.725,0,0,0-1.049.882,8.192,8.192,0,0,0-.98-.835h0a8.845,8.845,0,0,0-11.382,1.877,8.2,8.2,0,0,0-.439.693h0c-.123.225-.24.454-.341.686-.058.127-.109.258-.16.388a.532.532,0,0,1,.04-.149.5.5,0,0,1,.018-.08.179.179,0,0,1,0-.044l.032-.116h0c.026-.087.051-.174.08-.261l.044-.12c.058-.171.124-.338.192-.5l.044-.1c.022-.051.044-.1.069-.149s.076-.16.116-.24v-.018h0l.054-.109.065-.12.087-.149a.688.688,0,0,1,.04-.073l.025-.04h0l.054-.087c.018-.033.04-.065.062-.1l.142-.214.054-.073.065-.091.069-.094.083-.113a.979.979,0,0,1,.08-.094.313.313,0,0,1,.025-.036l.058-.065.087-.105.04-.047h0l.065-.076.076-.084.218-.225.087-.087.138-.127a1.069,1.069,0,0,1,.091-.084l.105-.094.073-.062.069-.058.145-.116.072-.058c.12-.094.247-.185.363-.269l.076-.051.076-.051.073-.047.105-.065.051-.033.08-.047c.1-.058.207-.12.312-.174l.065-.033.138-.062.08-.04.08-.036.08-.04.083-.036.08-.036.334-.134.08-.029.087-.033.08-.025.069-.022.152-.051.076-.022.065-.018.062-.018.109-.033.145-.036.454-.1h.414c.145-.018.294-.033.439-.044H688.8a3.313,3.313,0,0,1,.363.033l.156.022h.338c.152.029.305.062.454.1l.185.047h.051a.6.6,0,0,1,.076.022l.152.044.069.022.327.112.076.029.1.036.149.062.171.073.065.029.091.044.08.036.08.04.1.051.08.044.185.1.08.044.265.163.073.047.076.051.076.051h0l.051.033c.109.076.214.152.316.232a.557.557,0,0,1,.072.058c.051.036.1.076.145.116l.073.058.069.062.105.094a1,1,0,0,1,.091.083l.138.127.087.087.087-.087.134-.127.091-.083.109-.094.069-.062.072-.058c.047-.04.094-.08.145-.116a.555.555,0,0,1,.073-.058c.12-.094.243-.185.363-.269l.076-.051.076-.051.069-.047.109-.065.051-.033.08-.047c.1-.058.207-.12.312-.174l.062-.033.1-.051.083-.04.08-.036.08-.04.083-.036.08-.036.33-.134.084-.029.087-.033.08-.025.065-.022.153-.051.08-.022.062-.018.062-.018.113-.033.145-.036c.153-.036.3-.069.454-.1h.414c.145-.018.29-.033.439-.044h1.216l.363.033.156.022h.337c.153.029.3.062.454.1l.185.047h.047a.51.51,0,0,1,.08.022l.152.044.065.022.33.112.076.029.1.036.149.062.171.073.065.029.091.044.08.036.08.04.1.051.08.044.185.1.076.044.269.163.072.047.076.051.076.051h0l.051.033.316.232.073.058.145.116.069.058.073.062.091.08.095.083.051.051h0l.091.083.04.04.047.047.087.087.131.142.076.083c.044.044.084.091.124.138l.131.156a6.564,6.564,0,0,1,.421.566l.055.08.054.087a.886.886,0,0,1,.047.076c.029.04.054.083.08.127s.047.08.069.12l.044.073.033.058.033.058.043.087c0,.029.033.058.047.087.105.2.2.414.283.624a.658.658,0,0,1,.036.091q.055.131.1.261a.235.235,0,0,0,.029.08l.036.113.033.1a.09.09,0,0,0,.018.065c.018.022,0,.062.029.091l.033.116a.9.9,0,0,0,.047.189l.022.1.033.138v.062a.563.563,0,0,1,0,.08.385.385,0,0,1,0,.062.3.3,0,0,1,0,.055v.1a.971.971,0,0,1,0,.1,1.009,1.009,0,0,1,0,.1.234.234,0,0,0,.018.109v.446h0v.265h0v.12C707.541,265.763,707.541,265.843,707.541,265.93Z" transform="translate(-485.057 -173.638)" opacity="0.1"/>
      <path id="Path_1080" data-name="Path 1080" d="M412.324,287.907a.442.442,0,0,1,0,.069v.657a.994.994,0,0,1,0,.105,1.558,1.558,0,0,1-.033.258c-.015.087,0,.112-.025.167h0a.587.587,0,0,1,0,.084v.185l-.022.087a.409.409,0,0,1,0,.065.184.184,0,0,1-.025.113h0a.563.563,0,0,0-.018.076.886.886,0,0,0-.026.091l-.033.113a.1.1,0,0,1,0,.033l-.033.113c-.036.12-.073.236-.116.363a1.014,1.014,0,0,1-.04.113l-.022.062a7.953,7.953,0,0,1-1.064,1.935l-.083.113a7.958,7.958,0,0,1-.679.773l-11.331,11.331L387.444,293.48a8.09,8.09,0,0,1-.889-1.053c-.167-.24-.319-.487-.461-.726a8.012,8.012,0,0,1-.966-4.556,3.542,3.542,0,0,1,.047-.436c.036-.254.083-.508.145-.759a.774.774,0,0,1,.036-.152l.022-.076a.234.234,0,0,1,0-.047.43.43,0,0,1,.029-.113h0c.026-.087.051-.174.08-.261s.029-.08.04-.12q.091-.258.2-.5l.044-.1c.022-.047.044-.1.069-.149s.076-.16.116-.236v-.018h0l.054-.105.065-.12.087-.152.04-.069.026-.04h0l.054-.087c.018-.033.04-.065.062-.1l.142-.214.054-.076.065-.091c.022-.029.044-.062.069-.091a1.278,1.278,0,0,1,.084-.113l.08-.1.025-.033.054-.069.091-.105.04-.044h0l.065-.076.076-.083.218-.229.087-.084.138-.131.091-.084.105-.094.073-.058.069-.062.145-.116.073-.058c.12-.091.243-.182.363-.269l.076-.051.076-.051.073-.043a1.041,1.041,0,0,1,.105-.069l.051-.029.08-.047c.1-.062.207-.12.312-.174l.065-.036.033-.051.08-.04.08-.04.08-.036.084-.036.08-.036.334-.134.08-.029.087-.033.08-.029.069-.022.152-.047.076-.025.065-.018h.062l.109-.029.145-.036c.152-.04.3-.073.454-.1h.24l.109-.018h.065c.145,0,.294-.036.439-.047h1.205l.363.036.156.018.105.018h.232c.152.025.3.058.454.094l.185.047h.051l.076.022.153.047.065.018c.112.036.221.073.33.116l.076.025.1.04.149.058.171.073.065.033.091.04.08.04.08.04.1.051.08.044.185.1.076.047c.091.051.182.105.269.163l.073.044.076.051.076.051h0a.26.26,0,0,1,.051.036q.16.109.316.229l.073.058.145.116.069.062.073.058.105.094.091.083.138.131.087.083.087-.083.134-.131.091-.083.109-.094.069-.058.073-.062.145-.116.073-.058c.12-.091.243-.182.363-.269l.076-.051.076-.051.069-.044.109-.069.051-.029.08-.047c.1-.062.207-.12.312-.174a.358.358,0,0,0,.062-.036l.1-.047.08-.04.083-.04.08-.036.083-.036.08-.036.33-.134.084-.029.087-.033.08-.029.065-.022.153-.047.08-.025.062-.018h.062l.113-.029.145-.036c.149-.04.3-.073.454-.1h.236l.113-.018h.065c.145,0,.29-.036.439-.047h1.216l.363.036.16.018.105.018h.232c.152.025.3.058.454.094l.182.047h.051l.08.022.153.047.065.018c.112.036.221.073.33.116l.076.025.1.04.149.058.167.073.069.033.091.04.08.04.08.04.1.051.08.044.185.1.076.047c.091.051.182.105.269.163l.073.044.076.051.076.051h0l.051.036.316.229.073.058.145.116.069.062.073.058.091.084a1,1,0,0,1,.091.083l.054.047h0l.091.084.036.036.051.047.087.091.131.138.076.084.123.142.131.156a6,6,0,0,1,.421.566l.054.08.054.087a.494.494,0,0,1,.047.073c.029.044.054.087.08.131l.069.116.044.076.033.058.033.058.044.084c.018.029.033.062.047.091a6.8,6.8,0,0,1,.283.621l.036.091q.054.131.1.261l.029.083a.508.508,0,0,0,.036.113l.033.1a.078.078,0,0,0,.018.062l.029.094a1.111,1.111,0,0,1,.029.116c.018.062.033.123.051.185l.022.1.033.142v.058a.623.623,0,0,1,0,.08.417.417,0,0,1,0,.065.218.218,0,0,1,0,.051v.2a.86.86,0,0,1,0,.1v.113a.993.993,0,0,1,0,.105v.229q0,.056,0,.113h0a.441.441,0,0,0,0,.069v.192h0v.123C412.157,287.715,412.324,287.827,412.324,287.907Z" transform="translate(-296.959 -187.657)" fill="#ff6584"/>
      <path id="Path_1081" data-name="Path 1081" d="M412.485,287.907a.458.458,0,0,1,0,.069v.657a1.027,1.027,0,0,1,0,.105,1.565,1.565,0,0,1-.033.258c-.014.087,0,.112-.025.167h0a.562.562,0,0,1,0,.084v.185l-.022.087a.432.432,0,0,1,0,.065.183.183,0,0,1-.025.113h0a.572.572,0,0,0-.018.076.856.856,0,0,0-.025.091l-.033.113a.107.107,0,0,1,0,.033l-.033.113c-.036.12-.073.236-.116.363a1,1,0,0,1-.04.113l-.022.062a7.822,7.822,0,0,0-3.634-8.623c-.142-.094-.29-.178-.436-.261a8.041,8.041,0,0,0-7.715,0,7.827,7.827,0,0,0-.759.476,8.019,8.019,0,0,0-1.049.886,7.853,7.853,0,0,0-.98-.835h0a7.973,7.973,0,0,0-8.543-.527,7.781,7.781,0,0,0-1.136.763,8,8,0,0,0-.672.6,7.9,7.9,0,0,0-.879,1.042,8.2,8.2,0,0,0-.439.693h0c-.124.225-.24.454-.341.686-.058.131-.109.261-.16.392a.774.774,0,0,1,.036-.152l.022-.076a.226.226,0,0,1,0-.047.43.43,0,0,1,.029-.113h0c.025-.087.051-.174.08-.261s.029-.08.04-.12q.091-.258.2-.5l.044-.1c.022-.047.044-.1.069-.149s.076-.16.116-.236v-.018h0l.055-.105.065-.12.087-.152.04-.069.025-.04h0l.054-.087c.018-.033.04-.065.062-.1l.142-.214.054-.076.065-.091c.022-.029.043-.062.069-.091a1.284,1.284,0,0,1,.083-.113l.08-.1.025-.033.054-.069.091-.105.04-.044h0l.065-.076.076-.083.218-.229.087-.084.138-.131.091-.084.105-.094.073-.058.069-.062.145-.116.073-.058c.12-.091.243-.182.363-.269l.076-.051.076-.051.073-.043a1.042,1.042,0,0,1,.105-.069l.051-.029.08-.047c.1-.062.207-.12.312-.174l.065-.036.163-.051.08-.04.08-.04.08-.036.083-.036.08-.036.334-.134.08-.029.087-.033.08-.029.069-.022.153-.047.076-.025.065-.018h.062l.109-.029.145-.036c.152-.04.3-.073.454-.1h.24l.109-.018h.065c.145,0,.294-.036.439-.047h1.205l.363.036.156.018.105.018h.232c.152.025.3.058.454.094l.185.047h.051l.076.022.153.047.065.018c.113.036.221.073.33.116l.076.025.1.04.149.058.171.073.065.033.091.04.08.04.08.04.1.051.08.044.185.1.076.047c.091.051.182.105.269.163l.073.044.076.051.076.051h0a.262.262,0,0,1,.051.036q.16.109.316.229l.073.058.145.116.069.062.073.058.105.094.091.083.138.131.087.083.087-.083.134-.131.091-.083.109-.094.069-.058.073-.062.145-.116.073-.058c.12-.091.243-.182.363-.269l.076-.051.076-.051.069-.044.109-.069.051-.029.08-.047c.1-.062.207-.12.312-.174a.358.358,0,0,0,.062-.036l.1-.047.08-.04.083-.04.08-.036.083-.036.08-.036.33-.134.084-.029.087-.033.08-.029.065-.022.153-.047.08-.025.062-.018h.062l.113-.029.145-.036c.149-.04.3-.073.454-.1h.236l.113-.018h.065c.145,0,.29-.036.439-.047h1.216l.363.036.16.018.105.018h.232c.152.025.3.058.454.094l.182.047h.051l.08.022.153.047.065.018c.113.036.221.073.33.116l.076.025.1.04.149.058.167.073.069.033.091.04.08.04.08.04.1.051.08.044.185.1.076.047c.091.051.182.105.269.163l.073.044.076.051.076.051h0l.051.036.316.229.073.058.145.116.069.062.073.058.091.084a.974.974,0,0,1,.091.083l.055.047h0l.091.084.036.036.051.047.087.091.131.138.076.084.123.142.131.156a6.009,6.009,0,0,1,.421.566l.054.08.054.087a.5.5,0,0,1,.047.073c.029.044.054.087.08.131l.069.116.044.076.033.058.033.058.044.084c.018.029.033.062.047.091a6.8,6.8,0,0,1,.283.621l.036.091q.055.131.1.261l.029.083a.507.507,0,0,0,.036.113l.033.1a.078.078,0,0,0,.018.062l.029.094a1.081,1.081,0,0,1,.029.116c.018.062.033.123.051.185l.022.1.033.142v.058a.612.612,0,0,1,0,.08.41.41,0,0,1,0,.065.218.218,0,0,1,0,.051v.2a.921.921,0,0,1,0,.1v.113q0,.053,0,.105v.229a1.1,1.1,0,0,1,0,.113h0a.441.441,0,0,0,0,.069v.192h0v.123C412.318,287.715,412.485,287.827,412.485,287.907Z" transform="translate(-297.12 -187.657)" opacity="0.1"/>
      <path id="Path_1082" data-name="Path 1082" d="M402.648,447.173v.127a.488.488,0,0,1,0,.073v.389a.05.05,0,0,1,0,.022v.232l-.033.258a.384.384,0,0,1-.025.167h0v.131a.182.182,0,0,1,0,.043.663.663,0,0,1-.018.091.727.727,0,0,1-.018.087v.065a.207.207,0,0,1-.025.113h0l-.022.076-.022.094-.033.112v.029a.913.913,0,0,1-.036.116c-.033.116-.073.236-.113.363l-.04.109a.316.316,0,0,1-.025.062,7.84,7.84,0,0,1-1.06,1.939l-.084.109a7.977,7.977,0,0,1-.683.773l-11.327,11.331-11.331-11.331a8.083,8.083,0,0,1-.889-1.053,8.3,8.3,0,0,1-.461-.726,7.987,7.987,0,0,1-.966-4.556,2.842,2.842,0,0,1,.047-.432c.036-.258.083-.508.145-.762a.581.581,0,0,1,.036-.153l.022-.076v-.044l.033-.116h0c.029-.087.054-.174.083-.261l.04-.12c.062-.171.123-.338.2-.5l-.054-.1.065-.149c.04-.08.076-.16.12-.24v-.018h0l.058-.105.065-.12c.025-.051.054-.1.083-.149l.044-.073.022-.04h0c0-.029.033-.058.051-.087s.044-.065.062-.1l.145-.214c.018-.026.033-.051.051-.073l.065-.091.069-.094.087-.112.076-.1.029-.033.054-.069.091-.105.04-.044h0l.069-.076.105-.091c.069-.076.142-.152.218-.225l.087-.087.134-.131.091-.08.109-.094.069-.062.073-.058c.047-.04.094-.08.145-.116a.573.573,0,0,1,.073-.058c.12-.094.243-.185.363-.269l.076-.051a.564.564,0,0,1,.076-.051l.069-.047.109-.065.051-.033.08-.047c.1-.062.207-.12.312-.174l.062-.033.1-.051.08-.04.083-.036.08-.04.08-.036.084-.036.33-.134.083-.029.087-.033.08-.025.065-.022.152-.051.08-.025.062-.018h.062l.113-.033.145-.036c.149-.036.3-.069.454-.1h.414c.145-.018.29-.033.439-.044h1.205l.363.033.16.022h.338c.153.025.3.058.454.094l.182.051h.051l.08.025.152.044.065.022c.113.033.221.073.33.112l.076.029.1.036.149.062.167.073.069.029.091.044.08.036.08.04.1.051.08.044.185.1.076.044c.091.054.182.105.269.163l.073.047.076.051.076.051h0l.051.033.316.232.073.058.145.116.069.058.073.062.105.094.091.08.134.131.091.087.087-.087.134-.131.091-.08.105-.094.073-.062.069-.058.145-.116.073-.058c.123-.094.247-.185.363-.269l.076-.051.076-.051.073-.047.105-.065.054-.033.076-.047.316-.174.062-.033.1-.051.08-.04.08-.036.083-.04.08-.036.083-.036.33-.134.083-.029.087-.033.08-.026.065-.022.152-.051.08-.025.062-.018h.062l.109-.033.149-.036c.149-.036.3-.069.454-.1h.41l.439-.044h1.205a3.211,3.211,0,0,1,.363.033l.156.022h.341c.153.025.3.058.45.094l.185.051h.051l.08.026.152.044.065.022c.109.033.221.073.33.113l.073.029.1.036.149.062.171.073.065.029.091.044.083.036.08.04.1.051.08.044c.062.033.124.065.182.1l.08.044.269.163.073.047.076.051.073.051h0l.047.033c.109.076.214.153.316.232l.076.058.142.116.073.058.069.062.094.08.091.083.051.051h0l.087.084.04.04.047.047.087.087.134.142.076.08.123.142.131.156a6.534,6.534,0,0,1,.421.566l.054.08.054.087.047.076.08.127.069.12.044.073.033.058c0,.018.018.04.029.058s.033.058.047.087.029.058.047.087c.1.2.2.414.283.625,0,.029.025.058.036.091l.1.261.025.08a.349.349,0,0,0,.04.113.626.626,0,0,1,.029.1l.022.065.025.091.033.116c.018.062.033.124.047.189a.982.982,0,0,1,.025.1,1.044,1.044,0,0,0,.029.138v1.111h0v.073a.488.488,0,0,0,0,.073v.12h0v.123C402.452,446.991,402.652,447.093,402.648,447.173Z" transform="translate(-290.786 -289.11)" fill="#ff6584"/>
      <path id="Path_1083" data-name="Path 1083" d="M402.886,447.173v.127a.488.488,0,0,1,0,.073v.389a.047.047,0,0,1,0,.022v.232l-.033.258a.383.383,0,0,1-.025.167h0v.131a.175.175,0,0,1,0,.043.664.664,0,0,1-.018.091.715.715,0,0,1-.018.087v.065a.207.207,0,0,1-.025.113h0l-.022.076-.022.094-.033.112v.029a.911.911,0,0,1-.036.116c-.033.116-.073.236-.112.363l-.04.109a.316.316,0,0,1-.025.062,7.78,7.78,0,0,0,.221-1.942,7.878,7.878,0,0,0-.272-2.015,8.049,8.049,0,0,0-3.442-4.683c-.145-.091-.29-.178-.439-.258a8.012,8.012,0,0,0-7.711,0,11.4,11.4,0,0,0-1.9,1.361,8.126,8.126,0,0,0-.98-.835h0a8.359,8.359,0,0,0-.828-.523,8.02,8.02,0,0,0-8.855.759,8.575,8.575,0,0,0-.668.6,7.908,7.908,0,0,0-.879,1.042,7.388,7.388,0,0,0-.439.693h0a7.554,7.554,0,0,0-.341.686c-.058.127-.113.258-.16.388a.576.576,0,0,1,.036-.152l.022-.076v-.044l.033-.116h0c.029-.087.054-.174.083-.261l.04-.12c.062-.171.123-.338.2-.5l.033-.083.065-.149.12-.24v-.018h0l.058-.105.065-.12c.025-.051.055-.1.084-.149l.044-.073.022-.04h0c0-.029.033-.058.051-.087s.044-.065.062-.1l.145-.214c.018-.026.033-.051.051-.073l.065-.091.069-.094.087-.112.076-.1.029-.033.054-.069.091-.105.04-.044h0l.069-.076.105-.091c.069-.076.141-.152.218-.225l.087-.087.134-.131.091-.08.109-.094.069-.062.073-.058c.047-.04.094-.08.145-.116a.562.562,0,0,1,.073-.058c.12-.094.243-.185.363-.269l.076-.051a.56.56,0,0,1,.076-.051l.069-.047.109-.065.051-.033.08-.047c.1-.062.207-.12.312-.174l.062-.033.1-.051.08-.04.083-.036.08-.04.08-.036.083-.036.33-.134.083-.029.087-.033.08-.025.065-.022.152-.051.08-.025.062-.018h.062l.113-.033.145-.036c.149-.036.3-.069.454-.1h.414c.145-.018.29-.033.439-.044h1.205l.363.033.16.022h.338c.152.025.3.058.454.094l.181.051h.051l.08.025.153.044.065.022c.112.033.221.073.33.112l.076.029.1.036.149.062.167.073.069.029.091.044.08.036.08.04.1.051.08.044.185.1.076.044c.091.054.182.105.269.163l.073.047.076.051.076.051h0l.051.033.316.232.073.058.145.116.069.058.073.062.105.094.091.08.134.131.091.087.087-.087.134-.131.091-.08.105-.094.073-.062.069-.058.145-.116.073-.058c.123-.094.247-.185.363-.269l.076-.051.076-.051.073-.047.105-.065.054-.033.076-.047.316-.174L391.2,440l.1-.051.08-.04.08-.036.084-.04.08-.036.083-.036.33-.134.084-.029.087-.033.08-.026.065-.022.152-.051.08-.025.062-.018h.062l.109-.033.149-.036c.149-.036.3-.069.454-.1h.41l.439-.044h1.205a3.206,3.206,0,0,1,.363.033l.156.022h.341c.153.025.3.058.45.094l.185.051h.051l.08.026.152.044.065.022c.109.033.221.073.33.113l.073.029.1.036.149.062.171.073.065.029.091.044.083.036.08.04.1.051.08.044c.062.033.123.065.181.1l.08.044.269.163.073.047.076.051.073.051h0l.047.033c.109.076.214.153.316.232l.076.058.142.116.073.058.069.062.094.08.091.083.051.051h0l.087.084.04.04.047.047.087.087.134.142.076.08.123.142.131.156a6.51,6.51,0,0,1,.421.566l.054.08.054.087.047.076.08.127.069.12.044.073.033.058c0,.018.018.04.029.058s.033.058.047.087.029.058.047.087c.1.2.2.414.283.625,0,.029.025.058.036.091l.1.261.025.08a.348.348,0,0,0,.04.113.632.632,0,0,1,.029.1l.022.065.025.091.033.116c.018.062.033.124.047.189a.982.982,0,0,1,.025.1,1.054,1.054,0,0,0,.029.138v1.111h0v.073a.505.505,0,0,0,0,.073v.12h0v.123C402.69,446.991,402.889,447.093,402.886,447.173Z" transform="translate(-291.024 -289.11)" opacity="0.1"/>
      <path id="Path_1084" data-name="Path 1084" d="M499.874,349.015v.091a.218.218,0,0,1,0,.047v.381a.555.555,0,0,1,0,.073l-.022.182-.022.116h0v.058a.134.134,0,0,1,0,.036v.2c0,.027,0,.053,0,.08h0v.051a.1.1,0,0,1-.018.069l-.022.08v.018l-.022.083c-.025.084-.054.167-.083.247s0,.054-.025.08l-.018.044a5.728,5.728,0,0,1-.748,1.369l-.062.076a5.248,5.248,0,0,1-.479.548l-8.005,8.005-8.005-8.005a5.679,5.679,0,0,1-1.637-4.484,2.3,2.3,0,0,1,.036-.309,5.315,5.315,0,0,1,.1-.534.589.589,0,0,1,.025-.109.3.3,0,0,0,0-.055v-.033l.022-.08h0c.018-.065.04-.127.058-.185l.029-.087c.044-.12.087-.236.138-.363l.033-.069c0-.036.029-.069.047-.105l.08-.167h0a.783.783,0,0,0,.04-.076l.047-.084a1.011,1.011,0,0,1,.062-.105.234.234,0,0,1,.029-.051v-.029h0l.04-.058.044-.069.1-.152.036-.054.044-.062.051-.069.062-.076a.506.506,0,0,1,.054-.069l.018-.025.04-.047c.022-.025.04-.051.062-.073l.029-.033h0l.047-.051.055-.062.152-.16.062-.062.1-.091a.467.467,0,0,0,.062-.058l.076-.065.051-.044.051-.04.1-.083.051-.04.261-.192.055-.036.055-.033.051-.033.073-.047.04-.022.055-.033c.073-.044.145-.087.221-.124l.044-.025.069-.036.058-.025.058-.029.055-.026.058-.025.058-.026.236-.094.058-.022.062-.022.054-.022h.047l.109-.036h.142l.08-.022.1-.025c.109-.029.214-.051.323-.069h.291c.1,0,.207-.025.309-.033h.86l.247.025h.352c.105.018.214.04.319.065l.131.036h.091l.109.029h.043l.236.08.051.022.069.025.105.044.12.051.047.022.065.029.058.029.054.025.073.036.055.033.131.069.054.033.192.116.051.033.051.033.055.036h0l.036.025c.076.051.149.105.221.163l.051.04.105.084.047.04.051.043.076.065.065.058a1.153,1.153,0,0,0,.094.091l.062.062.062-.062a1.114,1.114,0,0,0,.094-.091l.065-.058.076-.065.051-.043.047-.04.105-.084.051-.04c.083-.065.171-.131.261-.192l.054-.036.051-.033.051-.033.076-.047.036-.022.054-.033c.076-.044.149-.087.225-.123l.044-.025.069-.036.054-.025.058-.029.058-.025.058-.025.058-.026.232-.094.058-.022.062-.022.058-.022h.047l.105-.036h.145l.076-.022.105-.025c.105-.029.214-.051.32-.069h.294c.1,0,.2-.025.309-.033h.86l.247.025h.352l.316.065.131.036h.094l.105.029h.047l.232.08.054.022.069.025.105.044.12.051.047.022.062.029.058.029.058.025.069.036.058.033.131.069.054.033c.065.036.127.076.189.116l.051.033.054.033.055.036h0l.033.025c.076.051.153.105.225.163l.051.04a1.133,1.133,0,0,1,.1.083l.051.04.051.044.065.058.065.058.036.036h0l.062.062.025.025.036.033.062.065.094.1.051.058.087.1.094.113c.105.127.2.261.3.4l.036.054c0,.022.025.044.04.062l.033.054c.018.029.04.058.058.091l.047.083a.385.385,0,0,1,.029.051l.025.04.022.044.033.062.033.062c.073.142.138.29.2.439l.026.065c.025.062.047.12.069.185a.317.317,0,0,1,.018.054.09.09,0,0,0,.029.08l.022.073a.339.339,0,0,0,0,.047.091.091,0,0,0,.018.065l.022.08a.589.589,0,0,0,.036.131c.011.044,0,.047,0,.073l.022.1v.1a.173.173,0,0,0,0,.044v.327a.566.566,0,0,1,0,.076v.04a.528.528,0,0,0,0,.08.146.146,0,0,0,0,.04v.08h0a.262.262,0,0,1,0,.051.244.244,0,0,1,0,.051.714.714,0,0,1,0,.087h0a.715.715,0,0,1,0,.087Z" transform="translate(-357.843 -228.103)" fill="#ff6584"/>
      <path id="Path_1085" data-name="Path 1085" d="M500.215,348.976v.091a.217.217,0,0,1,0,.047v.381a.535.535,0,0,1,0,.073l-.022.182-.022.116h0v.058a.134.134,0,0,1,0,.036v.2c0,.027,0,.053,0,.08h0v.051a.1.1,0,0,1-.018.069l-.022.08v.018l-.022.083c-.025.084-.055.167-.083.247s0,.055-.025.08l-.018.044a5.654,5.654,0,0,0,.156-1.372,5.77,5.77,0,0,0-.192-1.427,5.68,5.68,0,0,0-1.452-2.541,5.765,5.765,0,0,0-.969-.777c-.1-.062-.2-.123-.309-.181a5.674,5.674,0,0,0-5.446,0,6.309,6.309,0,0,0-.537.334,5.978,5.978,0,0,0-.726.624,5.825,5.825,0,0,0-.69-.588h0a4.985,4.985,0,0,0-.588-.363,5.675,5.675,0,0,0-5.446,0,5.545,5.545,0,0,0-.8.537,5.761,5.761,0,0,0-.472.421,5.942,5.942,0,0,0-.624.726c-.113.16-.214.323-.309.49h0a5.108,5.108,0,0,0-.243.486c-.04.091-.076.182-.113.276a.59.59,0,0,1,.025-.109.3.3,0,0,0,0-.055v-.033l.022-.08h0c.018-.065.04-.127.058-.185l.029-.087c.044-.12.087-.236.138-.363l.033-.069c0-.036.029-.069.047-.105l.08-.167h0a.752.752,0,0,0,.04-.076l.047-.084a.99.99,0,0,1,.062-.105.236.236,0,0,1,.029-.051v-.029h0l.04-.058.044-.069.1-.153.036-.054.044-.062.051-.069.062-.076a.505.505,0,0,1,.055-.069l.018-.025.04-.047c.022-.025.04-.051.062-.073l.029-.033h0l.047-.051.054-.062.153-.16.062-.062.1-.091a.48.48,0,0,0,.062-.058l.076-.065.051-.044.051-.04.1-.083.051-.04.261-.192.055-.036.054-.033.051-.033.073-.047.04-.022.055-.033c.073-.044.145-.087.221-.123l.044-.025.069-.036.058-.025.058-.029.054-.025.058-.026.058-.025.236-.094.058-.022.062-.022.054-.022h.047l.109-.036h.142l.08-.022.1-.025c.109-.029.214-.051.323-.069h.291c.1,0,.207-.026.309-.033h.86l.247.025h.352c.105.018.214.04.319.065l.131.036h.091l.109.029h.044l.236.08.051.022.069.025.105.043.12.051.047.022.065.029.058.029.054.025.073.036.054.033.131.069.054.033.193.116.051.033.051.033.055.036h0l.036.025c.076.051.149.105.221.163l.051.04.105.083.047.04.051.044.076.065.065.058a1.122,1.122,0,0,0,.094.091l.062.062.062-.062a1.1,1.1,0,0,0,.094-.091l.065-.058.076-.065.051-.044.047-.04.105-.083.051-.04c.083-.065.171-.131.261-.192l.055-.036.051-.033.051-.033.076-.047.036-.022.054-.033c.076-.043.149-.087.225-.123l.043-.025.069-.036.054-.025.058-.029.058-.025.058-.026.058-.025.232-.094.058-.022.062-.022.058-.022h.047l.105-.036h.145l.076-.022.105-.025c.105-.029.214-.051.32-.069h.294c.1,0,.2-.025.309-.033h.86l.247.025h.352l.316.065.131.036h.094l.105.029h.047l.232.08.054.022.069.025.105.044.12.051.047.022.062.029.058.029.058.025.069.036.058.033.131.069.054.033c.065.036.127.076.189.116l.051.033.055.033.054.036h0l.033.026c.076.051.153.105.225.163l.051.04a1.16,1.16,0,0,1,.1.084l.051.04.051.044.065.058.065.058.036.036h0l.062.062.026.025.036.033.062.065.094.1.051.058.087.1.094.113c.105.127.2.261.3.4l.036.054c0,.022.025.044.04.062l.033.054c.018.029.04.058.058.091l.047.084a.373.373,0,0,1,.029.051l.025.04.022.044.033.062.033.062c.073.142.138.29.2.439l.025.065c.025.062.047.12.069.185a.316.316,0,0,1,.018.054.09.09,0,0,0,.029.08l.022.073a.3.3,0,0,0,0,.047.091.091,0,0,0,.018.065l.022.08a.592.592,0,0,0,.036.131c.011.044,0,.047,0,.073l.022.1v.1a.18.18,0,0,0,0,.044v.327a.53.53,0,0,1,0,.076v.04a.545.545,0,0,0,0,.08.146.146,0,0,0,0,.04v.08h0a.253.253,0,0,1,0,.051.235.235,0,0,1,0,.051.691.691,0,0,1,0,.087h0a.692.692,0,0,1,0,.087Z" transform="translate(-358.184 -228.065)" opacity="0.1"/>
      <path id="Path_1086" data-name="Path 1086" d="M735.958,433.437v.091a.229.229,0,0,1,0,.051v.145a.936.936,0,0,0,0,.1v.138a.465.465,0,0,1,0,.073l-.022.182v.12h0v.058a.129.129,0,0,1,0,.036v.033a.521.521,0,0,1,0,.062v.189h0a.262.262,0,0,0,0,.054v.065l-.022.08v.022a.731.731,0,0,0-.026.08c-.025.084-.051.167-.08.251a.686.686,0,0,0-.029.076l-.018.044a5.667,5.667,0,0,1-.748,1.369l-.058.076a5.685,5.685,0,0,1-.483.548l-8.005,8.005-7.987-8.005a5.228,5.228,0,0,1-.628-.744,5.148,5.148,0,0,1-.327-.519,5.666,5.666,0,0,1-.683-3.22,1.448,1.448,0,0,1,.033-.3,5.372,5.372,0,0,1,.1-.537.156.156,0,0,1,.029-.109.291.291,0,0,1,0-.055.092.092,0,0,1,0-.033l.022-.08h0a.735.735,0,0,1,.058-.185.84.84,0,0,0,.029-.087c.044-.12.091-.236.138-.363l.033-.073a.3.3,0,0,1,.047-.105c.018-.036.055-.113.084-.167h0l.036-.076.047-.083c.022-.036.04-.073.062-.105a.346.346,0,0,1,.029-.051v-.029h0c0-.022.025-.044.04-.062l.044-.069.1-.152.036-.051.047-.065.047-.065.062-.08.054-.069v-.025l.04-.047.062-.073.029-.033h0l.047-.054.054-.058c.051-.054.1-.109.156-.16a.485.485,0,0,1,.062-.062,1.08,1.08,0,0,1,.095-.091l.065-.058a.646.646,0,0,1,.073-.069l.051-.044.051-.04.1-.083.051-.04c.087-.065.174-.131.261-.189l.054-.036.054-.036.051-.033.076-.047.036-.022.054-.033.221-.123.044-.025.069-.033.058-.029.058-.025.058-.029.054-.025.058-.025.236-.094.058-.022.062-.022.055-.018.047-.018.109-.033h.142l.08-.022.1-.025c.109-.025.214-.051.323-.069h.291l.312-.033h.857l.25.026h.349a3.111,3.111,0,0,1,.319.069l.131.033h.091l.109.033h.047l.232.08h.051l.069.025.105.044.12.051.047.022.066.033.058.025.055.029.073.036.058.029.127.073.058.029.189.116.051.033.054.036.051.036h0l.036.025.221.163.054.04.1.084.051.04.047.044.076.069.065.058.095.091a.491.491,0,0,1,.062.062c.022-.022.04-.044.062-.062l.1-.091a.484.484,0,0,1,.062-.058l.076-.069.051-.044.051-.04.1-.084.051-.04c.087-.065.174-.131.261-.189l.054-.036.055-.036.051-.033.073-.047.04-.022.055-.033.222-.123.044-.025.069-.033.058-.029.055-.025.058-.029.058-.025.058-.025.232-.094.058-.022.062-.022.058-.018.047-.018.109-.033h.141l.08-.022.1-.025c.105-.025.214-.051.319-.069h.294l.309-.033h.86l.247.025h.352c.105.018.214.04.32.069l.131.033h.091l.105.033h.047l.232.08h.054l.069.025.105.044.12.051.047.022.065.033.055.025.058.029.073.036.054.029.13.073.055.029c.065.036.127.076.189.116l.051.033.054.036.054.036h0l.036.025.222.163.051.04.1.083.051.04.051.044.065.058.065.058a.334.334,0,0,0,.036.036h0c0,.022.04.04.062.062l.029.025.033.036.062.062.095.1.051.058a1.218,1.218,0,0,1,.087.1l.094.109c.105.131.2.261.3.4,0,.018.025.036.036.058l.04.058.033.054c.022.029.04.062.058.091l.048.083.032.051.022.044.022.04.033.062.033.062c.073.145.141.29.2.439a.5.5,0,0,1,.025.065c.025.062.047.124.069.185l.022.058a.553.553,0,0,0,.025.076l.022.073v.113l.022.08a.628.628,0,0,0,.036.134c.011.044,0,.044,0,.069l.022.1v.784h0a.2.2,0,0,0,0,.047v.051a.629.629,0,0,1,0,.087h0a.628.628,0,0,1,0,.087Z" transform="translate(-508.25 -281.855)" fill="#ff6584"/>
      <path id="Path_1087" data-name="Path 1087" d="M736.256,433.45v.091a.272.272,0,0,1,0,.051v.145a.876.876,0,0,0,0,.1v.138a.481.481,0,0,1,0,.073l-.022.182v.12h0v.058a.1.1,0,0,1,0,.036v.033a.546.546,0,0,1,0,.062v.189h0a.3.3,0,0,0,0,.054c0,.022,0,.044,0,.065l-.022.08v.022a.673.673,0,0,0-.026.08c-.025.084-.051.167-.08.25a.643.643,0,0,0-.029.076l-.018.044a5.651,5.651,0,0,0-2.469-6.092c-.1-.065-.2-.127-.309-.185a5.675,5.675,0,0,0-5.446,0,5.542,5.542,0,0,0-.537.338,5.7,5.7,0,0,0-.726.624,5.571,5.571,0,0,0-.69-.592h0a6.62,6.62,0,0,0-.584-.363,5.682,5.682,0,0,0-5.446,0,5.849,5.849,0,0,0-.8.537,5.2,5.2,0,0,0-.472.425,5.352,5.352,0,0,0-.621.726,4.692,4.692,0,0,0-.312.494h0c-.091.16-.171.323-.243.487-.04.091-.076.181-.112.276a.156.156,0,0,1,.029-.109.29.29,0,0,1,0-.054.1.1,0,0,1,0-.033l.022-.08h0a.725.725,0,0,1,.058-.185.841.841,0,0,0,.029-.087c.044-.12.091-.236.138-.363l.033-.073a.3.3,0,0,1,.047-.105c.018-.036.054-.112.083-.167h0l.036-.076.047-.084c.022-.036.04-.073.062-.105a.335.335,0,0,1,.029-.051v-.029h0c0-.022.025-.044.04-.062l.043-.069.1-.153.036-.051.047-.065.047-.065.062-.08.054-.069v-.025l.04-.047.062-.073.029-.033h0l.047-.055.054-.058c.051-.055.1-.109.156-.16a.491.491,0,0,1,.062-.062,1.142,1.142,0,0,1,.094-.091l.065-.058a.666.666,0,0,1,.073-.069l.051-.044.051-.04.1-.083.051-.04c.087-.065.174-.131.261-.189l.054-.036.054-.036.051-.033.076-.047.036-.022.055-.033.221-.123.044-.025.069-.033.058-.029.058-.025.058-.029.054-.025.058-.025.236-.094.058-.022.062-.022.054-.018.047-.018.109-.033h.141l.08-.022.1-.025c.109-.025.214-.051.323-.069h.291l.312-.033h.857l.251.025h.349a3.147,3.147,0,0,1,.319.069l.131.033h.091l.109.033h.047l.232.08h.051l.069.026.105.043.12.051.047.022.065.033.058.025.054.029.073.036.058.029.127.073.058.029.189.116.051.033.055.036.051.036h0l.036.025.221.163.055.04.1.083.051.04.047.044.076.069.065.058.094.091a.515.515,0,0,1,.062.062c.022-.022.04-.044.062-.062l.1-.091a.459.459,0,0,1,.062-.058l.076-.069.051-.044.051-.04.1-.083.051-.04c.087-.065.174-.131.261-.189l.055-.036.054-.036.051-.033.073-.047.04-.022.054-.033.222-.123.044-.025.069-.033.058-.029.055-.025.058-.029.058-.025.058-.025.232-.094.058-.022.062-.022.058-.018.047-.018.109-.033h.141l.08-.022.1-.025c.105-.026.214-.051.319-.069h.294l.308-.033h.86l.247.025h.352c.105.018.214.04.319.069l.131.033h.091l.105.033h.047l.232.08h.055l.069.025.105.044.12.051.047.022.065.033.054.025.058.029.073.036.054.029.131.073.054.029c.065.036.127.076.189.116l.051.033.054.036.055.036h0l.036.025.222.163.051.04.1.083.051.04.051.044.065.058.065.058a.352.352,0,0,0,.036.036h0c0,.022.04.04.062.062l.029.025.032.036.062.062.094.1.051.058a1.222,1.222,0,0,1,.087.1l.094.109c.105.131.2.261.3.4,0,.018.025.036.036.058l.04.058.033.054c.022.029.04.062.058.091l.047.083.033.051.022.043.022.04.033.062.033.062c.073.145.141.29.2.439a.5.5,0,0,1,.026.065c.025.062.047.123.069.185l.022.058a.6.6,0,0,0,.025.076l.022.073v.112l.022.08a.615.615,0,0,0,.036.134c.011.044,0,.044,0,.069l.022.1v.784h0a.217.217,0,0,0,0,.047v.051a.692.692,0,0,1,0,.087h0a.691.691,0,0,1,0,.087Z" transform="translate(-508.548 -281.868)" opacity="0.1"/>
      <path id="Path_1088" data-name="Path 1088" d="M568.02,291.582h0a41.75,41.75,0,0,0-3.689-3.322c.156-1.946.519-6.6.552-7.5.036-1.136-1.637-2.589-5.217-3.928s-2.542,4.909-2.491,5.471a4.213,4.213,0,0,0,2.178,2.824c.483.2.614.45.581.686l-.113-.018a14,14,0,0,1-4.273-1.046,22.563,22.563,0,0,0-1.089,4.836v.247a1.868,1.868,0,0,0,.087.842h.251a2.732,2.732,0,0,1-.2,1.242h0a9.489,9.489,0,0,1-.363.893,25.006,25.006,0,0,1-.17-2.69c.058-.871-1.329-4.411-1.329-4.411a6.174,6.174,0,0,1-1.79-1.626,7.143,7.143,0,0,0-3-2.265c-.824-.29-3.812-4.179-5.043-5.083-.98-.726-1.376-.3-1.5-.094l-.072.051a4.3,4.3,0,0,1-.977-2.084c0-.4.04-1.209.113-2.24a9.437,9.437,0,0,1,1.191,1.089c.835.926,1.452,2.029,2.364,2.883a3.848,3.848,0,0,0,2.607,1.14,2.408,2.408,0,0,0,.944-.149c1.213-.468,1.993-1.946,3.268-2,1,.051,1.739.977,2.559,1.587a3.43,3.43,0,0,0,2.109.726,2.4,2.4,0,0,0,.889-.142,1.905,1.905,0,0,0,1.158-2.425c-.668-1.409-2.94-1.089-3.91-2.316a.959.959,0,0,1-.225-.9.628.628,0,0,1,.588-.428,2.048,2.048,0,0,1,1.216.581c.472.479,1.089,1.089,1.674,1.024a.8.8,0,0,0,.476-.091c.018-.432.04-.864.058-1.3a4.52,4.52,0,0,0,2.019.574,2.369,2.369,0,0,0,.392-.018,1.579,1.579,0,0,0,1.409-1.554,1.761,1.761,0,0,0,1.209.4,1.649,1.649,0,0,0,.581-.073,1.757,1.757,0,0,0,1.176-1.51,3.445,3.445,0,0,0-.918-2.178l-2.374-3.246a1.313,1.313,0,0,1-.363-.937,1.949,1.949,0,0,1,.406-.726,2.533,2.533,0,0,0-.494-3.122,4.4,4.4,0,0,0-3.166-1.049,4.154,4.154,0,0,1-2.509-.327,2.859,2.859,0,0,1-.98-1.71c-.5-1.91-.534-3.914-.886-5.856a8.036,8.036,0,0,0-2.687-5.123,2.487,2.487,0,0,0-1.245-.545,8.836,8.836,0,0,0-1.155.094,4.218,4.218,0,0,1-3.3-1.852,29.4,29.4,0,0,0-2.4-3.111,5.858,5.858,0,0,0-5.569-1.289c-.849.236-1.525.926-2.4.962a28.745,28.745,0,0,1-3.972-.363,10.973,10.973,0,0,0-3.63.08,3.863,3.863,0,0,0-2.541,1.884l-.309-2.618a45.7,45.7,0,0,0-.926-5.34c-.207-.294-.116-.7.036-1.165l.058.054c.044-.131.091-.265.138-.4a.95.95,0,0,0,0-.3c.113-.991-1.688-7.3-1.688-7.3h-1.619a1.3,1.3,0,0,0-.04-.232c-.472-2.567-1.267-6.578-1.815-7.544a4.5,4.5,0,0,1-.327-2.44,19.57,19.57,0,0,0,.076-2.879,7.881,7.881,0,0,1,.065-1.387,1.946,1.946,0,0,0-.773-1.815c-2.124-1.576-7.286-5.163-10.307-5.253-3.87-.116,1.213,6.677,1.154,7.316s3.87,1.22,3.87,1.22.232,1.971.465,3.075c.16.766.428,6.448.581,9.857a10.825,10.825,0,0,1-2.6-.977s-4.506-1.216-4.912,0S510.65,230,510.65,230s2.08,5.515,1.452,7.261-.174,9.984-.174,9.984.058,9.8.49,12.307a4.824,4.824,0,0,1-.78,3.888s-.519,6.154,0,6.735a17.975,17.975,0,0,1,1.423,2.284l.152.276c-1.706,2.084-3.4,4.077-4.291,4.357-1.732.523-13.571,5.446-13.571,5.446s-3.866,3.7-4.451,3.7,3.522,3.95,3.522,3.95,3.7,2.959,4.1,3.424,10.529,5.98,10.529,5.98,1.735.523,1.906,1.046,2.483,1.971,2.483,1.971a15.089,15.089,0,0,1,2.236,3.355.782.782,0,0,0,.025.251c.022.363.047.53.069.443.308.85,2.389,3.017,1.387,4.564-.465.726,0,2.029.9,3.082a11.077,11.077,0,0,1-.944,3.267c-.693.929-.385,2.244-1.089,2.4s-.926,3.562-.926,3.562l-.6,7.5s-.156,1.547-1,1.935,0,2.476,0,2.476-.908,1.779-.363,2.785-1.089,5.653-1.089,5.653-.694,8.978,0,10.216a10.166,10.166,0,0,1,1.089,3.946c0,.773.385,15.248.385,15.248s-.926,5.881-1.234,6.963.85,3.485.08,4.72-.617,4.023-.617,4.023-1.154,10.913-.461,14.94-.221,4.876-.221,4.876a8.243,8.243,0,0,0,1.5.661c.018.153.036.316.054.483.363,3.376.9,9.193.41,10.529a21.228,21.228,0,0,0-.672,5.286v.236h0l-1.347,2.178a6.967,6.967,0,0,1-.617,2.229c-.349.309-3.242,5.562-3.63,6.237l-.04.073s-2.926,5.38,4.313,5.533,6.313-3.558,6.313-3.558.022-.726.091-1.616a7.8,7.8,0,0,1,.526-2.759,38.75,38.75,0,0,0,1.964-3.522V426.54h-.465a.749.749,0,0,1,.025-.232,16.072,16.072,0,0,1,.4-2.632c.229-.541-.5-3.794-.5-3.794a85.423,85.423,0,0,1,.875-10.209c.033-.174.065-.345.1-.508a12.354,12.354,0,0,0,1.557-.813s0-7.893.926-9.287.73-5.34.73-5.34.229-3.482.922-4.179.53-3.794.53-3.794.614-2.011,1.307-3.631,1.089-6.19,1.089-6.19a7.849,7.849,0,0,1,1.089-2.247c.773-1.089,0-3.482,0-3.482a4.239,4.239,0,0,1-.305-3.1c.541-1.55,3.54-14.087,3.54-14.087l1.158-4.487,1.692,5.725a39.339,39.339,0,0,0,0,5.264,16.428,16.428,0,0,0,1.848,3.631V375.3s.156,8.2.773,9.519.922,6.194.922,6.194,2.08,14.319.77,16.406a12.52,12.52,0,0,0,2.128,1.165v8.434s-1.51,5.1-.995,8.579a1.372,1.372,0,0,0,.032.207c-.138.1-.29.189-.385.153l.243,5.809a17.978,17.978,0,0,1-.552,4.919,7.006,7.006,0,0,0-.363,1.844c-.134,2.3.752,5.446,5.809,5.119,6.735-.428,5.7-4.72,5.7-4.72s0-.167-.025-.461a17.494,17.494,0,0,0-1.67-6.31,15.884,15.884,0,0,1-1.383-7.123,2.492,2.492,0,0,1-.41.109,1.059,1.059,0,0,1,.018-.236c.087-1.089.222-2.5.363-3.162a20.725,20.725,0,0,0,0-3.866l.868-8.477.047-.472a6.954,6.954,0,0,0,1.194-.726h0a8.688,8.688,0,0,1-.447-2.36,2.084,2.084,0,0,1,.447-1.492c1-1.006,1.692-13.622,1.692-13.622s.544-4.44.548-5.94v-.269c-.062-.9-.541-4.444-.534-6.509a4.089,4.089,0,0,1,.149-1.293c.461-1.162,1.089-22.989,1.089-22.989l.77-9.672v-7.944a46.857,46.857,0,0,0-1.378-11.291c2.1,1.1,5.7,3.576,6.356,2.915.81-.813,1.213-14.747.98-16.138a1.457,1.457,0,0,0-.054-.283c-.054-.254-.134-.6-.232-.991l.32-.556c1.579-2.734,3.994-7.076,4.186-8.35a55.105,55.105,0,0,1,1.049-6.876,3.233,3.233,0,0,1,.156-.388h0c.142-.287.294-.443.468-.4.984.232,1.619.987,2.138.7a.251.251,0,0,0,.069-.058h0a.861.861,0,0,0,.131-.185h0a1.794,1.794,0,0,0,.12-.265h0c.036-.094.069-.2.1-.312V293.6a.682.682,0,0,1,.036-.142.218.218,0,0,0,0-.047.51.51,0,0,1,.029-.123l.022-.091v-.047c.091-.41.16-.835.2-1.133a1.513,1.513,0,0,1,.036-.269v-.145Z" transform="translate(-364.313 -138.298)" fill="url(#linear-gradient)"/>
      <path id="Path_1089" data-name="Path 1089" d="M559.34,489.64a1.231,1.231,0,0,0-.08-.65C559.286,489.513,559.314,489.752,559.34,489.64Z" transform="translate(-407.891 -320.824)" fill="url(#linear-gradient-2)"/>
      <path id="Path_1090" data-name="Path 1090" d="M675.363,419.048s1.372-.937.033-1.488a4.209,4.209,0,0,1-2.178-2.81c-.051-.559-1.089-6.775,2.49-5.446s5.253,2.774,5.217,3.906-.617,8.314-.617,8.314Z" transform="translate(-480.362 -269.95)" fill="#fbbebe"/>
      <path id="Path_1091" data-name="Path 1091" d="M678.553,438.13a2.125,2.125,0,0,1-.055.414c-.105.726-.363,2.222-.755,2.436-.519.29-1.154-.461-2.139-.693-.174-.04-.327.113-.468.4a3.354,3.354,0,0,0-.156.385,54.737,54.737,0,0,0-1.049,6.847c-.2,1.274-2.607,5.6-4.186,8.318-.236.41-.457.784-.646,1.089-.436.726-.726,1.2-.726,1.2l-3.994-7.486V440a9.772,9.772,0,0,0,.726-1.528h0a2.694,2.694,0,0,0,.2-1.234.63.63,0,0,0-.171-.363.429.429,0,0,1-.076-.112.573.573,0,0,1-.036-.094,1.206,1.206,0,0,1-.051-.283v-.24a22.44,22.44,0,0,1,1.089-4.814,13.506,13.506,0,0,0,4.273,1.038C673.278,432.713,678.553,438.13,678.553,438.13Z" transform="translate(-474.847 -284.097)" fill="#f54242"/>
      <path id="Path_1092" data-name="Path 1092" d="M679.537,439.378c-.105.726-.363,2.222-.755,2.436-.519.29-1.154-.461-2.138-.693-.174-.04-.327.112-.468.4a3.367,3.367,0,0,0-.156.385c-1.986-.966-5.446-2.716-5.667-3.209s-2.632-.606-3.994-.628h-.247a1.838,1.838,0,0,1-.087-.839,25.192,25.192,0,0,1,1.089-4.589,13.5,13.5,0,0,0,4.273,1.038C674.163,434,678.985,438.819,679.537,439.378Z" transform="translate(-475.884 -284.932)" opacity="0.1"/>
      <path id="Path_1093" data-name="Path 1093" d="M679.63,438.115s-.29,2.559-.81,2.846-1.155-.461-2.139-.69c-.174-.044-.327.109-.468.4-1.957-.951-5.609-2.781-5.809-3.286s-2.948-.621-4.24-.635c-.476-.995,1-5.446,1-5.446a13.555,13.555,0,0,0,4.273,1.042C674.384,432.69,679.63,438.115,679.63,438.115Z" transform="translate(-475.923 -284.078)" fill="#f54242"/>
      <path id="Path_1094" data-name="Path 1094" d="M646.771,459.411c-.81.81-6.067-3.119-7.508-3.351s-6.68-22.175-6.68-22.175l.788-12.366L630.3,410.141l-.4-1.489s.305-.908,1.539,0,4.233,4.778,5.043,5.065a7.231,7.231,0,0,1,3,2.258,6.116,6.116,0,0,0,1.79,1.616s1.387,3.525,1.329,4.389.465,6.76,1.089,7.279,1.674,5.257,1.674,5.257,1.91,6.655,2.313,8.554a2.706,2.706,0,0,1,.054.283C647.984,444.74,647.581,458.6,646.771,459.411Z" transform="translate(-452.885 -269.396)" fill="#f54242"/>
      <path id="Path_1095" data-name="Path 1095" d="M647.594,473.33l3.812,1.02s.726,6.586.995,6.934,1.2,13.861,1.2,13.861l-6.005-2.716-2.255-7.261v-8.034Z" transform="translate(-462.719 -310.849)" opacity="0.1"/>
      <path id="Path_1096" data-name="Path 1096" d="M558.4,765.378a12.855,12.855,0,0,0-.548,2.178,82.268,82.268,0,0,0-.875,10.165s.726,3.235.5,3.776a15.851,15.851,0,0,0-.4,2.618c-.062.566-.1,1-.1,1l-7.051-.461s0-.418.022-1.056a21.5,21.5,0,0,1,.672-5.257c.476-1.329-.044-7.13-.41-10.492-.156-1.452-.283-2.447-.283-2.447S559.591,762.285,558.4,765.378Z" transform="translate(-401.948 -495.996)" fill="#fbbebe"/>
      <path id="Path_1097" data-name="Path 1097" d="M634.368,767.268,633.5,775.7a20.546,20.546,0,0,1,0,3.848c-.131.657-.265,2.059-.363,3.148-.065.824-.109,1.474-.109,1.474s-5.391,3.776-6.622.461a5.848,5.848,0,0,1-.3-1.242c-.516-3.46.995-8.539.995-8.539V764l7.472,1.22Z" transform="translate(-450.397 -495.99)" fill="#fbbebe"/>
      <path id="Path_1098" data-name="Path 1098" d="M558.435,765.376a12.881,12.881,0,0,0-.548,2.178,10.756,10.756,0,0,1-7.624.287c-.156-1.452-.283-2.447-.283-2.447S559.623,762.283,558.435,765.376Z" transform="translate(-401.98 -495.994)" opacity="0.1"/>
      <path id="Path_1099" data-name="Path 1099" d="M636.532,765.2l-.211,2.044a8.9,8.9,0,0,1-7.261-.363v-2.9Z" transform="translate(-452.35 -495.978)" opacity="0.1"/>
      <path id="Path_1100" data-name="Path 1100" d="M553.821,506.21s-.614,4.545-1.307,5.471-.385,2.233-1.089,2.385-.926,3.543-.926,3.543l-.588,7.472s-.156,1.539-1,1.924,0,2.465,0,2.465-.908,1.772-.363,2.774-1.089,5.62-1.089,5.62-.693,8.935,0,10.166a10.109,10.109,0,0,1,1.089,3.928c0,.77.385,15.172.385,15.172s-.926,5.856-1.234,6.934.85,3.464.08,4.7-.617,3.993-.617,3.993-1.191,10.873-.5,14.867-.222,4.85-.222,4.85a10.78,10.78,0,0,0,10.848-.461s0-7.856.926-9.243.773-5.311.773-5.311.229-3.467.922-4.161.53-3.765.53-3.765.614-2,1.307-3.63a31.414,31.414,0,0,0,1.089-6.172,7.771,7.771,0,0,1,1.089-2.236c.773-1.089,0-3.464,0-3.464a4.208,4.208,0,0,1-.3-3.082c.541-1.539,3.54-14.018,3.54-14.018l1.158-4.465,1.692,5.7a38.909,38.909,0,0,0,0,5.235,16.6,16.6,0,0,0,1.848,3.631v12.093s.156,8.165.773,9.472.922,6.172.922,6.172,2.08,14.25.77,16.337c0,0,5.932,4.233,10.63.77,0,0-1-2.85,0-3.852s1.692-13.557,1.692-13.557.617-5.006.541-6.172-.846-6.622-.385-7.777,1.089-22.872,1.089-22.872l.77-9.625v-7.878a46.283,46.283,0,0,0-1.743-12.613c-1.3-4.592-3.108-9.86-4.625-10.191C582.266,507.339,558.366,509.986,553.821,506.21Z" transform="translate(-399.725 -331.792)" fill="#3f3d56"/>
      <path id="Path_1101" data-name="Path 1101" d="M557.078,816.346c-.062.566-.1,1-.1,1l-7.05-.461s0-.418.022-1.057c3.307-2.933,6.6.519,6.6.519Z" transform="translate(-401.948 -528.249)" opacity="0.1"/>
      <path id="Path_1102" data-name="Path 1102" d="M546.632,817.006v4.277a34.335,34.335,0,0,1-1.964,3.5,7.659,7.659,0,0,0-.526,2.744c-.069.872-.091,1.6-.091,1.6s.926,3.7-6.314,3.543-4.313-5.508-4.313-5.508l.04-.069c.363-.675,3.293-5.918,3.631-6.208a7.088,7.088,0,0,0,.617-2.218l1.347-2.178c3.315-2.962,6.626.5,6.626.5Z" transform="translate(-391.062 -528.666)" fill="#3f3d56"/>
      <path id="Path_1103" data-name="Path 1103" d="M544.051,849.828s.926,3.7-6.314,3.543-4.313-5.493-4.313-5.493l.04-.069c.2,1.089,1.053,2.218,3.772,2.073a16.7,16.7,0,0,0,6.9-1.645C544.072,849.1,544.051,849.828,544.051,849.828Z" transform="translate(-391.062 -549.373)" opacity="0.1"/>
      <path id="Path_1104" data-name="Path 1104" d="M633.356,814.282c-.065.824-.109,1.474-.109,1.474s-5.391,3.776-6.622.461a5.868,5.868,0,0,1-.3-1.242,2.947,2.947,0,0,0,.3-.261c.882-1.307,5.58-1.347,5.809-.726C632.575,814.343,633.022,814.343,633.356,814.282Z" transform="translate(-450.605 -527.582)" opacity="0.1"/>
      <path id="Path_1105" data-name="Path 1105" d="M629.352,833.358c-5.083.32-5.958-2.806-5.809-5.083a6.9,6.9,0,0,1,.363-1.833,17.826,17.826,0,0,0,.552-4.9l-.243-5.776c.192.076.657-.385.657-.385.882-1.307,5.58-1.347,5.809-.726s1.311.2,1.311.2a15.717,15.717,0,0,0,1.383,7.083,17.384,17.384,0,0,1,1.67,6.281c.022.29.025.458.025.458S636.087,832.933,629.352,833.358Z" transform="translate(-448.826 -528.009)" fill="#3f3d56"/>
      <path id="Path_1106" data-name="Path 1106" d="M629.352,857.818c-5.083.32-5.958-2.807-5.809-5.083,0,0,1.318,2.24,6.012,1.7a13.179,13.179,0,0,0,5.482-1.768c.022.29.025.457.025.457S636.087,857.393,629.352,857.818Z" transform="translate(-448.826 -552.468)" opacity="0.1"/>
      <g id="Group_810" data-name="Group 810" transform="translate(180.431 175.562)" opacity="0.1">
        <path id="Path_1107" data-name="Path 1107" d="M644.643,515.013c-1.042-2.977-2.178-5.446-3.209-5.653l-.918.094c.958.516,2.011,2.81,2.973,5.558a57.6,57.6,0,0,1,3.158,18.966v6.063l-.77,9.628s-.617,21.718-1.089,22.872.309,6.622.385,7.78-.541,6.172-.541,6.172-.693,12.554-1.692,13.553,0,3.852,0,3.852a6.9,6.9,0,0,1-3.63,1.34,7.066,7.066,0,0,0,4.8-1.34s-1-2.85,0-3.852,1.692-13.553,1.692-13.553.617-5.006.541-6.172-.846-6.626-.385-7.78,1.089-22.872,1.089-22.872l.77-9.628v-6.063A57.6,57.6,0,0,0,644.643,515.013Z" transform="translate(-639.31 -509.36)"/>
      </g>
      <g id="Group_811" data-name="Group 811" transform="translate(146.74 174.418)" opacity="0.1">
        <path id="Path_1108" data-name="Path 1108" d="M547.9,602.484s.915-.849.222-4.854.461-14.863.461-14.863-.152-2.774.617-3.994-.385-3.63-.08-4.7,1.234-6.934,1.234-6.934-.4-14.41-.4-15.183a10.074,10.074,0,0,0-1.089-3.925c-.693-1.234,0-10.166,0-10.166s1.616-4.622,1.089-5.62.363-2.774.363-2.774-.846-2.08,0-2.465,1-1.924,1-1.924l.613-7.472s.232-3.387.926-3.543.385-1.452,1.089-2.385c.519-.693,1-3.427,1.2-4.749a4.8,4.8,0,0,1-1.278-.726s-.617,4.542-1.311,5.468-.385,2.233-1.089,2.385-.922,3.544-.922,3.544l-.6,7.475s-.156,1.539-1,1.924,0,2.465,0,2.465-.908,1.772-.363,2.774-1.089,5.62-1.089,5.62-.693,8.935,0,10.166a10.076,10.076,0,0,1,1.089,3.925c0,.773.385,15.172.385,15.172s-.926,5.856-1.231,6.934.846,3.464.076,4.7-.617,3.993-.617,3.993-1.165,10.877-.472,14.871-.221,4.854-.221,4.854a10.607,10.607,0,0,0,5.715,1.216A10.344,10.344,0,0,1,547.9,602.484Z" transform="translate(-546.51 -506.21)"/>
      </g>
      <path id="Path_1109" data-name="Path 1109" d="M591.688,305.495a28.645,28.645,0,0,1,2.4,3.1,4.24,4.24,0,0,0,3.3,1.844,8.848,8.848,0,0,1,1.154-.1,2.487,2.487,0,0,1,1.245.545,7.968,7.968,0,0,1,2.687,5.083c.352,1.924.363,3.928.886,5.831a2.9,2.9,0,0,0,.98,1.7,4.225,4.225,0,0,0,2.509.323,4.432,4.432,0,0,1,3.166,1.046,2.514,2.514,0,0,1,.494,3.108,1.89,1.89,0,0,0-.407.7,1.3,1.3,0,0,0,.363.933l2.374,3.231a3.447,3.447,0,0,1,.919,2.178,1.706,1.706,0,0,1-3.006.977c.258.8-.534,1.634-1.369,1.743a4.4,4.4,0,0,1-2.407-.632l-.062,1.369c-.7.363-1.434-.363-1.99-.929s-1.7-.893-1.964-.153a.959.959,0,0,0,.225.9c.969,1.209,3.242.9,3.91,2.3a1.888,1.888,0,0,1-1.158,2.414,3.172,3.172,0,0,1-2.839-.581c-.81-.581-1.6-1.594-2.658-1.586-1.318,0-2.106,1.525-3.336,2a3.405,3.405,0,0,1-3.387-.984c-.9-.849-1.532-1.95-2.367-2.872-2.149-2.371-5.406-3.311-8.441-4.324s-6.248-2.393-7.816-5.181a21.2,21.2,0,0,0-1.38-2.6c-1.024-1.336-2.745-1.961-3.867-3.213a4.963,4.963,0,0,1-.759-5.3,17.772,17.772,0,0,1,2.211-2.984,10.035,10.035,0,0,0,1.971-5.889,7.461,7.461,0,0,1,.171-2.382,3.707,3.707,0,0,1,2.69-2.215,11.059,11.059,0,0,1,3.63-.083,33.284,33.284,0,0,0,3.972.363c.879-.04,1.554-.726,2.4-.958A5.871,5.871,0,0,1,591.688,305.495Z" transform="translate(-413.863 -202.994)" fill="#3f3d56"/>
      <g id="Group_812" data-name="Group 812" transform="translate(154.931 109.635)" opacity="0.1">
        <path id="Path_1110" data-name="Path 1110" d="M658.881,330.2c.363,1.935.363,3.928.889,5.827a3.676,3.676,0,0,0,.577,1.311c-.043-.127-.083-.258-.116-.385-.5-1.9-.534-3.9-.886-5.831a10.371,10.371,0,0,0-1.166-3.347A11.517,11.517,0,0,1,658.881,330.2Z" transform="translate(-625.828 -327.77)"/>
        <path id="Path_1111" data-name="Path 1111" d="M681.53,364.259a1.866,1.866,0,0,0-.41.726,1.291,1.291,0,0,0,.363.929c.033.044.062.087.094.127a.568.568,0,0,1,0-.134,1.9,1.9,0,0,1,.41-.7,2.463,2.463,0,0,0-.221-2.8A2.24,2.24,0,0,1,681.53,364.259Z" transform="translate(-640.439 -349.828)"/>
        <path id="Path_1112" data-name="Path 1112" d="M616.836,383.272a1.986,1.986,0,0,1-1.285,1.96,3.172,3.172,0,0,1-2.839-.585c-.81-.584-1.6-1.59-2.654-1.583-1.322,0-2.106,1.525-3.34,2a3.4,3.4,0,0,1-3.387-.984c-.9-.85-1.532-1.95-2.364-2.868-2.149-2.371-5.406-3.315-8.445-4.328s-6.23-2.385-7.8-5.163c.142.309.287.614.45.908,1.568,2.788,4.778,4.168,7.813,5.181s6.3,1.953,8.445,4.324c.835.922,1.452,2.022,2.363,2.872a3.409,3.409,0,0,0,3.387.984c1.234-.476,2.019-1.99,3.34-2,1.053,0,1.815.959,2.657,1.587a3.049,3.049,0,0,0,2.835.581,1.89,1.89,0,0,0,1.162-2.414A1.7,1.7,0,0,0,616.836,383.272Z" transform="translate(-579.038 -355.764)"/>
        <path id="Path_1113" data-name="Path 1113" d="M672.084,384.87a1.99,1.99,0,0,1,.1.744,1.71,1.71,0,0,1-3.01.98c.258.8-.534,1.63-1.369,1.743a4.365,4.365,0,0,1-2.407-.632c-.022.454-.04.911-.062,1.365-.7.363-1.452-.363-1.986-.926s-1.7-.9-1.968-.153a.962.962,0,0,0,.225.9,1.853,1.853,0,0,0,.2.214.667.667,0,0,1,.036-.189c.269-.726,1.412-.407,1.968.153s1.289,1.3,1.99.929c0-.458.04-.911.058-1.369a4.569,4.569,0,0,0,2.411.632c.835-.094,1.627-.94,1.365-1.743a1.71,1.71,0,0,0,3.01-.977A2.733,2.733,0,0,0,672.084,384.87Z" transform="translate(-627.85 -364.14)"/>
        <path id="Path_1114" data-name="Path 1114" d="M573.358,357.882c-1.02-1.336-2.745-1.957-3.863-3.213a4.2,4.2,0,0,1-.425-.559,4.611,4.611,0,0,0,.886,1.485c1.118,1.253,2.843,1.877,3.863,3.213a4.93,4.93,0,0,1,.388.6A8.2,8.2,0,0,0,573.358,357.882Z" transform="translate(-569.07 -344.547)"/>
      </g>
      <path id="Path_1115" data-name="Path 1115" d="M593.187,362.39s.846,9.4-3.006,12.242,8.241,10.63,8.241,10.63l9.167-2s-4.469-4.157-4.469-5.929.77-11.708,2-12.863S593.187,362.39,593.187,362.39Z" transform="translate(-427.104 -240.186)" fill="#fbbebe"/>
      <path id="Path_1116" data-name="Path 1116" d="M552.821,297.5l-2.095,4.578s-3.122,1.852-3.351,2.022-2.716,3.006-2.716,3.006l-6.125,3.928s-.149-.28-.363-.675a18.264,18.264,0,0,0-1.423-2.273c-.519-.577,0-6.7,0-6.7a4.8,4.8,0,0,0,.781-3.87c-.432-2.483-.49-12.246-.49-12.246s-.461-8.205.174-9.937-1.452-7.221-1.452-7.221-5.889-5.852-5.486-7.061,4.912,0,4.912,0a10.16,10.16,0,0,0,2.712.984c.559.033,3.547.047,5.838.051h2.712s1.906,6.64,1.677,7.334c-.047.134-.094.269-.138.4-.185.534-.327,1.009-.094,1.332a45.449,45.449,0,0,1,.926,5.315l.635,5.315a45.9,45.9,0,0,1,.922,4.738c-.058.581-1.5,1.79-.868,2.886s.871,4.447.871,4.447a12.645,12.645,0,0,0,2.109,3.395A1.771,1.771,0,0,0,552.821,297.5Z" transform="translate(-389.417 -175.301)" fill="#f54242"/>
      <circle id="Ellipse_17" data-name="Ellipse 17" cx="11.091" cy="11.091" r="11.091" transform="translate(162.057 106.269)" opacity="0.1"/>
      <circle id="Ellipse_18" data-name="Ellipse 18" cx="11.091" cy="11.091" r="11.091" transform="translate(162.057 105.808)" fill="#fbbebe"/>
      <path id="Path_1117" data-name="Path 1117" d="M591.683,416.31c-1,1.089-1.231,11.618-.639,12.554s-2.981,2.774-5.061,2.694-7.773,1.7-7.773,1.7-11.4-3.082-13.8-1.539-5.776-2.774-4.774-4.313-1.089-3.7-1.387-4.542a6.788,6.788,0,0,1-.123-1.089h0c-.28-3.877-.57-16.3-.57-16.3V391.205l10.478-7.4a50.275,50.275,0,0,1,4.861,2.814,23.8,23.8,0,0,1,3.144,2.422c2.854,2.7,9.937,5.547,9.937,5.547s7.78,9.32,8.779,10.245S592.682,415.232,591.683,416.31Z" transform="translate(-406.808 -253.83)" fill="#fff"/>
      <path id="Path_1118" data-name="Path 1118" d="M557.57,421.9V409.64s.32,22.339.57,28.565C557.86,434.328,557.57,421.9,557.57,421.9Z" transform="translate(-406.815 -270.282)" opacity="0.1"/>
      <path id="Path_1119" data-name="Path 1119" d="M559.26,490.86a1.221,1.221,0,0,1,.08.646C559.314,491.615,559.285,491.376,559.26,490.86Z" transform="translate(-407.891 -322.015)" opacity="0.1"/>
      <path id="Path_1120" data-name="Path 1120" d="M572.974,390.588a9.4,9.4,0,0,0-1.674,2.367c-.577,1.271-13.731.232-13.731.232v-1.982l10.478-7.4a50.231,50.231,0,0,1,4.861,2.814C572.974,388.795,572.974,390.588,572.974,390.588Z" transform="translate(-406.815 -253.83)" opacity="0.1"/>
      <path id="Path_1121" data-name="Path 1121" d="M559.26,488.31a1.223,1.223,0,0,1,.08.646C559.314,489.069,559.285,488.829,559.26,488.31Z" transform="translate(-407.891 -320.391)" opacity="0.1"/>
      <path id="Path_1122" data-name="Path 1122" d="M566.709,361.957l-2.095,4.578s-3.122,1.852-3.351,2.022-2.716,3.006-2.716,3.006l-6.125,3.928s-.149-.28-.363-.675a42.646,42.646,0,0,1,4.357-4.93c1.964-1.5-.058-1.674,0-1.964s4.335-1.848,5.489-2.944a48.488,48.488,0,0,1,4.48-3.267A1.769,1.769,0,0,0,566.709,361.957Z" transform="translate(-403.305 -239.753)" opacity="0.1"/>
      <path id="Path_1123" data-name="Path 1123" d="M527.732,362.39a52.3,52.3,0,0,0-4.81,3.464c-1.155,1.1-5.446,2.658-5.489,2.948s1.964.461,0,1.964-6.756,8.546-8.492,9.076-13.571,5.446-13.571,5.446-3.87,3.63-4.447,3.63,3.522,3.928,3.522,3.928,3.7,2.948,4.1,3.409,10.521,5.929,10.521,5.929,1.735.519,1.906,1.038,2.483,1.964,2.483,1.964,2.581,2.966,2.331,4.023-.693-30.133-.693-30.133,13.153,1.038,13.731-.232a9.4,9.4,0,0,1,1.674-2.367s-.036-10.685-.773-11.476S527.747,363.37,527.732,362.39Z" transform="translate(-364.328 -240.186)" fill="#f54242"/>
      <path id="Path_1124" data-name="Path 1124" d="M508.2,417.032s3.464,3.754,5.083,4.389a4.375,4.375,0,0,1,2.251,2.313,13.223,13.223,0,0,0,2.948,1.271,7.3,7.3,0,0,1,2.6,1.732s3.87,1.089,3.87,1.906,1.561,1.91,1.561,1.91l-.388-22.183s-6.43.806-8.278,3.522S508.2,417.032,508.2,417.032Z" transform="translate(-375.368 -269.473)" opacity="0.1"/>
      <path id="Path_1125" data-name="Path 1125" d="M529,419.35c.29-.174,8.176-10.332,8.176-10.332l1.452-.3s-3.743,5.605-3.685,6.067S529,419.35,529,419.35Z" transform="translate(-388.617 -269.696)" opacity="0.1"/>
      <path id="Path_1126" data-name="Path 1126" d="M538.11,426.413s2.08-4.8,2.658-5.606,3.685-6.237,3.685-6.237a3.653,3.653,0,0,1,0,1.387C544.289,416.476,538.11,426.413,538.11,426.413Z" transform="translate(-394.42 -273.422)" opacity="0.1"/>
      <path id="Path_1127" data-name="Path 1127" d="M569.011,348.7s-4.622,8.434-4.215,8.84S569.011,348.7,569.011,348.7Z" transform="translate(-411.401 -231.466)" opacity="0.1"/>
      <path id="Path_1128" data-name="Path 1128" d="M574.789,357.93s-3.812,5.573-3.467,5.5S574.789,357.93,574.789,357.93Z" transform="translate(-415.559 -237.345)" opacity="0.1"/>
      <path id="Path_1129" data-name="Path 1129" d="M545.2,229.254l-7.279.519s0-.236-.025-.643c-.1-2.4-.468-10.783-.664-11.719-.232-1.089-.465-3.061-.465-3.061s-3.928-.577-3.87-1.213-5.025-7.4-1.155-7.261c3.021.091,8.183,3.66,10.307,5.224a1.939,1.939,0,0,1,.773,1.794,7.781,7.781,0,0,0-.065,1.38,19.357,19.357,0,0,1-.076,2.864,4.394,4.394,0,0,0,.327,2.429c.537.962,1.332,4.952,1.815,7.5C545.043,228.331,545.2,229.254,545.2,229.254Z" transform="translate(-389.434 -140.494)" fill="#fbbebe"/>
      <path id="Path_1130" data-name="Path 1130" d="M558.448,272.821l-.138.4c-1.579-1.565-11.472-2.563-11.472-2.563-.868-1.009-.091-1.452.835-2.687.541-.726,3.783-1.757,6.386-2.487h2.712S558.677,272.128,558.448,272.821Z" transform="translate(-399.738 -178.46)" opacity="0.1"/>
      <path id="Path_1131" data-name="Path 1131" d="M558.545,266.41l-7.279.519s0-.236-.025-.643a31.685,31.685,0,0,1,5.863-2.077h1.053C558.392,265.488,558.545,266.41,558.545,266.41Z" transform="translate(-402.783 -177.651)" opacity="0.1"/>
      <path id="Path_1132" data-name="Path 1132" d="M558.448,272.181c-.047.134-.094.269-.138.4-1.579-1.568-11.472-2.567-11.472-2.567-.868-1.009-.091-1.452.835-2.683.541-.726,3.783-1.761,6.386-2.491h2.712S558.677,271.487,558.448,272.181Z" transform="translate(-399.738 -178.052)" fill="#f54242"/>
      <path id="Path_1133" data-name="Path 1133" d="M596.189,442.57s-.81,15.539,0,16.29S596.189,442.57,596.189,442.57Z" transform="translate(-431.183 -291.257)" opacity="0.1"/>
      <path id="Path_1134" data-name="Path 1134" d="M612.344,460.55s-.291,17.1,0,17.27S612.344,460.55,612.344,460.55Z" transform="translate(-441.62 -302.709)" opacity="0.1"/>
      <path id="Path_1135" data-name="Path 1135" d="M631,466.12s1.089,11.785,2.08,12.246S631,466.12,631,466.12Z" transform="translate(-453.586 -306.257)" opacity="0.1"/>
      <path id="Path_1136" data-name="Path 1136" d="M647.07,443.688a2.408,2.408,0,0,1-.926-.363c-.98-.635-2.08-7.453-3.522-8.376s-6.644-9.995-6.644-9.995a47.665,47.665,0,0,0-2.832-4.564c-.81-.933-.4-5.083-.4-5.083a22.64,22.64,0,0,1-3.064-4.564,4.138,4.138,0,0,1-.4-1.485s.308-.911,1.539,0,4.233,4.778,5.043,5.064a7.245,7.245,0,0,1,3.006,2.255,6.251,6.251,0,0,0,1.79,1.619s1.387,3.522,1.329,4.389.461,6.756,1.089,7.279,1.674,5.253,1.674,5.253S646.667,441.789,647.07,443.688Z" transform="translate(-452.49 -269.782)" opacity="0.1"/>
      <path id="Path_1137" data-name="Path 1137" d="M666.05,444.84v-.24a2.264,2.264,0,0,1,.062.523A1.2,1.2,0,0,1,666.05,444.84Z" transform="translate(-475.911 -292.55)" opacity="0.1"/>
      <path id="Path_1138" data-name="Path 1138" d="M669.784,468.726c-.236.41-.458.784-.646,1.089-.955-.984-2.029-7.4-3.427-8.3a6.531,6.531,0,0,1-1.271-1.427v-7.624a9.819,9.819,0,0,0,.726-1.529c.171,2.062.563,5.119,1.013,5.489.635.519,1.674,5.257,1.674,5.257S669.094,466.057,669.784,468.726Z" transform="translate(-474.885 -296.588)" opacity="0.1"/>
      <path id="Path_1139" data-name="Path 1139" d="M647.71,443.051a2.277,2.277,0,0,1-.926-.363c-.984-.635-2.08-7.45-3.525-8.376s-6.64-9.991-6.64-9.991a47.7,47.7,0,0,0-2.832-4.564c-.81-.933-.4-5.083-.4-5.083a22.75,22.75,0,0,1-3.064-4.564,4.176,4.176,0,0,1-.4-1.488s.305-.908,1.539,0,4.233,4.778,5.043,5.065a7.231,7.231,0,0,1,3,2.258,6.118,6.118,0,0,0,1.79,1.616s1.387,3.525,1.329,4.389.465,6.76,1.089,7.279,1.674,5.257,1.674,5.257S647.307,441.152,647.71,443.051Z" transform="translate(-452.898 -269.377)" fill="#f54242"/>
      <circle id="Ellipse_19" data-name="Ellipse 19" cx="0.781" cy="0.781" r="0.781" transform="translate(182.247 150.536)" fill="#3f3d56"/>
      <circle id="Ellipse_20" data-name="Ellipse 20" cx="0.781" cy="0.781" r="0.781" transform="translate(187.373 157.554)" fill="#3f3d56"/>
      <path id="Path_1140" data-name="Path 1140" d="M671.315,454.341s-3.758-1.717-3.18-.791S671.315,454.341,671.315,454.341Z" transform="translate(-477.2 -298.075)" opacity="0.1"/>
      <path id="Path_1141" data-name="Path 1141" d="M671.528,462.009s-3.816-1.038-3.006-.432S671.528,462.009,671.528,462.009Z" transform="translate(-477.413 -303.242)" opacity="0.1"/>
      <path id="Path_1142" data-name="Path 1142" d="M671.639,468.308s-2.6-1.881-1.964-1.187A6.111,6.111,0,0,0,671.639,468.308Z" transform="translate(-478.156 -306.796)" opacity="0.1"/>
      <path id="Path_1143" data-name="Path 1143" d="M679.7,476.14s-2.65,5.213-1.383,5.555S679.7,476.14,679.7,476.14Z" transform="translate(-483.506 -312.639)" opacity="0.1"/>
      <path id="Path_1144" data-name="Path 1144" d="M570.655,711.77s-6.085,5.776-4.313,5.7S570.655,711.77,570.655,711.77Z" transform="translate(-412.196 -462.723)" opacity="0.1"/>
      <path id="Path_1145" data-name="Path 1145" d="M555.24,732.129c.309,0,6.47-.617,4.85-.926S555.24,732.129,555.24,732.129Z" transform="translate(-405.331 -475.069)" opacity="0.1"/>
      <path id="Path_1146" data-name="Path 1146" d="M637.76,709.23s6.535.229,6.393.922S637.76,709.23,637.76,709.23Z" transform="translate(-457.891 -461.105)" opacity="0.1"/>
      <path id="Path_1147" data-name="Path 1147" d="M634.79,716.44s3.772,2.85,4.622,1.924S634.79,716.44,634.79,716.44Z" transform="translate(-456 -465.697)" opacity="0.1"/>
      <path id="Path_1148" data-name="Path 1148" d="M572.546,598.033a1.917,1.917,0,0,1-.24.585.588.588,0,0,1-.167.174,10.376,10.376,0,0,1-3.082,1.452c-.142-.036-.693-.2-1.3-.363-.708-.207-1.492-.428-1.786-.468s-.465-.508-.508-.966,0-.813.193-.882a.459.459,0,0,0,.163-.24,2.892,2.892,0,0,0,.1-.323l.029-.109c.1-.421.185-.955.243-1.394.033-.236.054-.447.072-.588v-.167h0v-.029l.508-.025h.483a29.937,29.937,0,0,1,4.4.044,1.239,1.239,0,0,1,.8.922,4.253,4.253,0,0,1,.181,1.042,4.653,4.653,0,0,1-.1,1.336Z" transform="translate(-411.832 -388.112)" fill="#fbbebe"/>
      <path id="Path_1149" data-name="Path 1149" d="M638.859,603.46a.532.532,0,0,0,0,.076c0,.788-.055,1.383-.055,1.481,0,.3-8.009,2.465-10.009,2.309-1.314-.1-.338-1,.4-1.931a3.041,3.041,0,0,0,.581-.984.722.722,0,0,0,0-.4c-.04-.145-.076-.276-.1-.4h0c-.189-.831-.094-1.089.1-1.293a1.539,1.539,0,0,0,.265-.5,1.981,1.981,0,0,0,.113-.516,1.56,1.56,0,0,0-.294-1.115c-.617-.82,2.313-1.26,2.313-1.26h5.565c.545,0,.835.77.98,1.765a.1.1,0,0,0,0,.033c.04.29.073.6.091.915s.033.6.036.886S638.859,603.166,638.859,603.46Z" transform="translate(-451.769 -390.856)" fill="#fbbebe"/>
      <path id="Path_1150" data-name="Path 1150" d="M580.855,670.922s-6.172,1.452-5.544,1.089c.236-.149.29-.65.269-1.216a8.069,8.069,0,0,0-.073-.839c-.08-.643-.2-1.18-.2-1.18s3.235-.693,4.389-.385a1.376,1.376,0,0,1,.868.93,1.3,1.3,0,0,1,.047.127A5.28,5.28,0,0,1,580.855,670.922Z" transform="translate(-418.086 -435.042)" fill="#fbbebe"/>
      <path id="Path_1151" data-name="Path 1151" d="M594.115,323.061a26.7,26.7,0,0,0,2.4-1.173,3.3,3.3,0,0,1,2.585-.254,4.122,4.122,0,0,1,1.133.8c.726.642,1.452,1.285,2.135,1.971a12.543,12.543,0,0,0,2.226,1.986c1.906,1.165,4.328.9,6.535.556a4.024,4.024,0,0,0,1.289-.363,2.677,2.677,0,0,0,1.115-2.886,6.467,6.467,0,0,0-1.659-2.828,23.234,23.234,0,0,0-7.577-5.605c-3.057-1.405-6.695-2.106-9.744-.693a10.567,10.567,0,0,0-2.541,1.735c-1.06.944-3.8,3.344-3.195,4.967C589.486,323.094,592.536,323.591,594.115,323.061Z" transform="translate(-426.663 -209.233)" opacity="0.1"/>
      <path id="Path_1152" data-name="Path 1152" d="M594.115,322.426a25.723,25.723,0,0,0,2.4-1.173A3.319,3.319,0,0,1,599.1,321a4.286,4.286,0,0,1,1.133.8c.726.643,1.452,1.285,2.135,1.971a12.4,12.4,0,0,0,2.226,1.986c1.906,1.165,4.328.9,6.535.555a3.935,3.935,0,0,0,1.289-.363,2.675,2.675,0,0,0,1.115-2.886,6.466,6.466,0,0,0-1.659-2.828,23.18,23.18,0,0,0-7.577-5.6c-3.057-1.405-6.695-2.106-9.744-.7a10.673,10.673,0,0,0-2.541,1.735c-1.06.944-3.8,3.347-3.195,4.97C589.486,322.462,592.536,322.96,594.115,322.426Z" transform="translate(-426.663 -208.83)" fill="#3f3d56"/>
      <path id="Path_1153" data-name="Path 1153" d="M612.4,337.235a3.9,3.9,0,0,1-1.285.363c-2.207.363-4.625.606-6.535-.555a12.532,12.532,0,0,1-2.236-2c-.683-.69-1.412-1.329-2.135-1.971a4.214,4.214,0,0,0-1.133-.8,3.312,3.312,0,0,0-2.589.258,25.661,25.661,0,0,1-2.4,1.173c-1.579.53-4.629.033-5.312-1.786a1.377,1.377,0,0,1-.069-.272,1.507,1.507,0,0,0,.069.726c.683,1.815,3.732,2.316,5.312,1.786a26.165,26.165,0,0,0,2.4-1.173,3.309,3.309,0,0,1,2.589-.254,4.121,4.121,0,0,1,1.133.8c.726.643,1.452,1.285,2.135,1.971a12.548,12.548,0,0,0,2.226,1.986c1.906,1.165,4.324.9,6.535.555a3.991,3.991,0,0,0,1.285-.363,2.58,2.58,0,0,0,1.173-2.491A2.44,2.44,0,0,1,612.4,337.235Z" transform="translate(-426.639 -220.6)" opacity="0.1"/>
      <path id="Path_1154" data-name="Path 1154" d="M567.153,595.455a14.971,14.971,0,0,1-.4,2.066,17.226,17.226,0,0,0,.363-2.091Z" transform="translate(-412.662 -388.62)" opacity="0.1"/>
      <path id="Path_1155" data-name="Path 1155" d="M572.142,598.807a10.379,10.379,0,0,1-3.082,1.452c-.309-.087-2.541-.77-3.086-.846s-.686-1.7-.316-1.848a.458.458,0,0,0,.163-.24,3.13,3.13,0,0,1-.131.323,1.607,1.607,0,0,0,.363,1.7l3.2.828,3.017-1.648c.726-1-.087-3.3-.5-3.674s-5.362,0-5.362,0l-.109-.105h0v-.029l.508-.026h.483a29.978,29.978,0,0,1,4.4.044C572.912,594.955,572.912,598.269,572.142,598.807Z" transform="translate(-411.835 -388.112)" opacity="0.1"/>
      <path id="Path_1156" data-name="Path 1156" d="M637.738,598.92h-5.566s-2.93.439-2.313,1.26a1.861,1.861,0,0,1-.083,2.128c-.222.232-.316.541,0,1.7s-2.992,3.159-.991,3.311,10.009-2,10.009-2.309S639.227,598.92,637.738,598.92Zm.752,5.976c0,.291-7.548,2.32-9.439,2.178s1.231-2.029.933-3.119-.211-1.38,0-1.6a1.755,1.755,0,0,0,.08-2.008c-.581-.773,2.178-1.187,2.178-1.187h5.246C638.9,599.16,638.49,604.605,638.49,604.9Z" transform="translate(-451.763 -390.843)" opacity="0.1"/>
      <path id="Path_1157" data-name="Path 1157" d="M579.7,668.361c-1.154-.309-4.389.385-4.389.385s.617,2.85,0,3.235,5.547-1.089,5.547-1.089S580.861,668.67,579.7,668.361Zm-4.295,3.558c.6-.363,0-3.126,0-3.126s3.126-.668,4.24-.363,1.115,2.454,1.115,2.454S574.809,672.289,575.408,671.919Z" transform="translate(-418.089 -435.023)" opacity="0.1"/>
      <path id="Path_1158" data-name="Path 1158" d="M641.544,607.289l-9.174,1.089h0l9.138-1.968C641.526,606.7,641.541,606.987,641.544,607.289Z" transform="translate(-454.458 -395.614)" opacity="0.1"/>
      <path id="Path_1159" data-name="Path 1159" d="M489.81,582.021l9.53-2.051.2.893Z" transform="translate(-311.982 -369.475)" fill="#3f3d56"/>
      <path id="Path_1160" data-name="Path 1160" d="M640.675,611.39a.588.588,0,0,0,0,.076L631,613.325a3.044,3.044,0,0,0,.581-.984Z" transform="translate(-453.586 -398.786)" opacity="0.1"/>
      <path id="Path_1161" data-name="Path 1161" d="M485.81,586.1l11.618-1.22-11.309,2.175Z" transform="translate(-309.434 -372.603)" fill="#3f3d56"/>
      <path id="Path_1162" data-name="Path 1162" d="M642.057,603.78l-8.565.61a1.993,1.993,0,0,1-.112.515l8.68-1.089Z" transform="translate(-455.101 -393.939)" opacity="0.1"/>
      <path id="Path_1163" data-name="Path 1163" d="M489.555,578.113l9.733-.694-9.879,1.242Z" transform="translate(-311.727 -367.851)" fill="#3f3d56"/>
      <path id="Path_1164" data-name="Path 1164" d="M573.543,598.226l-6.713.218c.1-.421.185-.955.243-1.394l6.288.134A4.249,4.249,0,0,1,573.543,598.226Z" transform="translate(-412.713 -389.652)" opacity="0.1"/>
      <path id="Path_1165" data-name="Path 1165" d="M423.12,570.76l9.156.193-1.118.977-8.038.258Z" transform="translate(-269.504 -363.609)" fill="#3f3d56"/>
      <path id="Path_1166" data-name="Path 1166" d="M572.573,604a1.91,1.91,0,0,1-.24.584l-4.549,1.26c-.708-.207-1.492-.428-1.786-.468s-.465-.508-.508-.966Z" transform="translate(-411.859 -394.079)" opacity="0.1"/>
      <path id="Path_1167" data-name="Path 1167" d="M419.81,578.041l10.667-.621-9.781,2.708Z" transform="translate(-267.395 -367.851)" fill="#3f3d56"/>
      <path id="Path_1168" data-name="Path 1168" d="M581.038,671.187,576,672.534a8.092,8.092,0,0,0-.073-.839c1.4-.189,3.747-.475,5.061-.635a1.321,1.321,0,0,1,.047.127Z" transform="translate(-418.509 -436.792)" opacity="0.1"/>
      <path id="Path_1169" data-name="Path 1169" d="M572.74,671.012c.192-.076,7.2-.922,7.2-.922l-7.2,1.924Z" transform="translate(-416.477 -436.175)" fill="#3f3d56"/>
      <circle id="Ellipse_21" data-name="Ellipse 21" cx="7.853" cy="7.853" r="7.853" transform="translate(262.278 26.684)" fill="#ededed"/>
      <circle id="Ellipse_22" data-name="Ellipse 22" cx="6.176" cy="6.176" r="6.176" transform="translate(298.812 47.6)" fill="#ededed"/>
      <circle id="Ellipse_23" data-name="Ellipse 23" cx="7.853" cy="7.853" r="7.853" transform="translate(262.278 26.684)" fill="#ededed" opacity="0.4"/>
      <circle id="Ellipse_24" data-name="Ellipse 24" cx="6.176" cy="6.176" r="6.176" transform="translate(298.812 47.6)" fill="#ededed" opacity="0.4"/>
      <circle id="Ellipse_25" data-name="Ellipse 25" cx="19.819" cy="19.819" r="19.819" transform="translate(27.96 33.956)" fill="#f1f1f1"/>
      <circle id="Ellipse_27" data-name="Ellipse 27" cx="2.178" cy="2.178" r="2.178" transform="translate(300.987 24.02)" fill="#ededed"/>
      <circle id="Ellipse_28" data-name="Ellipse 28" cx="2.178" cy="2.178" r="2.178" transform="translate(300.987 24.02)" fill="#ededed" opacity="0.4"/>
      <path id="Path_1170" data-name="Path 1170" d="M450.106,788s2.258,2.952-1.042,7.41-6.019,8.22-4.919,11c0,0,4.978-8.278,9.029-8.394S454.553,792.981,450.106,788Z" transform="translate(-334.41 -511.277)" fill="#f54242"/>
      <path id="Path_1171" data-name="Path 1171" d="M450.331,788a3.626,3.626,0,0,1,.461.926c3.954,4.647,6.059,8.982,2.262,9.076-3.54.1-7.787,6.43-8.8,8.027a3.323,3.323,0,0,0,.12.363s4.977-8.278,9.029-8.394S454.778,792.981,450.331,788Z" transform="translate(-334.636 -511.277)" opacity="0.1"/>
      <path id="Path_1172" data-name="Path 1172" d="M471.619,797.21c0,1.038-.116,1.881-.261,1.881s-.258-.842-.258-1.881.145-.552.287-.552S471.619,796.168,471.619,797.21Z" transform="translate(-351.738 -516.718)" fill="#ffd037"/>
      <path id="Path_1173" data-name="Path 1173" d="M473.378,800.542c-.911.5-1.71.8-1.775.672s.614-.632,1.525-1.129.552-.134.621,0S474.285,800.044,473.378,800.542Z" transform="translate(-352.055 -518.812)" fill="#ffd037"/>
      <path id="Path_1174" data-name="Path 1174" d="M419.242,788s-2.258,2.952,1.042,7.41,6.019,8.22,4.919,11c0,0-4.977-8.278-9.029-8.394S414.784,792.981,419.242,788Z" transform="translate(-315.48 -511.277)" fill="#f54242"/>
      <path id="Path_1175" data-name="Path 1175" d="M419.242,788a3.625,3.625,0,0,0-.461.926c-3.954,4.647-6.059,8.982-2.262,9.076,3.54.1,7.788,6.43,8.8,8.027a3.336,3.336,0,0,1-.12.363s-4.977-8.278-9.029-8.394S414.784,792.981,419.242,788Z" transform="translate(-315.48 -511.277)" opacity="0.1"/>
      <path id="Path_1176" data-name="Path 1176" d="M416.57,797.21c0,1.038.116,1.881.262,1.881s.258-.842.258-1.881-.145-.552-.287-.552S416.57,796.168,416.57,797.21Z" transform="translate(-317.005 -516.718)" fill="#ffd037"/>
      <path id="Path_1177" data-name="Path 1177" d="M411.629,800.542c.911.5,1.706.8,1.775.672s-.613-.632-1.525-1.129-.552-.134-.621,0S410.717,800.044,411.629,800.542Z" transform="translate(-313.505 -518.812)" fill="#ffd037"/>
      <path id="Path_1178" data-name="Path 1178" d="M418.55,831.665s6.31-.192,8.212-1.55,9.712-2.97,10.184-.8,9.483,10.8,2.356,10.862-16.555-1.111-18.454-2.265S418.55,831.665,418.55,831.665Z" transform="translate(-318.266 -536.916)" fill="#a8a8a8"/>
      <path id="Path_1179" data-name="Path 1179" d="M439.429,845.376c-7.123.058-16.555-1.111-18.454-2.266-1.452-.882-2.022-4.044-2.215-5.5h-.211s.4,5.083,2.3,6.248,11.331,2.324,18.454,2.266c2.058,0,2.77-.748,2.73-1.833C441.745,844.962,440.961,845.376,439.429,845.376Z" transform="translate(-318.266 -542.876)" opacity="0.2"/>
      <path id="Path_1180" data-name="Path 1180" d="M811.753,773.476s-4.033-13.7.755-23.78a21.637,21.637,0,0,0,1.75-13.575,36.457,36.457,0,0,0-1.921-6.372" transform="translate(-567.704 -474.175)" fill="none" stroke="#535461" stroke-miterlimit="10" stroke-width="2"/>
      <path id="Path_1181" data-name="Path 1181" d="M813.691,707.047c0,1.681-3.039,6.535-3.039,6.535s-3.042-4.869-3.042-6.535a3.042,3.042,0,0,1,6.081,0Z" transform="translate(-566.077 -457.843)" fill="#f54242"/>
      <path id="Path_1182" data-name="Path 1182" d="M827.48,729.588c-.911,1.408-6.11,3.841-6.11,3.841s.094-5.736,1.006-7.145a3.04,3.04,0,0,1,5.1,3.3Z" transform="translate(-574.841 -471.083)" fill="#f54242"/>
      <path id="Path_1183" data-name="Path 1183" d="M824.934,771.49c-1.5.755-7.214.232-7.214.232s2.981-4.9,4.477-5.664a3.047,3.047,0,1,1,2.737,5.446Z" transform="translate(-572.516 -497.095)" fill="#f54242"/>
      <path id="Path_1184" data-name="Path 1184" d="M817.272,804.979c-1.351,1-7.072,1.452-7.072,1.452s2.106-5.337,3.456-6.335a3.044,3.044,0,0,1,3.63,4.887Z" transform="translate(-567.726 -518.599)" fill="#f54242"/>
      <path id="Path_1185" data-name="Path 1185" d="M802.175,740.141c1.205,1.169,6.815,2.382,6.815,2.382s-1.376-5.573-2.578-6.742a3.039,3.039,0,1,0-4.237,4.357Z" transform="translate(-562.029 -477.468)" fill="#f54242"/>
      <path id="Path_1186" data-name="Path 1186" d="M792.2,777.968c1.5.755,7.214.232,7.214.232s-2.977-4.9-4.477-5.664a3.042,3.042,0,0,0-2.737,5.431Z" transform="translate(-555.249 -501.245)" fill="#f54242"/>
      <path id="Path_1187" data-name="Path 1187" d="M789.48,817.213c1.347,1,7.069,1.452,7.069,1.452s-2.106-5.341-3.456-6.339a3.045,3.045,0,0,0-3.63,4.89Z" transform="translate(-553.734 -526.389)" fill="#f54242"/>
      <path id="Path_1188" data-name="Path 1188" d="M813.691,707.047c0,1.681-3.039,6.535-3.039,6.535s-3.042-4.869-3.042-6.535a3.042,3.042,0,0,1,6.081,0Z" transform="translate(-566.077 -457.843)" fill="#f54242"/>
      <path id="Path_1189" data-name="Path 1189" d="M827.48,729.588c-.911,1.408-6.11,3.841-6.11,3.841s.094-5.736,1.006-7.145a3.04,3.04,0,0,1,5.1,3.3Z" transform="translate(-574.841 -471.083)" fill="#f54242"/>
      <path id="Path_1190" data-name="Path 1190" d="M824.934,771.49c-1.5.755-7.214.232-7.214.232s2.981-4.9,4.477-5.664a3.047,3.047,0,1,1,2.737,5.446Z" transform="translate(-572.516 -497.095)" fill="#f54242"/>
      <path id="Path_1191" data-name="Path 1191" d="M817.272,804.979c-1.351,1-7.072,1.452-7.072,1.452s2.106-5.337,3.456-6.335a3.044,3.044,0,0,1,3.63,4.887Z" transform="translate(-567.726 -518.599)" fill="#f54242"/>
      <path id="Path_1192" data-name="Path 1192" d="M802.175,740.141c1.205,1.169,6.815,2.382,6.815,2.382s-1.376-5.573-2.578-6.742a3.039,3.039,0,1,0-4.237,4.357Z" transform="translate(-562.029 -477.468)" fill="#f54242"/>
      <path id="Path_1193" data-name="Path 1193" d="M792.2,777.968c1.5.755,7.214.232,7.214.232s-2.977-4.9-4.477-5.664a3.042,3.042,0,0,0-2.737,5.431Z" transform="translate(-555.249 -501.245)" fill="#f54242"/>
      <path id="Path_1194" data-name="Path 1194" d="M789.48,817.213c1.347,1,7.069,1.452,7.069,1.452s-2.106-5.341-3.456-6.339a3.045,3.045,0,0,0-3.63,4.89Z" transform="translate(-553.734 -526.389)" fill="#f54242"/>
      <path id="Path_1195" data-name="Path 1195" d="M788.27,839.406s4.916-.977,6.223-2.276,7.207-3.576,7.864-1.95,8.84,7.152,3.268,8.129-13.1,1.3-14.74.65S788.27,839.406,788.27,839.406Z" transform="translate(-553.758 -540.969)" fill="#a8a8a8"/>
      <path id="Path_1196" data-name="Path 1196" d="M805.631,851.03c-5.569.977-13.1,1.3-14.74.653-1.245-.5-2.113-2.875-2.458-3.994l-.163.033s.984,3.9,2.621,4.553,9.171.327,14.74-.65c1.6-.283,2.066-.944,1.891-1.779C807.385,850.4,806.826,850.823,805.631,851.03Z" transform="translate(-553.758 -549.296)" opacity="0.2"/>
      <path id="Path_1197" data-name="Path 1197" d="M263.6,97.361v.131a.427.427,0,0,0,0,.069v.388a.047.047,0,0,1,0,.022v.236l-.033.254a.843.843,0,0,1-.029.167h0a.681.681,0,0,0,0,.084v.051a.183.183,0,0,1,0,.044.152.152,0,0,1-.018.087c-.018.029,0,.058-.018.087s0,.044,0,.065a1.132,1.132,0,0,1-.025.113h0a.578.578,0,0,1-.018.076.908.908,0,0,1-.025.094.43.43,0,0,1-.029.113.089.089,0,0,0,0,.029.359.359,0,0,1-.036.116c-.033.116-.073.236-.113.363,0,.036-.029.073-.04.109a.4.4,0,0,1-.025.062,7.9,7.9,0,0,1-1.06,1.939l-.084.109a8.042,8.042,0,0,1-.683.777l-11.44,11.342L238.6,102.959a8.068,8.068,0,0,1-.89-1.057,7.805,7.805,0,0,1-.461-.726,8.027,8.027,0,0,1-.969-4.553,2.967,2.967,0,0,1,.051-.436q.054-.363.142-.762a.534.534,0,0,1,.04-.149l.022-.08v-.044l.033-.116h0c.025-.087.054-.174.084-.261s.025-.08.04-.12c.058-.171.123-.338.2-.5l.044-.1L237,93.9l.116-.24h0c0-.036.036-.073.058-.109a.977.977,0,0,1,.065-.12c.025-.051.054-.1.084-.149a.722.722,0,0,0,.04-.073.149.149,0,0,0,.025-.04h0l.054-.087c.022-.033.04-.065.062-.094l.145-.218.051-.073.065-.091.069-.094.087-.113.076-.094.029-.036.054-.065a1.256,1.256,0,0,1,.091-.105.529.529,0,0,1,.036-.047h0l.065-.076.08-.083c.069-.076.142-.152.218-.225l.087-.087.134-.127.091-.084.109-.094.069-.062.073-.058.142-.116.073-.058c.123-.094.247-.185.363-.269l.073-.051.076-.051.073-.047.105-.065.054-.033.076-.047c.105-.058.211-.12.316-.174l.062-.033.1-.051.08-.036.084-.04.08-.04.08-.036.083-.036c.109-.047.221-.091.33-.131l.083-.033.087-.033.08-.025.065-.022.152-.051.123-.083.062-.018h.062l.113-.033.145-.036c.149-.036.3-.069.454-.1h.414c.145,0,.29-.033.439-.044h1.216c.12,0,.236.022.363.033l.16.022h.338c.152.029.3.062.45.1l.185.047h.051l.08.022.152.044.065.022.33.113.073.029.1.036.152.062.167.073L247.6,90l.094.044.08.04.08.036.1.054.08.04.185.1.076.044.269.163.073.047.076.051.073.051h0l.051.033.316.232.073.058.142.116.073.058.069.062.109.094.091.084.134.127.087.087.091-.087c.044-.044.087-.087.134-.127a.98.98,0,0,1,.091-.084l.105-.094.073-.062.069-.058.145-.116.073-.058c.123-.094.247-.185.363-.269l.076-.051.076-.051.073-.047.105-.065.054-.033.076-.047c.105-.058.211-.12.316-.174l.062-.033.1-.051.08-.036.08-.04.083-.04.08-.036.084-.036c.109-.047.218-.091.33-.131l.08-.033.091-.033L253,89.7l.065-.022.152-.051.076-.022.065-.018h.062l.109-.033.145-.036q.229-.054.457-.1h.41c.145,0,.294-.033.439-.044H256.2l.363.033.156.022h.341c.149.029.3.062.45.1l.185.047h.051l.08.022.153.044.065.022.33.113.073.029.1.036.149.062.171.073.065.029.091.044.08.04.083.036.1.054.08.04.185.1.08.044.269.163.069.047.076.051.08.058h0l.047.033c.109.076.214.152.316.232a.566.566,0,0,1,.073.058c.051.036.1.076.145.116l.073.058.069.062.094.08.091.084.051.051h0l.087.084.04.04.047.047.087.087.134.142a.8.8,0,0,1,.073.083c.043.044.083.091.127.138l.131.156a6.505,6.505,0,0,1,.418.566.545.545,0,0,1,.076.062.687.687,0,0,1,.058.083l.047.076.08.127.069.12.04.073.033.058.033.058.047.087.044.087c.105.2.2.414.287.624l.036.091c.033.087.065.174.094.261a.754.754,0,0,1,.029.08.407.407,0,0,0,.036.113l.033.1.022.065a.373.373,0,0,0,.025.091l.033.116c.018.062.033.127.047.189s.018.065.025.1.018.091.029.138a.353.353,0,0,0,0,.062v1.049h0a.488.488,0,0,1,0,.073.489.489,0,0,1,0,.073v.12h0V97.1Z" transform="translate(-202.152 -66.287)" fill="#ff6584"/>
      <path id="Path_1198" data-name="Path 1198" d="M264,97.361v.131a.427.427,0,0,0,0,.069v.388a.046.046,0,0,1,0,.022v.236l-.033.254a.843.843,0,0,1-.029.167h0a.669.669,0,0,0,0,.084v.051a.183.183,0,0,1,0,.044.152.152,0,0,1-.018.087c-.018.029,0,.058-.018.087s0,.044,0,.065-.018.076-.025.113h0a.579.579,0,0,1-.018.076.872.872,0,0,1-.025.094.431.431,0,0,1-.029.113.088.088,0,0,0,0,.029.359.359,0,0,1-.036.116c-.033.116-.073.236-.113.363,0,.036-.029.073-.04.109a.391.391,0,0,1-.025.062,7.987,7.987,0,0,0-2.124-7.541A8.119,8.119,0,0,0,260.1,91.49c-.145-.091-.29-.178-.439-.258a7.987,7.987,0,0,0-8.579.476,7.69,7.69,0,0,0-1.046.882,8.78,8.78,0,0,0-.98-.835h0a8.317,8.317,0,0,0-.828-.523,8.02,8.02,0,0,0-7.715,0,8.294,8.294,0,0,0-1.14.759,8.122,8.122,0,0,0-1.547,1.641c-.16.225-.309.457-.443.693h0a7.529,7.529,0,0,0-.341.686c-.058.127-.113.258-.163.388a.532.532,0,0,1,.04-.149l.022-.08v-.044l.033-.116h0c.025-.087.055-.174.084-.261s.025-.08.04-.12c.058-.171.123-.338.2-.5l.044-.1.065-.149.116-.24h0c0-.036.036-.073.058-.109a.981.981,0,0,1,.065-.12c.025-.051.054-.1.083-.149a.725.725,0,0,0,.04-.073.149.149,0,0,0,.025-.04h0l.054-.087c.022-.033.04-.065.062-.094l.145-.218.051-.073.065-.091.069-.094.087-.113.076-.094.029-.036.054-.065a1.266,1.266,0,0,1,.091-.105.535.535,0,0,1,.036-.047h0l.065-.076.08-.084c.069-.076.142-.152.218-.225l.087-.087.134-.127.091-.084.109-.094.069-.062.073-.058.142-.116.073-.058c.123-.094.247-.185.363-.269l.073-.051.076-.051.073-.047.105-.065.054-.033.076-.047c.105-.058.211-.12.316-.174l.062-.033.1-.051.08-.036.083-.04.08-.04.08-.036.083-.036c.109-.047.221-.091.33-.131l.083-.033.087-.033.08-.025.065-.022.152-.051.116-.058.062-.018h.062l.113-.033.145-.036c.149-.036.3-.069.454-.1h.414c.145,0,.29-.033.439-.044h1.216c.12,0,.236.022.363.033l.16.022h.338c.152.029.3.062.45.1l.185.047h.051l.08.022.152.044.065.022.33.113.073.029.1.036.152.062.167.073L248,90l.094.044.08.04.08.036.1.054.08.04.185.1.076.044.269.163.073.047.076.051.073.051h0l.051.033.316.232.073.058.142.116.073.058.069.062.109.094.091.084.134.127.087.087.091-.087c.044-.044.087-.087.134-.127a.992.992,0,0,1,.091-.084l.105-.094.073-.062.069-.058.145-.116.073-.058c.123-.094.247-.185.363-.269l.076-.051.076-.051.073-.047.105-.065.054-.033.076-.047c.105-.058.211-.12.316-.174l.062-.033.1-.051.08-.036.08-.04.083-.04.08-.036.083-.036c.109-.047.218-.091.33-.131l.08-.033.091-.033.08-.025.065-.022.152-.051.076-.022.065-.018h.062l.109-.033.145-.036q.229-.054.457-.1h.41c.145,0,.294-.033.439-.044H256.6l.363.033.156.022h.341c.149.029.3.062.45.1l.185.047h.051l.08.022.152.044.065.022.33.113.073.029.1.036.149.062.171.073.065.029.091.044.08.04.083.036.1.054.08.04.185.1.08.044.269.163.069.047.076.051.08.058h0l.047.033c.109.076.214.152.316.232a.567.567,0,0,1,.073.058c.051.036.1.076.145.116l.073.058.069.062.094.08.091.084.051.051h0l.087.084.04.04.047.047.087.087.134.142a.793.793,0,0,1,.073.083c.044.044.083.091.127.138l.131.156a6.5,6.5,0,0,1,.418.566.543.543,0,0,1,.076.062.688.688,0,0,1,.058.083l.047.076.08.127.069.12.04.073.033.058.033.058.047.087.044.087c.105.2.2.414.287.624l.036.091c.033.087.065.174.094.261a.722.722,0,0,1,.029.08.408.408,0,0,0,.036.113l.033.1.022.065a.37.37,0,0,0,.025.091l.033.116c.018.062.033.127.047.189s.018.065.025.1.018.091.029.138a.372.372,0,0,0,0,.062v1.049h0a.488.488,0,0,1,0,.073.489.489,0,0,1,0,.073v.12h0V97.1Z" transform="translate(-202.552 -66.287)" opacity="0.1"/>
    </g>
  </g>
</svg>
