<svg xmlns="http://www.w3.org/2000/svg" width="110" height="110" viewBox="0 0 110 110">
  <g id="Group_3534" data-name="Group 3534" transform="translate(-112 -4630.905)">
    <g id="Ellipse_7" data-name="Ellipse 7" transform="translate(112 4630.905)" fill="#fff" stroke="#707070" stroke-width="1" opacity="0.29">
      <circle cx="55" cy="55" r="55" stroke="none"/>
      <circle cx="55" cy="55" r="54.5" fill="none"/>
    </g>
    <g id="scope" transform="translate(137.887 4651.933)">
      <path id="Path_527" data-name="Path 527" d="M131.559,33.029a3.419,3.419,0,1,0-3.418-3.419A3.423,3.423,0,0,0,131.559,33.029Zm0-4.755a1.337,1.337,0,1,1-1.336,1.336A1.337,1.337,0,0,1,131.559,28.274Zm0,0" transform="translate(-108.285 -22.197)" fill="#fff"/>
      <path id="Path_528" data-name="Path 528" d="M220.305,326.566a3.419,3.419,0,1,0,3.418,3.419A3.423,3.423,0,0,0,220.305,326.566Zm0,4.755a1.337,1.337,0,1,1,1.336-1.336A1.338,1.338,0,0,1,220.305,331.321Zm0,0" transform="translate(-183.497 -276.761)" fill="#fff"/>
      <path id="Path_529" data-name="Path 529" d="M54.471,19.181a1.61,1.61,0,1,1-1.61-1.61A1.61,1.61,0,0,1,54.471,19.181Zm0,0" transform="translate(-43.121 -14.891)" fill="#fff"/>
      <path id="Path_530" data-name="Path 530" d="M341.189,333.208a1.61,1.61,0,1,1-1.61-1.61A1.61,1.61,0,0,1,341.189,333.208Zm0,0" transform="translate(-286.112 -281.025)" fill="#fff"/>
      <path id="Path_531" data-name="Path 531" d="M355.574,224.581a1.04,1.04,0,0,0-1.472,0l-1.1,1.1-1.1-1.1a1.041,1.041,0,1,0-1.472,1.472l1.1,1.1-1.1,1.1a1.041,1.041,0,1,0,1.472,1.472l1.1-1.1,1.1,1.1a1.041,1.041,0,1,0,1.472-1.472l-1.1-1.1,1.1-1.1A1.041,1.041,0,0,0,355.574,224.581Zm0,0" transform="translate(-296.407 -190.071)" fill="#fff"/>
      <path id="Path_532" data-name="Path 532" d="M22.738,154.643a1.041,1.041,0,0,0,1.472,0l1.1-1.1,1.1,1.1a1.041,1.041,0,0,0,1.472-1.472l-1.1-1.1,1.1-1.1a1.041,1.041,0,0,0-1.472-1.473l-1.1,1.1-1.1-1.1a1.041,1.041,0,0,0-1.472,1.473l1.1,1.1-1.1,1.1a1.04,1.04,0,0,0,0,1.472Zm0,0" transform="translate(-18.699 -126.433)" fill="#fff"/>
      <path id="Path_533" data-name="Path 533" d="M62.058,12.308,50.043.293a1.071,1.071,0,0,0-1.472,0L31.883,16.98a1.04,1.04,0,0,0,0,1.472l1.267,1.267L21.2,31.665a1.041,1.041,0,0,0,0,1.473l.6.6L5.184,50.355,2.6,52.941l-.453-.453A1.041,1.041,0,0,0,.673,53.96l1.112,1.112a.919.919,0,0,0,.061.092l5.34,5.34a.991.991,0,0,0,.094.063l1.465,1.465a1.041,1.041,0,0,0,1.472-1.472l-.807-.807L12,57.167,28.615,40.549l.6.6a1.041,1.041,0,0,0,1.472,0L42.633,29.2,43.9,30.467a1.041,1.041,0,0,0,1.472,0l13.35-13.35,3.337-3.337a1.04,1.04,0,0,0,0-1.472ZM4.071,54.413,5.92,52.564l3.868,3.868L7.939,58.28Zm7.189.546L7.392,51.091,23.275,35.208l3.868,3.868Zm18.69-16.02L23.412,32.4l11.21-11.21,6.538,6.538Zm14.685-10.68L43.37,26.994h0L35.36,18.984v0h0l-1.265-1.265L45.969,5.838,56.512,16.381Zm13.35-13.35L47.442,4.366,49.306,2.5,59.849,13.044Zm0,0" fill="#fff"/>
    </g>
  </g>
</svg>
