<svg xmlns="http://www.w3.org/2000/svg" width="24.49" height="24.49" viewBox="0 0 24.49 24.49">
  <g id="Group_611" data-name="Group 611" transform="translate(-0.001)">
    <g id="worldwide">
      <g id="Group_610" data-name="Group 610">
        <path id="Path_940" data-name="Path 940" d="M12.245,0A12.245,12.245,0,1,0,24.489,12.245,12.259,12.259,0,0,0,12.245,0ZM8.264,2.37A12.412,12.412,0,0,0,6.585,5.735a11.389,11.389,0,0,1-1.966-.913A10.686,10.686,0,0,1,8.264,2.37ZM3.582,6.06A12.908,12.908,0,0,0,6.148,7.271,21.381,21.381,0,0,0,5.6,11.446H1.627A10.585,10.585,0,0,1,3.582,6.06Zm0,12.369a10.585,10.585,0,0,1-1.955-5.386H5.6a21.38,21.38,0,0,0,.544,4.175A12.912,12.912,0,0,0,3.582,18.429Zm1.037,1.238a11.389,11.389,0,0,1,1.966-.913,12.411,12.411,0,0,0,1.679,3.365A10.683,10.683,0,0,1,4.619,19.667Zm6.827,3.077C9.8,22.14,8.685,19.971,8.116,18.3a17.583,17.583,0,0,1,3.33-.45Zm0-6.491a19.16,19.16,0,0,0-3.765.513,19.8,19.8,0,0,1-.48-3.723h4.244v3.21Zm0-4.807H7.2a19.789,19.789,0,0,1,.48-3.723,19.16,19.16,0,0,0,3.765.513Zm0-4.808a17.584,17.584,0,0,1-3.33-.45c.569-1.669,1.68-3.838,3.33-4.443Zm9.461-.577a10.585,10.585,0,0,1,1.955,5.386H18.885a21.381,21.381,0,0,0-.544-4.175A12.912,12.912,0,0,0,20.907,6.06ZM19.87,4.822a11.389,11.389,0,0,1-1.966.913A12.412,12.412,0,0,0,16.226,2.37,10.683,10.683,0,0,1,19.87,4.822ZM13.043,1.745c1.649.605,2.761,2.773,3.33,4.443a17.583,17.583,0,0,1-3.33.45V1.745Zm0,6.491a19.16,19.16,0,0,0,3.765-.513,19.8,19.8,0,0,1,.48,3.723H13.043Zm0,4.8h4.244a19.845,19.845,0,0,1-.48,3.728,19.16,19.16,0,0,0-3.765-.513Zm0,9.707V17.852a17.584,17.584,0,0,1,3.33.45C15.8,19.97,14.693,22.139,13.043,22.745Zm3.183-.625A12.411,12.411,0,0,0,17.9,18.754a11.391,11.391,0,0,1,1.966.913A10.686,10.686,0,0,1,16.226,22.119Zm4.681-3.69a12.908,12.908,0,0,0-2.566-1.211,21.436,21.436,0,0,0,.544-4.18h3.977A10.6,10.6,0,0,1,20.907,18.429Z" transform="translate(0)"/>
      </g>
    </g>
  </g>
</svg>
