<svg xmlns="http://www.w3.org/2000/svg" xmlns:xlink="http://www.w3.org/1999/xlink" width="29.123" height="29.123" viewBox="0 0 29.123 29.123">
  <defs>
    <clipPath id="clip-path">
      <rect id="Rectangle_14" data-name="Rectangle 14" width="26.968" height="24.469" transform="translate(0 0)"/>
    </clipPath>
  </defs>
  <g id="Group_3532" data-name="Group 3532" transform="translate(18763.771 20905.758)">
    <g id="Group_237" data-name="Group 237" transform="translate(-18762.695 -20902.104)" clip-path="url(#clip-path)">
      <path id="Path_10" data-name="Path 10" d="M18.362,35.723A12.645,12.645,0,0,1,8.486,15.179,13.562,13.562,0,1,0,29.95,28.144a12.649,12.649,0,0,1-11.588,7.579" transform="translate(-2.982 -15.179)" fill="#f57142"/>
    </g>
    <path id="Path_11" data-name="Path 11" d="M36.622,60.592c0,.856-.507,1.55-1.132,1.55s-1.132-.694-1.132-1.55.507-1.55,1.132-1.55,1.132.694,1.132,1.55" transform="translate(-18790.061 -20951.371)" fill="#fff"/>
    <path id="Path_12" data-name="Path 12" d="M84.73,60.592c0,.856-.507,1.55-1.132,1.55s-1.132-.694-1.132-1.55.507-1.55,1.132-1.55,1.132.694,1.132,1.55" transform="translate(-18827.449 -20951.371)" fill="#fff"/>
    <path id="Path_13" data-name="Path 13" d="M48.332,84.5c0,.012,0,.024,0,.036a3.379,3.379,0,1,0,6.757,0c0-.012,0-.024,0-.036Z" transform="translate(-18800.92 -20971.16)" fill="#fff"/>
    <path id="Path_14" data-name="Path 14" d="M27.445,9.249a13.537,13.537,0,1,1-6.672-5.191" transform="translate(-18765.408 -20908.025)" fill="none" stroke="#fff" stroke-linecap="round" stroke-linejoin="round" stroke-miterlimit="10" stroke-width="2"/>
    <path id="Path_15" data-name="Path 15" d="M96.424,12.938a13.628,13.628,0,0,1,2.258,1.824" transform="translate(-18838.297 -20915.541)" fill="none" stroke="#fff" stroke-linecap="round" stroke-linejoin="round" stroke-miterlimit="10" stroke-width="2"/>
    <path id="Path_16" data-name="Path 16" d="M86.249,20.852c-.54.684-1.823.571-3.306-.6s-1.95-2.44-1.41-3.124,1.882-.524,3.366.648,1.89,2.393,1.35,3.077" transform="translate(-18826.555 -20918.482)" fill="#f57142"/>
    <path id="Path_17" data-name="Path 17" d="M106.857,46.105a1.388,1.388,0,1,1-1.388-1.388,1.388,1.388,0,0,1,1.388,1.388" transform="translate(-18844.248 -20940.238)" fill="#f57142"/>
  </g>
</svg>
