<svg xmlns="http://www.w3.org/2000/svg" xmlns:xlink="http://www.w3.org/1999/xlink" width="96.924" height="292.399" viewBox="0 0 96.924 292.399">
  <defs>
    <clipPath id="clip-path">
      <rect id="Rectangle_977" data-name="Rectangle 977" width="96.924" height="292.399" transform="translate(0 0)"/>
    </clipPath>
  </defs>
  <g id="Group_2740" data-name="Group 2740" transform="translate(-281.278 -1333)">
    <g id="Group_2723" data-name="Group 2723" transform="translate(281.278 1333)" clip-path="url(#clip-path)">
      <path id="Path_1494" data-name="Path 1494" d="M1192.542,1058.5c-.046-4.2.085-6.8.457-7.1l-.02-3c-.424,0-.574,4-.522,10.6s.606,4,.606,4l-.006-1.5c-.163.2-.483.3-.515-3Z" transform="translate(-1135.23 -773.701)" fill="#aa8d79"/>
    </g>
    <g id="Group_2724" data-name="Group 2724" transform="translate(281.278 1333)" clip-path="url(#clip-path)">
      <path id="Path_1495" data-name="Path 1495" d="M1191.242,1058.9c-.046-4.8.085-7.7.456-8l-.02-3.4c-.424,0-.574,4.5-.522,11.9.046,7.5.607,4.5.607,4.5l-.007-1.7c-.163.3-.476.4-.515-3.3Z" transform="translate(-1134.015 -773.701)" fill="#d5b9a3"/>
    </g>
    <g id="Group_2726" data-name="Group 2726" transform="translate(281.278 1333)" clip-path="url(#clip-path)">
      <path id="Path_1604" data-name="Path 1604" d="M1793.361,964.9c.1-1.4.137-2.6.117-3.1s-.078.4-.176,1.8-.248,2.7-.228,3.2.183-.5.287-1.9Z" transform="translate(-1696.685 -773.7)" fill="#f29c62"/>
    </g>
    <g id="Group_2727" data-name="Group 2727" transform="translate(281.278 1333)" clip-path="url(#clip-path)">
      <path id="Path_1605" data-name="Path 1605" d="M1795.376,967.4c.117-1,.2-2.9.176-3.4-.013-.6-.111.9-.228,1.9a17.272,17.272,0,0,0-.17,2.3c.013.6.1.2.222-.8Z" transform="translate(-1698.628 -773.7)" fill="#f29c62"/>
    </g>
    <path id="Path_1607" data-name="Path 1607" d="M1740.7,937c-11.6-5-19,3-21.9,3.1,0,0,3.4-1.4,2-8.5s-5.4-7-6.6-1.4c0,0-2.5-6.5,2.8-10.3,0,0-2-8.4-8.2-3.6.1-9.5,6.7-7.4,5.6-13.2-.6-3.2-3.6-11.5-.2-16.5,0,0,1.5,9.5,10.6,3.2,5.2-3.3.9-12.7,8-15.5,0,0-4,11.4,6.7,8.6,4-1.1,13.3-13.8,22.6-8,0,0-8.6,4.5-1.4,10.5a8.77,8.77,0,0,0,7.6,2.3c2.6-.3,4.9-.5,8.6,4.6,0,0-11.6,3.1-2.2,12.3,0,0,5.3,5.3,3.3,11,0,0-3-4.2-6.4-2.3,0,0,10.2,10.3,5.3,19.6,0,0-5.1-9.5-10.1-8.4-5.1.9-15.2,17.1-26.1,12.5" transform="translate(-1423.098 559.3)" fill="#a35236"/>
    <path id="Path_1608" data-name="Path 1608" d="M1777.9,915.4c1.3-3.7-.5-7.3-2-9.3-1.1.1-2.2.1-3.3.1-16.2,0-29.4-8.6-29.4-19.3a14.587,14.587,0,0,1,4.1-9.8c-3.3,2.4-6.1,5.1-7.9,5.6-10.8,2.8-6.7-8.6-6.7-8.6-7,2.8-2.7,12.2-8,15.5-9.1,6.3-10.6-3.2-10.6-3.2-3.4,5-.3,13.3.2,16.5,1.1,5.8-5.5,3.7-5.6,13.2,6.3-4.8,8.2,3.6,8.2,3.6-5.2,3.8-2.8,10.3-2.8,10.3,1.2-5.5,5.2-5.7,6.6,1.4s-2,8.5-2,8.5c2.9-.1,10.3-8,21.9-3.1,10.9,4.7,21-11.5,25.9-12.7,5-1.2,10.1,8.4,10.1,8.4,4.9-9.3-5.3-19.6-5.3-19.6,3.6-1.8,6.6,2.5,6.6,2.5" transform="translate(-1423.098 559.3)" fill="#964732"/>
    <path id="Path_1610" data-name="Path 1610" d="M1777.9,915.4c1.2-3.4-.2-6.6-1.5-8.6-6.4,10.6-20.1,17.9-36,17.9a47.336,47.336,0,0,1-23.8-6.2,6.315,6.315,0,0,1,.4,1.3c-5.2,3.8-2.8,10.3-2.8,10.3,1.2-5.5,5.2-5.7,6.6,1.4s-2,8.5-2,8.5c2.9-.1,10.3-8,21.9-3.1,10.9,4.7,21-11.5,25.9-12.7,5-1.2,10.1,8.4,10.1,8.4,4.9-9.3-5.3-19.6-5.3-19.6,3.5-1.9,6.5,2.4,6.5,2.4" transform="translate(-1423.098 559.299)" fill="#8c412c"/>
    <path id="Path_1611" data-name="Path 1611" d="M1747.7,927.6h-7.4v12.2h7.4V927.6" transform="translate(-1423.098 559.299)" fill="#f29c62"/>
    <path id="Path_1612" data-name="Path 1612" d="M1754.7,1046.1s-.7,14,4.5,15.1c1.2.3,1.6,2.3,1.6,2.3h-11.4a3.037,3.037,0,0,1,1.2-2.9c3.8-2.1,2.8-9.1,3-14.1l1.1-.4Z" transform="translate(-1423.098 559.299)" fill="#fcbb80"/>
    <path id="Path_1613" data-name="Path 1613" d="M1753,1057.3a24.522,24.522,0,0,1,2.7.2h.4c-1.6-4.5-1.3-11.5-1.3-11.5l-1.1.5c-.2,3.5.2,7.8-.7,10.8Z" transform="translate(-1423.098 559.299)" fill="#f29c62"/>
    <path id="Path_1614" data-name="Path 1614" d="M1760.1,1061.4a4.682,4.682,0,0,1-2.9-2.3h0a17.664,17.664,0,0,1-5.2-.7,4.909,4.909,0,0,1-2.2,2.3,2.682,2.682,0,0,0-1.5,2.7h13.6c0,.1-.4-1.7-1.8-2Z" transform="translate(-1423.098 559.299)" fill="#634d3b"/>
    <path id="Path_1615" data-name="Path 1615" d="M1730.3,1046.1s3.4,13,5.1,13.7c1.1.5,1,3.7,1,3.7h-15.5a2.034,2.034,0,0,1,1.3-2.4c1.7-.5,6-1.1,7.8-2.5,2.1-1.6-.8-12.1-.8-12.1l1.1-.4Z" transform="translate(-1423.098 559.299)" fill="#fcbb80"/>
    <path id="Path_1616" data-name="Path 1616" d="M1730.8,1055.8h2.6c-1.5-4.1-3-9.7-3-9.7l-1.1.5c-.1,0,1.4,5.6,1.5,9.2Z" transform="translate(-1423.098 559.299)" fill="#f29c62"/>
    <path id="Path_1617" data-name="Path 1617" d="M1736.6,1060a24.526,24.526,0,0,1-2.7.2,26.3,26.3,0,0,1-5.6-1c-2.2.9-4.6,1.8-6,2.2a1.772,1.772,0,0,0-1.4,2.1h16.6c.1,0,.2-2.8-.9-3.5Z" transform="translate(-1423.098 559.299)" fill="#634d3b"/>
    <path id="Path_1618" data-name="Path 1618" d="M1738,1053.3s-1.9-19.9-1.7-23.1-.4-22.5,6.2-22.9,9.6,22.5,9.6,22.5l-1.7,22.5h10.5l-1.7-24.6-3-37.4-28.9-1.5,1.5,39.8-1.9,25.2,11.1-.5Z" transform="translate(-1423.098 559.299)" fill="#634d3b"/>
    <path id="Path_1619" data-name="Path 1619" d="M1737.1,1016.2c2.2-11.3,11.3-17.5,19.5-17.8-.1-2.5-.2-9.7,0-11.2l-29.4,1.5,1.5,39.8-1.9,25.2,5.5-.2c-1.8-5.2-3-13.2-3-22.2,0-14,7-10.7,7.8-15.1Z" transform="translate(-1423.098 559.299)" fill="#513c2d"/>
    <path id="Path_1620" data-name="Path 1620" d="M1758.1,1011.2c-19.8-7.9-17.1-3.8-15.7-3.9,6.6-.4,9.6,22.5,9.6,22.5l-1.7,22.5h5.7a120.864,120.864,0,0,1-1.7-21.5c0-7,4.5-12.6,3.8-19.6Z" transform="translate(-1423.098 559.299)" fill="#513c2d"/>
    <path id="Path_1621" data-name="Path 1621" d="M1729,993.5c1.4,4.7,22.2,2.9,27.8-1.5,3.7-2.9,7.7-49.4,2.6-53.7-6-5.1-30.3-.2-33.4,4.1-5.2,7.3,2.2,48.2,3,51.1" transform="translate(-1423.098 559.299)" fill="#e57c7c"/>
    <path id="Path_1622" data-name="Path 1622" d="M1753.8,938.7c-.1-1.6-4.3-2.8-9.5-2.6s-9.4,1.7-9.3,3.3,4.3,2.8,9.5,2.6,9.4-1.7,9.3-3.3" transform="translate(-1423.098 559.299)" fill="#f29c62"/>
    <path id="Path_1623" data-name="Path 1623" d="M1746.7,966.4c-8.9,0-16.9-1.8-22.3-4.6-.1,13.1.1,46.8.6,48.5,1.4,4.7,33.6,3.2,39.2-1.2,1.9-1.5-2.9-31.4-3-44.6a45.527,45.527,0,0,1-14.5,1.9Z" transform="translate(-1423.098 559.299)" fill="#c66"/>
    <path id="Path_1624" data-name="Path 1624" d="M1715.8,959.3c-2.9,5.8-11.8,18.5-6,20s9.9-17.5,9.9-17.5l-3.9-2.5Z" transform="translate(-1423.098 559.299)" fill="#fcbb80"/>
    <path id="Path_1625" data-name="Path 1625" d="M1711.6,970.6a12.273,12.273,0,0,1,5.1,1.1,68.653,68.653,0,0,0,3-9.8l-3.9-2.5c-1.4,2.8-4.3,7.4-6.2,11.4a6.8,6.8,0,0,1,2-.2Z" transform="translate(-1423.098 559.299)" fill="#f29c62"/>
    <path id="Path_1626" data-name="Path 1626" d="M1726.1,942.4c-7.2-1.6-15.4,21.7-15.4,21.7s10.8,5.3,11.4,4.6c.7-.7,6.9-25.7,4-26.3" transform="translate(-1423.098 559.299)" fill="#e57c7c"/>
    <path id="Path_1627" data-name="Path 1627" d="M1761.7,948.8c-.1-1.9-.2-3.6-.4-5,1,.6,4.5,3.6,4.8,3.8-1.3.4-2.8.8-4.4,1.2m-42.1-2.5h0c.1-.1.1-.2.2-.3,0,.1-.1.2-.2.3m4.9-3.9a4.4,4.4,0,0,1,1-.2h.5c.1-.1.2-.1.2-.2-.1.1-.2.2-.2.3a1.7,1.7,0,0,0-.7-.1c-.2.1-.5.1-.8.2m36.5-.2a10.659,10.659,0,0,0-.9-3,6.632,6.632,0,0,1,.9,3m-31.3-2.2a42.735,42.735,0,0,1,10-3.5.349.349,0,0,1,.2.1,12.85,12.85,0,0,0-3.8,1.3,53.485,53.485,0,0,0-6.4,2.1" transform="translate(-1423.098 559.299)" fill="#dabdb2"/>
    <path id="Path_1628" data-name="Path 1628" d="M1739.9,936.6a.349.349,0,0,1-.2-.1h0a.31.31,0,0,0,.2.1h0" transform="translate(-1423.098 559.299)" fill="#8b3d26"/>
    <path id="Path_1629" data-name="Path 1629" d="M1739.9,936.6a.349.349,0,0,1-.2-.1c.2,0,.3-.1.4-.1l.1-3.9h.1v4c-.1.1-.2.1-.4.1m7.9-.4h-.1v-1.8l.1,1.8c.2-.1.4,0,.6,0h-.6" transform="translate(-1423.098 559.299)" fill="#78301f"/>
    <path id="Path_1630" data-name="Path 1630" d="M1740.3,936.6v-4c1.7-.1,3.5-.2,5.3-.2h2.1l.1,2v1.8a15.486,15.486,0,0,0-2.2-.1h-1.2a22.973,22.973,0,0,0-4.1.5" transform="translate(-1423.098 559.299)" fill="#cf7443"/>
    <path id="Path_1631" data-name="Path 1631" d="M1745.6,950.4a92.22,92.22,0,0,1-19-1.8c.4-3.5.4-6-.5-6.2h0c.1-.1.1-.2.2-.3a23.938,23.938,0,0,1,3.4-2.1,40.048,40.048,0,0,1,6.4-2.1q-1.2.75-1.2,1.5c.1,1.5,3.7,2.6,8.3,2.6h1.2c5.2-.2,9.4-1.7,9.3-3.3-.1-1.2-2.5-2.2-6-2.5h.6c4.9.4,9.7,0,11.7,3.1a8.918,8.918,0,0,1,.9,3,6.535,6.535,0,0,1,0,1.4.31.31,0,0,1,.2.1c.2,1.5.3,3.2.4,5a73.551,73.551,0,0,1-15.9,1.6" transform="translate(-1423.098 559.299)" fill="#c55c57"/>
    <path id="Path_1632" data-name="Path 1632" d="M1743.3,942.1c-4.6,0-8.2-1.1-8.3-2.6a1.877,1.877,0,0,1,1.2-1.5,12.849,12.849,0,0,1,3.8-1.3h0a.756.756,0,0,0,.4-.1,23.368,23.368,0,0,1,3.9-.4h1.2a15.485,15.485,0,0,1,2.2.1h.1c3.4.3,5.9,1.3,6,2.5.1,1.6-4.1,3.1-9.3,3.3h-1.2" transform="translate(-1423.098 559.299)" fill="#cf7443"/>
    <path id="Path_1633" data-name="Path 1633" d="M1726.6,948.6a28.648,28.648,0,0,1-7-2.3c.1-.1.1-.2.2-.3a11.269,11.269,0,0,1,4.7-3.7,2.2,2.2,0,0,1,.8-.1,1.7,1.7,0,0,1,.7.1h0c1,.3,1,2.8.6,6.3" transform="translate(-1423.098 559.299)" fill="#c55c57"/>
    <path id="Path_1634" data-name="Path 1634" d="M1762.5,921.7c3,1.2,5.6.7,5.4-2-.2-2.8-1.6-4.8-3.4-4-1.9.9-4.5,5-2,6Z" transform="translate(-1423.098 559.3)" fill="#f29c62"/>
    <path id="Path_1635" data-name="Path 1635" d="M1726.9,924.1c-2.8,1.2-5.2.7-5-2,.2-2.8,1.5-4.8,3.2-4s4.2,5,1.8,6Z" transform="translate(-1423.098 559.299)" fill="#f29c62"/>
    <path id="Path_1636" data-name="Path 1636" d="M1730.4,898.3c-3.9,3.4-12.3,25.8,2.8,32.7,15.1,7,27.1-1.2,29.6-5.9s7.1-23.6-12.4-31.4c-5.2-2.1-15.4.6-20,4.6Z" transform="translate(-1423.098 559.3)" fill="#f29c62"/>
    <path id="Path_1637" data-name="Path 1637" d="M1732.8,898.4c-3.4,3.4-10.8,25.5,2,32.2s23.1-1.5,25.3-6.2,6.4-23.3-10.2-30.8c-4.4-1.9-13.2.9-17.1,4.8Z" transform="translate(-1423.098 559.3)" fill="#fcbb80"/>
    <path id="Path_1638" data-name="Path 1638" d="M1732.4,923.5c-.7-2-2.5-3.5-4-3.4s-2.2,1.9-1.5,3.9,2.5,3.5,4,3.4c1.5-.2,2.2-1.9,1.5-3.9Z" transform="translate(-1423.098 559.299)" fill="#f29c62"/>
    <path id="Path_1639" data-name="Path 1639" d="M1761.9,924.6c1.7-1.3,2.5-3.5,1.9-4.9s-2.5-1.4-4.2-.1-2.5,3.5-1.9,4.9,2.5,1.4,4.2.1Z" transform="translate(-1423.098 559.299)" fill="#f29c62"/>
    <path id="Path_1640" data-name="Path 1640" d="M1728.1,925.1c.4-2.7,1.3-4.3-.4-8.9s-2.1-12.5-1.5-13.8c0,0-5,8.9-4.3,13,2.2.6,6.2,9.7,6.2,9.7Z" transform="translate(-1423.098 559.3)" fill="#964732"/>
    <path id="Path_1641" data-name="Path 1641" d="M1764.6,923.3c-.7-2.6-1.7-4.1-1-8.8s-.2-12.6-.8-13.8c0,0,5.3,8.2,5.3,12.4-1.6.8-3.5,10.2-3.5,10.2Z" transform="translate(-1423.098 559.3)" fill="#a35236"/>
    <path id="Path_1642" data-name="Path 1642" d="M1745,887.1c-2.5,2-4.7,8.4,6.8,13,5.1,2,14.3,3.2,16.4,6.1-.3-7.1-8.3-11.6-23.2-19.1Z" transform="translate(-1423.098 559.3)" fill="#a35236"/>
    <path id="Path_1643" data-name="Path 1643" d="M1741.2,887.6c2.8.6,7.4,4.2,1.3,10.9-6.2,6.8-12.6,2.8-13.8,14.1-6.1-7.5-1.4-19.2,12.5-25Z" transform="translate(-1423.098 559.3)" fill="#964732"/>
    <path id="Path_1644" data-name="Path 1644" d="M1734.6,946.5c-1.9,1.3,4.7,43.2,5.3,43.4.5.2,56.4-7.7,58.8-9.3s-3.5-40.3-4.4-40.5c-7-.9-55.8,3.8-59.7,6.4Z" transform="translate(-1423.098 559.299)" fill="#e4be73"/>
    <path id="Path_1645" data-name="Path 1645" d="M1735.7,947.1c-1.9,1.3,4.6,41.9,5.1,42,.5.2,54.5-7.5,56.8-9.1,2.3-1.5-3.3-39.1-4.2-39.2-6.8-.8-53.9,3.7-57.7,6.3Z" transform="translate(-1423.098 559.299)" fill="#f7d891"/>
    <path id="Path_1646" data-name="Path 1646" d="M1774.1,977.2c-16.6,0-30.9-6.9-37.8-17,1.4,12.3,4.2,28.9,4.5,29,.5.2,54.5-7.5,56.8-9.1.7-.4.7-3.8.3-8.3a52.832,52.832,0,0,1-23.8,5.4Z" transform="translate(-1423.098 559.299)" fill="#e4be73"/>
    <path id="Path_1647" data-name="Path 1647" d="M1744.9,923.5c3.8-1.4,3.2,4.2,2.2,4.7-2.2,1.3-6.3-3.3-2.2-4.7Z" transform="translate(-1423.098 559.299)" fill="#602e1d"/>
    <path id="Path_1648" data-name="Path 1648" d="M1745.9,924.8c2.9-.6.4-1.6-.9-1.2-1.2.5-2.7,2,.9,1.2Z" transform="translate(-1423.098 559.299)" fill="#f2cec4"/>
    <path id="Path_1649" data-name="Path 1649" d="M1751.3,913.7l3.1.3s-1.5,4.5-3.1-.3Z" transform="translate(-1423.098 559.3)" fill="#77422b"/>
    <path id="Path_1650" data-name="Path 1650" d="M1736.3,915.2l3-.6c0,.1-2,4.9-3,.6Z" transform="translate(-1423.098 559.3)" fill="#77422b"/>
    <path id="Path_1651" data-name="Path 1651" d="M1743.2,921.2c-.7-.5-.3-2.3,2.1-2.4,1,0,2,2.1,2,2.1l-4.1.3Z" transform="translate(-1423.098 559.299)" fill="#f29c62"/>
    <path id="Path_1652" data-name="Path 1652" d="M1746.7,919.2c0-.7-.8-1.3-1.8-1.3s-1.8.6-1.8,1.3.8,1.3,1.8,1.3,1.8-.6,1.8-1.3Z" transform="translate(-1423.098 559.3)" fill="#fcbb80"/>
    <path id="Path_1653" data-name="Path 1653" d="M1749.1,907.9s2,3.8,8.9,3.3c0,0-8.7-2.7-8.9-3.3Z" transform="translate(-1423.098 559.3)" fill="#77422b"/>
    <path id="Path_1654" data-name="Path 1654" d="M1739.6,909.8s-2.1,3.8-9.3,3.3c0,0,9.1-2.7,9.3-3.3Z" transform="translate(-1423.098 559.3)" fill="#77422b"/>
    <path id="Path_1655" data-name="Path 1655" d="M1731.5,966.7s-25.1,3.4-22.6,12.3c2.8,2.9,19.6-5.5,23.9-10l-1.3-2.3Z" transform="translate(-1423.098 559.299)" fill="#fcbb80"/>
    <path id="Path_1656" data-name="Path 1656" d="M1739,967.7c-.6-1.7-2.9-4.4-5.9-2.5-8.2,5.2,8.3,7.5,5.9,2.5Z" transform="translate(-1423.098 559.299)" fill="#f29c62"/>
    <path id="Path_1657" data-name="Path 1657" d="M1731.1,967.4c1.3,4.6,6.8,3,8.4,2.1,1.8-1,1.8-4.8.5-5.9-1.2-1.1-9.4,2-8.9,3.8Z" transform="translate(-1404.098 565.299)" fill="#f29c62"/>
    <path id="Path_1658" data-name="Path 1658" d="M1736.1,964.3c1.2-2.6,1.4-6.1.4-6.3-1.2-.2-.8,2.8-2.4,4.9-1.8,2.2-2.8,3.7-2,4.4s2.8-.4,4-3Z" transform="translate(-1423.098 559.299)" fill="#f29c62"/>
    <path id="Path_1659" data-name="Path 1659" d="M1741.2,963.5c2.1-1.2,2.9-2.3,2.5-2.8s-1.5.2-3.6,1.4-5,2.2-4.6,2.7,3.6-.2,5.7-1.3Z" transform="translate(-1423.098 559.299)" fill="#f29c62"/>
    <path id="Path_1660" data-name="Path 1660" d="M1742.3,966.1c2.3-.8,4-2.5,3.7-3.1s-2.2.6-4.5,1.4-3.8,1.4-3.5,2,2,.5,4.3-.3Z" transform="translate(-1423.098 559.299)" fill="#f29c62"/>
    <path id="Path_1661" data-name="Path 1661" d="M1741.3,969c2.3-.9,3.4-1.9,3.1-2.4-.3-.6-1.7.3-4,1.1-2.3.9-3.8,1.5-3.6,2.1.3.5,2.2,0,4.5-.8Z" transform="translate(-1423.098 559.299)" fill="#f29c62"/>
    <path id="Path_1662" data-name="Path 1662" d="M1729.2,1012.3c9.2,1.9,30.6.2,35.1-3.3.9-.7.3-8.3-.7-17.5-6.8,1.9-14.8,5.9-22,8.3-6.6,2.3-8.5,7.1-12.4,12.5Z" transform="translate(-1423.098 559.299)" fill="#e57c7c"/>
    <g id="Group_2729" data-name="Group 2729" transform="translate(281.278 1333)" clip-path="url(#clip-path)">
      <path id="Path_1938" data-name="Path 1938" d="M322.132,893.2a23.6,23.6,0,0,1-.026-2.4,6.305,6.305,0,0,1,.111-1.7,23.6,23.6,0,0,1,.026,2.4,7.7,7.7,0,0,1-.111,1.7Z" transform="translate(-321.636 -773.7)" fill="#ffdc79"/>
    </g>
    <g id="Group_2730" data-name="Group 2730" transform="translate(281.278 1333)" clip-path="url(#clip-path)">
      <path id="Path_1939" data-name="Path 1939" d="M315.264,885a13.433,13.433,0,0,1,.1-1.9c.072-.5.143-.4.156.2a13.428,13.428,0,0,1-.1,1.9c-.065.5-.137.4-.157-.2Z" transform="translate(-315.251 -773.7)" fill="#e0c46b"/>
    </g>
    <g id="Group_2731" data-name="Group 2731" transform="translate(281.278 1333)" clip-path="url(#clip-path)">
      <path id="Path_1940" data-name="Path 1940" d="M315.064,884.4a13.428,13.428,0,0,1,.1-1.9c.072-.5.143-.4.157.2a13.433,13.433,0,0,1-.1,1.9c-.072.5-.143.4-.156-.2Z" transform="translate(-315.064 -773.7)" fill="#ffdc79"/>
    </g>
  </g>
</svg>
