<svg xmlns="http://www.w3.org/2000/svg" width="68.508" height="68.508" viewBox="0 0 68.508 68.508">
  <g id="happiness" transform="translate(0 -0.001)">
    <path id="Path_2438" data-name="Path 2438" d="M34.254,0A34.254,34.254,0,1,0,68.507,34.254,34.293,34.293,0,0,0,34.254,0Zm0,64.8A30.545,30.545,0,1,1,64.8,34.254,30.454,30.454,0,0,1,34.254,64.8Z"/>
    <path id="Path_2439" data-name="Path 2439" d="M73.126,102.1a3.556,3.556,0,0,1,3.61,3.61h3.7a7.313,7.313,0,0,0-14.626,0h3.7A3.556,3.556,0,0,1,73.126,102.1Z" transform="translate(-50.581 -75.626)"/>
    <path id="Path_2440" data-name="Path 2440" d="M174.3,102.1a3.556,3.556,0,0,1,3.61,3.61h3.7a7.313,7.313,0,1,0-14.626,0h3.7A3.556,3.556,0,0,1,174.3,102.1Z" transform="translate(-128.338 -75.626)"/>
    <path id="Path_2441" data-name="Path 2441" d="M88.507,190.955a21.5,21.5,0,0,0,17.961-9.747l-3.11-2.01a17.592,17.592,0,0,1-29.571,0l-3.11,2.01a21.5,21.5,0,0,0,15.432,9.609A20.88,20.88,0,0,0,88.507,190.955Z" transform="translate(-54.319 -137.723)"/>
  </g>
</svg>
