<svg id="heart_2_" data-name="heart (2)" xmlns="http://www.w3.org/2000/svg" width="66.41" height="59.937" viewBox="0 0 66.41 59.937">
  <path id="Path_1252" data-name="Path 1252" d="M122.527,265.063l15.847-5.448a3.7,3.7,0,1,1,2.738,6.884L116.876,277.17a15.238,15.238,0,0,1-14.152-.8l-6.784-4.07A13.969,13.969,0,0,0,90,270.764V252.6h10.269a7.773,7.773,0,0,1,3.816,1l6.854,3.855a2.591,2.591,0,0,0,1.272.333h8.4a3.891,3.891,0,0,1,1.916,7.278Zm0,0" transform="translate(-78.326 -219.898)" fill="#ffcebf"/>
  <path id="Path_1253" data-name="Path 1253" d="M192.046,10.5c4.983,0,8.418,4.183,8.418,9.138,0,6.556-6.182,10.946-16.682,20.046-9.985-8.654-16.993-13.192-16.993-20.046,0-4.955,3.435-9.138,8.419-9.138,6.4,0,8.418,7.3,8.418,7.3s2.021-7.3,8.419-7.3Zm0,0" transform="translate(-145.156 -9.203)" fill="#ff80ac"/>
  <path id="Path_1254" data-name="Path 1254" d="M20.377,235.193v18.167a2.593,2.593,0,0,1-2.594,2.586H10V232.6h7.782a2.593,2.593,0,0,1,2.594,2.594Zm0,0" transform="translate(-8.703 -202.494)" fill="#faecd8"/>
  <path id="Path_1255" data-name="Path 1255" d="M41.3,262.6a1.3,1.3,0,1,0,1.3,1.3A1.3,1.3,0,0,0,41.3,262.6Zm0,0" transform="translate(-34.812 -228.602)"/>
  <path id="Path_1256" data-name="Path 1256" d="M59.616,232.283l-12.228,4.2a5.176,5.176,0,0,0-5.1-6.108h-8.4a1.3,1.3,0,0,1-.637-.167L26.4,226.358a9.087,9.087,0,0,0-4.453-1.167h-9.2A3.9,3.9,0,0,0,9.08,222.6H1.3a1.3,1.3,0,0,0-1.3,1.3v23.347a1.3,1.3,0,0,0,1.3,1.3H9.08a3.9,3.9,0,0,0,3.631-2.5,11.842,11.842,0,0,1,4.235,1.257l6.783,4.07a16.535,16.535,0,0,0,15.35.876l24.209-10.66a5,5,0,0,0-3.672-9.3Zm-49.239,12.37a1.3,1.3,0,0,1-1.3,1.291H2.594V225.191H9.08a1.3,1.3,0,0,1,1.3,1.3ZM62.3,239.186l-.041.017-24.25,10.678a13.94,13.94,0,0,1-12.948-.736l-6.784-4.07a14.3,14.3,0,0,0-5.309-1.615V227.786h8.972a6.489,6.489,0,0,1,3.18.833l6.853,3.854a3.9,3.9,0,0,0,1.909.5h8.4a2.594,2.594,0,0,1,0,5.188H29.1a1.3,1.3,0,1,0,0,2.594H42.284a5.178,5.178,0,0,0,2.432-.608l15.771-5.421a2.408,2.408,0,1,1,1.816,4.459Zm0,0" transform="translate(0 -193.79)"/>
  <path id="Path_1257" data-name="Path 1257" d="M176.979,31.962a1.3,1.3,0,0,0,1.7,0c10.583-9.172,17.129-13.813,17.129-21.026C195.808,5.23,191.768.5,186.093.5c-3.727,0-6.581,2.148-8.419,5.372C175.839,2.656,172.988.5,169.256.5A9.58,9.58,0,0,0,160,7.673a1.3,1.3,0,1,0,2.489.73,7.038,7.038,0,0,1,6.765-5.308c3.7,0,6.3,3.286,7.168,6.345a1.3,1.3,0,0,0,2.5,0c.018-.063,1.819-6.345,7.169-6.345,4.059,0,7.121,3.37,7.121,7.841,0,5.77-5.64,9.93-15.386,18.332-5.938-5.1-10.654-8.688-13.335-12.2a1.3,1.3,0,1,0-2.062,1.574c3.022,3.958,8.123,7.75,14.549,13.319Zm0,0" transform="translate(-139.202 -0.501)"/>
  <path id="Path_1258" data-name="Path 1258" d="M160.3,88.6a1.3,1.3,0,1,0,1.3,1.3A1.3,1.3,0,0,0,160.3,88.6Zm0,0" transform="translate(-138.376 -77.171)"/>
</svg>
