<svg xmlns="http://www.w3.org/2000/svg" width="22.139" height="22.096" viewBox="0 0 22.139 22.096">
  <g id="icons8-search" transform="translate(-0.001 -0.001)">
    <g id="Group_234" data-name="Group 234" transform="translate(0 0)">
      <g id="Group_233" data-name="Group 233">
        <g id="Group_232" data-name="Group 232">
          <path id="Path_7" data-name="Path 7" d="M22.764,31.305a8.455,8.455,0,1,1,5.969-14.433h0a8.442,8.442,0,0,1-5.969,14.433Zm0-15.569A7.028,7.028,0,0,0,17.73,17.83a7.152,7.152,0,1,0,5.034-2.094Z" transform="translate(-14.3 -14.4)"/>
        </g>
      </g>
    </g>
    <path id="Path_8" data-name="Path 8" d="M87.216,84.465l-2.829-2.829a2,2,0,0,0-1.425-.579,1.915,1.915,0,0,0-.869.2l-.557-.557a.661.661,0,0,0-.935.935l.557.557a2.01,2.01,0,0,0,.379,2.272l2.851,2.829a1.986,1.986,0,0,0,1.425.579,2.082,2.082,0,0,0,1.425-.579h0a1.99,1.99,0,0,0-.022-2.829Zm-.935,1.893h0a.646.646,0,0,1-.935,0l-2.851-2.829a.646.646,0,0,1,0-.935h0a.641.641,0,0,1,.468-.2.607.607,0,0,1,.468.2l2.829,2.829a.641.641,0,0,1,.2.468A.62.62,0,0,1,86.28,86.358Z" transform="translate(-65.677 -65.777)"/>
  </g>
</svg>
