<svg xmlns="http://www.w3.org/2000/svg" width="25.822" height="25.824" viewBox="0 0 25.822 25.824">
  <g id="instagram_2_" data-name="instagram (2)" transform="translate(0.001)">
    <g id="Group_335" data-name="Group 335" transform="translate(0 0)">
      <path id="Path_457" data-name="Path 457" d="M97.285,104.825H86.541A7.549,7.549,0,0,1,79,97.285V86.541A7.549,7.549,0,0,1,86.541,79H97.285a7.549,7.549,0,0,1,7.54,7.54V97.285A7.549,7.549,0,0,1,97.285,104.825ZM86.541,81.189a5.358,5.358,0,0,0-5.352,5.352V97.285a5.358,5.358,0,0,0,5.352,5.352H97.285a5.358,5.358,0,0,0,5.352-5.352V86.541a5.358,5.358,0,0,0-5.352-5.352Zm0,0" transform="translate(-79.001 -79.001)"/>
      <path id="Path_458" data-name="Path 458" d="M167,174.006a7,7,0,1,1,7-7A7.011,7.011,0,0,1,167,174.006Zm0-11.818A4.815,4.815,0,1,0,171.818,167,4.82,4.82,0,0,0,167,162.188Zm0,0" transform="translate(-154.091 -154.091)"/>
      <path id="Path_459" data-name="Path 459" d="M340.374,147.169a1,1,0,1,1-1-1A1,1,0,0,1,340.374,147.169Zm0,0" transform="translate(-319.45 -141.268)"/>
    </g>
  </g>
</svg>
