<svg xmlns="http://www.w3.org/2000/svg" width="8.014" height="10.997" viewBox="0 0 8.014 10.997">
  <g id="level-up" transform="translate(0 0)">
    <path id="Path_2457" data-name="Path 2457" d="M62.363,3.173l-2.5-3a.512.512,0,0,0-.766,0l-2.5,3a.466.466,0,0,0-.07.531.472.472,0,0,0,.453.289h1.5V9h-2.5a.239.239,0,0,0-.2.086l-1.251,1.5a.257.257,0,0,0-.031.274.227.227,0,0,0,.227.141h5.5a.24.24,0,0,0,.25-.25V3.994h1.5a.472.472,0,0,0,.453-.289A.452.452,0,0,0,62.363,3.173Z" transform="translate(-54.476)"/>
  </g>
</svg>
