<svg xmlns="http://www.w3.org/2000/svg" width="33.905" height="43.924" viewBox="0 0 33.905 43.924">
  <g id="locked_2_" data-name="locked (2)" transform="translate(0 -0.001)">
    <path id="Path_501" data-name="Path 501" d="M32.7,17.723V8.939C32.7,4.01,28.379,0,23.067,0s-9.632,4.01-9.632,8.939v2.481a.771.771,0,0,0,1.541,0V8.939c0-4.079,3.629-7.4,8.091-7.4s8.091,3.319,8.091,7.4v8.784H6.5v26.2H40.406v-26.2Zm6.165,24.659H8.041V39.3H38.864ZM8.041,37.758V19.264H38.864V37.758Z" transform="translate(-6.5)"/>
    <path id="Path_502" data-name="Path 502" d="M27.582,31A3.085,3.085,0,0,0,24.5,34.082v4.623a3.082,3.082,0,1,0,6.165,0V34.082A3.085,3.085,0,0,0,27.582,31Zm1.541,7.706a1.541,1.541,0,0,1-3.082,0V34.082a1.541,1.541,0,1,1,3.082,0Z" transform="translate(-10.63 -7.112)"/>
  </g>
</svg>
