<svg id="man" xmlns="http://www.w3.org/2000/svg" width="88.155" height="88.155" viewBox="0 0 88.155 88.155">
  <circle id="Ellipse_111" data-name="Ellipse 111" cx="44.078" cy="44.078" r="44.078" fill="#fd8469"/>
  <g id="Group_2832" data-name="Group 2832" transform="translate(9.857 58.446)">
    <path id="Path_2452" data-name="Path 2452" d="M253.217,362.8c-.069,0-.139.069-.208.069s-.139-.069-.208-.069Z" transform="translate(-218.787 -358.288)" fill="#84dbff"/>
    <path id="Path_2453" data-name="Path 2453" d="M125.242,350.2a44.052,44.052,0,0,1-68.442,0c5.761-7.7,14.577-11.523,21.8-13.4-.555,4.581,1.8,10.69,1.874,10.551,2.429-5.553,10.551-6.039,10.551-6.039s8.121.486,10.481,6.039c.069.139,2.5-5.97,1.874-10.551C110.665,338.674,119.55,342.492,125.242,350.2Z" transform="translate(-56.8 -336.8)" fill="#84dbff"/>
  </g>
  <path id="Path_2454" data-name="Path 2454" d="M216.652,299.107v.069c0,.694-.347,5.137-9.718,8.677h-.417c-9.371-3.54-9.718-7.983-9.718-8.677v-.069a12.189,12.189,0,0,1,.416-2.707c2.707,3.4,5.97,5.692,9.51,5.692s6.8-2.291,9.51-5.692A12.188,12.188,0,0,1,216.652,299.107Z" transform="translate(-162.649 -244.965)" fill="#fff"/>
  <g id="Group_2833" data-name="Group 2833" transform="translate(31.588 54.143)">
    <path id="Path_2455" data-name="Path 2455" d="M263.926,312s.486,5-9.926,8.885c0,0,8.121.486,10.481,6.039C264.62,327.063,269.271,314.985,263.926,312Z" transform="translate(-241.511 -312)" fill="#54c0eb"/>
    <path id="Path_2456" data-name="Path 2456" d="M184.593,312c-5.345,2.985-.694,15.063-.555,14.855,2.429-5.553,10.481-6.039,10.481-6.039C184.107,317,184.593,312,184.593,312Z" transform="translate(-182.03 -312)" fill="#54c0eb"/>
  </g>
  <g id="Group_2834" data-name="Group 2834" transform="translate(25.726 18.761)">
    <path id="Path_2457" data-name="Path 2457" d="M201.137,125.93a19.757,19.757,0,0,1-5.622,11.384,13.434,13.434,0,0,1-1.874,1.6l-1.111-3.54H180.59l-1.111,3.54c-2.221-1.666-6.872-6.317-6.941-10.69-1.944-24.919,17.145-19.644,17.145-19.644C202.525,107.675,202.108,118.989,201.137,125.93Z" transform="translate(-168.208 -108.11)" fill="#fff"/>
    <path id="Path_2458" data-name="Path 2458" d="M335.94,205.064a7.1,7.1,0,0,1-3.54,3.124,29.466,29.466,0,0,0,1.249-3.471v-.069l.833-3.124h-.069c.278-1.041.555-2.082.764-3.124a1.973,1.973,0,0,1,.833.278C337.537,199.649,337.467,202.5,335.94,205.064Z" transform="translate(-300.444 -182.732)" fill="#fff"/>
    <path id="Path_2459" data-name="Path 2459" d="M153,209.179a7.1,7.1,0,0,1-3.54-3.124c-1.6-2.568-1.6-5.414-.069-6.317.139-.069.208-.139.347-.139a47.269,47.269,0,0,0,2.013,6.178A33.6,33.6,0,0,0,153,209.179Z" transform="translate(-148.249 -183.723)" fill="#fff"/>
  </g>
  <path id="SVGCleanerId_0" d="M170.985,42.343c.555-6.386-9.579-5.97-9.579-5.97-15.34,2.221-17.006,16.52-17.006,16.52l2.082-2.5c-3.262,7.15,1.666,19.436,2.082,20.408,2.568,8.538,8.26,16.382,14.855,16.382s12.286-7.844,14.855-16.382h0v-.069c.278-1.041.555-2.082.764-3.124h-.069c1.388-5.553,2.915-11.176,2.915-11.176C185.84,36.512,170.985,42.343,170.985,42.343ZM178,66.638a19.757,19.757,0,0,1-5.622,11.384,19.124,19.124,0,0,1-1.874,1.6l-1.111-3.471H157.45l-1.111,3.54a21.807,21.807,0,0,1-5.622-6.594A14.737,14.737,0,0,1,149.4,69c-1.944-24.919,17.145-19.644,17.145-19.644C179.384,48.382,178.968,59.7,178,66.638Z" transform="translate(-119.342 -30.057)" fill="#324a5e"/>
  <g id="Group_2835" data-name="Group 2835" transform="translate(25.058 6.311)">
    <path id="SVGCleanerId_0_1_" d="M170.985,42.343c.555-6.386-9.579-5.97-9.579-5.97-15.34,2.221-17.006,16.52-17.006,16.52l2.082-2.5c-3.262,7.15,1.666,19.436,2.082,20.408,2.568,8.538,8.26,16.382,14.855,16.382s12.286-7.844,14.855-16.382h0v-.069c.278-1.041.555-2.082.764-3.124h-.069c1.388-5.553,2.915-11.176,2.915-11.176C185.84,36.512,170.985,42.343,170.985,42.343ZM178,66.638a19.757,19.757,0,0,1-5.622,11.384,19.124,19.124,0,0,1-1.874,1.6l-1.111-3.471H157.45l-1.111,3.54a21.807,21.807,0,0,1-5.622-6.594A14.737,14.737,0,0,1,149.4,69c-1.944-24.919,17.145-19.644,17.145-19.644C179.384,48.382,178.968,59.7,178,66.638Z" transform="translate(-144.4 -36.368)" fill="#324a5e"/>
  </g>
  <path id="Path_2460" data-name="Path 2460" d="M170.985,42.343c.555-6.386-9.579-5.97-9.579-5.97-15.34,2.221-17.006,16.52-17.006,16.52l2.082-2.5c-3.262,7.15,1.666,19.436,2.082,20.408,2.568,8.538,8.26,16.382,14.855,16.382s12.286-7.844,14.855-16.382h0v-.069c.278-1.041.555-2.082.764-3.124h-.069c1.388-5.553,2.915-11.176,2.915-11.176C185.84,36.512,170.985,42.343,170.985,42.343ZM178,66.638a19.757,19.757,0,0,1-5.622,11.384,19.124,19.124,0,0,1-1.874,1.6l-1.111-3.471H157.45l-1.111,3.54c-2.221-1.666-6.872-6.317-6.941-10.69-1.944-24.919,17.145-19.644,17.145-19.644C179.384,48.382,178.968,59.7,178,66.638Z" transform="translate(-119.342 -30.057)" fill="#324a5e"/>
  <path id="Path_2461" data-name="Path 2461" d="M226,279.2a6.554,6.554,0,0,0,4.859,2.221,6.316,6.316,0,0,0,4.859-2.221Z" transform="translate(-186.781 -230.749)" fill="#fff"/>
</svg>
