<svg id="manager" xmlns="http://www.w3.org/2000/svg" width="178.418" height="207.101" viewBox="0 0 178.418 207.101">
  <path id="Path_58091" data-name="Path 58091" d="M265.1,168.09a4.045,4.045,0,1,0-4.045-4.045A4.047,4.047,0,0,0,265.1,168.09Zm0,0" transform="translate(-155.659 -95.281)"/>
  <path id="Path_58092" data-name="Path 58092" d="M165.1,168.09a4.045,4.045,0,1,0-4.045-4.045A4.047,4.047,0,0,0,165.1,168.09Zm0,0" transform="translate(-96.109 -95.281)"/>
  <path id="Path_58093" data-name="Path 58093" d="M190.9,237.391a25.441,25.441,0,0,0,21.418.1,4.045,4.045,0,1,0-3.38-7.35,17.352,17.352,0,0,1-14.589-.065,4.045,4.045,0,0,0-3.449,7.318Zm0,0" transform="translate(-112.501 -136.78)"/>
  <path id="Path_58094" data-name="Path 58094" d="M178.919,164.132c0-22.243-25.332-39.686-47.045-40.513L120.8,113.667a52.77,52.77,0,0,0,21.682-42.475v-26.7A44.617,44.617,0,0,0,97.841,0H81.661A44.35,44.35,0,0,0,37.309,44.495v26.7a52.862,52.862,0,0,0,21.4,42.4L47.544,123.619C25.879,124.444.5,141.844.5,164.132v38.925A4.045,4.045,0,0,0,4.544,207.1H174.873a4.045,4.045,0,0,0,4.045-4.045ZM80.75,180.405h17.9l4.241,18.607h-26.5Zm18.245-8.09h-18.5l-3.1-9.668,12.321-6.161,12.585,6.295ZM89.71,144.333,75.654,121.847a52.568,52.568,0,0,0,28.09.033Zm5.789,6,19.421-31.075,10.474,9.411-13.328,29.95ZM81.661,8.09h16.18a36.516,36.516,0,0,1,36.547,36.4v3.343l-7.6-10.937a4.045,4.045,0,0,0-6.214-.521c-8.223,8.409-17.743,12.16-30.866,12.16S67.068,44.789,58.839,36.38a4.044,4.044,0,0,0-6.232.548L45.4,47.491v-3A36.374,36.374,0,0,1,81.661,8.09ZM45.4,71.192V61.842L56.633,45.38c9,7.655,19.635,11.25,33.079,11.25s24.1-3.6,33.1-11.274l11.574,16.666v9.169a44.494,44.494,0,1,1-88.989,0Zm19.1,48.072,19.424,31.073-16.57,8.286-13.328-29.95ZM8.59,164.133c0-16.663,20.256-31.051,37.958-32.36l15.134,34a4.046,4.046,0,0,0,5.5,1.973l2.882-1.443,3.282,10.22-5.274,22.484H8.59Zm162.239,34.88H111.185l-5.11-22.423,3.519-10.16,2.639,1.321a4.045,4.045,0,0,0,5.5-1.973l15.134-34c17.7,1.31,37.958,15.7,37.958,32.36Zm0,0" transform="translate(-0.5 0)"/>
  <path id="Path_58095" data-name="Path 58095" d="M321.276,446H305.1a4.045,4.045,0,0,0,0,8.09h16.18a4.045,4.045,0,1,0,0-8.09Zm0,0" transform="translate(-179.479 -265.595)"/>
  <path id="Path_58096" data-name="Path 58096" d="M384.545,446a4.045,4.045,0,1,1-4.045,4.045A4.047,4.047,0,0,1,384.545,446Zm0,0" transform="translate(-226.791 -265.595)"/>
</svg>
