<svg xmlns="http://www.w3.org/2000/svg" xmlns:xlink="http://www.w3.org/1999/xlink" width="1366" height="136" viewBox="0 0 1366 136">
  <defs>
    <clipPath id="clip-path">
      <rect id="Rectangle_1718" data-name="Rectangle 1718" width="1366" height="136" transform="translate(0 127)" fill="#fff" stroke="#707070" stroke-width="1"/>
    </clipPath>
  </defs>
  <g id="Mask_Group_22" data-name="Mask Group 22" transform="translate(0 -127)" clip-path="url(#clip-path)">
    <g id="Group_2894" data-name="Group 2894" transform="translate(-74 127)">
      <rect id="Rectangle_991" data-name="Rectangle 991" width="1366" height="136" transform="translate(73.871 0)" fill="#f17474" opacity="0.31"/>
      <g id="Group_2890" data-name="Group 2890" transform="translate(387 0)" opacity="0.13">
        <g id="torch" transform="translate(0 0)">
          <path id="Path_2489" data-name="Path 2489" d="M63.644,75.92a7.8,7.8,0,0,0-11.012,0l-4.193,4.194a17.65,17.65,0,0,0-4.091,6.44l-8.136,22.524L3.618,141.671a12.673,12.673,0,0,0,0,17.9l9.777,9.775a12.672,12.672,0,0,0,17.9,0l32.566-32.565,22.6-8.224a17.648,17.648,0,0,0,6.367-4.045l4.2-4.173a7.787,7.787,0,0,0,.029-11.013l-.015-.015Zm-36.471,89.3a6.833,6.833,0,0,1-9.653,0l-9.776-9.777a6.834,6.834,0,0,1,0-9.654l30.877-30.877L58.107,134.29ZM92.91,116.206l-4.2,4.174a11.81,11.81,0,0,1-4.249,2.7l-21.5,7.823L42.044,110.1l7.79-21.565a11.8,11.8,0,0,1,2.73-4.3l4.194-4.193a1.954,1.954,0,0,1,2.763,0l0,0,33.392,33.392a1.958,1.958,0,0,1,0,2.766l0,0Zm0,0" transform="translate(0.084 -56.424)" fill="#f54242"/>
          <path id="Path_2490" data-name="Path 2490" d="M148.923,307.5a2.916,2.916,0,0,0-4.123,0l-7.089,7.091a2.916,2.916,0,0,0,4.123,4.123l7.089-7.091a2.915,2.915,0,0,0,0-4.123Zm0,0" transform="translate(-104.854 -234.939)" fill="#f54242"/>
          <path id="Path_2491" data-name="Path 2491" d="M370.161,79.623a2.909,2.909,0,0,0,2.062-.853l10.02-10.021a2.915,2.915,0,0,0-4.121-4.123L368.1,74.646a2.915,2.915,0,0,0,2.061,4.977Zm0,0" transform="translate(-281.351 -48.891)" fill="#f54242"/>
          <path id="Path_2492" data-name="Path 2492" d="M442.938,159.464,432.917,162.6a2.916,2.916,0,1,0,1.739,5.566l10.021-3.131a2.916,2.916,0,0,0-1.739-5.566Zm0,0" transform="translate(-330.097 -122.074)" fill="#f54242"/>
          <path id="Path_2493" data-name="Path 2493" d="M303.052,15.722a2.913,2.913,0,0,0,3.652-1.906l0-.007,3.13-10.019a2.916,2.916,0,0,0-5.565-1.741L301.14,12.069a2.915,2.915,0,0,0,1.912,3.653Zm0,0" transform="translate(-230.601 -0.003)" fill="#f54242"/>
        </g>
        <g id="torch-2" data-name="torch" transform="translate(314.627 3.999) rotate(90)">
          <path id="Path_2489-2" data-name="Path 2489" d="M63.728,2.276a7.8,7.8,0,0,0-11.012,0L48.523,6.47a17.65,17.65,0,0,0-4.091,6.44L36.3,35.434,3.7,68.028a12.673,12.673,0,0,0,0,17.9L13.479,95.7a12.672,12.672,0,0,0,17.9,0L63.947,63.14l22.6-8.224a17.648,17.648,0,0,0,6.367-4.045l4.2-4.173a7.787,7.787,0,0,0,.029-11.013l-.015-.015Zm-36.471,89.3a6.833,6.833,0,0,1-9.653,0L7.827,81.8a6.834,6.834,0,0,1,0-9.654L38.7,41.272,58.191,60.646ZM92.994,42.562l-4.2,4.174a11.81,11.81,0,0,1-4.249,2.7l-21.5,7.823-20.922-20.8,7.79-21.565a11.8,11.8,0,0,1,2.73-4.3L56.841,6.4a1.954,1.954,0,0,1,2.763,0l0,0L93,39.793a1.958,1.958,0,0,1,0,2.766l0,0Zm0,0" transform="translate(0 17.22)" fill="#f54242"/>
          <path id="Path_2490-2" data-name="Path 2490" d="M12.041.854a2.916,2.916,0,0,0-4.123,0L.829,7.944a2.916,2.916,0,0,0,4.123,4.123l7.089-7.091a2.915,2.915,0,0,0,0-4.123Zm0,0" transform="translate(32.028 71.704)" fill="#f54242"/>
          <path id="Path_2491-2" data-name="Path 2491" d="M2.915,15.812a2.909,2.909,0,0,0,2.062-.853L15,4.937A2.915,2.915,0,0,0,10.875.814L.854,10.834a2.915,2.915,0,0,0,2.061,4.977Zm0,0" transform="translate(85.895 14.921)" fill="#f54242"/>
          <path id="Path_2492-2" data-name="Path 2492" d="M12.068.134,2.047,3.265A2.916,2.916,0,1,0,3.786,8.831L13.807,5.7A2.916,2.916,0,0,0,12.068.134Zm0,0" transform="translate(100.773 37.257)" fill="#f54242"/>
          <path id="Path_2493-2" data-name="Path 2493" d="M2.045,15.719A2.913,2.913,0,0,0,5.7,13.813l0-.007L8.83,3.786A2.916,2.916,0,0,0,3.265,2.045L.134,12.067a2.915,2.915,0,0,0,1.912,3.653Zm0,0" transform="translate(70.406)" fill="#f54242"/>
        </g>
      </g>
      <g id="Group_2893" data-name="Group 2893" transform="translate(0 0)" opacity="0.13">
        <g id="torch-3" data-name="torch" transform="translate(0 0)">
          <path id="Path_2489-3" data-name="Path 2489" d="M63.644,75.92a7.8,7.8,0,0,0-11.012,0l-4.193,4.194a17.65,17.65,0,0,0-4.091,6.44l-8.136,22.524L3.618,141.671a12.673,12.673,0,0,0,0,17.9l9.777,9.775a12.672,12.672,0,0,0,17.9,0l32.566-32.565,22.6-8.224a17.648,17.648,0,0,0,6.367-4.045l4.2-4.173a7.787,7.787,0,0,0,.029-11.013l-.015-.015Zm-36.471,89.3a6.833,6.833,0,0,1-9.653,0l-9.776-9.777a6.834,6.834,0,0,1,0-9.654l30.877-30.877L58.107,134.29ZM92.91,116.206l-4.2,4.174a11.81,11.81,0,0,1-4.249,2.7l-21.5,7.823L42.044,110.1l7.79-21.565a11.8,11.8,0,0,1,2.73-4.3l4.194-4.193a1.954,1.954,0,0,1,2.763,0l0,0,33.392,33.392a1.958,1.958,0,0,1,0,2.766l0,0Zm0,0" transform="translate(0.084 -56.424)" fill="#f54242"/>
          <path id="Path_2490-3" data-name="Path 2490" d="M148.923,307.5a2.916,2.916,0,0,0-4.123,0l-7.089,7.091a2.916,2.916,0,0,0,4.123,4.123l7.089-7.091a2.915,2.915,0,0,0,0-4.123Zm0,0" transform="translate(-104.854 -234.939)" fill="#f54242"/>
          <path id="Path_2491-3" data-name="Path 2491" d="M370.161,79.623a2.909,2.909,0,0,0,2.062-.853l10.02-10.021a2.915,2.915,0,0,0-4.121-4.123L368.1,74.646a2.915,2.915,0,0,0,2.061,4.977Zm0,0" transform="translate(-281.351 -48.891)" fill="#f54242"/>
          <path id="Path_2492-3" data-name="Path 2492" d="M442.938,159.464,432.917,162.6a2.916,2.916,0,1,0,1.739,5.566l10.021-3.131a2.916,2.916,0,0,0-1.739-5.566Zm0,0" transform="translate(-330.097 -122.074)" fill="#f54242"/>
          <path id="Path_2493-3" data-name="Path 2493" d="M303.052,15.722a2.913,2.913,0,0,0,3.652-1.906l0-.007,3.13-10.019a2.916,2.916,0,0,0-5.565-1.741L301.14,12.069a2.915,2.915,0,0,0,1.912,3.653Zm0,0" transform="translate(-230.601 -0.003)" fill="#f54242"/>
        </g>
        <g id="torch-4" data-name="torch" transform="translate(314.627 3.999) rotate(90)">
          <path id="Path_2489-4" data-name="Path 2489" d="M63.728,2.276a7.8,7.8,0,0,0-11.012,0L48.523,6.47a17.65,17.65,0,0,0-4.091,6.44L36.3,35.434,3.7,68.028a12.673,12.673,0,0,0,0,17.9L13.479,95.7a12.672,12.672,0,0,0,17.9,0L63.947,63.14l22.6-8.224a17.648,17.648,0,0,0,6.367-4.045l4.2-4.173a7.787,7.787,0,0,0,.029-11.013l-.015-.015Zm-36.471,89.3a6.833,6.833,0,0,1-9.653,0L7.827,81.8a6.834,6.834,0,0,1,0-9.654L38.7,41.272,58.191,60.646ZM92.994,42.562l-4.2,4.174a11.81,11.81,0,0,1-4.249,2.7l-21.5,7.823-20.922-20.8,7.79-21.565a11.8,11.8,0,0,1,2.73-4.3L56.841,6.4a1.954,1.954,0,0,1,2.763,0l0,0L93,39.793a1.958,1.958,0,0,1,0,2.766l0,0Zm0,0" transform="translate(0 17.22)" fill="#f54242"/>
          <path id="Path_2490-4" data-name="Path 2490" d="M12.041.854a2.916,2.916,0,0,0-4.123,0L.829,7.944a2.916,2.916,0,0,0,4.123,4.123l7.089-7.091a2.915,2.915,0,0,0,0-4.123Zm0,0" transform="translate(32.028 71.704)" fill="#f54242"/>
          <path id="Path_2491-4" data-name="Path 2491" d="M2.915,15.812a2.909,2.909,0,0,0,2.062-.853L15,4.937A2.915,2.915,0,0,0,10.875.814L.854,10.834a2.915,2.915,0,0,0,2.061,4.977Zm0,0" transform="translate(85.895 14.921)" fill="#f54242"/>
          <path id="Path_2492-4" data-name="Path 2492" d="M12.068.134,2.047,3.265A2.916,2.916,0,1,0,3.786,8.831L13.807,5.7A2.916,2.916,0,0,0,12.068.134Zm0,0" transform="translate(100.773 37.257)" fill="#f54242"/>
          <path id="Path_2493-4" data-name="Path 2493" d="M2.045,15.719A2.913,2.913,0,0,0,5.7,13.813l0-.007L8.83,3.786A2.916,2.916,0,0,0,3.265,2.045L.134,12.067a2.915,2.915,0,0,0,1.912,3.653Zm0,0" transform="translate(70.406)" fill="#f54242"/>
        </g>
      </g>
      <g id="Group_2891" data-name="Group 2891" transform="translate(789 0)" opacity="0.13">
        <g id="torch-5" data-name="torch" transform="translate(0 0)">
          <path id="Path_2489-5" data-name="Path 2489" d="M63.644,75.92a7.8,7.8,0,0,0-11.012,0l-4.193,4.194a17.65,17.65,0,0,0-4.091,6.44l-8.136,22.524L3.618,141.671a12.673,12.673,0,0,0,0,17.9l9.777,9.775a12.672,12.672,0,0,0,17.9,0l32.566-32.565,22.6-8.224a17.648,17.648,0,0,0,6.367-4.045l4.2-4.173a7.787,7.787,0,0,0,.029-11.013l-.015-.015Zm-36.471,89.3a6.833,6.833,0,0,1-9.653,0l-9.776-9.777a6.834,6.834,0,0,1,0-9.654l30.877-30.877L58.107,134.29ZM92.91,116.206l-4.2,4.174a11.81,11.81,0,0,1-4.249,2.7l-21.5,7.823L42.044,110.1l7.79-21.565a11.8,11.8,0,0,1,2.73-4.3l4.194-4.193a1.954,1.954,0,0,1,2.763,0l0,0,33.392,33.392a1.958,1.958,0,0,1,0,2.766l0,0Zm0,0" transform="translate(0.084 -56.424)" fill="#f54242"/>
          <path id="Path_2490-5" data-name="Path 2490" d="M148.923,307.5a2.916,2.916,0,0,0-4.123,0l-7.089,7.091a2.916,2.916,0,0,0,4.123,4.123l7.089-7.091a2.915,2.915,0,0,0,0-4.123Zm0,0" transform="translate(-104.854 -234.939)" fill="#f54242"/>
          <path id="Path_2491-5" data-name="Path 2491" d="M370.161,79.623a2.909,2.909,0,0,0,2.062-.853l10.02-10.021a2.915,2.915,0,0,0-4.121-4.123L368.1,74.646a2.915,2.915,0,0,0,2.061,4.977Zm0,0" transform="translate(-281.351 -48.891)" fill="#f54242"/>
          <path id="Path_2492-5" data-name="Path 2492" d="M442.938,159.464,432.917,162.6a2.916,2.916,0,1,0,1.739,5.566l10.021-3.131a2.916,2.916,0,0,0-1.739-5.566Zm0,0" transform="translate(-330.097 -122.074)" fill="#f54242"/>
          <path id="Path_2493-5" data-name="Path 2493" d="M303.052,15.722a2.913,2.913,0,0,0,3.652-1.906l0-.007,3.13-10.019a2.916,2.916,0,0,0-5.565-1.741L301.14,12.069a2.915,2.915,0,0,0,1.912,3.653Zm0,0" transform="translate(-230.601 -0.003)" fill="#f54242"/>
        </g>
        <g id="torch-6" data-name="torch" transform="translate(314.627 3.999) rotate(90)">
          <path id="Path_2489-6" data-name="Path 2489" d="M63.728,2.276a7.8,7.8,0,0,0-11.012,0L48.523,6.47a17.65,17.65,0,0,0-4.091,6.44L36.3,35.434,3.7,68.028a12.673,12.673,0,0,0,0,17.9L13.479,95.7a12.672,12.672,0,0,0,17.9,0L63.947,63.14l22.6-8.224a17.648,17.648,0,0,0,6.367-4.045l4.2-4.173a7.787,7.787,0,0,0,.029-11.013l-.015-.015Zm-36.471,89.3a6.833,6.833,0,0,1-9.653,0L7.827,81.8a6.834,6.834,0,0,1,0-9.654L38.7,41.272,58.191,60.646ZM92.994,42.562l-4.2,4.174a11.81,11.81,0,0,1-4.249,2.7l-21.5,7.823-20.922-20.8,7.79-21.565a11.8,11.8,0,0,1,2.73-4.3L56.841,6.4a1.954,1.954,0,0,1,2.763,0l0,0L93,39.793a1.958,1.958,0,0,1,0,2.766l0,0Zm0,0" transform="translate(0 17.22)" fill="#f54242"/>
          <path id="Path_2490-6" data-name="Path 2490" d="M12.041.854a2.916,2.916,0,0,0-4.123,0L.829,7.944a2.916,2.916,0,0,0,4.123,4.123l7.089-7.091a2.915,2.915,0,0,0,0-4.123Zm0,0" transform="translate(32.028 71.704)" fill="#f54242"/>
          <path id="Path_2491-6" data-name="Path 2491" d="M2.915,15.812a2.909,2.909,0,0,0,2.062-.853L15,4.937A2.915,2.915,0,0,0,10.875.814L.854,10.834a2.915,2.915,0,0,0,2.061,4.977Zm0,0" transform="translate(85.895 14.921)" fill="#f54242"/>
          <path id="Path_2492-6" data-name="Path 2492" d="M12.068.134,2.047,3.265A2.916,2.916,0,1,0,3.786,8.831L13.807,5.7A2.916,2.916,0,0,0,12.068.134Zm0,0" transform="translate(100.773 37.257)" fill="#f54242"/>
          <path id="Path_2493-6" data-name="Path 2493" d="M2.045,15.719A2.913,2.913,0,0,0,5.7,13.813l0-.007L8.83,3.786A2.916,2.916,0,0,0,3.265,2.045L.134,12.067a2.915,2.915,0,0,0,1.912,3.653Zm0,0" transform="translate(70.406)" fill="#f54242"/>
        </g>
      </g>
      <g id="Group_2892" data-name="Group 2892" transform="translate(1176 0)" opacity="0.13">
        <g id="torch-7" data-name="torch" transform="translate(0 0)">
          <path id="Path_2489-7" data-name="Path 2489" d="M63.644,75.92a7.8,7.8,0,0,0-11.012,0l-4.193,4.194a17.65,17.65,0,0,0-4.091,6.44l-8.136,22.524L3.618,141.671a12.673,12.673,0,0,0,0,17.9l9.777,9.775a12.672,12.672,0,0,0,17.9,0l32.566-32.565,22.6-8.224a17.648,17.648,0,0,0,6.367-4.045l4.2-4.173a7.787,7.787,0,0,0,.029-11.013l-.015-.015Zm-36.471,89.3a6.833,6.833,0,0,1-9.653,0l-9.776-9.777a6.834,6.834,0,0,1,0-9.654l30.877-30.877L58.107,134.29ZM92.91,116.206l-4.2,4.174a11.81,11.81,0,0,1-4.249,2.7l-21.5,7.823L42.044,110.1l7.79-21.565a11.8,11.8,0,0,1,2.73-4.3l4.194-4.193a1.954,1.954,0,0,1,2.763,0l0,0,33.392,33.392a1.958,1.958,0,0,1,0,2.766l0,0Zm0,0" transform="translate(0.084 -56.424)" fill="#f54242"/>
          <path id="Path_2490-7" data-name="Path 2490" d="M148.923,307.5a2.916,2.916,0,0,0-4.123,0l-7.089,7.091a2.916,2.916,0,0,0,4.123,4.123l7.089-7.091a2.915,2.915,0,0,0,0-4.123Zm0,0" transform="translate(-104.854 -234.939)" fill="#f54242"/>
          <path id="Path_2491-7" data-name="Path 2491" d="M370.161,79.623a2.909,2.909,0,0,0,2.062-.853l10.02-10.021a2.915,2.915,0,0,0-4.121-4.123L368.1,74.646a2.915,2.915,0,0,0,2.061,4.977Zm0,0" transform="translate(-281.351 -48.891)" fill="#f54242"/>
          <path id="Path_2492-7" data-name="Path 2492" d="M442.938,159.464,432.917,162.6a2.916,2.916,0,1,0,1.739,5.566l10.021-3.131a2.916,2.916,0,0,0-1.739-5.566Zm0,0" transform="translate(-330.097 -122.074)" fill="#f54242"/>
          <path id="Path_2493-7" data-name="Path 2493" d="M303.052,15.722a2.913,2.913,0,0,0,3.652-1.906l0-.007,3.13-10.019a2.916,2.916,0,0,0-5.565-1.741L301.14,12.069a2.915,2.915,0,0,0,1.912,3.653Zm0,0" transform="translate(-230.601 -0.003)" fill="#f54242"/>
        </g>
        <g id="torch-8" data-name="torch" transform="translate(314.627 3.999) rotate(90)">
          <path id="Path_2489-8" data-name="Path 2489" d="M63.728,2.276a7.8,7.8,0,0,0-11.012,0L48.523,6.47a17.65,17.65,0,0,0-4.091,6.44L36.3,35.434,3.7,68.028a12.673,12.673,0,0,0,0,17.9L13.479,95.7a12.672,12.672,0,0,0,17.9,0L63.947,63.14l22.6-8.224a17.648,17.648,0,0,0,6.367-4.045l4.2-4.173a7.787,7.787,0,0,0,.029-11.013l-.015-.015Zm-36.471,89.3a6.833,6.833,0,0,1-9.653,0L7.827,81.8a6.834,6.834,0,0,1,0-9.654L38.7,41.272,58.191,60.646ZM92.994,42.562l-4.2,4.174a11.81,11.81,0,0,1-4.249,2.7l-21.5,7.823-20.922-20.8,7.79-21.565a11.8,11.8,0,0,1,2.73-4.3L56.841,6.4a1.954,1.954,0,0,1,2.763,0l0,0L93,39.793a1.958,1.958,0,0,1,0,2.766l0,0Zm0,0" transform="translate(0 17.22)" fill="#f54242"/>
          <path id="Path_2490-8" data-name="Path 2490" d="M12.041.854a2.916,2.916,0,0,0-4.123,0L.829,7.944a2.916,2.916,0,0,0,4.123,4.123l7.089-7.091a2.915,2.915,0,0,0,0-4.123Zm0,0" transform="translate(32.028 71.704)" fill="#f54242"/>
          <path id="Path_2491-8" data-name="Path 2491" d="M2.915,15.812a2.909,2.909,0,0,0,2.062-.853L15,4.937A2.915,2.915,0,0,0,10.875.814L.854,10.834a2.915,2.915,0,0,0,2.061,4.977Zm0,0" transform="translate(85.895 14.921)" fill="#f54242"/>
          <path id="Path_2492-8" data-name="Path 2492" d="M12.068.134,2.047,3.265A2.916,2.916,0,1,0,3.786,8.831L13.807,5.7A2.916,2.916,0,0,0,12.068.134Zm0,0" transform="translate(100.773 37.257)" fill="#f54242"/>
          <path id="Path_2493-8" data-name="Path 2493" d="M2.045,15.719A2.913,2.913,0,0,0,5.7,13.813l0-.007L8.83,3.786A2.916,2.916,0,0,0,3.265,2.045L.134,12.067a2.915,2.915,0,0,0,1.912,3.653Zm0,0" transform="translate(70.406)" fill="#f54242"/>
        </g>
      </g>
    </g>
  </g>
</svg>
