<svg xmlns="http://www.w3.org/2000/svg" width="21.477" height="21.477" viewBox="0 0 21.477 21.477">
  <g id="maximize" transform="translate(0 0)">
    <path id="Path_2479" data-name="Path 2479" d="M19.016,21.477H2.461A2.463,2.463,0,0,1,0,19.016V2.461A2.463,2.463,0,0,1,2.461,0H19.016a2.463,2.463,0,0,1,2.461,2.461V19.016A2.463,2.463,0,0,1,19.016,21.477ZM2.461,1.342A1.12,1.12,0,0,0,1.342,2.461V19.016a1.12,1.12,0,0,0,1.119,1.119H19.016a1.12,1.12,0,0,0,1.119-1.119V2.461a1.12,1.12,0,0,0-1.119-1.119Zm0,0"/>
    <path id="Path_2480" data-name="Path 2480" d="M262.488,92.491a.671.671,0,0,1-.671-.671V86.674h-5.146a.671.671,0,1,1,0-1.342h5.817a.671.671,0,0,1,.671.671V91.82A.671.671,0,0,1,262.488,92.491Zm0,0" transform="translate(-245.261 -81.753)"/>
    <path id="Path_2481" data-name="Path 2481" d="M214.011,94.266a.672.672,0,0,1-.474-1.146l7.606-7.607a.671.671,0,0,1,.95.95l-7.607,7.606a.669.669,0,0,1-.475.2Zm0,0" transform="translate(-204.391 -81.738)"/>
    <path id="Path_2482" data-name="Path 2482" d="M7.383,328.054a.671.671,0,0,1-.671-.671v-6.04H.671a.671.671,0,1,1,0-1.342H7.383a.671.671,0,0,1,.671.671v6.712A.671.671,0,0,1,7.383,328.054Zm0,0" transform="translate(0 -306.577)"/>
  </g>
</svg>
