<svg xmlns="http://www.w3.org/2000/svg" width="165.896" height="139.307" viewBox="0 0 165.896 139.307">
  <g id="OEVLWZ1_Converted_" data-name="OEVLWZ1 [Converted]" transform="translate(-42.128 -400.068)">
    <g id="Group_2712" data-name="Group 2712" transform="translate(42.128 400.068)">
      <path id="Path_1261" data-name="Path 1261" d="M1293.912,739.525a.953.953,0,0,1-.823-.454l-24.726-39.089-25.108,38.7a.975.975,0,0,1-1.636-1.063l25.944-39.973a.982.982,0,0,1,.824-.442.994.994,0,0,1,.824.454l25.538,40.379a.981.981,0,0,1-.3,1.349A1.243,1.243,0,0,1,1293.912,739.525Z" transform="translate(-1129.544 -676.032)" fill="#ebebeb"/>
      <g id="Group_2677" data-name="Group 2677" transform="translate(119.835 35.806)">
        <rect id="Rectangle_963" data-name="Rectangle 963" width="39.483" height="24.129" fill="#ebebeb"/>
        <path id="Path_1262" data-name="Path 1262" d="M1307.8,1021.9v18.78l39.471-1.075V1021.9Z" transform="translate(-1307.8 -997.771)" fill="#bcbcbc"/>
      </g>
      <rect id="Rectangle_964" data-name="Rectangle 964" width="128.469" height="3.319" transform="translate(18.767 33.729) rotate(-8.667)" fill="#bcbcbc"/>
      <g id="Group_2678" data-name="Group 2678" transform="translate(133.23 12.297)">
        <circle id="Ellipse_35" data-name="Ellipse 35" cx="5.265" cy="5.265" r="5.265" fill="#ebebeb"/>
        <circle id="Ellipse_36" data-name="Ellipse 36" cx="3.462" cy="3.462" r="3.462" transform="translate(1.803 1.803)" fill="#cccbc9"/>
      </g>
      <g id="Group_2701" data-name="Group 2701" transform="translate(0 29.896)">
        <g id="Group_2679" data-name="Group 2679" transform="translate(22.147)">
          <path id="Path_2252" data-name="Path 2252" d="M5.265,0A5.265,5.265,0,1,1,0,5.265,5.265,5.265,0,0,1,5.265,0Z" fill="#ebebeb"/>
          <circle id="Ellipse_38" data-name="Ellipse 38" cx="3.462" cy="3.462" r="3.462" transform="translate(1.803 1.803)" fill="#cccbc9"/>
        </g>
        <g id="Group_2680" data-name="Group 2680" transform="translate(0.592 8.871)">
          <path id="Path_1263" data-name="Path 1263" d="M361.512,886.925a.953.953,0,0,1-.824-.454l-24.726-39.089-25.108,38.7a.975.975,0,1,1-1.636-1.062l25.944-39.973a.983.983,0,0,1,.824-.442.994.994,0,0,1,.824.454l25.538,40.378a.981.981,0,0,1-.3,1.349A1.133,1.133,0,0,1,361.512,886.925Z" transform="translate(-309.058 -844.6)" fill="#ebebeb"/>
        </g>
        <g id="Group_2687" data-name="Group 2687" transform="translate(28.033 29.323)">
          <path id="Path_1264" data-name="Path 1264" d="M563.237,1094.87l.012-13.635L539,1081.2v13.933Z" transform="translate(-538.988 -1073.404)" fill="#d9a728"/>
          <g id="Group_2681" data-name="Group 2681" transform="translate(0.012 13.754)">
            <path id="Path_1265" data-name="Path 1265" d="M551.118,1131.1c-6.7.012-12.118,2.483-12.118,5.528s5.42,5.516,12.118,5.528c6.7-.012,12.118-2.484,12.118-5.528S557.816,1131.112,551.118,1131.1Z" transform="translate(-539 -1131.1)" fill="#bf902d"/>
            <path id="Path_1266" data-name="Path 1266" d="M566,1138.9c-5.576.012-10.1,1.851-10.1,4.107s4.513,4.107,10.1,4.107,10.1-1.851,10.1-4.107S571.588,1138.9,566,1138.9Z" transform="translate(-553.882 -1137.969)" fill="#fdd903"/>
            <path id="Path_1267" data-name="Path 1267" d="M565.472,1146.581l-.012-.083v-.084h.489v.167Zm-.489,0c-.167,0-.323-.012-.49-.012l.012-.155c.155.012.322.012.478.012Zm1.456-.024v-.155c.167-.012.323-.012.49-.024l.012.155C566.774,1146.546,566.607,1146.558,566.439,1146.558Zm-2.436-.024-.49-.036.012-.155.478.036Zm3.415-.024-.012-.156c.167-.011.322-.023.477-.048l.012.155C567.741,1146.474,567.574,1146.486,567.418,1146.51Zm-4.382-.048c-.167-.012-.322-.036-.49-.06l.024-.155c.155.024.322.036.477.06Zm5.349-.06-.024-.155c.167-.024.322-.036.478-.06l.024.156C568.708,1146.367,568.553,1146.39,568.385,1146.4Zm-6.316-.06c-.167-.024-.322-.048-.478-.072l.024-.155.478.071Zm7.283-.072-.024-.155c.155-.024.323-.06.478-.083l.036.155C569.675,1146.211,569.508,1146.235,569.353,1146.271Zm-8.25-.1c-.167-.036-.322-.059-.478-.1l.036-.155c.155.036.31.072.478.1Zm9.205-.1-.036-.155c.155-.036.322-.072.466-.108l.036.155C570.63,1146.008,570.463,1146.044,570.308,1146.08Zm-10.148-.119c-.155-.036-.322-.083-.478-.131l.048-.155c.155.048.311.083.466.131Zm11.091-.119-.048-.156.466-.143.048.156C571.573,1145.746,571.418,1145.793,571.251,1145.841Zm-12.035-.143c-.155-.048-.31-.108-.466-.156l.06-.155c.143.048.3.107.454.155Zm12.966-.156-.059-.155c.155-.06.31-.107.454-.167l.06.143C572.493,1145.435,572.337,1145.483,572.182,1145.542Zm-13.885-.179c-.155-.06-.3-.132-.454-.191l.072-.143c.143.072.286.131.442.191Zm14.793-.191-.072-.143c.143-.072.3-.143.43-.215l.072.143Q573.322,1145.065,573.089,1145.173Zm-15.676-.227c-.143-.083-.286-.155-.43-.239l.084-.131c.131.083.275.167.418.239Zm16.548-.227-.083-.132c.143-.083.274-.179.394-.262l.1.131C574.236,1144.528,574.1,1144.623,573.961,1144.719Zm-17.383-.287c-.143-.107-.263-.2-.382-.311l.107-.12a3.1,3.1,0,0,0,.37.3Zm18.172-.3-.108-.119a4.408,4.408,0,0,0,.334-.335l.119.108Zm-18.9-.382a4.138,4.138,0,0,1-.286-.406l.143-.084a2.71,2.71,0,0,0,.263.382Zm19.533-.382-.143-.083a1.651,1.651,0,0,0,.179-.43l.155.048A1.918,1.918,0,0,1,575.382,1143.37Zm-20.01-.489a1.8,1.8,0,0,1-.072-.49h.155a1.966,1.966,0,0,0,.06.454Zm20.285-.478h-.072l-.083-.012a1.868,1.868,0,0,0-.06-.442l.155-.048a1.666,1.666,0,0,1,.072.489v.012Zm-20.13-.477-.155-.048a2.532,2.532,0,0,1,.191-.466l.143.083A3.249,3.249,0,0,0,555.527,1141.925Zm19.724-.406a2.733,2.733,0,0,0-.263-.382l.119-.107a4.175,4.175,0,0,1,.287.406Zm-19.27-.406-.119-.107a3.186,3.186,0,0,1,.346-.358l.107.119A4.369,4.369,0,0,0,555.981,1141.113Zm18.685-.322a3.136,3.136,0,0,0-.37-.3l.1-.131c.143.108.263.2.382.311Zm-17.993-.311-.1-.131a4.842,4.842,0,0,1,.406-.275l.084.132C556.936,1140.289,556.8,1140.385,556.673,1140.48Zm17.228-.263a4.811,4.811,0,0,0-.418-.239l.072-.143.43.251Zm-16.4-.25-.072-.143c.143-.072.287-.143.442-.215l.072.143C557.771,1139.824,557.628,1139.9,557.5,1139.967Zm15.557-.2c-.143-.072-.286-.132-.442-.191l.06-.143c.155.06.3.131.454.191Zm-14.686-.2-.059-.143c.143-.06.3-.119.453-.179l.06.155C558.667,1139.442,558.512,1139.5,558.368,1139.561Zm13.79-.167c-.143-.048-.3-.107-.454-.155l.048-.155c.155.047.31.107.465.155Zm-12.882-.155-.048-.155.466-.143.048.155Q559.491,1139.167,559.276,1139.239Zm11.963-.143c-.155-.048-.31-.084-.466-.119l.036-.155c.155.036.323.084.466.131Zm-11.032-.132-.036-.155c.155-.036.31-.072.478-.107l.036.155C560.518,1138.892,560.362,1138.928,560.207,1138.964Zm10.1-.1c-.155-.036-.31-.072-.477-.1l.036-.155c.155.036.323.059.478.1Zm-9.157-.107-.036-.156c.155-.036.322-.059.478-.083l.024.155C561.461,1138.7,561.306,1138.725,561.15,1138.761Zm8.2-.084-.478-.072.024-.155c.167.024.322.047.477.071Zm-7.247-.083-.024-.155c.155-.024.322-.048.477-.06l.024.155C562.416,1138.558,562.261,1138.57,562.105,1138.594Zm6.292-.06c-.155-.024-.322-.036-.478-.06l.012-.155c.167.012.323.036.49.06Zm-5.337-.06-.012-.155c.155-.012.322-.036.49-.048l.012.155C563.383,1138.451,563.216,1138.463,563.06,1138.475Zm4.37-.036-.478-.036.012-.155.49.036Zm-3.4-.036-.012-.155c.167-.012.322-.012.49-.024l.012.156C564.35,1138.379,564.183,1138.391,564.028,1138.4Zm2.436-.024c-.155-.012-.322-.012-.478-.012v-.167c.167,0,.322.012.49.012Zm-1.469-.012v-.167h.513v.155h-.024C565.317,1138.355,565.15,1138.355,564.995,1138.367Z" transform="translate(-553.354 -1137.352)" fill="#d4b629"/>
          </g>
          <path id="Path_1268" data-name="Path 1268" d="M551.118,1098.4c-6.7.012-12.118,2.483-12.118,5.528s5.42,5.516,12.118,5.528c6.7-.012,12.118-1.851,12.118-5.528C563.237,1100.883,557.816,1098.412,551.118,1098.4Z" transform="translate(-538.988 -1088.55)" fill="#bf902d"/>
          <path id="Path_1269" data-name="Path 1269" d="M566,1105.3c-5.576.012-10.1,1.851-10.1,4.107s4.513,4.107,10.1,4.107,10.1-1.85,10.1-4.107S571.588,1105.3,566,1105.3Z" transform="translate(-553.87 -1094.626)" fill="#fdd903"/>
          <path id="Path_1270" data-name="Path 1270" d="M565.472,1113.069l-.012-.083v-.084h.489v.155C565.795,1113.069,565.639,1113.069,565.472,1113.069Zm-.489,0c-.167,0-.323-.012-.49-.012l.012-.155c.155.012.322.012.478.012Zm1.456-.024v-.155c.167-.012.323-.012.49-.024l.012.156C566.774,1113.034,566.607,1113.046,566.439,1113.046Zm-2.436-.024-.49-.036.012-.156.478.036Zm3.415-.024-.012-.155c.167-.012.322-.024.477-.048l.012.155C567.741,1112.962,567.574,1112.986,567.418,1113Zm-4.382-.048c-.167-.012-.322-.036-.49-.06l.024-.155c.155.024.322.036.477.048Zm5.349-.06-.024-.155c.167-.024.322-.036.478-.06l.024.155C568.708,1112.855,568.553,1112.878,568.385,1112.891Zm-6.316-.06c-.167-.024-.322-.048-.478-.071l.024-.155.478.072Zm7.283-.071-.024-.155c.155-.024.323-.06.478-.083l.036.155C569.675,1112.7,569.508,1112.723,569.353,1112.759Zm-8.25-.1c-.167-.036-.322-.059-.478-.095l.036-.155c.155.036.31.071.478.1Zm9.205-.095-.036-.155c.155-.036.322-.072.466-.108l.036.155C570.63,1112.5,570.463,1112.532,570.308,1112.568Zm-10.148-.12c-.155-.036-.322-.083-.478-.131l.048-.155c.155.048.311.084.466.132Zm11.091-.119-.048-.155.466-.143.048.155C571.573,1112.234,571.418,1112.282,571.251,1112.329Zm-12.035-.143c-.155-.048-.31-.108-.466-.155l.06-.155c.143.048.3.108.454.155Zm12.966-.155-.059-.155c.155-.059.31-.107.454-.167l.06.143C572.493,1111.923,572.337,1111.971,572.182,1112.031Zm-13.885-.179c-.155-.06-.3-.131-.454-.191l.072-.143c.143.072.286.131.442.191Zm14.793-.191-.072-.143c.143-.072.3-.143.43-.215l.072.143Q573.322,1111.553,573.089,1111.661Zm-15.676-.227c-.143-.083-.286-.167-.43-.239l.084-.131c.131.083.275.167.418.239Zm16.548-.227-.083-.131c.143-.083.274-.179.394-.263l.1.132C574.236,1111.016,574.1,1111.111,573.961,1111.207Zm-17.383-.286c-.143-.108-.263-.2-.382-.31l.107-.12a3.108,3.108,0,0,0,.37.3Zm18.172-.3-.108-.12a3.029,3.029,0,0,0,.334-.346l.119.107C574.988,1110.383,574.869,1110.5,574.749,1110.622Zm-18.9-.37a4.156,4.156,0,0,1-.286-.406l.143-.083a2.7,2.7,0,0,0,.263.382Zm19.533-.394-.143-.084a1.643,1.643,0,0,0,.179-.43l.155.048A1.925,1.925,0,0,1,575.382,1109.858Zm-20.01-.49a1.8,1.8,0,0,1-.072-.489h.155a1.969,1.969,0,0,0,.06.453Zm20.285-.478h-.072l-.083-.012a1.873,1.873,0,0,0-.06-.442l.155-.048a1.668,1.668,0,0,1,.072.49v.012Zm-20.13-.477-.155-.048a2.557,2.557,0,0,1,.191-.465l.143.084A3.258,3.258,0,0,0,555.527,1108.413Zm19.724-.406a2.762,2.762,0,0,0-.263-.382l.119-.107a4.21,4.21,0,0,1,.287.406Zm-19.27-.406-.119-.107a3.208,3.208,0,0,1,.346-.358l.107.12A4.433,4.433,0,0,0,555.981,1107.6Zm18.685-.322a3.136,3.136,0,0,0-.37-.3l.1-.131c.143.108.263.215.382.31Zm-17.993-.31-.1-.132c.131-.1.263-.191.406-.275l.084.132C556.936,1106.778,556.8,1106.873,556.673,1106.969Zm17.228-.263a4.811,4.811,0,0,0-.418-.239l.072-.143.43.251Zm-16.4-.251-.072-.143c.143-.072.287-.143.442-.215l.072.143C557.771,1106.312,557.628,1106.383,557.5,1106.455Zm15.557-.2c-.143-.071-.286-.131-.442-.191l.06-.143c.155.06.3.132.454.191Zm-14.686-.2-.059-.143c.143-.06.3-.12.453-.179l.06.155C558.667,1105.93,558.512,1105.99,558.368,1106.049Zm13.79-.167c-.143-.06-.3-.108-.454-.155l.048-.155c.155.047.31.107.465.155Zm-12.882-.155-.048-.155.466-.143.048.155C559.574,1105.631,559.419,1105.679,559.276,1105.727Zm11.963-.144c-.155-.048-.31-.083-.466-.131l.036-.155c.155.036.323.084.466.131Zm-11.032-.119-.036-.155c.155-.036.31-.072.478-.108l.036.155A3.186,3.186,0,0,0,560.207,1105.464Zm10.1-.108c-.155-.036-.31-.071-.477-.1l.036-.155c.155.036.323.06.478.1Zm-9.157-.107-.036-.155c.155-.036.322-.06.478-.083l.024.155C561.461,1105.189,561.306,1105.214,561.15,1105.249Zm8.2-.083-.478-.072.024-.155c.167.024.322.048.477.072Zm-7.247-.084-.024-.155c.155-.024.322-.048.477-.06l.024.155C562.416,1105.046,562.261,1105.058,562.105,1105.082Zm6.292-.06c-.155-.024-.322-.036-.478-.06l.012-.155c.167.012.323.036.49.06Zm-5.337-.06-.012-.155c.155-.012.322-.036.49-.048l.012.155C563.383,1104.939,563.216,1104.951,563.06,1104.963Zm4.37-.036-.478-.036.012-.155.49.036Zm-3.4-.036-.012-.155c.167-.012.322-.024.49-.024l.012.155C564.35,1104.867,564.183,1104.879,564.028,1104.891Zm2.436-.024c-.155-.012-.322-.012-.478-.012v-.155c.167,0,.322.012.49.012Zm-1.469-.012v-.155h.513v.167h-.024A2.229,2.229,0,0,0,564.995,1104.855Z" transform="translate(-553.342 -1094.098)" fill="#d4b629"/>
          <g id="Group_2682" data-name="Group 2682" transform="translate(0.012 6.829)">
            <path id="Path_1271" data-name="Path 1271" d="M551.118,1073.1c-6.7.012-12.118,2.483-12.118,5.528s5.42,5.516,12.118,5.528c6.7-.012,12.118-2.483,12.118-5.528S557.816,1073.1,551.118,1073.1Z" transform="translate(-539 -1073.1)" fill="#bf902d"/>
            <path id="Path_1272" data-name="Path 1272" d="M566,1080.8c-5.576.012-10.1,1.85-10.1,4.107s4.513,4.107,10.1,4.107,10.1-1.85,10.1-4.107S571.588,1080.8,566,1080.8Z" transform="translate(-553.882 -1079.881)" fill="#fdd903"/>
            <path id="Path_1273" data-name="Path 1273" d="M565.472,1088.569l-.012-.084v-.083h.489v.167Zm-.489,0c-.167,0-.323-.012-.49-.012l.012-.167c.155.012.322.012.478.012Zm1.456-.012v-.155c.167-.012.323-.012.49-.024l.012.155C566.774,1088.534,566.607,1088.546,566.439,1088.557Zm-2.436-.024-.49-.036.012-.167.478.036Zm3.415-.036-.012-.155c.167-.012.322-.024.477-.047l.012.155C567.741,1088.474,567.574,1088.486,567.418,1088.5Zm-4.382-.048c-.167-.012-.322-.036-.49-.059l.024-.155c.155.024.322.036.477.06Zm5.349-.047-.024-.155c.167-.024.322-.036.478-.06l.024.155C568.708,1088.355,568.553,1088.378,568.385,1088.4Zm-6.316-.072c-.167-.024-.322-.048-.478-.072l.024-.155.478.072Zm7.283-.072-.024-.155c.155-.024.323-.06.478-.084l.036.156C569.675,1088.2,569.508,1088.235,569.353,1088.259Zm-8.25-.1c-.167-.036-.322-.059-.478-.1l.036-.155c.155.036.31.072.478.1Zm9.205-.1-.036-.155c.155-.036.322-.072.466-.108l.036.155C570.63,1088,570.463,1088.032,570.308,1088.068Zm-10.148-.119c-.155-.036-.322-.083-.478-.131l.048-.155c.155.048.311.083.466.131Zm11.091-.119-.048-.155.466-.143.048.155A2.654,2.654,0,0,1,571.251,1087.829Zm-12.035-.143c-.155-.048-.31-.107-.466-.155l.06-.155c.143.048.3.108.454.155Zm12.966-.155-.059-.155c.155-.059.31-.107.454-.167l.06.155C572.493,1087.423,572.337,1087.483,572.182,1087.531Zm-13.885-.179c-.155-.06-.3-.131-.454-.191l.072-.143c.143.072.286.131.442.191Zm14.793-.179-.072-.143c.143-.072.3-.143.43-.215l.072.143C573.388,1087.017,573.245,1087.1,573.089,1087.173Zm-15.676-.227c-.143-.084-.286-.156-.43-.239l.084-.131a4.724,4.724,0,0,0,.418.239Zm16.548-.239-.083-.143c.143-.084.274-.179.394-.263l.1.132C574.236,1086.528,574.1,1086.611,573.961,1086.707Zm-17.383-.287c-.143-.108-.263-.2-.382-.31l.107-.119a3.107,3.107,0,0,0,.37.3Zm18.172-.3-.108-.119a3.039,3.039,0,0,0,.334-.346l.119.107C574.988,1085.883,574.869,1086,574.749,1086.122Zm-18.9-.37a4.169,4.169,0,0,1-.286-.406l.143-.084a2.711,2.711,0,0,0,.263.382Zm19.533-.394-.143-.084a1.645,1.645,0,0,0,.179-.43l.155.048A1.92,1.92,0,0,1,575.382,1085.358Zm-20.01-.478a1.8,1.8,0,0,1-.072-.49h.155a1.966,1.966,0,0,0,.06.453Zm20.285-.478h-.072l-.083-.012a1.871,1.871,0,0,0-.06-.442l.155-.048a1.67,1.67,0,0,1,.072.49v.012Zm-20.13-.478-.155-.048a2.549,2.549,0,0,1,.191-.466l.143.084A3.253,3.253,0,0,0,555.527,1083.925Zm19.724-.418a2.758,2.758,0,0,0-.263-.382l.119-.107a4.236,4.236,0,0,1,.287.406Zm-19.27-.394-.119-.107a3.188,3.188,0,0,1,.346-.358l.107.12A2.269,2.269,0,0,0,555.981,1083.113Zm18.685-.334a3.1,3.1,0,0,0-.37-.3l.1-.131c.143.108.263.2.382.31Zm-17.993-.31-.1-.131a4.871,4.871,0,0,1,.406-.275l.084.131C556.936,1082.289,556.8,1082.373,556.673,1082.469Zm17.228-.263a4.718,4.718,0,0,0-.418-.239l.072-.144c.143.084.287.167.43.239Zm-16.4-.251-.072-.143c.143-.072.287-.143.442-.215l.072.143C557.771,1081.812,557.628,1081.883,557.5,1081.955Zm15.557-.2c-.143-.072-.286-.131-.442-.191l.06-.143c.155.06.3.131.454.191Zm-14.686-.2-.059-.143c.143-.06.3-.12.453-.179l.06.155C558.667,1081.441,558.512,1081.49,558.368,1081.549Zm13.79-.167c-.143-.048-.3-.108-.454-.155l.048-.155c.155.048.31.108.465.155Zm-12.882-.155-.048-.155.466-.143.048.155Q559.491,1081.155,559.276,1081.227Zm11.963-.131c-.155-.048-.31-.084-.466-.131l.036-.155c.155.036.323.084.466.131Zm-11.032-.131-.036-.155c.155-.036.31-.072.478-.108l.036.155C560.518,1080.88,560.362,1080.928,560.207,1080.964Zm10.1-.108c-.155-.036-.31-.071-.477-.1l.036-.155c.155.036.323.06.478.1Zm-9.157-.107-.036-.155c.155-.036.322-.06.478-.083l.024.155C561.461,1080.689,561.306,1080.725,561.15,1080.749Zm8.2-.084-.478-.072.024-.155.477.072Zm-7.247-.072-.024-.155c.155-.024.322-.048.477-.06l.024.155C562.416,1080.546,562.261,1080.57,562.105,1080.594Zm6.292-.072c-.155-.024-.322-.036-.478-.059l.012-.156c.167.012.323.036.49.06Zm-5.337-.048-.012-.155c.155-.012.322-.036.49-.048l.012.155C563.383,1080.439,563.216,1080.451,563.06,1080.474Zm4.37-.047-.478-.036.012-.155.49.036Zm-3.4-.036-.012-.156c.167-.012.322-.024.49-.024l.012.167C564.35,1080.379,564.183,1080.379,564.028,1080.391Zm2.436-.024c-.155,0-.322-.012-.478-.012v-.155c.167,0,.322.012.49.012Zm-1.469-.012v-.155h.513v.167h-.024C565.317,1080.355,565.15,1080.355,564.995,1080.355Z" transform="translate(-553.354 -1079.352)" fill="#d4b629"/>
          </g>
          <g id="Group_2683" data-name="Group 2683" transform="translate(0.012 4.012)">
            <path id="Path_1274" data-name="Path 1274" d="M551.118,1049.5c-6.7.012-12.118,2.483-12.118,5.528s5.42,5.516,12.118,5.528c6.7-.012,12.118-2.484,12.118-5.528S557.816,1049.512,551.118,1049.5Z" transform="translate(-539 -1049.5)" fill="#bf902d"/>
            <path id="Path_1275" data-name="Path 1275" d="M566,1057.2c-5.576.012-10.1,1.85-10.1,4.107s4.513,4.107,10.1,4.107,10.1-1.85,10.1-4.107S571.588,1057.212,566,1057.2Z" transform="translate(-553.882 -1056.281)" fill="#fdd903"/>
            <path id="Path_1276" data-name="Path 1276" d="M565.472,1064.982l-.012-.084v-.083h.489v.155C565.795,1064.982,565.639,1064.982,565.472,1064.982Zm-.489-.013c-.167,0-.323-.012-.49-.012l.012-.155c.155.012.322.012.478.012Zm1.456-.012v-.167c.167-.012.323-.012.49-.024l.012.155C566.774,1064.946,566.607,1064.946,566.439,1064.958Zm-2.436-.024-.49-.036.012-.155.478.036Zm3.415-.036-.012-.155c.167-.012.322-.024.477-.048l.012.155C567.741,1064.874,567.574,1064.886,567.418,1064.9Zm-4.382-.048c-.167-.012-.322-.036-.49-.06l.024-.155c.155.024.322.036.477.059Zm5.349-.048-.024-.155c.167-.024.322-.036.478-.06l.024.155C568.708,1064.766,568.553,1064.778,568.385,1064.8Zm-6.316-.072c-.167-.024-.322-.048-.478-.072l.024-.155.478.072Zm7.283-.072-.024-.155c.155-.024.323-.06.478-.084l.036.155C569.675,1064.611,569.508,1064.635,569.353,1064.659Zm-8.25-.083c-.167-.036-.322-.06-.478-.1l.036-.155c.155.036.31.072.478.1Zm9.205-.1-.036-.155c.155-.036.322-.072.466-.107l.036.155C570.63,1064.408,570.463,1064.444,570.308,1064.48Zm-10.148-.119c-.155-.036-.322-.083-.478-.131l.048-.155c.155.048.311.083.466.131Zm11.091-.119-.048-.155.466-.143.048.155Q571.5,1064.169,571.251,1064.241Zm-12.035-.155c-.155-.048-.31-.107-.466-.155l.06-.155c.143.048.3.108.454.155Zm12.966-.143-.059-.155c.155-.06.31-.108.454-.167l.06.155C572.493,1063.823,572.337,1063.883,572.182,1063.943Zm-13.885-.179c-.155-.06-.3-.131-.454-.191l.072-.143c.143.072.286.131.442.191Zm14.793-.191-.072-.143c.143-.072.3-.144.43-.215l.072.144Q573.322,1063.465,573.089,1063.572Zm-15.676-.227c-.143-.084-.286-.155-.43-.251l.084-.131a4.636,4.636,0,0,0,.418.239Zm16.548-.239-.083-.131c.143-.084.274-.179.394-.263l.1.131C574.236,1062.928,574.1,1063.023,573.961,1063.107Zm-17.383-.286c-.143-.108-.263-.2-.382-.311l.107-.119c.108.1.239.2.37.3Zm18.172-.3-.108-.119a4.4,4.4,0,0,0,.334-.334l.119.107C574.988,1062.283,574.869,1062.414,574.749,1062.522Zm-18.9-.37a4.155,4.155,0,0,1-.286-.406l.143-.083a2.687,2.687,0,0,0,.263.382Zm19.533-.394-.143-.083a1.643,1.643,0,0,0,.179-.43l.155.047A1.592,1.592,0,0,1,575.382,1061.758Zm-20.01-.478a1.8,1.8,0,0,1-.072-.49h.155a1.97,1.97,0,0,0,.06.454Zm20.285-.478h-.072l-.083-.012a1.87,1.87,0,0,0-.06-.442l.155-.048a1.67,1.67,0,0,1,.072.49v.012Zm-20.13-.478-.155-.048a2.535,2.535,0,0,1,.191-.465l.143.083A3.261,3.261,0,0,0,555.527,1060.325Zm19.724-.406a2.722,2.722,0,0,0-.263-.382l.119-.108a4.3,4.3,0,0,1,.287.406Zm-19.27-.406-.119-.108a3.189,3.189,0,0,1,.346-.358l.107.12A2.977,2.977,0,0,0,555.981,1059.513Zm18.685-.322a3.086,3.086,0,0,0-.37-.3l.1-.132c.143.108.263.2.382.311Zm-17.993-.323-.1-.131a4.9,4.9,0,0,1,.406-.275l.084.131C556.936,1058.689,556.8,1058.785,556.673,1058.868Zm17.228-.251a4.75,4.75,0,0,0-.418-.239l.072-.143.43.251Zm-16.4-.251-.072-.143c.143-.071.287-.143.442-.215l.072.143C557.771,1058.224,557.628,1058.3,557.5,1058.367Zm15.557-.2c-.143-.072-.286-.131-.442-.191l.06-.143c.155.059.3.131.454.191Zm-14.686-.2-.059-.143c.143-.059.3-.119.453-.179l.06.156C558.667,1057.842,558.512,1057.9,558.368,1057.961Zm13.79-.167c-.143-.048-.3-.108-.454-.156l.048-.155c.155.048.31.108.465.155Zm-12.882-.167-.048-.155.466-.143.048.155Q559.491,1057.555,559.276,1057.627Zm11.963-.132c-.155-.047-.31-.083-.466-.131l.036-.155c.155.036.323.083.466.131Zm-11.032-.131-.036-.155c.155-.036.31-.072.478-.108l.036.155C560.518,1057.292,560.362,1057.328,560.207,1057.364Zm10.1-.107c-.155-.036-.31-.072-.477-.1l.036-.155c.155.036.323.06.478.1Zm-9.157-.1-.036-.155c.155-.036.322-.059.478-.083l.024.155C561.461,1057.1,561.306,1057.125,561.15,1057.161Zm8.2-.084-.478-.072.024-.155c.167.024.322.048.477.072Zm-7.247-.083-.024-.155c.155-.024.322-.048.477-.06l.024.155C562.416,1056.946,562.261,1056.97,562.105,1056.994Zm6.292-.06c-.155-.024-.322-.036-.478-.059l.012-.155c.167.012.323.036.49.06Zm-5.337-.059-.012-.155c.155-.012.322-.036.49-.048l.012.155C563.383,1056.851,563.216,1056.863,563.06,1056.875Zm4.37-.048-.478-.036.012-.167.49.036Zm-3.4-.024-.012-.155c.167-.012.322-.024.49-.024l.012.167A3.321,3.321,0,0,0,564.028,1056.8Zm2.436-.024c-.155-.012-.322-.012-.478-.012v-.155c.167,0,.322.012.49.012Zm-1.469-.024v-.155h.513v.167h-.024C565.317,1056.755,565.15,1056.755,564.995,1056.755Z" transform="translate(-553.354 -1055.752)" fill="#d4b629"/>
          </g>
          <g id="Group_2685" data-name="Group 2685">
            <path id="Path_1277" data-name="Path 1277" d="M551.118,1015.9c-6.7.012-12.118,2.483-12.118,5.528s5.42,5.516,12.118,5.528c6.7-.012,12.118-2.483,12.118-5.528S557.816,1015.912,551.118,1015.9Z" transform="translate(-538.988 -1015.9)" fill="#faca47"/>
            <g id="Group_2684" data-name="Group 2684" transform="translate(0 5.743)">
              <path id="Path_1278" data-name="Path 1278" d="M560.94,1181.588a11.523,11.523,0,0,1-2.209,1.039,17.923,17.923,0,0,1-2.209.645c-.7.155-1.433.287-2.209.382-.717.084-1.445.155-2.209.179-.358.012-.716.024-1.075.024-.382,0-.764-.012-1.134-.024-.752-.036-1.492-.1-2.209-.191a20.758,20.758,0,0,1-2.209-.394,17.9,17.9,0,0,1-2.209-.645,12.279,12.279,0,0,1-2.208-1.051,4.927,4.927,0,0,1-2.161-2.34v2.961a5.29,5.29,0,0,0,2.161,2.22,12.249,12.249,0,0,0,2.208,1.063,20.155,20.155,0,0,0,2.209.669c.7.167,1.445.3,2.209.406a21.865,21.865,0,0,0,2.209.191c.37.012.752.024,1.134.024.358,0,.716-.012,1.075-.024.752-.036,1.492-.1,2.209-.191a20.576,20.576,0,0,0,2.209-.406,17.838,17.838,0,0,0,2.209-.656,12.274,12.274,0,0,0,2.209-1.051,5.429,5.429,0,0,0,2.209-2.256V1179.2A4.905,4.905,0,0,1,560.94,1181.588Z" transform="translate(-538.9 -1165.446)" fill="#ddb250"/>
              <path id="Path_1279" data-name="Path 1279" d="M560.94,1151.412a11.508,11.508,0,0,1-2.209,1.038,17.9,17.9,0,0,1-2.209.645c-.7.155-1.433.287-2.209.382-.717.084-1.445.155-2.209.179-.358.012-.716.024-1.075.024-.382,0-.764-.012-1.134-.024-.752-.036-1.492-.1-2.209-.191a20.79,20.79,0,0,1-2.209-.394,17.862,17.862,0,0,1-2.209-.645,12.262,12.262,0,0,1-2.208-1.051,4.978,4.978,0,0,1-2.161-2.34V1152a5.29,5.29,0,0,0,2.161,2.221,12.241,12.241,0,0,0,2.208,1.063,17.717,17.717,0,0,0,2.209.669c.7.167,1.445.3,2.209.406a21.973,21.973,0,0,0,2.209.191c.37.012.752.024,1.134.024.358,0,.716-.012,1.075-.024.752-.036,1.492-.1,2.209-.191a20.666,20.666,0,0,0,2.209-.406,17.817,17.817,0,0,0,2.209-.656,13.151,13.151,0,0,0,2.209-1.051,5.477,5.477,0,0,0,2.209-2.245v-3A4.946,4.946,0,0,1,560.94,1151.412Z" transform="translate(-538.9 -1138.851)" fill="#ddb250"/>
              <path id="Path_1280" data-name="Path 1280" d="M560.94,1123.488a11.53,11.53,0,0,1-2.209,1.038,17.943,17.943,0,0,1-2.209.645c-.7.155-1.433.286-2.209.382-.717.083-1.445.155-2.209.179-.358.012-.716.024-1.075.024-.382,0-.764-.012-1.134-.024-.752-.036-1.492-.1-2.209-.191a20.727,20.727,0,0,1-2.209-.394,17.863,17.863,0,0,1-2.209-.644,12.287,12.287,0,0,1-2.208-1.051,4.98,4.98,0,0,1-2.161-2.34v2.961a5.292,5.292,0,0,0,2.161,2.221,12.249,12.249,0,0,0,2.208,1.063,20.208,20.208,0,0,0,2.209.669c.7.167,1.445.3,2.209.406a21.937,21.937,0,0,0,2.209.191c.37.012.752.024,1.134.024.358,0,.716-.012,1.075-.024.752-.036,1.492-.1,2.209-.191a20.82,20.82,0,0,0,2.209-.406,17.88,17.88,0,0,0,2.209-.657,13.17,13.17,0,0,0,2.209-1.051,5.43,5.43,0,0,0,2.209-2.256V1121.1A4.858,4.858,0,0,1,560.94,1123.488Z" transform="translate(-538.9 -1114.282)" fill="#ddb250"/>
              <path id="Path_1281" data-name="Path 1281" d="M560.94,1095.475a11.479,11.479,0,0,1-2.209,1.039,17.838,17.838,0,0,1-2.209.645c-.7.155-1.433.287-2.209.382-.717.083-1.445.155-2.209.179-.358.012-.716.024-1.075.024-.382,0-.764-.012-1.134-.024-.752-.036-1.492-.1-2.209-.191a20.882,20.882,0,0,1-2.209-.394,17.926,17.926,0,0,1-2.209-.645,12.279,12.279,0,0,1-2.208-1.051,4.98,4.98,0,0,1-2.161-2.34v2.961a5.291,5.291,0,0,0,2.161,2.221,12.282,12.282,0,0,0,2.208,1.063,20.022,20.022,0,0,0,2.209.669c.7.167,1.445.3,2.209.406a22.045,22.045,0,0,0,2.209.191c.37.012.752.024,1.134.024.358,0,.716-.012,1.075-.024.752-.036,1.492-.1,2.209-.191a20.7,20.7,0,0,0,2.209-.406,17.817,17.817,0,0,0,2.209-.657,13.151,13.151,0,0,0,2.209-1.05,5.48,5.48,0,0,0,2.209-2.245V1093.1A4.934,4.934,0,0,1,560.94,1095.475Z" transform="translate(-538.9 -1089.625)" fill="#ddb250"/>
              <path id="Path_1282" data-name="Path 1282" d="M560.94,1066.376a11.515,11.515,0,0,1-2.209,1.039,17.817,17.817,0,0,1-2.209.645c-.7.155-1.433.287-2.209.382-.717.083-1.445.155-2.209.179-.358.012-.716.024-1.075.024-.382,0-.764-.012-1.134-.024-.752-.036-1.492-.1-2.209-.191a20.758,20.758,0,0,1-2.209-.394,17.884,17.884,0,0,1-2.209-.644,12.312,12.312,0,0,1-2.208-1.051A4.981,4.981,0,0,1,538.9,1064v2.961a5.293,5.293,0,0,0,2.161,2.221,12.282,12.282,0,0,0,2.208,1.063,20.182,20.182,0,0,0,2.209.669c.7.167,1.445.3,2.209.406.716.1,1.457.167,2.209.2.37.012.752.024,1.134.024.358,0,.716-.012,1.075-.024.752-.036,1.492-.1,2.209-.191a20.757,20.757,0,0,0,2.209-.406,17.837,17.837,0,0,0,2.209-.657,13.1,13.1,0,0,0,2.209-1.051,5.474,5.474,0,0,0,2.209-2.244v-2.961A4.915,4.915,0,0,1,560.94,1066.376Z" transform="translate(-538.9 -1064)" fill="#ddb250"/>
            </g>
          </g>
          <path id="Path_1283" data-name="Path 1283" d="M561.733,1031.508h0c-5.206,0-10.733-1.516-10.733-4.31s5.528-4.3,10.733-4.3,10.733,1.516,10.733,4.3S566.939,1031.508,561.733,1031.508Zm0-7.414c-5.576.012-9.456,1.648-9.456,3.1s3.88,3.1,9.456,3.1,9.456-1.648,9.456-3.1S567.309,1024.106,561.733,1024.094Z" transform="translate(-549.555 -1022.064)" fill="#ddb250"/>
          <g id="Group_2686" data-name="Group 2686" transform="translate(4.74 3.045)">
            <path id="Path_1284" data-name="Path 1284" d="M593.5,1043.693h-1.731a2.181,2.181,0,0,1-.788,1.421l-2.137-.251a1.948,1.948,0,0,0,.8-1.385c0-.478-.406-.8-1.134-.8a1.792,1.792,0,0,0-1.588.884,3.707,3.707,0,0,1-3.343,1.5c-1.612,0-2.866-.513-3.247-1.409H578.6v-.812h1.6a1.83,1.83,0,0,1,.609-1.206l2.066.239a1.735,1.735,0,0,0-.621,1.206c0,.537.513.716,1.027.716.609,0,.991-.286,1.576-1a3.834,3.834,0,0,1,3.415-1.4c1.624,0,3.021.525,3.379,1.481h1.863v.812Z" transform="translate(-578.6 -1041.4)" fill="#ddb250"/>
          </g>
        </g>
        <g id="Group_2694" data-name="Group 2694" transform="translate(2.937 38.301)">
          <path id="Path_1285" data-name="Path 1285" d="M352.949,1170.058v-13.622L328.7,1156.4l.012,13.921Z" transform="translate(-328.7 -1148.603)" fill="#d9a728"/>
          <g id="Group_2688" data-name="Group 2688" transform="translate(0.012 13.754)">
            <path id="Path_1286" data-name="Path 1286" d="M340.918,1206.3c-6.7.012-12.118,2.483-12.118,5.528s5.42,5.516,12.118,5.528c6.7-.012,12.118-2.484,12.118-5.528S347.616,1206.312,340.918,1206.3Z" transform="translate(-328.8 -1206.3)" fill="#bf902d"/>
            <path id="Path_1287" data-name="Path 1287" d="M355.8,1214c-5.576.012-10.1,1.851-10.1,4.107s4.513,4.107,10.1,4.107,10.089-1.85,10.089-4.107S361.376,1214.012,355.8,1214Z" transform="translate(-343.682 -1213.081)" fill="#fdd903"/>
            <path id="Path_1288" data-name="Path 1288" d="M355.272,1221.781l-.012-.083v-.084h.49v.167C355.595,1221.769,355.427,1221.781,355.272,1221.781Zm-.5-.012c-.167,0-.322-.012-.49-.012l.012-.155c.155.012.322.012.478.012Zm1.469-.012v-.155c.167-.012.322-.012.49-.024l.012.155C356.562,1221.746,356.406,1221.746,356.239,1221.758Zm-2.436-.024-.49-.036.012-.155.478.036Zm3.4-.036-.012-.167c.167-.012.322-.024.478-.048l.012.155A2.867,2.867,0,0,1,357.206,1221.7Zm-4.382-.048c-.167-.012-.322-.036-.49-.06l.024-.155c.155.024.322.036.478.06Zm5.361-.048-.024-.155c.167-.024.322-.036.478-.06l.024.155C358.508,1221.555,358.341,1221.579,358.185,1221.6Zm-6.328-.072c-.167-.024-.322-.048-.478-.072l.024-.155.478.072Zm7.283-.072-.024-.155c.155-.024.322-.06.477-.083l.036.155C359.463,1221.4,359.308,1221.435,359.141,1221.459Zm-8.238-.1c-.167-.036-.322-.06-.477-.1l.036-.155c.155.036.31.071.478.095Zm9.205-.084-.036-.155c.155-.036.322-.072.466-.108l.036.155C360.418,1221.2,360.263,1221.244,360.108,1221.28Zm-10.16-.119c-.155-.036-.322-.083-.478-.131l.048-.155c.155.048.31.083.466.132Zm11.1-.119-.048-.155.466-.143.048.155ZM349,1220.886c-.155-.048-.31-.107-.466-.155l.06-.155c.143.048.3.108.454.155Zm12.978-.143-.06-.156c.155-.059.31-.107.454-.167l.06.143C362.293,1220.623,362.137,1220.683,361.982,1220.743Zm-13.9-.191c-.155-.06-.3-.131-.454-.191l.072-.143c.143.072.287.132.442.191Zm14.8-.179-.072-.143c.143-.072.3-.144.43-.215l.072.144C363.188,1220.229,363.033,1220.3,362.89,1220.373Zm-15.688-.227c-.143-.083-.286-.155-.43-.25l.084-.132a4.739,4.739,0,0,0,.418.239Zm16.548-.239-.083-.131c.143-.084.275-.179.394-.263l.1.131C364.036,1219.728,363.892,1219.823,363.749,1219.907Zm-17.384-.286c-.143-.108-.263-.2-.382-.311l.107-.119a3.107,3.107,0,0,0,.37.3Zm18.172-.3-.108-.12a4.329,4.329,0,0,0,.334-.334l.119.107A4.781,4.781,0,0,1,364.537,1219.322Zm-18.888-.37a4.232,4.232,0,0,1-.287-.406l.143-.084a2.747,2.747,0,0,0,.263.382Zm19.521-.394-.143-.084a1.641,1.641,0,0,0,.179-.43l.155.048A1.328,1.328,0,0,1,365.17,1218.558Zm-20-.478a1.8,1.8,0,0,1-.072-.49h.155a1.975,1.975,0,0,0,.06.454Zm20.273-.478h-.072l-.084-.012a1.873,1.873,0,0,0-.06-.442l.155-.048a1.676,1.676,0,0,1,.072.489v.012Zm-20.118-.478-.155-.048a2.543,2.543,0,0,1,.191-.466l.143.084A1.645,1.645,0,0,0,345.327,1217.125Zm19.724-.406a2.684,2.684,0,0,0-.263-.382l.119-.107a4.164,4.164,0,0,1,.287.406Zm-19.27-.406-.119-.107a3.218,3.218,0,0,1,.346-.358l.107.12A3,3,0,0,0,345.781,1216.313Zm18.673-.334a3.1,3.1,0,0,0-.37-.3l.1-.131c.143.107.263.2.382.31Zm-17.981-.31-.1-.132c.131-.1.263-.191.406-.274l.084.131C346.724,1215.49,346.592,1215.585,346.473,1215.668Zm17.216-.251a4.727,4.727,0,0,0-.418-.239l.072-.143.43.251Zm-16.4-.25-.072-.143c.143-.072.287-.143.442-.215l.072.143C347.571,1215.011,347.428,1215.1,347.285,1215.167Zm15.557-.215c-.143-.072-.287-.131-.442-.191l.06-.143c.155.06.3.132.454.191Zm-14.685-.191-.06-.143c.143-.06.3-.119.454-.179l.06.155C348.455,1214.642,348.312,1214.7,348.156,1214.761Zm13.8-.167c-.143-.06-.3-.107-.454-.155l.048-.155c.155.047.31.107.466.155Zm-12.894-.167-.048-.155.466-.143.048.156Zm11.975-.131c-.155-.048-.31-.084-.466-.119l.036-.155c.155.036.322.084.466.131ZM350,1214.164l-.036-.155c.155-.036.31-.072.478-.108l.036.155C350.306,1214.092,350.15,1214.128,350,1214.164Zm10.1-.107c-.155-.036-.31-.072-.478-.095l.036-.156c.155.036.322.06.478.1Zm-9.157-.107-.036-.155c.155-.036.322-.06.478-.084l.024.156C351.261,1213.889,351.093,1213.926,350.938,1213.949Zm8.214-.083-.478-.072.024-.156.477.072Zm-7.259-.072-.024-.156c.155-.024.322-.048.477-.06l.024.155C352.216,1213.746,352.049,1213.77,351.893,1213.794Zm6.292-.06c-.155-.024-.322-.036-.478-.06l.012-.155c.167.012.322.036.49.059Zm-5.325-.06-.012-.155c.155-.012.322-.036.489-.048l.012.167C353.171,1213.639,353.016,1213.663,352.861,1213.675Zm4.37-.048-.478-.036.012-.155.489.036Zm-3.415-.036-.012-.155c.167-.012.322-.012.49-.024l.012.155C354.138,1213.579,353.983,1213.591,353.816,1213.591Zm2.448-.012c-.155-.012-.322-.012-.478-.012v-.155c.167,0,.322.012.49.012Zm-1.469-.024v-.155h.513v.155h-.513Z" transform="translate(-343.154 -1212.552)" fill="#d4b629"/>
          </g>
          <path id="Path_1289" data-name="Path 1289" d="M340.918,1173.6c-6.7.012-12.118,2.483-12.118,5.528s5.42,5.516,12.118,5.528c6.7-.012,12.118-1.851,12.118-5.528C353.037,1176.083,347.616,1173.612,340.918,1173.6Z" transform="translate(-328.788 -1163.75)" fill="#bf902d"/>
          <path id="Path_1290" data-name="Path 1290" d="M355.8,1180.4c-5.576.012-10.1,1.851-10.1,4.107s4.513,4.107,10.1,4.107,10.089-1.851,10.089-4.107S361.376,1180.412,355.8,1180.4Z" transform="translate(-343.67 -1169.738)" fill="#fdd903"/>
          <path id="Path_1291" data-name="Path 1291" d="M355.272,1188.181l-.012-.084v-.083h.49v.155C355.595,1188.181,355.427,1188.181,355.272,1188.181Zm-.5-.012c-.167,0-.322-.012-.49-.012l.012-.155c.155.012.322.012.478.012Zm1.469-.012V1188c.167-.012.322-.012.49-.024l.012.155C356.562,1188.145,356.406,1188.157,356.239,1188.157Zm-2.436-.024-.49-.036.012-.155.478.036Zm3.4-.036-.012-.167c.167-.012.322-.024.478-.047l.012.155A2.893,2.893,0,0,1,357.206,1188.1Zm-4.382-.047c-.167-.012-.322-.036-.49-.06l.024-.155c.155.024.322.036.478.048Zm5.361-.048-.024-.155c.167-.024.322-.036.478-.06l.024.155C358.508,1187.966,358.341,1187.979,358.185,1188Zm-6.328-.072c-.167-.024-.322-.047-.478-.072l.024-.155.478.071Zm7.283-.072-.024-.155c.155-.024.322-.06.477-.084l.036.155C359.463,1187.8,359.308,1187.835,359.141,1187.859Zm-8.238-.083c-.167-.036-.322-.059-.477-.1l.036-.155c.155.036.31.072.478.1Zm9.205-.1-.036-.155c.155-.036.322-.072.466-.107l.036.155Zm-10.16-.119c-.155-.036-.322-.084-.478-.131l.048-.155c.155.048.31.083.466.131Zm11.1-.12-.048-.155.466-.143.048.155ZM349,1187.286c-.155-.048-.31-.108-.466-.155l.06-.155c.143.048.3.108.454.155Zm12.978-.143-.06-.155c.155-.06.31-.108.454-.167l.06.143C362.293,1187.023,362.137,1187.083,361.982,1187.143Zm-13.9-.191c-.155-.06-.3-.131-.454-.191l.072-.143c.143.072.287.131.442.191Zm14.8-.18-.072-.143c.143-.072.3-.143.43-.215l.072.143C363.188,1186.629,363.033,1186.7,362.89,1186.772Zm-15.688-.227c-.143-.083-.286-.167-.43-.239l.084-.131a4.734,4.734,0,0,0,.418.238Zm16.548-.239-.083-.131c.143-.084.275-.179.394-.263l.1.131C364.036,1186.128,363.892,1186.223,363.749,1186.307Zm-17.384-.286c-.143-.108-.263-.2-.382-.31l.107-.12a3.13,3.13,0,0,0,.37.3Zm18.172-.3-.108-.12a3.029,3.029,0,0,0,.334-.347l.119.108A3.237,3.237,0,0,1,364.537,1185.722Zm-18.888-.371a4.263,4.263,0,0,1-.287-.406l.143-.084a2.733,2.733,0,0,0,.263.382Zm19.521-.394-.143-.083a1.645,1.645,0,0,0,.179-.43l.155.048A1.326,1.326,0,0,1,365.17,1184.958Zm-20-.478a1.791,1.791,0,0,1-.072-.489h.155a1.969,1.969,0,0,0,.06.453Zm20.273-.478h-.072l-.084-.012a1.873,1.873,0,0,0-.06-.442l.155-.047a1.676,1.676,0,0,1,.072.489V1184Zm-20.118-.478-.155-.047a2.538,2.538,0,0,1,.191-.465l.143.083A1.646,1.646,0,0,0,345.327,1183.525Zm19.724-.406a2.7,2.7,0,0,0-.263-.382l.119-.107a4.236,4.236,0,0,1,.287.406Zm-19.27-.406-.119-.108a3.238,3.238,0,0,1,.346-.358l.107.12A2.969,2.969,0,0,0,345.781,1182.713Zm18.673-.322a3.076,3.076,0,0,0-.37-.3l.1-.131c.143.107.263.215.382.31Zm-17.981-.322-.1-.131a4.853,4.853,0,0,1,.406-.275l.084.131C346.724,1181.889,346.592,1181.985,346.473,1182.068Zm17.216-.251a4.67,4.67,0,0,0-.418-.239l.072-.143.43.251Zm-16.4-.251-.072-.143c.143-.071.287-.143.442-.215l.072.143C347.571,1181.424,347.428,1181.5,347.285,1181.567Zm15.557-.2c-.143-.072-.287-.131-.442-.191l.06-.143c.155.06.3.131.454.191Zm-14.685-.2-.06-.143c.143-.06.3-.12.454-.179l.06.155C348.455,1181.042,348.312,1181.1,348.156,1181.161Zm13.8-.168c-.143-.059-.3-.107-.454-.155l.048-.155c.155.048.31.107.466.155Zm-12.894-.167-.048-.155.466-.143.048.155Zm11.975-.131c-.155-.048-.31-.083-.466-.131l.036-.155c.155.036.322.083.466.131ZM350,1180.564l-.036-.155c.155-.036.31-.072.478-.107l.036.155C350.306,1180.492,350.15,1180.528,350,1180.564Zm10.1-.107c-.155-.036-.31-.072-.478-.1l.036-.155c.155.036.322.06.478.1Zm-9.157-.108-.036-.155c.155-.036.322-.059.478-.084l.024.155C351.261,1180.289,351.093,1180.325,350.938,1180.349Zm8.214-.083-.478-.072.024-.155c.167.024.322.048.477.072Zm-7.259-.072-.024-.155c.155-.024.322-.047.477-.059l.024.155C352.216,1180.146,352.049,1180.17,351.893,1180.194Zm6.292-.059c-.155-.024-.322-.036-.478-.06l.012-.155c.167.012.322.036.49.06Zm-5.325-.06-.012-.155c.155-.011.322-.036.489-.047l.012.155C353.171,1180.039,353.016,1180.062,352.861,1180.074Zm4.37-.036-.478-.036.012-.155.489.036Zm-3.415-.036-.012-.155c.167-.012.322-.024.49-.024l.012.155C354.138,1179.979,353.983,1179.991,353.816,1180Zm2.448-.024c-.155-.012-.322-.012-.478-.012v-.155c.167,0,.322.012.49.012Zm-1.469-.024v-.155h.513v.167h-.024C355.105,1179.955,354.95,1179.955,354.795,1179.955Z" transform="translate(-343.142 -1169.21)" fill="#d4b629"/>
          <g id="Group_2689" data-name="Group 2689" transform="translate(0.012 6.817)">
            <path id="Path_1292" data-name="Path 1292" d="M340.918,1148.2c-6.7.012-12.118,2.483-12.118,5.528s5.42,5.516,12.118,5.528c6.7-.012,12.118-2.483,12.118-5.528S347.616,1148.212,340.918,1148.2Z" transform="translate(-328.8 -1148.2)" fill="#bf902d"/>
            <path id="Path_1293" data-name="Path 1293" d="M355.8,1155.9c-5.576.012-10.1,1.851-10.1,4.107s4.513,4.107,10.1,4.107,10.089-1.85,10.089-4.107S361.376,1155.912,355.8,1155.9Z" transform="translate(-343.682 -1154.981)" fill="#fdd903"/>
            <path id="Path_1294" data-name="Path 1294" d="M355.272,1163.681l-.012-.084v-.083h.49v.155C355.595,1163.681,355.427,1163.681,355.272,1163.681Zm-.5-.012c-.167,0-.322-.012-.49-.012l.012-.167c.155.012.322.012.478.012Zm1.469-.012v-.155c.167-.012.322-.012.49-.024l.012.155C356.562,1163.646,356.406,1163.657,356.239,1163.657Zm-2.436-.024-.49-.036.012-.155.478.036Zm3.4-.036-.012-.155c.167-.012.322-.024.478-.048l.012.155C357.541,1163.574,357.374,1163.586,357.206,1163.6Zm-4.382-.036c-.167-.012-.322-.036-.49-.06l.024-.155c.155.024.322.036.478.06Zm5.361-.06-.024-.155c.167-.024.322-.036.478-.06l.024.155C358.508,1163.466,358.341,1163.49,358.185,1163.5Zm-6.328-.059-.478-.071.024-.156.478.072Zm7.283-.084-.024-.155c.155-.024.322-.06.477-.083l.036.155C359.463,1163.311,359.308,1163.335,359.141,1163.359Zm-8.238-.084c-.167-.036-.322-.06-.477-.1l.036-.155c.155.036.31.072.478.1Zm9.205-.1-.036-.155c.155-.036.322-.072.466-.107l.036.155Zm-10.16-.119c-.155-.036-.322-.084-.478-.131l.048-.155c.155.048.31.084.466.119Zm11.1-.12-.048-.155.466-.143.048.155ZM349,1162.8c-.155-.047-.31-.108-.466-.155l.06-.155c.143.048.3.107.454.155Zm12.978-.155-.06-.155c.155-.06.31-.108.454-.167l.06.155C362.293,1162.523,362.137,1162.583,361.982,1162.643Zm-13.9-.179c-.155-.06-.3-.131-.454-.191l.072-.144c.143.072.287.132.442.191Zm14.8-.191-.072-.144c.143-.072.3-.143.43-.215l.072.143C363.188,1162.129,363.033,1162.2,362.89,1162.273Zm-15.688-.227c-.143-.084-.286-.167-.43-.239l.084-.131a4.8,4.8,0,0,0,.418.239Zm16.548-.239-.083-.143c.143-.083.275-.179.394-.263l.1.131A3.44,3.44,0,0,1,363.749,1161.807Zm-17.384-.286c-.143-.107-.263-.2-.382-.311l.107-.119a3.119,3.119,0,0,0,.37.3Zm18.172-.3-.108-.12a3.046,3.046,0,0,0,.334-.346l.119.108A1.968,1.968,0,0,1,364.537,1161.222Zm-18.888-.37a4.281,4.281,0,0,1-.287-.406l.143-.084a2.719,2.719,0,0,0,.263.382Zm19.521-.394-.143-.083a1.644,1.644,0,0,0,.179-.43l.155.048A1.327,1.327,0,0,1,365.17,1160.458Zm-20-.478a1.792,1.792,0,0,1-.072-.489h.155a1.97,1.97,0,0,0,.06.453Zm20.273-.477h-.072l-.084-.012a1.876,1.876,0,0,0-.06-.442l.155-.047a1.676,1.676,0,0,1,.072.49v.012Zm-20.118-.478-.155-.048a2.549,2.549,0,0,1,.191-.465l.143.083A1.643,1.643,0,0,0,345.327,1159.025Zm19.724-.406a2.7,2.7,0,0,0-.263-.382l.119-.108a4.284,4.284,0,0,1,.287.406Zm-19.27-.406-.119-.108a3.239,3.239,0,0,1,.346-.358l.107.12A4.438,4.438,0,0,0,345.781,1158.213Zm18.673-.323a3.1,3.1,0,0,0-.37-.3l.1-.131c.143.107.263.2.382.311Zm-17.981-.322-.1-.131a4.886,4.886,0,0,1,.406-.275l.084.131C346.724,1157.389,346.592,1157.485,346.473,1157.568Zm17.216-.251a4.7,4.7,0,0,0-.418-.239l.072-.143c.143.083.287.167.43.239Zm-16.4-.251-.072-.143c.143-.072.287-.143.442-.215l.072.143C347.571,1156.924,347.428,1157,347.285,1157.067Zm15.557-.2c-.143-.072-.287-.131-.442-.191l.06-.143c.155.06.3.131.454.191Zm-14.685-.2-.06-.143c.143-.06.3-.12.454-.179l.06.155C348.455,1156.542,348.312,1156.6,348.156,1156.661Zm13.8-.167c-.143-.048-.3-.108-.454-.155l.048-.155c.155.048.31.108.466.155Zm-12.894-.167-.048-.155.466-.143.048.156Zm11.975-.131c-.155-.048-.31-.084-.466-.12l.036-.155c.155.036.322.083.466.131ZM350,1156.064l-.036-.155c.155-.036.31-.072.478-.107l.036.155C350.306,1155.992,350.15,1156.028,350,1156.064Zm10.1-.107c-.155-.036-.31-.072-.478-.1l.036-.155c.155.036.322.059.478.1Zm-9.157-.1-.036-.155c.155-.036.322-.06.478-.084l.024.155C351.261,1155.8,351.093,1155.825,350.938,1155.861Zm8.214-.084-.478-.072.024-.155c.167.024.322.048.477.072Zm-7.259-.084-.024-.155c.155-.024.322-.047.477-.059l.024.155C352.216,1155.646,352.049,1155.67,351.893,1155.694Zm6.292-.059c-.155-.024-.322-.036-.478-.06l.012-.155c.167.012.322.036.49.06Zm-5.325-.06-.012-.155c.155-.012.322-.036.489-.048l.012.155C353.171,1155.551,353.016,1155.563,352.861,1155.574Zm4.37-.036-.478-.036.012-.155.489.036Zm-3.415-.036-.012-.155c.167-.012.322-.024.49-.024l.012.167A3.4,3.4,0,0,0,353.816,1155.5Zm2.448-.024c-.155,0-.322-.012-.478-.012v-.167c.167,0,.322.012.49.012Zm-1.469-.024v-.155h.513v.167h-.024C355.105,1155.455,354.95,1155.455,354.795,1155.455Z" transform="translate(-343.154 -1154.452)" fill="#d4b629"/>
          </g>
          <g id="Group_2690" data-name="Group 2690" transform="translate(0.012 4)">
            <path id="Path_1295" data-name="Path 1295" d="M340.918,1124.6c-6.7.012-12.118,2.483-12.118,5.528s5.42,5.516,12.118,5.528c6.7-.012,12.118-2.483,12.118-5.528S347.616,1124.612,340.918,1124.6Z" transform="translate(-328.8 -1124.6)" fill="#bf902d"/>
            <path id="Path_1296" data-name="Path 1296" d="M355.8,1132.4c-5.576.012-10.1,1.851-10.1,4.107s4.513,4.107,10.1,4.107,10.089-1.85,10.089-4.107S361.376,1132.4,355.8,1132.4Z" transform="translate(-343.682 -1131.469)" fill="#fdd903"/>
            <path id="Path_1297" data-name="Path 1297" d="M355.272,1140.169l-.012-.083V1140h.49v.156C355.595,1140.169,355.427,1140.169,355.272,1140.169Zm-.5,0c-.167,0-.322-.012-.49-.012l.012-.156c.155.012.322.012.478.012Zm1.469-.012v-.167c.167-.012.322-.012.49-.024l.012.156Zm-2.436-.036-.49-.036.012-.155.478.036Zm3.4-.024-.012-.155c.167-.012.322-.024.478-.048l.012.155C357.541,1140.062,357.374,1140.086,357.206,1140.1Zm-4.382-.047c-.167-.012-.322-.036-.49-.06l.024-.155c.155.024.322.036.478.06Zm5.361-.048-.024-.155c.167-.024.322-.036.478-.06l.024.155C358.508,1139.954,358.341,1139.978,358.185,1140Zm-6.328-.072c-.167-.024-.322-.047-.478-.072l.024-.155.478.072Zm7.283-.072-.024-.155c.155-.024.322-.06.477-.084l.036.155C359.463,1139.8,359.308,1139.835,359.141,1139.859Zm-8.238-.1c-.167-.036-.322-.06-.477-.1l.036-.155c.155.036.31.072.478.1Zm9.205-.1-.036-.155c.155-.036.322-.072.466-.107l.036.155Zm-10.16-.12c-.155-.036-.322-.083-.478-.131l.048-.155c.155.048.31.084.466.131Zm11.1-.119-.048-.155.466-.144.048.155C361.361,1139.345,361.206,1139.381,361.051,1139.429ZM349,1139.286c-.155-.048-.31-.108-.466-.155l.06-.155c.143.048.3.107.454.155Zm12.978-.155-.06-.155c.155-.06.31-.108.454-.167l.06.155C362.293,1139.023,362.137,1139.083,361.982,1139.131Zm-13.9-.179c-.155-.06-.3-.131-.454-.191l.072-.143c.143.072.287.131.442.191Zm14.8-.191-.072-.143c.143-.072.3-.143.43-.215l.072.143C363.188,1138.617,363.033,1138.7,362.89,1138.76Zm-15.688-.227c-.143-.084-.286-.155-.43-.251l.084-.131a4.8,4.8,0,0,0,.418.238Zm16.548-.227-.083-.131c.143-.083.275-.179.394-.262l.1.131C364.036,1138.128,363.892,1138.211,363.749,1138.307Zm-17.384-.286c-.143-.107-.263-.2-.382-.311l.107-.119c.107.1.239.2.37.3Zm18.172-.3-.108-.12a4.419,4.419,0,0,0,.334-.334l.119.107A4.708,4.708,0,0,1,364.537,1137.722Zm-18.888-.37a4.2,4.2,0,0,1-.287-.406l.143-.083a2.733,2.733,0,0,0,.263.382Zm19.521-.394-.143-.084a1.647,1.647,0,0,0,.179-.43l.155.048A1.539,1.539,0,0,1,365.17,1136.958Zm-20-.489a1.8,1.8,0,0,1-.072-.49h.155a1.975,1.975,0,0,0,.06.454Zm20.273-.478h-.072l-.084-.012a1.877,1.877,0,0,0-.06-.442l.155-.047a1.676,1.676,0,0,1,.072.489v.012Zm-20.118-.466-.155-.048a2.557,2.557,0,0,1,.191-.466l.143.083A1.65,1.65,0,0,0,345.327,1135.525Zm19.724-.418a2.76,2.76,0,0,0-.263-.382l.119-.107a4.226,4.226,0,0,1,.287.406Zm-19.27-.394-.119-.108a3.238,3.238,0,0,1,.346-.358l.107.12A2.272,2.272,0,0,0,345.781,1134.713Zm18.673-.334a3.125,3.125,0,0,0-.37-.3l.1-.131c.143.108.263.2.382.311Zm-17.981-.31-.1-.131a4.8,4.8,0,0,1,.406-.275l.084.131C346.724,1133.89,346.592,1133.973,346.473,1134.068Zm17.216-.263a4.759,4.759,0,0,0-.418-.239l.072-.144c.143.084.287.167.43.239Zm-16.4-.251-.072-.143c.143-.071.287-.143.442-.215l.072.144C347.571,1133.412,347.428,1133.484,347.285,1133.555Zm15.557-.2c-.143-.072-.287-.131-.442-.191l.06-.143c.155.06.3.131.454.191Zm-14.685-.2-.06-.143c.143-.06.3-.12.454-.179l.06.155C348.455,1133.042,348.312,1133.089,348.156,1133.149Zm13.8-.167c-.143-.048-.3-.108-.454-.155l.048-.155c.155.048.31.108.466.155Zm-12.894-.155-.048-.155.466-.143.048.155Zm11.975-.131c-.155-.048-.31-.084-.466-.131l.036-.155c.155.036.322.083.466.131ZM350,1132.564l-.036-.155c.155-.036.31-.072.478-.108l.036.155A3.1,3.1,0,0,0,350,1132.564Zm10.1-.107c-.155-.036-.31-.072-.478-.1l.036-.155c.155.036.322.06.478.1Zm-9.157-.108-.036-.155c.155-.036.322-.06.478-.084l.024.155C351.261,1132.29,351.093,1132.325,350.938,1132.349Zm8.214-.083-.478-.072.024-.155c.167.024.322.048.477.072Zm-7.259-.072-.024-.155c.155-.024.322-.047.477-.06l.024.156C352.216,1132.146,352.049,1132.17,351.893,1132.194Zm6.292-.072c-.155-.024-.322-.036-.478-.06l.012-.155c.167.012.322.036.49.06Zm-5.325-.048-.012-.155c.155-.012.322-.036.489-.048l.012.155C353.171,1132.039,353.016,1132.051,352.861,1132.074Zm4.37-.048-.478-.036.012-.167.489.036Zm-3.415-.036-.012-.155c.167-.012.322-.024.49-.024l.012.167C354.138,1131.979,353.983,1131.979,353.816,1131.991Zm2.448-.024c-.155-.012-.322-.012-.478-.012v-.155c.167,0,.322.012.49.012Zm-1.469-.012v-.155h.513v.167h-.024A3.441,3.441,0,0,0,354.795,1131.955Z" transform="translate(-343.154 -1130.94)" fill="#d4b629"/>
          </g>
          <g id="Group_2692" data-name="Group 2692">
            <path id="Path_1298" data-name="Path 1298" d="M340.918,1091.1c-6.7.012-12.118,2.484-12.118,5.528s5.42,5.516,12.118,5.528c6.7-.012,12.118-2.483,12.118-5.528S347.616,1091.1,340.918,1091.1Z" transform="translate(-328.788 -1091.1)" fill="#faca47"/>
            <g id="Group_2691" data-name="Group 2691" transform="translate(0 5.743)">
              <path id="Path_1299" data-name="Path 1299" d="M350.74,1256.688a11.5,11.5,0,0,1-2.209,1.038,17.878,17.878,0,0,1-2.209.645c-.7.155-1.433.287-2.209.382-.716.084-1.445.155-2.209.179-.358.012-.716.024-1.074.024-.382,0-.764-.012-1.134-.024-.752-.036-1.492-.1-2.209-.191a20.688,20.688,0,0,1-2.209-.394,17.867,17.867,0,0,1-2.209-.645,12.286,12.286,0,0,1-2.209-1.05,4.928,4.928,0,0,1-2.161-2.341v2.961a5.291,5.291,0,0,0,2.161,2.22,12.24,12.24,0,0,0,2.209,1.063,20.082,20.082,0,0,0,2.209.669c.7.167,1.445.3,2.209.406a21.977,21.977,0,0,0,2.209.191c.37.012.752.024,1.134.024.358,0,.716-.012,1.074-.024.752-.036,1.492-.1,2.209-.191a20.607,20.607,0,0,0,2.209-.406,17.815,17.815,0,0,0,2.209-.657,12.27,12.27,0,0,0,2.209-1.051,5.427,5.427,0,0,0,2.209-2.256V1254.3A4.857,4.857,0,0,1,350.74,1256.688Z" transform="translate(-328.7 -1240.558)" fill="#ddb250"/>
              <path id="Path_1300" data-name="Path 1300" d="M350.74,1226.612a11.49,11.49,0,0,1-2.209,1.039,17.815,17.815,0,0,1-2.209.645c-.7.155-1.433.286-2.209.382-.716.083-1.445.155-2.209.179-.358.012-.716.024-1.074.024-.382,0-.764-.012-1.134-.024-.752-.036-1.492-.1-2.209-.191a20.842,20.842,0,0,1-2.209-.394,17.909,17.909,0,0,1-2.209-.645,12.237,12.237,0,0,1-2.209-1.051,4.977,4.977,0,0,1-2.161-2.34v2.961a5.291,5.291,0,0,0,2.161,2.221,12.273,12.273,0,0,0,2.209,1.063,20.083,20.083,0,0,0,2.209.668c.7.167,1.445.3,2.209.406a21.906,21.906,0,0,0,2.209.191c.37.012.752.024,1.134.024.358,0,.716-.012,1.074-.024.752-.036,1.492-.1,2.209-.191a20.667,20.667,0,0,0,2.209-.406,17.837,17.837,0,0,0,2.209-.656,13.128,13.128,0,0,0,2.209-1.051,5.477,5.477,0,0,0,2.209-2.245v-3A4.994,4.994,0,0,1,350.74,1226.612Z" transform="translate(-328.7 -1214.051)" fill="#ddb250"/>
              <path id="Path_1301" data-name="Path 1301" d="M350.74,1198.688a11.5,11.5,0,0,1-2.209,1.039,17.9,17.9,0,0,1-2.209.645c-.7.155-1.433.287-2.209.382-.716.084-1.445.156-2.209.179-.358.012-.716.024-1.074.024-.382,0-.764-.012-1.134-.024-.752-.036-1.492-.1-2.209-.191a20.719,20.719,0,0,1-2.209-.394,17.846,17.846,0,0,1-2.209-.645,12.245,12.245,0,0,1-2.209-1.051,4.978,4.978,0,0,1-2.161-2.34v2.961a5.29,5.29,0,0,0,2.161,2.22,12.257,12.257,0,0,0,2.209,1.063,20.108,20.108,0,0,0,2.209.669c.7.167,1.445.3,2.209.406a21.941,21.941,0,0,0,2.209.191c.37.012.752.024,1.134.024.358,0,.716-.012,1.074-.024.752-.036,1.492-.1,2.209-.191a20.7,20.7,0,0,0,2.209-.406,17.835,17.835,0,0,0,2.209-.657,13.128,13.128,0,0,0,2.209-1.05,5.429,5.429,0,0,0,2.209-2.257V1196.3A4.907,4.907,0,0,1,350.74,1198.688Z" transform="translate(-328.7 -1189.483)" fill="#ddb250"/>
              <path id="Path_1302" data-name="Path 1302" d="M350.74,1170.576a11.5,11.5,0,0,1-2.209,1.038,17.857,17.857,0,0,1-2.209.645c-.7.155-1.433.286-2.209.382-.716.084-1.445.155-2.209.179-.358.012-.716.024-1.074.024-.382,0-.764-.012-1.134-.024-.752-.036-1.492-.1-2.209-.191a20.719,20.719,0,0,1-2.209-.394,17.741,17.741,0,0,1-2.209-.645,12.22,12.22,0,0,1-2.209-1.05,4.978,4.978,0,0,1-2.161-2.34v2.961a5.289,5.289,0,0,0,2.161,2.221,12.232,12.232,0,0,0,2.209,1.063,19.95,19.95,0,0,0,2.209.669c.7.167,1.445.3,2.209.406a21.976,21.976,0,0,0,2.209.191c.37.012.752.024,1.134.024.358,0,.716-.012,1.074-.024.752-.036,1.492-.1,2.209-.191.764-.107,1.5-.239,2.209-.406a17.815,17.815,0,0,0,2.209-.657,13.119,13.119,0,0,0,2.209-1.051,5.476,5.476,0,0,0,2.209-2.245V1168.2A4.887,4.887,0,0,1,350.74,1170.576Z" transform="translate(-328.7 -1164.737)" fill="#ddb250"/>
              <path id="Path_1303" data-name="Path 1303" d="M350.74,1141.576a11.483,11.483,0,0,1-2.209,1.039,17.752,17.752,0,0,1-2.209.645c-.7.155-1.433.287-2.209.382a21.894,21.894,0,0,1-2.209.179c-.358.012-.716.024-1.074.024-.382,0-.764-.012-1.134-.024-.752-.036-1.492-.1-2.209-.191a20.658,20.658,0,0,1-2.209-.394,17.763,17.763,0,0,1-2.209-.645,12.27,12.27,0,0,1-2.209-1.051,4.98,4.98,0,0,1-2.161-2.34v2.961a5.293,5.293,0,0,0,2.161,2.221,12.29,12.29,0,0,0,2.209,1.063,20.136,20.136,0,0,0,2.209.668c.7.167,1.445.3,2.209.406.716.1,1.457.167,2.209.2.37.012.752.024,1.134.024.358,0,.716-.012,1.074-.024.752-.036,1.492-.1,2.209-.191a20.7,20.7,0,0,0,2.209-.406,17.794,17.794,0,0,0,2.209-.657,12.254,12.254,0,0,0,2.209-1.05,5.478,5.478,0,0,0,2.209-2.245v-2.961A4.965,4.965,0,0,1,350.74,1141.576Z" transform="translate(-328.7 -1139.2)" fill="#ddb250"/>
            </g>
          </g>
          <path id="Path_1304" data-name="Path 1304" d="M351.533,1106.708h0c-5.206,0-10.733-1.516-10.733-4.31s5.528-4.3,10.733-4.3,10.733,1.517,10.733,4.3S356.727,1106.7,351.533,1106.708Zm-.012-7.415c-5.576.012-9.456,1.648-9.456,3.1s3.88,3.1,9.456,3.1,9.456-1.647,9.456-3.1S357.1,1099.294,351.522,1099.294Z" transform="translate(-339.355 -1097.264)" fill="#ddb250"/>
          <g id="Group_2693" data-name="Group 2693" transform="translate(4.74 3.033)">
            <path id="Path_1305" data-name="Path 1305" d="M383.3,1118.792h-1.731a2.181,2.181,0,0,1-.788,1.421l-2.137-.251a1.949,1.949,0,0,0,.8-1.385c0-.478-.406-.8-1.134-.8a1.792,1.792,0,0,0-1.588.883,3.706,3.706,0,0,1-3.343,1.5c-1.612,0-2.865-.513-3.248-1.409H368.4v-.812h1.612a1.877,1.877,0,0,1,.6-1.206l2.066.239a1.736,1.736,0,0,0-.621,1.206c0,.537.513.716,1.027.716.609,0,.991-.287,1.576-1a3.834,3.834,0,0,1,3.415-1.4c1.624,0,3.021.525,3.379,1.481h1.862v.812Z" transform="translate(-368.4 -1116.5)" fill="#ddb250"/>
          </g>
        </g>
        <g id="Group_2699" data-name="Group 2699" transform="translate(4.363 35.065)">
          <rect id="Rectangle_965" data-name="Rectangle 965" width="45.335" height="21.551" transform="translate(0 12.621) rotate(-16.164)" fill="#ebebeb"/>
          <g id="Group_2695" data-name="Group 2695" transform="translate(1.081 1.051)">
            <path id="Path_1306" data-name="Path 1306" d="M414.75,1101.7a4.3,4.3,0,0,1-5.337-2.937c-.012-.059-.024-.107-.036-.167l-30.493,8.835c.012.048.036.1.048.155a4.31,4.31,0,0,1-2.937,5.337c-.036.011-.06.011-.1.024l2.233,7.689c.036-.012.06-.024.1-.036a4.31,4.31,0,0,1,5.337,2.937c.012.024.012.06.024.084l30.493-8.835a.168.168,0,0,1-.024-.072,4.315,4.315,0,0,1,2.937-5.337c.024,0,.036-.012.06-.012l-2.233-7.689C414.774,1101.692,414.762,1101.7,414.75,1101.7Z" transform="translate(-372.772 -1095.519)" fill="none"/>
            <path id="Path_1307" data-name="Path 1307" d="M386.186,1074.34l-31.126,9.026-5.361,1.552,1.576,5.444,2.4,8.286,1.552,5.373,5.385-1.564,31.066-9,5.349-1.552-1.564-5.385-2.388-8.25-1.588-5.468Zm7.772,12.31a.528.528,0,0,1-.06.012,4.3,4.3,0,0,0-2.937,5.337.167.167,0,0,1,.024.072l-30.493,8.835c-.012-.024-.012-.06-.024-.083a4.3,4.3,0,0,0-5.337-2.937c-.036.012-.06.024-.1.036l-2.233-7.689c.036-.012.06-.012.1-.024a4.3,4.3,0,0,0,2.937-5.337c-.012-.047-.036-.1-.048-.155l30.493-8.835c.012.06.024.107.036.167a4.3,4.3,0,0,0,5.337,2.937.063.063,0,0,0,.048-.024Z" transform="translate(-349.7 -1072.8)" fill="#60ba78"/>
          </g>
          <g id="Group_2698" data-name="Group 2698" transform="translate(17.772 9.672)">
            <circle id="Ellipse_39" data-name="Ellipse 39" cx="6.984" cy="6.984" r="6.984" fill="#60ba78"/>
            <g id="Group_2697" data-name="Group 2697" transform="translate(3.57 1.54)">
              <g id="Group_2696" data-name="Group 2696">
                <path id="Path_1308" data-name="Path 1308" d="M523.648,1168.812l-.358-1.229a5.33,5.33,0,0,1-2.352.084l-.048-1.624a4.734,4.734,0,0,0,2.3-.048c.74-.215,1.158-.645,1-1.158-.143-.489-.645-.681-1.7-.728-1.516-.06-2.651-.442-3.009-1.683a2.474,2.474,0,0,1,1.516-2.925l-.358-1.23,1.266-.37.334,1.134a4.782,4.782,0,0,1,1.994-.12l.048,1.564a4.471,4.471,0,0,0-1.982.1c-.836.239-1,.681-.9,1.039.119.43.657.561,1.874.657,1.7.1,2.519.633,2.853,1.791a2.576,2.576,0,0,1-1.6,3.056l.382,1.313Z" transform="translate(-519.398 -1157.9)" fill="#fff"/>
              </g>
            </g>
          </g>
        </g>
        <g id="Group_2700" data-name="Group 2700" transform="translate(0 48.521)">
          <path id="Path_1309" data-name="Path 1309" d="M432.1,1176.712a28.42,28.42,0,0,1-28,23.544c-.907,0-1.8-.048-2.7-.131a26.262,26.262,0,0,0,15.664,5.182c15.067,0,27.281-12.811,27.281-28.607H432.1Z" transform="translate(-389.783 -1176.7)" fill="#d9d8d6"/>
          <path id="Path_1310" data-name="Path 1310" d="M346.413,1176.8H304.1a28.99,28.99,0,0,0,11.617,23.413c.883.084,1.791.131,2.7.131A28.43,28.43,0,0,0,346.413,1176.8Z" transform="translate(-304.1 -1176.788)" fill="#ebebeb"/>
        </g>
      </g>
      <rect id="Rectangle_966" data-name="Rectangle 966" width="8.453" height="71.361" transform="translate(79.993 38.994)" fill="#ebebeb"/>
      <g id="Group_2703" data-name="Group 2703" transform="translate(76.244 109.483)">
        <g id="Group_2702" data-name="Group 2702">
          <path id="Path_1311" data-name="Path 1311" d="M958.651,1444.088a7.187,7.187,0,0,0-7.187-7.188h-1.576a7.187,7.187,0,0,0-7.187,7.188v10.435h15.951Z" transform="translate(-942.7 -1436.9)" fill="#d9d8d6"/>
        </g>
      </g>
      <g id="Group_2704" data-name="Group 2704" transform="translate(65.153 127.022)">
        <path id="Path_1312" data-name="Path 1312" d="M881.833,1583.8h-25.92a6.208,6.208,0,0,0-6.113,5.1h38.146A6.229,6.229,0,0,0,881.833,1583.8Z" transform="translate(-849.8 -1583.8)" fill="#ccc"/>
      </g>
      <g id="Group_2705" data-name="Group 2705" transform="translate(46.981 132.048)">
        <path id="Path_1313" data-name="Path 1313" d="M772.077,1633.088a7.187,7.187,0,0,0-7.187-7.188h-60.1a7.187,7.187,0,0,0-7.187,7.188v.071h74.477Z" transform="translate(-697.6 -1625.9)" fill="#bcbcbc"/>
      </g>
      <path id="Path_1314" data-name="Path 1314" d="M956.9,632.315c-.024-.012-.06-.012-.083-.024l-.179-.036a5.952,5.952,0,0,0-1.337-.155h-.072a5.951,5.951,0,0,0-1.337.155l-.179.036c-.024.012-.06.012-.083.024-4.513,1.17-5.731,6.889-5.731,6.889v14.984c.191.131.358.275.525.406a5.875,5.875,0,0,1,1.552,3.343h10.6a5.877,5.877,0,0,1,1.552-3.343,4.735,4.735,0,0,1,.525-.406v-15C962.633,639.2,961.415,633.485,956.9,632.315Z" transform="translate(-871.035 -618.704)" fill="#d9d8d6"/>
      <path id="Path_1315" data-name="Path 1315" d="M998.843,727.971a1.671,1.671,0,1,1-1.671-1.672A1.676,1.676,0,0,1,998.843,727.971Z" transform="translate(-912.952 -701.657)" fill="#fff"/>
      <path id="Path_1316" data-name="Path 1316" d="M982.02,529.308c0,4.012-1.922,5.1-4.31,5.1s-4.31-1.1-4.31-5.1,4.31-9.408,4.31-9.408S982.02,525.308,982.02,529.308Z" transform="translate(-893.491 -519.9)" fill="#d9d8d6"/>
      <g id="Group_2710" data-name="Group 2710" transform="translate(122.807 40.677)">
        <g id="Group_2707" data-name="Group 2707" transform="translate(0.716)">
          <g id="Group_2706" data-name="Group 2706">
            <path id="Path_1317" data-name="Path 1317" d="M1342.139,863.036H1338.7V860.6h9.838v2.436h-3.5V873.4h-2.9Z" transform="translate(-1338.7 -860.6)" fill="#bcbcbc"/>
            <path id="Path_1318" data-name="Path 1318" d="M1418.7,870.216l-.908,3.283h-3l3.916-12.8h3.8l3.964,12.8h-3.116l-.991-3.283Zm3.247-2.173-.8-2.71c-.227-.764-.454-1.708-.644-2.472h-.036c-.191.764-.382,1.731-.585,2.472l-.764,2.71Z" transform="translate(-1405.715 -860.688)" fill="#bcbcbc"/>
            <path id="Path_1319" data-name="Path 1319" d="M1522.789,873.5l-1.158-2.316c-.478-.9-.776-1.552-1.134-2.292h-.036c-.263.74-.585,1.409-.991,2.292l-1.062,2.316H1515.1l3.7-6.471-3.57-6.328h3.319l1.123,2.34c.382.776.668,1.409.967,2.125h.036c.3-.812.549-1.385.871-2.125l1.086-2.34h3.307l-3.606,6.244,3.8,6.555Z" transform="translate(-1494.039 -860.688)" fill="#bcbcbc"/>
          </g>
        </g>
        <rect id="Rectangle_967" data-name="Rectangle 967" width="3.021" height="2.591" transform="translate(0.418 36.749)" fill="#eba8a0"/>
        <rect id="Rectangle_968" data-name="Rectangle 968" width="3.021" height="2.591" transform="translate(0.418 40.522)" fill="#83cfee"/>
        <rect id="Rectangle_969" data-name="Rectangle 969" width="3.021" height="2.591" transform="translate(18.1 36.749)" fill="#c8db57"/>
        <rect id="Rectangle_970" data-name="Rectangle 970" width="3.021" height="2.591" transform="translate(18.1 40.522)" fill="#f3bc5a"/>
        <rect id="Rectangle_971" data-name="Rectangle 971" width="3.558" height="1.051" transform="translate(5.074 37.561)" fill="silver"/>
        <rect id="Rectangle_972" data-name="Rectangle 972" width="3.558" height="0.979" transform="translate(5.074 41.453)" fill="silver"/>
        <rect id="Rectangle_973" data-name="Rectangle 973" width="3.558" height="1.051" transform="translate(22.398 37.561)" fill="silver"/>
        <rect id="Rectangle_974" data-name="Rectangle 974" width="3.558" height="0.979" transform="translate(22.398 41.453)" fill="silver"/>
        <g id="Group_2709" data-name="Group 2709" transform="translate(0 16.393)">
          <g id="Group_2708" data-name="Group 2708">
            <path id="Path_1320" data-name="Path 1320" d="M1332.7,997.9v18.816h35.03V997.9Zm21.622.871h5.456v3.534h-5.456Zm-13.408,0h5.456v3.534h-5.456Zm-1.265,17.061h-5.767v-3.319h3.9c-.012,0-.012.012-.024.012h1.839c.012,0,.012-.012.024-.012h.012v3.319Zm0-4.537c-.048.036-.1.059-.143.1v.251h-5.611v-3.785h.167v-.012h5.456v.012h.143v3.439Zm0-4.322h-5.755v-3.8h5.755Zm0-4.668h-5.755v-3.534h5.755Zm6.71,13.527H1340.9v-3.319h5.456Zm.012-4.191h-5.456v-1.194a.012.012,0,0,0-.012.012v-2.615h.012v-.012h5.456Zm0-4.68H1340.9v-3.785h5.456v.251h.012Zm6.7,8.871h-5.456v-3.319h5.456Zm0-4.191h-5.456v-3.737h0v-.072h5.456v1.564h0Zm0-4.668h-5.456v-3.785h5.456Zm0-4.668h-5.456v-3.534h5.456Zm6.71,13.527h-5.456v-3.319h5.456Zm.024-4.441h-.024v.251h-5.456v-1.9l.036.012v-.943l-.036-.012v-.955h5.492v3.546Zm-.024-4.417h-5.456v-3.8h5.456v3.8Zm6.7,8.859h-5.444v-3.319h5.456v3.319Zm0-4.191h-5.444v-3.785h5.456v3.785Zm.1-4.907v.251h-5.54v-3.8h1.051l-.012.012h1.469l.012-.012h2.925v.012h.084v3.534Zm0-4.429h-5.528v-3.534h5.54v3.534Z" transform="translate(-1332.7 -997.9)" fill="#8a8387"/>
          </g>
        </g>
        <path id="Path_1321" data-name="Path 1321" d="M1338.954,1047.836l-.454-.585,6.758-5.17,3.785,1.827,6.542-4.645,3.26,2.83,4.835-7.594,8.644,7.892-.514.537-7.975-7.283-4.824,7.581-3.475-3.021-6.423,4.561-3.761-1.815Z" transform="translate(-1337.807 -1013.738)" fill="#eba8a0"/>
        <path id="Path_1322" data-name="Path 1322" d="M1361.559,1051.841l-7.282-4.907-4.74,2.018-2.806-.334-4.967,2.28-3.8.872-.167-.716,3.725-.859,5.086-2.34,2.818.346,4.931-2.113,7.247,4.9,9.921-5.182.346.657Z" transform="translate(-1337.191 -1023.689)" fill="#83cfee"/>
        <path id="Path_1323" data-name="Path 1323" d="M1345.379,1084.8l-6.483-3.7-3.749,1.875-.346-.657,4.119-2.066,6.483,3.7,6.793-3.355,5.468,2.83,7.176-4.2,4.119-1.122.2.716-4.035,1.086-7.438,4.37-5.492-2.853Z" transform="translate(-1334.55 -1052.132)" fill="#c8db57"/>
        <path id="Path_1324" data-name="Path 1324" d="M1336.723,1023.287l-.323-.669,9.946-4.728,2.137.8,9.91-8.011,3.57,3.808,8.3-5.587.417.621-8.835,5.946-3.522-3.785-9.706,7.844-2.233-.836Z" transform="translate(-1335.958 -991.194)" fill="#f3bc5a"/>
        <rect id="Rectangle_975" data-name="Rectangle 975" width="1.182" height="16.751" transform="translate(0 17.813)" fill="#8a8387"/>
        <rect id="Rectangle_976" data-name="Rectangle 976" width="1.278" height="18.816" transform="translate(33.752 16.393)" fill="#8a8387"/>
      </g>
      <g id="Group_2711" data-name="Group 2711" transform="translate(111.334 60.807)">
        <path id="Path_1325" data-name="Path 1325" d="M1364.6,1029.212a28.42,28.42,0,0,1-28,23.544c-.907,0-1.8-.048-2.7-.131a26.259,26.259,0,0,0,15.664,5.182c15.067,0,27.281-12.811,27.281-28.606H1364.6Z" transform="translate(-1322.283 -1029.2)" fill="#d9d8d6"/>
        <path id="Path_1326" data-name="Path 1326" d="M1278.913,1029.3H1236.6a28.99,28.99,0,0,0,11.617,23.413c.884.083,1.791.131,2.7.131A28.408,28.408,0,0,0,1278.913,1029.3Z" transform="translate(-1236.6 -1029.288)" fill="#ebebeb"/>
      </g>
    </g>
  </g>
</svg>
