<svg xmlns="http://www.w3.org/2000/svg" xmlns:xlink="http://www.w3.org/1999/xlink" width="145.025" height="158.518" viewBox="0 0 145.025 158.518">
  <defs>
    <radialGradient id="radial-gradient" cx="0.343" cy="-0.269" r="1.68" gradientTransform="translate(0.011 0) scale(0.968 1)" gradientUnits="objectBoundingBox">
      <stop offset="0" stop-color="#bbaf7a"/>
      <stop offset="0.138" stop-color="#fbe0ab"/>
      <stop offset="0.433" stop-color="#f4b360"/>
      <stop offset="0.611" stop-color="#e98919"/>
      <stop offset="0.782" stop-color="#a25f14"/>
      <stop offset="1" stop-color="#d86900"/>
    </radialGradient>
    <radialGradient id="radial-gradient-2" cx="-22.961" cy="-117.674" r="124.617" gradientTransform="translate(-3.382 -8.497) scale(0.968 0.968)" gradientUnits="userSpaceOnUse">
      <stop offset="0" stop-color="#bbaf7a"/>
      <stop offset="0.172" stop-color="#cfb071"/>
      <stop offset="0.433" stop-color="#f4b360"/>
      <stop offset="0.611" stop-color="#d69447"/>
      <stop offset="0.736" stop-color="#be7c33"/>
      <stop offset="1" stop-color="#f08826"/>
    </radialGradient>
  </defs>
  <g id="ojni_e7mo_170209_Converted_" data-name="ojni_e7mo_170209 [Converted]" transform="translate(-3.9 -4.39)">
    <g id="Group_566" data-name="Group 566" transform="translate(3.9 4.391)">
      <g id="Group_565" data-name="Group 565" transform="translate(0)">
        <g id="Group_542" data-name="Group 542" transform="translate(95.4 28.328)">
          <path id="Path_602" data-name="Path 602" d="M161.04,149.519c1.739-5.217,3.6-10.434,5.528-15.59,3.726-9.938,7.826-19.813,12.236-29.5A490.38,490.38,0,0,1,207.126,51.2a127.488,127.488,0,0,0-18.509,22.3,186.741,186.741,0,0,0-15.9,28.633c-4.472,9.937-7.329,20.5-9.937,30.993-1.429,5.652-2.671,11.366-3.789,17.142-.5,2.671-1.118,5.341-1.491,8.012v.062c.5-.683.932-1.429,1.429-2.112C159.55,153.929,160.295,151.693,161.04,149.519Z" transform="translate(-157.5 -50.455)" fill="#b8d36b"/>
          <path id="Path_603" data-name="Path 603" d="M204.4,67.472c-1.3,2.795-3.416,4.72-5.217,7.08a89.756,89.756,0,0,0-5.341,8.012c-3.168,5.279-6.335,10.5-9.13,16.024a147.185,147.185,0,0,0-12.422,33.539c-.062.186.186.186.248.062,3.665-11.925,9.441-23.043,14.409-34.471,2.422-5.59,5.4-10.869,8.323-16.211,2.733-4.907,7.018-8.944,9.13-14.037C204.467,67.409,204.4,67.409,204.4,67.472Z" transform="translate(-163.102 -56.602)" fill="#b8d36b"/>
        </g>
        <g id="Group_560" data-name="Group 560">
          <g id="Group_545" data-name="Group 545" transform="translate(48.011 67.227)">
            <g id="Group_544" data-name="Group 544" transform="translate(0 3.923)">
              <g id="Group_543" data-name="Group 543">
                <path id="Path_604" data-name="Path 604" d="M89.925,164.568a56.1,56.1,0,0,0-.559,10.5c.311-2.981.5-5.963.994-8.882a70.62,70.62,0,0,1,3.913-13.726,64.861,64.861,0,0,1,5.217-11.118c.311-.621.621-1.18.932-1.739,4.534-8.509,11.428-13.975,18.446-20.31.186-.186,0-.435-.248-.311C103.341,129.911,92.534,145.811,89.925,164.568Z" transform="translate(-84.273 -118.946)" fill="#b69b4f"/>
                <path id="Path_605" data-name="Path 605" d="M131.344,129.8c.186.559.373,1.056.559,1.553h.124c.87-3.105,4.286-8.2,1.925-10.931h-.186l.062-.062h0l-.062-.062a12.764,12.764,0,0,0-2.36,5.466A7.432,7.432,0,0,0,131.344,129.8Z" transform="translate(-100.103 -119.459)" fill="#dcb64d"/>
                <path id="Path_606" data-name="Path 606" d="M125.56,134.9c.186.559.373,1.056.559,1.553h.124c.87-3.105,4.286-8.2,1.925-10.931h-.186l.062-.062h0l-.062-.062a12.765,12.765,0,0,0-2.36,5.466A8.057,8.057,0,0,0,125.56,134.9Z" transform="translate(-97.921 -121.392)" fill="#dcb64d"/>
                <path id="Path_607" data-name="Path 607" d="M119.844,140.3c.186.559.373,1.056.559,1.553h.124c.87-3.105,4.286-8.2,1.925-10.931h-.186l.062-.062h0l-.062-.062a12.764,12.764,0,0,0-2.36,5.466A7.432,7.432,0,0,0,119.844,140.3Z" transform="translate(-95.745 -123.438)" fill="#dcb64d"/>
                <path id="Path_608" data-name="Path 608" d="M113.186,146.441a11.369,11.369,0,0,0,.5,1.553h.124c.994-3.043,4.658-8.012,2.36-10.869h-.186l.062-.062h0l-.062-.062a12.658,12.658,0,0,0-2.609,5.341A8.319,8.319,0,0,0,113.186,146.441Z" transform="translate(-93.249 -125.787)" fill="#dcb64d"/>
                <path id="Path_609" data-name="Path 609" d="M115.253,124.779c-.559-.186-1.056-.373-1.553-.559V124.1c3.105-.807,8.261-4.161,11.055-1.8v.186l.062-.062h0l.062.062a13.263,13.263,0,0,1-5.528,2.3A9.135,9.135,0,0,1,115.253,124.779Z" transform="translate(-93.514 -119.901)" fill="#dcb64d"/>
                <path id="Path_610" data-name="Path 610" d="M108.053,130.641a11.567,11.567,0,0,1-1.553-.621V129.9c3.105-.807,8.261-4.161,11.055-1.8v.186l.062-.062h0l.062.062a13.262,13.262,0,0,1-5.528,2.3A7.647,7.647,0,0,1,108.053,130.641Z" transform="translate(-90.786 -122.099)" fill="#dcb64d"/>
                <path id="Path_611" data-name="Path 611" d="M104.015,137.62c-.559-.062-1.118-.186-1.615-.249v-.124c2.919-1.429,7.329-5.714,10.5-3.913,0,.062.062.124.062.186l.062-.062h0l.062.062a12.458,12.458,0,0,1-4.969,3.292A9.3,9.3,0,0,1,104.015,137.62Z" transform="translate(-89.233 -124.233)" fill="#dcb64d"/>
                <path id="Path_612" data-name="Path 612" d="M97.839,146.176a15.38,15.38,0,0,1-1.677-.186c0-.062,0-.062-.062-.124,2.795-1.615,6.894-6.211,10.186-4.658,0,.062.062.124.062.186,0-.062.062-.062.062-.124h0a.061.061,0,0,1,.062.062,13.252,13.252,0,0,1-4.72,3.664A7.621,7.621,0,0,1,97.839,146.176Z" transform="translate(-86.846 -127.262)" fill="#dcb64d"/>
                <path id="Path_613" data-name="Path 613" d="M93.691,153.726a11.089,11.089,0,0,1-1.429-.124.192.192,0,0,0-.062-.124c2.422-1.429,5.963-5.341,8.82-4.037,0,.062.062.062.062.124a.061.061,0,0,1,.062-.062h0a.061.061,0,0,1,.062.062,10.686,10.686,0,0,1-4.037,3.167A7.211,7.211,0,0,1,93.691,153.726Z" transform="translate(-85.368 -130.401)" fill="#dcb64d"/>
                <path id="Path_614" data-name="Path 614" d="M91.091,161.1a10.975,10.975,0,0,1-1.429,0,.217.217,0,0,1-.062-.124c2.236-1.677,5.341-5.963,8.323-4.969,0,.062.062.062.062.124v-.062h0a.061.061,0,0,1,.062.062,11.935,11.935,0,0,1-3.664,3.6A6.781,6.781,0,0,1,91.091,161.1Z" transform="translate(-84.383 -132.934)" fill="#dcb64d"/>
                <path id="Path_615" data-name="Path 615" d="M88.191,169.7c-.5.062-.932.124-1.429.186l-.062-.062c2.05-1.863,4.658-6.522,7.764-5.776,0,.062.062.062.062.124v-.062h.062a11.2,11.2,0,0,1-3.292,3.975A6.508,6.508,0,0,1,88.191,169.7Z" transform="translate(-83.284 -136.006)" fill="#dcb64d"/>
                <path id="Path_616" data-name="Path 616" d="M84.991,177.9c-.5.062-.932.124-1.429.186l-.062-.062c2.05-1.863,4.658-6.521,7.764-5.776.062.062.062.062.062.124v-.062h.062a11.2,11.2,0,0,1-3.292,3.975A7.066,7.066,0,0,1,84.991,177.9Z" transform="translate(-82.071 -139.113)" fill="#dcb64d"/>
                <path id="Path_617" data-name="Path 617" d="M82.691,185.2c-.5.062-.932.124-1.429.186l-.062-.062c2.05-1.863,4.658-6.522,7.764-5.776,0,.062.062.062.062.124v-.062h.062a11.2,11.2,0,0,1-3.292,3.975A7.419,7.419,0,0,1,82.691,185.2Z" transform="translate(-81.2 -141.879)" fill="#dcb64d"/>
                <path id="Path_618" data-name="Path 618" d="M83.329,192.718c-.435.186-.87.31-1.366.5l-.062-.062c1.553-2.3,2.919-7.453,6.087-7.453.062,0,.062.062.124.124v-.062h.062a11.56,11.56,0,0,1-2.236,4.658A7.272,7.272,0,0,1,83.329,192.718Z" transform="translate(-81.465 -144.239)" fill="#dcb64d"/>
                <path id="Path_619" data-name="Path 619" d="M83.3,201.54a12.3,12.3,0,0,1-1.242.683.061.061,0,0,1-.062-.062c1.18-2.546,1.8-7.764,4.907-8.261.062,0,.062.062.124.062V193.9h.062a11.837,11.837,0,0,1-1.491,4.907A7.432,7.432,0,0,1,83.3,201.54Z" transform="translate(-81.503 -147.347)" fill="#dcb64d"/>
                <path id="Path_620" data-name="Path 620" d="M88.748,208.16a13.606,13.606,0,0,1-.87,1.118h-.124c.062-2.733-1.491-7.64,1.118-9.316.062,0,.124,0,.124.062a.061.061,0,0,0-.062-.062h0A.061.061,0,0,0,89,199.9a10.277,10.277,0,0,1,.559,4.969A5.654,5.654,0,0,1,88.748,208.16Z" transform="translate(-83.531 -149.62)" fill="#dcb64d"/>
                <path id="Path_621" data-name="Path 621" d="M92.891,202.146c.311.248.683.435.994.683a.061.061,0,0,0,.062-.062c-.87-2.174-1.056-6.646-3.664-7.267-.062,0-.062.062-.124.062V195.5H90.1a9.179,9.179,0,0,0,.994,4.223A6.874,6.874,0,0,0,92.891,202.146Z" transform="translate(-84.569 -147.953)" fill="#dcb64d"/>
                <path id="Path_622" data-name="Path 622" d="M94.119,195.959a5.914,5.914,0,0,0,1.056.621.061.061,0,0,0,.062-.062c-.932-2.112-1.242-6.521-3.851-7.018-.062,0-.062.062-.124.062V189.5H91.2a9.64,9.64,0,0,0,1.118,4.1A5.246,5.246,0,0,0,94.119,195.959Z" transform="translate(-84.989 -145.679)" fill="#dcb64d"/>
                <path id="Path_623" data-name="Path 623" d="M95.444,189.915a12.591,12.591,0,0,0,1.118.807.061.061,0,0,0,.062-.062c-.807-2.485-.807-7.453-3.664-8.261-.062,0-.062.062-.124.062V182.4h-.062a9.684,9.684,0,0,0,.87,4.72A6.775,6.775,0,0,0,95.444,189.915Z" transform="translate(-85.569 -142.989)" fill="#dcb64d"/>
                <path id="Path_624" data-name="Path 624" d="M97.578,184.118c.373.249.745.435,1.056.683.062,0,.062,0,.062-.062-.932-2.3-1.18-7.018-3.913-7.639-.062,0-.062.062-.124.062V177.1H94.6a10.489,10.489,0,0,0,1.056,4.472A7.683,7.683,0,0,0,97.578,184.118Z" transform="translate(-86.274 -140.981)" fill="#dcb64d"/>
                <path id="Path_625" data-name="Path 625" d="M99.129,178.559a8.7,8.7,0,0,0,.994.621.061.061,0,0,0,.062-.062c-.807-2.112-1.056-6.46-3.6-7.018-.062,0-.062.062-.124.062V172.1H96.4a8.865,8.865,0,0,0,.994,4.1A5.594,5.594,0,0,0,99.129,178.559Z" transform="translate(-86.956 -139.086)" fill="#dcb64d"/>
                <path id="Path_626" data-name="Path 626" d="M109.076,152.388c.186.435.373.807.559,1.242h.124c.5-2.547,2.857-6.956.745-9.006h-.124l.062-.062h0l-.062-.062a10.645,10.645,0,0,0-1.553,4.6A6.021,6.021,0,0,0,109.076,152.388Z" transform="translate(-91.624 -128.629)" fill="#dcb64d"/>
                <path id="Path_627" data-name="Path 627" d="M105.612,159.912l.745,1.118h.124c.062-2.609,1.8-7.267-.559-9.006H105.8l.062-.062h0a.061.061,0,0,1-.062-.062,10.38,10.38,0,0,0-.807,4.782A5.811,5.811,0,0,0,105.612,159.912Z" transform="translate(-90.209 -131.432)" fill="#dcb64d"/>
                <path id="Path_628" data-name="Path 628" d="M102.856,166.229c.248.311.559.621.807.932h.062c-.248-2.422.807-6.894-1.615-8.2-.062,0-.062,0-.124.062a.061.061,0,0,1,.062-.062h0a.061.061,0,0,1-.062-.062,9.835,9.835,0,0,0-.186,4.472A7.278,7.278,0,0,0,102.856,166.229Z" transform="translate(-88.944 -134.085)" fill="#dcb64d"/>
                <path id="Path_629" data-name="Path 629" d="M100.523,172.791a11.9,11.9,0,0,0,.87.932.061.061,0,0,0,.062-.062c-.248-2.422.683-6.894-1.739-8.2-.062,0-.062,0-.124.062a.061.061,0,0,1,.062-.062h0a.061.061,0,0,1-.062-.062,9.051,9.051,0,0,0-.124,4.472A5.924,5.924,0,0,0,100.523,172.791Z" transform="translate(-88.039 -136.548)" fill="#dcb64d"/>
              </g>
              <path id="Path_630" data-name="Path 630" d="M87.081,194.69c-1.988.994-2.422,3.478-2.981,5.342h.062a13.008,13.008,0,0,1,3.043-5.217C87.268,194.752,87.205,194.628,87.081,194.69Z" transform="translate(-82.299 -147.639)" fill="#f2f2b3"/>
              <path id="Path_631" data-name="Path 631" d="M88.89,200.972h0c-1.3.994-1.3,2.981-.994,4.41,0,.062.124,0,.124,0A7.008,7.008,0,0,1,88.89,200.972Z" transform="translate(-83.673 -150.008)" fill="#f2f2b3"/>
              <path id="Path_632" data-name="Path 632" d="M88.772,186.1a3.688,3.688,0,0,0-2.36,1.242,5.49,5.49,0,0,0-.87,1.429c-.373.807-.87,1.615-1.242,2.422,0,.062.062.062.062,0,.932-1.739,2.36-4.41,4.41-5.093Z" transform="translate(-82.375 -144.391)" fill="#f2f2b3"/>
              <path id="Path_633" data-name="Path 633" d="M89.926,179.888c-2.3-.248-4.037,1.863-5.341,3.416-.062.062,0,.124.062.062,1.553-1.491,3.105-2.981,5.279-3.478Z" transform="translate(-82.473 -142.03)" fill="#f2f2b3"/>
              <path id="Path_634" data-name="Path 634" d="M92.558,172.6a7.016,7.016,0,0,1-1.118.186,4.205,4.205,0,0,0-1.491.745,9.705,9.705,0,0,0-2.36,2.422c-.062.062.062.124.124.062a27.193,27.193,0,0,1,2.422-2.236,6.5,6.5,0,0,1,1.429-.807c.248-.124.683-.124.994-.373Z" transform="translate(-83.615 -139.276)" fill="#f2f2b3"/>
              <path id="Path_635" data-name="Path 635" d="M95.792,164.6c-2.112-.124-3.664,1.366-4.907,2.919-.062.124,0,.186.124.124.683-.621,1.366-1.242,2.112-1.8a5.324,5.324,0,0,1,1.242-.808,9.591,9.591,0,0,1,1.429-.435Z" transform="translate(-84.861 -136.24)" fill="#f2f2b3"/>
              <path id="Path_636" data-name="Path 636" d="M99.177,156.7a11.009,11.009,0,0,0-1.429.062,3.165,3.165,0,0,0-1.056.435,21.522,21.522,0,0,0-2.609,2.112c-.062.062,0,.124.062.062.869-.559,1.615-1.242,2.422-1.863a9.12,9.12,0,0,1,2.609-.808Z" transform="translate(-86.072 -133.251)" fill="#f2f2b3"/>
              <path id="Path_637" data-name="Path 637" d="M101.833,150.07c-2.112-.932-4.72,1.429-6.149,2.609-.062,0,0,.062.062.062,1.739-1.18,3.789-2.919,6.087-2.671Z" transform="translate(-86.678 -130.659)" fill="#f2f2b3"/>
              <path id="Path_638" data-name="Path 638" d="M105.046,141.925a12.711,12.711,0,0,0-4.161,2.609c-.062.062,0,.124.062.062,1.739-1.242,4.658-3.292,6.956-2.671h0C107.219,141.428,105.729,141.677,105.046,141.925Z" transform="translate(-88.649 -127.544)" fill="#f2f2b3"/>
              <path id="Path_639" data-name="Path 639" d="M114.472,133.692c-2.112-1.056-4.782.559-6.4,1.8-.062.062-.062.186.062.124,1.863-1.056,4.037-2.484,6.335-1.925Z" transform="translate(-91.368 -124.404)" fill="#f2f2b3"/>
              <path id="Path_640" data-name="Path 640" d="M119.014,128.621c-1.677-1.3-3.913-.248-5.714.373h0a15.18,15.18,0,0,1,2.422-.435,6.861,6.861,0,0,1,3.168.186C118.952,128.807,119.076,128.683,119.014,128.621Z" transform="translate(-93.363 -122.376)" fill="#f2f2b3"/>
              <path id="Path_641" data-name="Path 641" d="M126.311,122.506c-2.174-1.242-4.161.249-6.211.807h0c.932-.186,1.8-.559,2.671-.745a7.332,7.332,0,0,1,3.478.124C126.311,122.631,126.373,122.506,126.311,122.506Z" transform="translate(-95.939 -120.113)" fill="#f2f2b3"/>
            </g>
            <path id="Path_642" data-name="Path 642" d="M155.738,132.611c-.435-6.956-1.366-14.782-7.95-18.757-6.149-3.727-13.664,1.863-17.888,6.025h0c5.031-4.223,12.67-8.82,18.757-3.851,5.776,4.782,6.273,13.416,6.584,20.248.373,7.888-.559,15.776-1.739,23.54-1.18,7.7-3.168,16.024-6.894,22.981-.062.124.062.124.124.062,4.161-7.329,6.335-15.59,7.7-23.788A114.485,114.485,0,0,0,155.738,132.611Z" transform="translate(-99.653 -112.63)" fill="#91704d"/>
          </g>
          <g id="Group_549" data-name="Group 549" transform="translate(19.999 48.762)">
            <g id="Group_548" data-name="Group 548">
              <g id="Group_546" data-name="Group 546">
                <path id="Path_643" data-name="Path 643" d="M47.115,135.245A70.688,70.688,0,0,0,45.5,150.152a102.652,102.652,0,0,1,1.988-12.608A81.2,81.2,0,0,1,55,119.159a53.6,53.6,0,0,1,10.559-13.416c.621-.683,1.3-1.366,1.925-1.988,10.372-10.062,25.03-13.291,38.694-15.962.435-.062.186-.559-.248-.5C78.17,90.651,53.264,106.054,47.115,135.245Z" transform="translate(-39.662 -84.564)" fill="#b69b4f"/>
                <path id="Path_644" data-name="Path 644" d="M126.1,98.151c0,.683.124,1.428.186,2.112a.228.228,0,0,0,.186.062c3.23-2.981,10.248-6.4,8.7-11.677-.062-.062-.186-.062-.311-.124h.186c0-.062-.062-.062-.062-.124a14.477,14.477,0,0,0-6.708,4.969A7.427,7.427,0,0,0,126.1,98.151Z" transform="translate(-70.201 -84.984)" fill="#dcb64d"/>
                <path id="Path_645" data-name="Path 645" d="M114.6,101.086c0,.745.186,1.429.248,2.174a.228.228,0,0,0,.186.062c3.105-3.168,9.875-6.832,8.2-12.111-.062-.062-.186-.062-.311-.124a.228.228,0,0,0,.186-.062h0c0-.062-.062-.062-.062-.124a14.3,14.3,0,0,0-6.459,5.217A8.334,8.334,0,0,0,114.6,101.086Z" transform="translate(-65.844 -85.931)" fill="#dcb64d"/>
                <path id="Path_646" data-name="Path 646" d="M103.292,104.921c.062.745.186,1.428.311,2.174a.228.228,0,0,0,.186.062c2.981-3.354,9.5-7.267,7.639-12.546-.062-.062-.186-.062-.311-.124.062,0,.124-.062.186-.062h0c0-.062-.062-.062-.062-.124a14.436,14.436,0,0,0-6.149,5.528A7.868,7.868,0,0,0,103.292,104.921Z" transform="translate(-61.555 -87.219)" fill="#dcb64d"/>
                <path id="Path_647" data-name="Path 647" d="M90.6,109.845c0,.745.186,1.491.248,2.236a.228.228,0,0,0,.186.062c3.043-3.416,9.441-7.391,7.764-12.732-.062-.062-.186-.062-.311-.124.062,0,.124-.062.186-.062h0c0-.062-.062-.062-.062-.124-2.919,1.3-4.534,3.23-6.211,5.59A8.656,8.656,0,0,0,90.6,109.845Z" transform="translate(-56.748 -89.038)" fill="#dcb64d"/>
                <path id="Path_648" data-name="Path 648" d="M103.322,84.515c-.87-.5-1.615-.994-2.422-1.491,0-.062,0-.124.062-.124,6.211.248,14.72-1.056,19.627,3.727,0,.062-.062.124-.062.186a.217.217,0,0,0,.124-.062h0c0,.062.062.062.062.124-3.416.559-6.646.186-10.372-.311A19.875,19.875,0,0,1,103.322,84.515Z" transform="translate(-60.653 -82.9)" fill="#dcb64d"/>
                <path id="Path_649" data-name="Path 649" d="M88.822,88.506c-.87-.435-1.615-.994-2.422-1.429,0-.062,0-.124.062-.124,6.087.062,14.472-1.615,19.316,3.105a.228.228,0,0,1-.062.186.217.217,0,0,0,.124-.062h0c.062.062.062.062.062.124-3.354.683-6.459.435-10.186.062A21.09,21.09,0,0,1,88.822,88.506Z" transform="translate(-55.159 -84.345)" fill="#dcb64d"/>
                <path id="Path_650" data-name="Path 650" d="M79.609,95.828c-.869-.311-1.739-.683-2.609-.994v-.186c5.838-1.118,13.291-4.161,18.757-.373v.248c.062,0,.062-.062.124-.062h0l.124.124c-2.919,1.3-5.9,1.615-9.441,1.925A18.981,18.981,0,0,1,79.609,95.828Z" transform="translate(-51.597 -86.511)" fill="#dcb64d"/>
                <path id="Path_651" data-name="Path 651" d="M67.192,104.7a20.969,20.969,0,0,1-2.609-.807c0-.062-.062-.124,0-.186,5.59-1.863,12.111-5.279,17.888-2.174,0,.062.062.124,0,.248l.124-.124h0l.124.124c-2.609,1.615-5.466,2.236-8.758,2.857A15.561,15.561,0,0,1,67.192,104.7Z" transform="translate(-46.882 -89.486)" fill="#dcb64d"/>
                <path id="Path_652" data-name="Path 652" d="M58.736,113.192c-.745-.186-1.491-.435-2.236-.621v-.124c4.6-1.739,10-4.969,14.968-2.422,0,.062.062.124,0,.186,0-.062.062-.062.062-.124h0c.062,0,.062.062.124.062a21.344,21.344,0,0,1-7.267,2.795A14.365,14.365,0,0,1,58.736,113.192Z" transform="translate(-43.83 -92.82)" fill="#dcb64d"/>
                <path id="Path_653" data-name="Path 653" d="M53.3,122.364c-.745-.062-1.491-.248-2.236-.373-.062-.062-.062-.062-.062-.124,4.1-2.36,8.882-6.211,13.913-4.286,0,.062.062.124.062.186,0-.062.062-.062.062-.124h0c.062,0,.062.062.124.062-1.863,1.8-3.975,2.671-6.521,3.664A11.236,11.236,0,0,1,53.3,122.364Z" transform="translate(-41.746 -95.843)" fill="#dcb64d"/>
                <path id="Path_654" data-name="Path 654" d="M47.474,133.287c-.745,0-1.429-.062-2.112-.062-.062-.062-.062-.062-.062-.124,3.292-2.174,8.074-7.888,12.608-6.025a.228.228,0,0,1,.062.186c0-.062.062-.062.062-.124h0c.062,0,.062.062.124.062-1.491,2.05-3.416,3.168-5.714,4.534A10.407,10.407,0,0,1,47.474,133.287Z" transform="translate(-39.586 -99.499)" fill="#dcb64d"/>
                <path id="Path_655" data-name="Path 655" d="M42.012,143.991c-.683.062-1.366,0-2.05,0-.062-.062-.062-.062-.062-.124,3.105-2.3,7.639-8.2,12.049-6.46a.229.229,0,0,1,.062.186c0-.062.062-.062.062-.124h0c.062,0,.062.062.124.062a16.514,16.514,0,0,1-5.4,4.72A10.389,10.389,0,0,1,42.012,143.991Z" transform="translate(-37.54 -103.433)" fill="#dcb64d"/>
                <path id="Path_656" data-name="Path 656" d="M38.15,153.791c-.683.062-1.3,0-1.988,0-.062-.062-.062-.062-.062-.124,2.981-2.422,7.2-8.447,11.49-6.832a.228.228,0,0,1,.062.186c0-.062,0-.062.062-.124h0c.062,0,.062.062.124.062-1.3,2.174-3.105,3.416-5.155,4.907A8.947,8.947,0,0,1,38.15,153.791Z" transform="translate(-36.1 -107.022)" fill="#dcb64d"/>
                <path id="Path_657" data-name="Path 657" d="M38.563,164.6c-.621.248-1.18.373-1.8.559-.062,0-.062-.062-.062-.124,2.112-3.168,4.472-10.248,8.882-9.751.062.062.124.124.124.186v-.124h.124a16.944,16.944,0,0,1-3.54,6.149A9.916,9.916,0,0,1,38.563,164.6Z" transform="translate(-36.327 -110.318)" fill="#dcb64d"/>
                <path id="Path_658" data-name="Path 658" d="M38.039,177.059a8.1,8.1,0,0,1-1.615.87c-.062,0-.062-.062-.124-.124,1.553-3.6,2.671-11.118,6.894-11.3.062.062.124.062.124.124V166.5h.124a17.736,17.736,0,0,1-2.422,6.77A9.142,9.142,0,0,1,38.039,177.059Z" transform="translate(-36.176 -114.576)" fill="#dcb64d"/>
                <path id="Path_659" data-name="Path 659" d="M44.736,186.963c-.311.559-.745.994-1.056,1.553-.062,0-.062,0-.124-.062.186-3.913-1.491-11.242,2.05-13.229.062,0,.124.062.186.062,0-.062-.062-.062-.062-.124h0c.062,0,.062-.062.124-.062a17.255,17.255,0,0,1,.311,7.143A13.875,13.875,0,0,1,44.736,186.963Z" transform="translate(-38.835 -117.835)" fill="#dcb64d"/>
                <path id="Path_660" data-name="Path 660" d="M50.555,178.675c.373.373.807.683,1.18,1.056.062,0,.062-.062.124-.062-.807-3.168-.5-9.5-3.913-10.807a.217.217,0,0,0-.124.062c0-.062,0-.062.062-.124H47.76a14.944,14.944,0,0,0,.87,6.149A8.249,8.249,0,0,0,50.555,178.675Z" transform="translate(-40.493 -115.448)" fill="#dcb64d"/>
                <path id="Path_661" data-name="Path 661" d="M52.757,170.127a9.664,9.664,0,0,0,1.242.994c.062,0,.062-.062.124-.062-.87-3.105-.683-9.316-4.161-10.5a.217.217,0,0,0-.124.062.192.192,0,0,1,.062-.124h-.124a14.642,14.642,0,0,0,.994,6.025A7.625,7.625,0,0,0,52.757,170.127Z" transform="translate(-41.267 -112.303)" fill="#dcb64d"/>
                <path id="Path_662" data-name="Path 662" d="M55.315,161.818c.435.5.869.87,1.3,1.3.062,0,.062,0,.124-.062-.683-3.6.186-10.5-3.727-12.236-.062,0-.124.062-.186.062,0-.062.062-.062.062-.124h0c-.062,0-.062,0-.124-.062a14.326,14.326,0,0,0,.559,6.832A9.723,9.723,0,0,0,55.315,161.818Z" transform="translate(-42.334 -108.59)" fill="#dcb64d"/>
                <path id="Path_663" data-name="Path 663" d="M59.241,154.234c.435.435.87.807,1.3,1.18.062,0,.062,0,.124-.062-.807-3.354-.248-9.938-4.1-11.428-.062,0-.124.062-.186.062,0-.062,0-.062.062-.124h0c-.062,0-.062,0-.124-.062a14.191,14.191,0,0,0,.745,6.4A9.1,9.1,0,0,0,59.241,154.234Z" transform="translate(-43.713 -105.975)" fill="#dcb64d"/>
                <path id="Path_664" data-name="Path 664" d="M62.424,147.1c.373.373.807.745,1.242,1.118.062,0,.062,0,.124-.062-.683-3.105-.124-9.006-3.727-10.434-.062,0-.124.062-.186.062a.192.192,0,0,1,.062-.124h0c-.062,0-.062,0-.124-.062a12.574,12.574,0,0,0,.621,5.838A9.178,9.178,0,0,0,62.424,147.1Z" transform="translate(-45.033 -103.626)" fill="#dcb64d"/>
                <path id="Path_665" data-name="Path 665" d="M82.731,115.313c.124.621.373,1.18.5,1.8h.124c1.491-3.168,6.832-7.826,4.1-11.366-.062,0-.124-.062-.248-.062.062,0,.062-.062.124-.062h0c0-.062-.062-.062-.062-.124a11.435,11.435,0,0,0-3.913,5.341A7.9,7.9,0,0,0,82.731,115.313Z" transform="translate(-53.726 -91.463)" fill="#dcb64d"/>
                <path id="Path_666" data-name="Path 666" d="M75.424,124c.248.621.559,1.118.807,1.739h.124c.87-3.416,4.969-8.944,1.677-12.111h-.248c.062,0,.062-.062.124-.062h0c-.062,0-.062-.062-.124-.062a11.253,11.253,0,0,0-2.609,6.025A7.919,7.919,0,0,0,75.424,124Z" transform="translate(-50.829 -94.494)" fill="#dcb64d"/>
                <path id="Path_667" data-name="Path 667" d="M70.163,131.324c.311.5.621.994.994,1.491h.124c.248-3.292,3.043-8.944-.311-11.49h-.186l.062-.062h0c-.062,0-.062-.062-.124-.062a12.019,12.019,0,0,0-1.429,5.9A7.863,7.863,0,0,0,70.163,131.324Z" transform="translate(-48.673 -97.412)" fill="#dcb64d"/>
                <path id="Path_668" data-name="Path 668" d="M65.194,139.648c.311.5.683.994.994,1.428h.124c.124-3.292,2.671-9.13-.683-11.552h-.186l.062-.062h0c-.062,0-.062-.062-.124-.062a11.668,11.668,0,0,0-1.18,6.025A9.178,9.178,0,0,0,65.194,139.648Z" transform="translate(-46.747 -100.519)" fill="#dcb64d"/>
              </g>
              <g id="Group_547" data-name="Group 547" transform="translate(2.671 0.87)">
                <path id="Path_669" data-name="Path 669" d="M44.064,167.483c-2.3.87-2.919,3.416-3.664,5.714,0,.062.062.124.124.062a14.825,14.825,0,0,1,3.54-5.776Z" transform="translate(-40.4 -115.808)" fill="#f2f2b3"/>
                <path id="Path_670" data-name="Path 670" d="M46.907,155.9a5.286,5.286,0,0,0-3.354,1.429,9.894,9.894,0,0,0-1.863,3.354c-.062.124.062.124.124.062.559-.807,1.118-1.677,1.739-2.484a6.167,6.167,0,0,1,3.292-2.3C46.969,155.962,46.969,155.9,46.907,155.9Z" transform="translate(-40.882 -111.43)" fill="#f2f2b3"/>
                <path id="Path_671" data-name="Path 671" d="M49.359,147.2a12.479,12.479,0,0,0-3.354.745,9.333,9.333,0,0,0-3.23,2.795c-.124.124.062.249.186.186,1.118-.807,2.112-1.739,3.23-2.422.5-.311.994-.559,1.491-.807.559-.248,1.18-.186,1.677-.5Z" transform="translate(-41.284 -108.133)" fill="#f2f2b3"/>
                <path id="Path_672" data-name="Path 672" d="M53.8,137.959c-2.546-.87-5.279.869-6.708,2.733-.062.062.062.186.124.124,1.677-1.366,4.223-3.168,6.584-2.857Z" transform="translate(-42.928 -104.544)" fill="#f2f2b3"/>
                <path id="Path_673" data-name="Path 673" d="M60.278,127.59c-2.3-1.242-5.4,1.18-6.894,2.422-.062.062,0,.124.062.124,1.677-1.118,4.534-2.857,6.832-2.422C60.341,127.714,60.341,127.652,60.278,127.59Z" transform="translate(-45.31 -100.572)" fill="#f2f2b3"/>
                <path id="Path_674" data-name="Path 674" d="M66.97,117.879c-2.733-1.553-6.77.683-8.7,2.112-.062.062-.062.186.062.124,2.236-1.056,5.838-3.23,8.633-2.236C66.97,117.941,67.033,117.879,66.97,117.879Z" transform="translate(-47.157 -96.823)" fill="#f2f2b3"/>
                <path id="Path_675" data-name="Path 675" d="M79.7,110.3h0" transform="translate(-55.291 -94.152)" fill="#f2f2b3"/>
                <path id="Path_676" data-name="Path 676" d="M74.283,110.178c-2.484-1.3-6.149-.559-8.323.559-.124.062-.062.248.124.186a16.52,16.52,0,0,1,8.2-.745Z" transform="translate(-50.061 -93.844)" fill="#f2f2b3"/>
                <path id="Path_677" data-name="Path 677" d="M85.679,101.985a17.679,17.679,0,0,0-4.845-.994,11.847,11.847,0,0,0-5.776,1.366c-.124.062-.062.186.062.186a32.522,32.522,0,0,1,5.652-.994c1.677-.124,3.23.373,4.907.435Z" transform="translate(-53.507 -90.619)" fill="#f2f2b3"/>
                <path id="Path_678" data-name="Path 678" d="M98.321,94.366c-3.416-2.36-7.08-1.118-10.621-.311h0c1.553-.186,3.105-.373,4.658-.5a15.3,15.3,0,0,1,5.776.994C98.321,94.614,98.445,94.428,98.321,94.366Z" transform="translate(-58.322 -87.596)" fill="#f2f2b3"/>
                <path id="Path_679" data-name="Path 679" d="M108.762,89.786a9.172,9.172,0,0,0-3.478-1.739,26.077,26.077,0,0,0-6.584-.373h0a37.867,37.867,0,0,1,5.838.559,17.843,17.843,0,0,1,4.037,1.677C108.7,89.911,108.824,89.849,108.762,89.786Z" transform="translate(-62.49 -85.563)" fill="#f2f2b3"/>
                <path id="Path_680" data-name="Path 680" d="M124.441,86.722c-2.484-2.36-6.087-2.422-9.441-2.422h0c1.429.186,2.857.373,4.286.683,1.988.373,3.168,1.242,4.907,1.925C124.379,86.971,124.627,86.846,124.441,86.722Z" transform="translate(-68.666 -84.3)" fill="#f2f2b3"/>
              </g>
            </g>
            <path id="Path_681" data-name="Path 681" d="M156.2,91.214a13.788,13.788,0,0,0-8.633-3.54,41.876,41.876,0,0,0-11.49.435c-.062,0-.062.062,0,.062a47.219,47.219,0,0,1,10.683.186,14.961,14.961,0,0,1,9.317,4.286c4.845,5.031,5.093,12.484,4.161,18.943-2.05,14.72-11.676,59.128-11.676,59.066,2.981-7.577,7.267-28.632,8.7-36.582,1.8-10,3.665-17.515,4.348-25.216C162.157,102.518,160.977,95.873,156.2,91.214Z" transform="translate(-73.962 -84.631)" fill="#91704d"/>
          </g>
          <g id="Group_552" data-name="Group 552" transform="translate(28.508 62.487)">
            <path id="Path_682" data-name="Path 682" d="M156.75,124.005c-.435-8.136-4.348-15.776-12.732-18.322-4.534-1.366-9.192-.435-13.664.621A56.286,56.286,0,0,0,117,111.521v.062a61.271,61.271,0,0,1,12.732-4.223c4.658-1.056,9.689-1.925,14.347-.248a17.742,17.742,0,0,1,9.379,8.012c2.112,3.851,2.422,8.261,2.422,12.546,0,9.441-2.919,18.074-5.9,26.893-1.491,4.41-3.292,8.7-4.72,13.105-.683,2.236-1.242,4.6-1.925,6.832s-1.615,4.348-2.3,6.584c-.062.248.248.248.311.062.87-2.174,1.863-4.286,2.733-6.521.932-2.422,1.491-5.031,2.3-7.515.745-2.422,1.863-4.782,2.733-7.2.87-2.36,1.553-4.783,2.422-7.143C154.825,143.446,157.247,134,156.75,124.005Z" transform="translate(-75.262 -104.999)" fill="#91704d"/>
            <g id="Group_551" data-name="Group 551" transform="translate(0 3.392)">
              <g id="Group_550" data-name="Group 550">
                <path id="Path_683" data-name="Path 683" d="M61.4,163.216A63.946,63.946,0,0,0,62.948,176.2c-.373-3.727-.807-7.391-.807-11.118A56.655,56.655,0,0,1,65.06,148a47.66,47.66,0,0,1,6.584-13.478c.435-.683.87-1.428,1.3-2.112,6.956-10.5,18.943-16.521,30.123-21.552.311-.124.062-.5-.248-.373C80.091,119.18,60.961,136.819,61.4,163.216Z" transform="translate(-54.191 -110.46)" fill="#b69b4f"/>
                <path id="Path_684" data-name="Path 684" d="M116.461,121.962c.124.621.373,1.18.5,1.739h.186c1.863-3.292,8.323-8.323,5.466-11.614-.062,0-.186-.062-.249-.062a.217.217,0,0,0,.124-.062h0a.061.061,0,0,0-.062-.062,13.963,13.963,0,0,0-4.907,5.59A6.859,6.859,0,0,0,116.461,121.962Z" transform="translate(-75.034 -111.005)" fill="#d0b151"/>
                <path id="Path_685" data-name="Path 685" d="M107.323,126.91a14.248,14.248,0,0,0,.559,1.739h.186c1.739-3.416,7.888-8.633,4.907-11.925h-.248a.217.217,0,0,0,.124-.062h0l-.062-.062a13.611,13.611,0,0,0-4.6,5.776A6.607,6.607,0,0,0,107.323,126.91Z" transform="translate(-71.548 -112.786)" fill="#d0b151"/>
                <path id="Path_686" data-name="Path 686" d="M98.394,132.659c.186.621.435,1.18.621,1.739H99.2c1.553-3.478,7.391-8.944,4.348-12.173H103.3c.062,0,.062-.062.124-.062h0l-.062-.062a12.9,12.9,0,0,0-4.286,5.962A6.613,6.613,0,0,0,98.394,132.659Z" transform="translate(-68.146 -114.87)" fill="#d0b151"/>
                <path id="Path_687" data-name="Path 687" d="M88.511,139.383c.124.621.435,1.18.621,1.8h.186c1.553-3.54,7.329-9.006,4.41-12.36-.062,0-.186-.062-.248,0,.062,0,.062-.062.124-.062h0a.061.061,0,0,0-.062-.062,13.528,13.528,0,0,0-4.286,6.025A6.867,6.867,0,0,0,88.511,139.383Z" transform="translate(-64.412 -117.371)" fill="#d0b151"/>
                <path id="Path_688" data-name="Path 688" d="M94,115.223c-.807-.186-1.553-.5-2.3-.745v-.124c4.907-.745,13.6-3.913,17.266-.994a.228.228,0,0,1-.062.186c.062,0,.062-.062.124-.062h0l.062.062a31.438,31.438,0,0,1-8.82,1.925A19.371,19.371,0,0,1,94,115.223Z" transform="translate(-65.676 -111.099)" fill="#d0b151"/>
                <path id="Path_689" data-name="Path 689" d="M82.4,121.316c-.807-.186-1.553-.5-2.3-.745v-.124c4.845-.87,13.229-4.286,16.956-1.429v.186c.062,0,.062-.062.124-.062h0c.062,0,.062.062.124.062a27.557,27.557,0,0,1-8.633,2.174A14.236,14.236,0,0,1,82.4,121.316Z" transform="translate(-61.281 -113.279)" fill="#d0b151"/>
                <path id="Path_690" data-name="Path 690" d="M75.884,129.116c-.807-.062-1.615-.186-2.422-.311,0-.062-.062-.062-.062-.124,4.348-1.677,11.428-6.4,15.9-4.223,0,.062.062.124.062.186,0-.062.062-.062.062-.124h0c.062,0,.062.062.124.062a23.092,23.092,0,0,1-7.7,3.54A13.72,13.72,0,0,1,75.884,129.116Z" transform="translate(-58.742 -115.551)" fill="#d0b151"/>
                <path id="Path_691" data-name="Path 691" d="M67.022,139.139c-.807,0-1.615-.062-2.36-.124-.062-.062-.062-.062-.062-.124,3.975-2.05,10.186-7.391,14.844-5.528,0,.062.062.124.062.186,0-.062.062-.062.062-.124h0c.062,0,.062.062.124.062a22.907,22.907,0,0,1-6.956,4.223A14.909,14.909,0,0,1,67.022,139.139Z" transform="translate(-55.408 -118.991)" fill="#d0b151"/>
                <path id="Path_692" data-name="Path 692" d="M61.35,148.193c-.683,0-1.366-.062-1.987-.062-.062-.062-.062-.062-.062-.124,3.292-1.863,8.323-6.646,12.3-5.093,0,.062.062.124.062.186,0-.062.062-.062.062-.124h0c.062,0,.062,0,.124.062a17.8,17.8,0,0,1-5.714,3.851A12.757,12.757,0,0,1,61.35,148.193Z" transform="translate(-53.4 -122.641)" fill="#d0b151"/>
                <path id="Path_693" data-name="Path 693" d="M58.488,157.067c-.621.062-1.3.124-1.925.124-.062,0-.062-.062-.062-.124,2.857-2.236,6.956-7.577,11.055-6.459a.228.228,0,0,1,.062.186c0-.062,0-.062.062-.124h0c.062,0,.062,0,.124.062A17.054,17.054,0,0,1,62.9,155.2,10.785,10.785,0,0,1,58.488,157.067Z" transform="translate(-52.339 -125.614)" fill="#d0b151"/>
                <path id="Path_694" data-name="Path 694" d="M55.725,167.657c-.621.186-1.242.248-1.863.373-.062,0-.062-.062-.062-.124,2.422-2.546,5.466-8.323,9.627-7.64.062.062.062.124.124.124v-.124h.124a15.487,15.487,0,0,1-4.037,4.969A9.468,9.468,0,0,1,55.725,167.657Z" transform="translate(-51.316 -129.31)" fill="#d0b151"/>
                <path id="Path_695" data-name="Path 695" d="M52.963,177.912a15.4,15.4,0,0,1-1.8.373c-.062,0-.062-.062-.062-.124,2.236-2.609,4.969-8.509,9.068-7.888.062.062.062.124.124.124v-.124h.124a15.628,15.628,0,0,1-3.727,5.093A8.541,8.541,0,0,1,52.963,177.912Z" transform="translate(-50.293 -133.106)" fill="#d0b151"/>
                <path id="Path_696" data-name="Path 696" d="M51.6,187.041a14.192,14.192,0,0,1-1.739.435c-.062,0-.062-.062-.062-.124,2.112-2.609,4.6-8.633,8.571-8.074l.124.124v-.124h.124a15.377,15.377,0,0,1-3.478,5.217A7.991,7.991,0,0,1,51.6,187.041Z" transform="translate(-49.8 -136.521)" fill="#d0b151"/>
                <path id="Path_697" data-name="Path 697" d="M54.353,196.354c-.5.31-.994.559-1.429.869-.062,0-.062-.062-.124-.062,1.242-3.106,1.863-9.627,5.776-10.062.062.062.124.062.124.124V187.1h.124a14.559,14.559,0,0,1-1.863,5.963A8.437,8.437,0,0,1,54.353,196.354Z" transform="translate(-50.937 -139.499)" fill="#d0b151"/>
                <path id="Path_698" data-name="Path 698" d="M56.6,207.3c-.373.373-.807.745-1.18,1.056-.062,0-.062-.062-.124-.062.621-3.354.062-9.937,3.664-10.993.062,0,.124.062.186.124,0-.062,0-.062-.062-.124h.124a15.439,15.439,0,0,1-.745,6.273A8.462,8.462,0,0,1,56.6,207.3Z" transform="translate(-51.884 -143.364)" fill="#d0b151"/>
                <path id="Path_699" data-name="Path 699" d="M63.426,214.81c-.186.5-.435.994-.621,1.491h-.124c-.621-3.354-3.54-9.254-.932-11.677h.186l-.062-.062h0l.062-.062a14.326,14.326,0,0,1,1.677,6.025A8.284,8.284,0,0,1,63.426,214.81Z" transform="translate(-53.924 -146.092)" fill="#d0b151"/>
                <path id="Path_700" data-name="Path 700" d="M66.348,206.964c.373.248.807.435,1.242.683l.062-.062c-1.3-2.547-2.36-8.012-5.466-8.385-.062,0-.062.062-.124.124V199.2H62a12.823,12.823,0,0,0,1.925,5.031A7.357,7.357,0,0,0,66.348,206.964Z" transform="translate(-54.423 -144.084)" fill="#d0b151"/>
                <path id="Path_701" data-name="Path 701" d="M66.534,199.315c.435.248.87.435,1.242.621l.062-.062c-1.366-2.484-2.422-7.764-5.652-8.074-.062,0-.062.062-.124.124v-.062H62a12.175,12.175,0,0,0,2.05,4.907A8.088,8.088,0,0,0,66.534,199.315Z" transform="translate(-54.423 -141.28)" fill="#d0b151"/>
                <path id="Path_702" data-name="Path 702" d="M67.11,191.682a15.688,15.688,0,0,0,1.366.807.061.061,0,0,0,.062-.062c-1.3-2.919-1.863-8.944-5.59-9.627a.134.134,0,0,0-.124.124V182.8H62.7a13.061,13.061,0,0,0,1.739,5.652A10.478,10.478,0,0,0,67.11,191.682Z" transform="translate(-54.688 -137.87)" fill="#d0b151"/>
                <path id="Path_703" data-name="Path 703" d="M68.972,184.5c.435.248.932.5,1.366.745a.061.061,0,0,0,.062-.062c-1.3-2.671-2.112-8.385-5.652-8.882-.062,0-.062.062-.124.124V176.3H64.5a11.743,11.743,0,0,0,1.863,5.279A9.029,9.029,0,0,0,68.972,184.5Z" transform="translate(-55.37 -135.407)" fill="#d0b151"/>
                <path id="Path_704" data-name="Path 704" d="M70.375,177.753c.435.248.87.435,1.242.683a.061.061,0,0,0,.062-.062c-1.18-2.484-1.8-7.639-5.093-8.074-.062,0-.062.062-.124.062V170.3H66.4a10.69,10.69,0,0,0,1.615,4.845A8.523,8.523,0,0,0,70.375,177.753Z" transform="translate(-56.09 -133.133)" fill="#d0b151"/>
                <path id="Path_705" data-name="Path 705" d="M82.637,146.13c.249.5.5.932.745,1.429h.124c.683-2.981,4.41-8.012,1.491-10.434h-.186l.062-.062h0L84.811,137a10.293,10.293,0,0,0-2.422,5.279A6.282,6.282,0,0,0,82.637,146.13Z" transform="translate(-62.079 -120.516)" fill="#d0b151"/>
                <path id="Path_706" data-name="Path 706" d="M77.856,155.116c.311.435.683.87.994,1.3h.124c.062-3.106,2.609-8.571-.745-10.559a.228.228,0,0,0-.186.062l.062-.062h0c-.062,0-.062-.062-.124-.062a10.236,10.236,0,0,0-1.18,5.59A6.8,6.8,0,0,0,77.856,155.116Z" transform="translate(-60.03 -123.85)" fill="#d0b151"/>
                <path id="Path_707" data-name="Path 707" d="M74.415,162.6c.373.373.745.683,1.118,1.056.062,0,.062,0,.124-.062-.373-2.857.994-8.2-2.36-9.627a.228.228,0,0,0-.186.062l.062-.062h0c-.062,0-.062,0-.124-.062a10.139,10.139,0,0,0-.124,5.279A7.051,7.051,0,0,0,74.415,162.6Z" transform="translate(-58.453 -126.919)" fill="#d0b151"/>
                <path id="Path_708" data-name="Path 708" d="M71.742,170.7c.373.373.745.683,1.118,1.056.062,0,.062,0,.124-.062-.5-2.857.559-8.261-2.733-9.627a.228.228,0,0,0-.186.062.061.061,0,0,1,.062-.062h0c-.062,0-.062,0-.124-.062a9.776,9.776,0,0,0,.124,5.341A6.519,6.519,0,0,0,71.742,170.7Z" transform="translate(-57.333 -129.989)" fill="#d0b151"/>
              </g>
              <path id="Path_709" data-name="Path 709" d="M58.836,198.39c-2.112,1.491-2.05,4.658-2.236,7.081,0,.062.062.062.062,0,.373-2.608.745-4.844,2.36-6.894C59.147,198.452,58.96,198.328,58.836,198.39Z" transform="translate(-52.377 -143.771)" fill="#f2f2b3"/>
              <path id="Path_710" data-name="Path 710" d="M61.932,206h0c-1.242,1.3-.745,3.851-.124,5.59,0,.062.124,0,.124-.062C61.559,209.789,61.248,207.615,61.932,206Z" transform="translate(-54.106 -146.66)" fill="#f2f2b3"/>
              <path id="Path_711" data-name="Path 711" d="M59.21,187.6a4.424,4.424,0,0,0-2.671,1.8,5.337,5.337,0,0,0-.745,1.863c-.248,1.056-.745,2.112-.994,3.168,0,.062.062.062.062,0,.683-2.236,1.925-5.776,4.348-6.832Z" transform="translate(-51.695 -139.689)" fill="#f2f2b3"/>
              <path id="Path_712" data-name="Path 712" d="M59.238,179.8c-2.919-.062-4.782,2.795-6.149,4.845-.062.062.062.124.062.062,1.677-1.988,3.54-4.224,6.087-4.907Z" transform="translate(-51.04 -136.733)" fill="#f2f2b3"/>
              <path id="Path_713" data-name="Path 713" d="M61.614,170.8a11.722,11.722,0,0,1-1.429.311,6.065,6.065,0,0,0-1.863,1.056,11.305,11.305,0,0,0-2.733,3.23c-.062.124.062.186.124.062a25.236,25.236,0,0,1,2.795-2.981,8.331,8.331,0,0,1,1.739-1.118,5.267,5.267,0,0,0,1.366-.559Z" transform="translate(-51.987 -133.323)" fill="#f2f2b3"/>
              <path id="Path_714" data-name="Path 714" d="M64.91,161c-2.857,0-4.845,1.925-6.335,3.913-.124.124.062.248.186.124a23.54,23.54,0,0,1,2.609-2.36,9.017,9.017,0,0,1,1.615-1.056A7.72,7.72,0,0,1,64.91,161Z" transform="translate(-53.109 -129.61)" fill="#f2f2b3"/>
              <path id="Path_715" data-name="Path 715" d="M69.116,151.4a11.033,11.033,0,0,0-1.987.124,5.861,5.861,0,0,0-1.429.621,16.51,16.51,0,0,0-3.416,2.733c-.062.062,0,.124.062.124,1.118-.745,2.174-1.553,3.23-2.36,1.056-.87,2.3-.807,3.54-1.242Z" transform="translate(-54.521 -125.972)" fill="#f2f2b3"/>
              <path id="Path_716" data-name="Path 716" d="M72.68,143.561c-2.919-1.056-6.708,1.8-8.7,3.354-.062.062,0,.124.062.062,2.484-1.553,5.4-3.727,8.633-3.416Z" transform="translate(-55.165 -122.915)" fill="#f2f2b3"/>
              <path id="Path_717" data-name="Path 717" d="M77.371,134.016a17.122,17.122,0,0,0-6.087,3.105c-.062.062,0,.124.062.062,2.547-1.491,6.956-3.975,10.124-3.105h0C80.6,133.457,78.365,133.768,77.371,134.016Z" transform="translate(-57.931 -119.271)" fill="#f2f2b3"/>
              <path id="Path_718" data-name="Path 718" d="M91.848,124.93c-2.981-1.242-7.143.373-9.689,1.863-.124.062-.062.186.062.124,2.857-1.18,6.273-2.733,9.627-1.988Z" transform="translate(-62.035 -115.775)" fill="#f2f2b3"/>
              <path id="Path_719" data-name="Path 719" d="M99.333,119.526c-2.3-1.553-6.025-.373-8.633.062h0a34.385,34.385,0,0,1,3.727-.373,13.642,13.642,0,0,1,4.782.435C99.209,119.712,99.457,119.588,99.333,119.526Z" transform="translate(-65.297 -113.6)" fill="#f2f2b3"/>
              <path id="Path_720" data-name="Path 720" d="M111.389,113.459c-2.981-1.553-6.4-.186-9.689.248h0c1.366-.124,2.795-.5,4.286-.559a16.431,16.431,0,0,1,5.279.5C111.389,113.645,111.513,113.521,111.389,113.459Z" transform="translate(-69.465 -111.322)" fill="#f2f2b3"/>
            </g>
          </g>
          <g id="Group_555" data-name="Group 555" transform="translate(0 23.048)">
            <g id="Group_554" data-name="Group 554">
              <g id="Group_553" data-name="Group 553">
                <path id="Path_721" data-name="Path 721" d="M22.763,60.746A59.573,59.573,0,0,0,10.9,68.634a81.031,81.031,0,0,1,10.434-6.211A81.538,81.538,0,0,1,40.65,56.709a66.012,66.012,0,0,1,18.2-.807c.994,0,1.988.062,2.981.124,14.844.87,27.887,8.012,40.309,15.4.373.186.621-.186.311-.435C79.779,55.094,49.159,47.455,22.763,60.746Z" transform="translate(-6.552 -46.213)" fill="#b69b4f"/>
                <path id="Path_722" data-name="Path 722" d="M130.939,79.483c-.621.435-1.18.932-1.739,1.366,0,.062.062.124.062.186,5.031.248,12.174,2.671,16.211-1.366a.471.471,0,0,0-.124-.248.217.217,0,0,1,.124.062h0c0-.062.062-.062.062-.124a20.586,20.586,0,0,0-9.006-1.366A11.565,11.565,0,0,0,130.939,79.483Z" transform="translate(-51.377 -55.322)" fill="#dcb64d"/>
                <path id="Path_723" data-name="Path 723" d="M120.477,74.022a18.49,18.49,0,0,0-1.677,1.429.217.217,0,0,0,.062.124c5.031.062,12.235,2.3,16.148-1.863a.471.471,0,0,0-.124-.248.217.217,0,0,1,.124.062h0c0-.062.062-.062.062-.124A19.748,19.748,0,0,0,126,72.345,10.7,10.7,0,0,0,120.477,74.022Z" transform="translate(-47.436 -53.154)" fill="#dcb64d"/>
                <path id="Path_724" data-name="Path 724" d="M109.315,68.944a12.42,12.42,0,0,0-1.615,1.491.217.217,0,0,0,.062.124c4.969-.062,12.3,1.863,16.024-2.422a.471.471,0,0,0-.124-.248.193.193,0,0,0,.124.062h0c0-.062.062-.062.062-.124a19.451,19.451,0,0,0-9.006-.745A11.081,11.081,0,0,0,109.315,68.944Z" transform="translate(-43.23 -51.119)" fill="#dcb64d"/>
                <path id="Path_725" data-name="Path 725" d="M96.515,63.744A12.415,12.415,0,0,0,94.9,65.235a.217.217,0,0,0,.062.124c5.031-.062,12.3,1.8,16.086-2.422,0-.062-.062-.124-.124-.248a.217.217,0,0,1,.124.062h0c0-.062.062-.062.062-.124a19.648,19.648,0,0,0-9.068-.745A10.509,10.509,0,0,0,96.515,63.744Z" transform="translate(-38.38 -49.148)" fill="#dcb64d"/>
                <path id="Path_726" data-name="Path 726" d="M133.611,55.16a15.633,15.633,0,0,1-.311-2.3.228.228,0,0,1,.186-.062c3.665,3.6,11.118,8.385,10.124,14.285-.062,0-.124.062-.248.062.062,0,.124.062.186.062h0c0,.062-.062.062-.062.124a28.93,28.93,0,0,1-6.832-6.646A13.915,13.915,0,0,1,133.611,55.16Z" transform="translate(-52.93 -45.782)" fill="#dcb64d"/>
                <path id="Path_727" data-name="Path 727" d="M119.935,48.26c-.186-.745-.311-1.553-.435-2.3a.228.228,0,0,1,.186-.062c3.727,3.478,11.428,7.888,10.621,13.85-.062.062-.124.062-.248.062.062,0,.124.062.186.062h0c0,.062,0,.062-.062.124a28.5,28.5,0,0,1-7.018-6.335A14.407,14.407,0,0,1,119.935,48.26Z" transform="translate(-47.701 -43.167)" fill="#dcb64d"/>
                <path id="Path_728" data-name="Path 728" d="M105.932,46.96c-.373-.745-.621-1.491-.932-2.236l.124-.124c4.534,2.795,12.67,5.652,13.354,11.677-.062.062-.124.124-.186.124h.186v.124a28.738,28.738,0,0,1-8.136-4.907A13.722,13.722,0,0,1,105.932,46.96Z" transform="translate(-42.207 -42.675)" fill="#dcb64d"/>
                <path id="Path_729" data-name="Path 729" d="M89.08,44.336c-.435-.683-.807-1.429-1.18-2.112,0-.062.062-.062.124-.124,4.783,2.3,13.043,4.348,14.347,10.248-.062.062-.124.124-.186.124h.186V52.6c-3.23-.745-5.652-2.236-8.509-4.037A14.328,14.328,0,0,1,89.08,44.336Z" transform="translate(-35.728 -41.727)" fill="#dcb64d"/>
                <path id="Path_730" data-name="Path 730" d="M76.156,43.425a10.515,10.515,0,0,1-1.056-1.8c0-.062.062-.062.124-.124,3.913,1.987,12.111,4.037,12.608,8.323-.062.062-.062.124-.124.124h.124v.124A23.561,23.561,0,0,1,80.441,46.9,10.839,10.839,0,0,1,76.156,43.425Z" transform="translate(-30.878 -41.5)" fill="#dcb64d"/>
                <path id="Path_731" data-name="Path 731" d="M63.9,45.6c-.5-.559-.87-1.118-1.3-1.677,0-.062.062-.062.062-.124,4.1,1.491,12.236,2.484,13.354,6.708-.062.062-.062.124-.124.186h.124v.124a22.78,22.78,0,0,1-7.639-2.174A15.434,15.434,0,0,1,63.9,45.6Z" transform="translate(-26.142 -42.371)" fill="#dcb64d"/>
                <path id="Path_732" data-name="Path 732" d="M50.291,48.415c-.559-.5-.994-.994-1.491-1.491,0-.062,0-.062.062-.124,4.161.932,12.173.87,13.85,4.969,0,.062-.062.124-.124.186.062,0,.062,0,.124-.062h0c0,.062,0,.062.062.124a22.363,22.363,0,0,1-7.7-1.18A12.048,12.048,0,0,1,50.291,48.415Z" transform="translate(-20.913 -43.508)" fill="#dcb64d"/>
                <path id="Path_733" data-name="Path 733" d="M37.691,50.953A16.2,16.2,0,0,1,36.2,49.524c0-.062,0-.062.062-.124,4.1.807,11.987.435,13.788,4.472,0,.062-.062.124-.124.186.062,0,.062,0,.124-.062h0c0,.062,0,.062.062.124a19.879,19.879,0,0,1-7.577-.932A11.55,11.55,0,0,1,37.691,50.953Z" transform="translate(-16.139 -44.493)" fill="#dcb64d"/>
                <path id="Path_734" data-name="Path 734" d="M27.153,54.091c-.559-.435-.994-.932-1.553-1.366,0-.062,0-.062.062-.124,4.037.683,11.863.062,13.664,4.037,0,.062-.062.124-.062.186.062,0,.062,0,.124-.062h0c0,.062.062.062.062.124a19.469,19.469,0,0,1-7.515-.683A12.281,12.281,0,0,1,27.153,54.091Z" transform="translate(-12.122 -45.706)" fill="#dcb64d"/>
                <path id="Path_735" data-name="Path 735" d="M18.3,60.884c-.621-.311-1.18-.621-1.8-.994v-.124c3.975-.311,11.055-2.857,13.85.559a.228.228,0,0,1-.062.186c.062,0,.062-.062.124-.062h0c0,.062.062.062.062.124a18.694,18.694,0,0,1-7.2,1.18A11.686,11.686,0,0,1,18.3,60.884Z" transform="translate(-8.674 -47.965)" fill="#dcb64d"/>
                <path id="Path_736" data-name="Path 736" d="M8.263,67.571c-.621-.186-1.242-.435-1.863-.683v-.124c3.727-.994,10.062-4.658,13.354-1.739v.186l.062-.062h0a.061.061,0,0,1,.062.062,17.653,17.653,0,0,1-6.708,2.36A10.9,10.9,0,0,1,8.263,67.571Z" transform="translate(-4.847 -49.994)" fill="#dcb64d"/>
                <path id="Path_737" data-name="Path 737" d="M5.825,77.056c-.621.062-1.242.062-1.863.124,0-.062,0-.124-.062-.124,2.795-2.236,6.708-7.95,10.745-6.584a.228.228,0,0,1,.062.186c0-.062,0-.062.062-.124h0c.062,0,.062,0,.124.062a16.309,16.309,0,0,1-4.782,4.658A10.178,10.178,0,0,1,5.825,77.056Z" transform="translate(-3.9 -52.399)" fill="#dcb64d"/>
                <path id="Path_738" data-name="Path 738" d="M18.6,75.536c0,.559.124,1.056.124,1.615.062,0,.062,0,.124.062,1.615-2.671,6.335-6.4,4.782-9.627-.062,0-.124-.062-.186-.062a.192.192,0,0,0,.124-.062h0a.061.061,0,0,0-.062-.062,11.188,11.188,0,0,0-3.727,4.41A6.974,6.974,0,0,0,18.6,75.536Z" transform="translate(-9.47 -51.314)" fill="#dcb64d"/>
                <path id="Path_739" data-name="Path 739" d="M26.4,71.836a11.809,11.809,0,0,0,.186,1.553c.062,0,.062,0,.124.062,1.553-2.609,6.211-6.4,4.534-9.565-.062,0-.124-.062-.186-.062.062,0,.062,0,.124-.062h0l-.062-.062a11.29,11.29,0,0,0-3.664,4.348A7.414,7.414,0,0,0,26.4,71.836Z" transform="translate(-12.422 -49.912)" fill="#dcb64d"/>
                <path id="Path_740" data-name="Path 740" d="M33.483,68.709a17.423,17.423,0,0,0,0,1.8c.062,0,.062.062.124.062,2.112-2.795,7.888-6.4,6.335-10.186a.228.228,0,0,0-.186-.062h.124c0-.062,0-.062-.062-.124a13.032,13.032,0,0,0-4.72,4.472A7.957,7.957,0,0,0,33.483,68.709Z" transform="translate(-15.099 -48.586)" fill="#dcb64d"/>
                <path id="Path_741" data-name="Path 741" d="M42.3,66.785a15.23,15.23,0,0,0,.124,1.677c.062,0,.062.062.124.062,1.925-2.671,7.267-6.335,5.652-9.875-.062,0-.124-.062-.186-.062.062,0,.062,0,.124-.062h0c0-.062-.062-.062-.062-.124a11.851,11.851,0,0,0-4.348,4.41A7.038,7.038,0,0,0,42.3,66.785Z" transform="translate(-18.45 -47.903)" fill="#dcb64d"/>
                <path id="Path_742" data-name="Path 742" d="M50.2,64.691c0,.5.062,1.056.062,1.553a.217.217,0,0,0,.124.062c1.8-2.422,6.832-5.652,5.4-8.882-.062,0-.124-.062-.186-.062h.124c0-.062,0-.062-.062-.062a10.628,10.628,0,0,0-4.037,3.913A5.988,5.988,0,0,0,50.2,64.691Z" transform="translate(-21.443 -47.487)" fill="#dcb64d"/>
                <path id="Path_743" data-name="Path 743" d="M87.318,61.039A12.6,12.6,0,0,0,86.2,62.468c0,.062.062.062.062.124,3.6-.932,11.18-.248,12.3-3.975,0-.062-.062-.124-.124-.186.062,0,.062.062.124.062h0v-.124a15.627,15.627,0,0,0-7.2.559A7.957,7.957,0,0,0,87.318,61.039Z" transform="translate(-35.084 -47.81)" fill="#dcb64d"/>
                <path id="Path_744" data-name="Path 744" d="M75.307,60.694c-.311.5-.5,1.056-.807,1.615,0,.062.062.062.124.124,3.292-1.491,10.621-2.112,10.993-6.025-.062-.062-.062-.124-.124-.186h.124V56.1a14.809,14.809,0,0,0-6.77,1.739A8.061,8.061,0,0,0,75.307,60.694Z" transform="translate(-30.651 -47.03)" fill="#dcb64d"/>
                <path id="Path_745" data-name="Path 745" d="M66.4,60.852c-.186.5-.311,1.056-.5,1.553,0,.062.062.062.124.062,2.733-1.8,9.192-3.354,8.944-7.018l-.124-.124h.124V55.2a13.115,13.115,0,0,0-5.776,2.546A7.039,7.039,0,0,0,66.4,60.852Z" transform="translate(-27.392 -46.691)" fill="#dcb64d"/>
                <path id="Path_746" data-name="Path 746" d="M56.535,62.425c-.186.5-.248,1.056-.435,1.615,0,.062.062.062.124.062,2.609-1.925,8.944-3.727,8.509-7.453-.062-.062-.124-.062-.186-.124h.124V56.4a13.208,13.208,0,0,0-5.59,2.795A7.489,7.489,0,0,0,56.535,62.425Z" transform="translate(-23.679 -47.146)" fill="#dcb64d"/>
              </g>
              <path id="Path_747" data-name="Path 747" d="M22.178,65.087c-2.36-1.18-4.72-.062-6.894.745-.062,0,0,.124.062.062a18.13,18.13,0,0,1,6.832-.807Z" transform="translate(-8.204 -50.243)" fill="#f2f2b3"/>
              <path id="Path_748" data-name="Path 748" d="M33.212,60.277a5.7,5.7,0,0,0-3.54-1.491,10.608,10.608,0,0,0-3.913.683c-.124,0-.062.124.062.124,1.056-.062,2.112-.186,3.105-.248a10.037,10.037,0,0,1,4.286.932C33.212,60.34,33.274,60.34,33.212,60.277Z" transform="translate(-12.157 -48.042)" fill="#f2f2b3"/>
              <path id="Path_749" data-name="Path 749" d="M42.092,56.784a12.487,12.487,0,0,0-3.043-1.863,12.521,12.521,0,0,0-4.534-.621c-.186,0-.186.186,0,.248,1.429.311,2.857.435,4.286.807a9.428,9.428,0,0,1,1.739.559c.559.248.994.683,1.553.87Z" transform="translate(-15.447 -46.35)" fill="#f2f2b3"/>
              <path id="Path_750" data-name="Path 750" d="M52.8,54.274c-1.18-2.236-4.534-3.106-6.956-2.981-.124,0-.124.124,0,.124,2.3.311,5.466.994,6.956,2.857Z" transform="translate(-19.757 -45.206)" fill="#f2f2b3"/>
              <path id="Path_751" data-name="Path 751" d="M65.75,52.53c-.621-2.236-4.845-2.919-6.894-3.23-.062,0-.124.062,0,.124,2.112.5,5.528,1.366,6.77,3.168C65.688,52.592,65.75,52.592,65.75,52.53Z" transform="translate(-24.696 -44.455)" fill="#f2f2b3"/>
              <path id="Path_752" data-name="Path 752" d="M78.409,51.372c-.683-2.671-5.341-4.037-7.888-4.472-.124,0-.186.124-.062.124,2.422.807,6.77,1.988,7.95,4.348Z" transform="translate(-29.094 -43.546)" fill="#f2f2b3"/>
              <path id="Path_753" data-name="Path 753" d="M95,54.4h0" transform="translate(-38.418 -46.388)" fill="#f2f2b3"/>
              <path id="Path_754" data-name="Path 754" d="M90.528,51.185c-.559-2.36-3.851-4.286-6.335-5.093-.124-.062-.248.124-.124.186,2.484,1.242,5.093,2.733,6.459,4.907Z" transform="translate(-34.257 -43.235)" fill="#f2f2b3"/>
              <path id="Path_755" data-name="Path 755" d="M105.422,53.973a11.3,11.3,0,0,0-7.7-6.584c-.124-.062-.186.062-.062.124a27.46,27.46,0,0,1,4.782,3.105c1.242.994,1.863,2.3,2.981,3.354Z" transform="translate(-39.4 -43.725)" fill="#f2f2b3"/>
              <path id="Path_756" data-name="Path 756" d="M120.98,57.694c-.311-3.478-3.913-5.155-7.08-6.894h0c1.242.87,2.484,1.739,3.727,2.671a10.835,10.835,0,0,1,3.105,4.223C120.732,57.818,120.98,57.818,120.98,57.694Z" transform="translate(-45.58 -45.024)" fill="#f2f2b3"/>
              <path id="Path_757" data-name="Path 757" d="M132.731,61.353a5.085,5.085,0,0,0-.807-3.105A21.482,21.482,0,0,0,127.7,53.9h0a26.989,26.989,0,0,1,3.54,3.975c.87,1.18.87,2.236,1.3,3.478C132.544,61.415,132.731,61.477,132.731,61.353Z" transform="translate(-50.808 -46.198)" fill="#f2f2b3"/>
              <path id="Path_758" data-name="Path 758" d="M146.269,69.467c.435-2.857-1.988-5.155-4.286-7.267h0c.807.994,1.615,1.988,2.36,3.043.994,1.429,1.056,2.671,1.615,4.161C146.02,69.591,146.269,69.653,146.269,69.467Z" transform="translate(-56.21 -49.343)" fill="#f2f2b3"/>
            </g>
            <path id="Path_759" data-name="Path 759" d="M174.271,117.313c0-4.223.062-8.571-.932-12.733A42.494,42.494,0,0,0,168.247,92.9a47.574,47.574,0,0,0-18.384-17.2.061.061,0,0,0-.062.062A56.98,56.98,0,0,1,167,93.65a47.488,47.488,0,0,1,4.969,11.366c1.18,4.223,1.118,8.82,1.18,13.167.062,8.82-2.174,16.956-5.59,25.03-1.739,4.1-3.6,8.2-5.528,12.236a46.441,46.441,0,0,1-7.577,10.807c-.248.311.062.621.373.373a37.984,37.984,0,0,0,7.764-10c2.05-4.037,3.913-8.261,5.714-12.484A65.736,65.736,0,0,0,174.271,117.313Z" transform="translate(-59.182 -54.458)" fill="#91704d"/>
          </g>
          <g id="Group_559" data-name="Group 559" transform="translate(94.699)">
            <g id="Group_557" data-name="Group 557">
              <g id="Group_556" data-name="Group 556">
                <path id="Path_760" data-name="Path 760" d="M162.227,15.792c-1.739-1.18-3.664-2.174-5.279-3.23-.062,0-.186-.062-.248-.062a.267.267,0,0,0-.248.248c-.435,1.366.994,2.919,1.925,3.789a13.5,13.5,0,0,0,4.969,2.919c.559.124,1.987.062,2.422.435a.228.228,0,0,0,.186.062C164.836,18.649,163.594,17.1,162.227,15.792Z" transform="translate(-156.371 -7.464)" fill="#dcb64d"/>
                <path id="Path_761" data-name="Path 761" d="M171.99,10.235a18.68,18.68,0,0,0-1.3-3.54,6.469,6.469,0,0,0-1.18-2.236.307.307,0,0,0-.435.062c-1.18.994-1.056,3.851-.994,5.217a10.664,10.664,0,0,0,1.8,5.155,6.023,6.023,0,0,0,1.428,2.36.343.343,0,0,0,.5-.186A12.171,12.171,0,0,0,171.99,10.235Z" transform="translate(-160.792 -4.391)" fill="#dcb64d"/>
                <path id="Path_762" data-name="Path 762" d="M168.377,26.49a5.138,5.138,0,0,0-3.105-1.553,12.369,12.369,0,0,0-8.7-.248c-.124.062-.311.311-.124.435a8.34,8.34,0,0,0,4.72,2.609,17.3,17.3,0,0,0,3.106.062c1.18,0,2.609-.87,3.789-.683A.376.376,0,0,0,168.377,26.49Z" transform="translate(-156.372 -11.827)" fill="#dcb64d"/>
                <path id="Path_763" data-name="Path 763" d="M180.154,15.643a.409.409,0,0,0-.745-.248c-1.739,1.739-2.174,4.72-2.112,7.08a7.781,7.781,0,0,0,.745,3.354c.062.124.124.87.435,1.056a.4.4,0,0,0,.559-.124,11.941,11.941,0,0,0,1.366-4.6C180.713,19.867,180.216,17.941,180.154,15.643Z" transform="translate(-164.297 -8.495)" fill="#dcb64d"/>
                <path id="Path_764" data-name="Path 764" d="M172.695,34.41a7.59,7.59,0,0,0-2.547-1.553c-2.981-1.615-7.453-1.553-10.31-1.118-.248.062-.559.311-.373.621.932,1.553,3.851,2.484,5.528,2.919a15.14,15.14,0,0,0,7.453-.062A.523.523,0,0,0,172.695,34.41Z" transform="translate(-157.522 -14.653)" fill="#dcb64d"/>
                <path id="Path_765" data-name="Path 765" d="M185.43,26.887c-.062-.5-.683-.373-.932-.186-2.174,1.925-3.851,6.77-2.422,9.5.062.5.31.932.745.994.932.124,2.05-2.3,2.236-2.919C185.927,31.98,185.617,29.247,185.43,26.887Z" transform="translate(-165.91 -12.782)" fill="#dcb64d"/>
                <path id="Path_766" data-name="Path 766" d="M177.93,43.309c0-.062-.062-.062-.062-.124a.393.393,0,0,0-.559-.062h-.062a6.141,6.141,0,0,0-3.851-3.478c-1.242-.373-5.279-1.366-6.459-.186-.932.994.807,1.988,1.491,2.422,2.857,1.8,5.652,1.739,8.944,2.112C177.681,43.992,178.178,43.62,177.93,43.309Z" transform="translate(-160.272 -17.466)" fill="#dcb64d"/>
                <path id="Path_767" data-name="Path 767" d="M189.034,36.4c0-.373-.5-.373-.745-.248-1.8,1.056-2.546,3.6-2.857,5.528a11.013,11.013,0,0,0,.062,3.478,2.041,2.041,0,0,0,.435.994.284.284,0,0,0,.249.311l.124.124a.277.277,0,0,0,.311,0c1.18-.807,1.553-2.671,1.925-3.975A18.855,18.855,0,0,0,189.034,36.4Z" transform="translate(-167.339 -16.398)" fill="#dcb64d"/>
                <path id="Path_768" data-name="Path 768" d="M180.593,53.511c-.124-.062-.186-.124-.31-.186-.373-4.658-6.584-5.714-10.5-5.279-.248,0-.5.373-.248.559a26.139,26.139,0,0,0,4.72,3.168c1.863.932,3.975,1.429,5.9,2.236,0,.124.062.186.062.311,0,.062.124,0,.124,0v-.186C180.655,54.132,180.965,53.635,180.593,53.511Z" transform="translate(-161.321 -20.898)" fill="#dcb64d"/>
                <path id="Path_769" data-name="Path 769" d="M193.29,49.1c-.062-.373-.5-.373-.745-.248-2.981,1.863-4.037,5.528-3.789,8.82a7.54,7.54,0,0,0,0,2.05c.062.373.5.186.621,0C191.551,56.8,193.787,52.954,193.29,49.1Z" transform="translate(-168.615 -21.21)" fill="#dcb64d"/>
                <path id="Path_770" data-name="Path 770" d="M181.862,63.47a6.938,6.938,0,0,0-2.981-4.286A15.21,15.21,0,0,0,171.49,56.7c-.186,0-.435.311-.31.435a10.694,10.694,0,0,0,4.472,3.478c1.863.87,4.658,1.3,6.025,3.043a3.594,3.594,0,0,1,.31.87c0,.062.124,0,.124-.062V64.4a.061.061,0,0,0,.062.062c.062.124.249,0,.186-.062A4.433,4.433,0,0,0,181.862,63.47Z" transform="translate(-161.969 -24.211)" fill="#dcb64d"/>
                <path id="Path_771" data-name="Path 771" d="M195.849,59.265a.385.385,0,0,0-.621-.311A12.237,12.237,0,0,0,191,63.8a9.828,9.828,0,0,0-1.242,4.658v.124c0,.124-.062.186-.062.311v1.242c0,.248.248.248.373.124C193.24,67.153,195.911,63.923,195.849,59.265Z" transform="translate(-168.999 -25.037)" fill="#dcb64d"/>
                <path id="Path_772" data-name="Path 772" d="M183.084,74.368c-.186-.373-.373-.683-.559-1.056-.994-4.6-5.838-5.962-10.186-7.018-.186-.062-.311.186-.248.311,1.739,4.845,7.267,4.534,10.5,7.577h0c.124.062.186.186.311.248C182.959,74.617,183.146,74.492,183.084,74.368Z" transform="translate(-162.321 -27.843)" fill="#dcb64d"/>
                <path id="Path_773" data-name="Path 773" d="M196.051,70.08a11.506,11.506,0,0,0-4.845,3.913c-.807,1.056-1.553,3.789-.869,5.155v.311c0,.248.311.186.373,0,.808-1.8,2.609-3.106,3.664-4.782a18.334,18.334,0,0,0,2.112-4.286C196.547,70.2,196.361,69.955,196.051,70.08Z" transform="translate(-169.139 -29.268)" fill="#dcb64d"/>
                <path id="Path_774" data-name="Path 774" d="M184.072,83.639c-.062-.124-.124-.186-.124-.311-.186-2.236-1.429-3.478-3.354-4.658a26.3,26.3,0,0,0-4.286-1.863c-.621-.186-1.3-.621-1.988-.435-.062,0-.124.124-.124.186-.124,1.615,2.174,3.6,3.292,4.472,1.863,1.429,4.969.932,6.4,2.795C183.948,83.888,184.134,83.7,184.072,83.639Z" transform="translate(-163.123 -31.648)" fill="#dcb64d"/>
                <path id="Path_775" data-name="Path 775" d="M196.093,80.5c-1.429-.062-3.105,1.925-3.913,2.857-1.056,1.366-2.174,3.292-1.677,5.093-.062.062-.062.124-.124.186-.124.186.124.248.248.124.5-.745,1.491-1.056,2.112-1.615a14.736,14.736,0,0,0,1.553-1.8,12.318,12.318,0,0,0,1.18-1.925c.373-.87.373-1.8.683-2.671C196.218,80.623,196.218,80.5,196.093,80.5Z" transform="translate(-169.244 -33.228)" fill="#dcb64d"/>
                <path id="Path_776" data-name="Path 776" d="M182.88,92.083c-.124-.186-.248-.311-.373-.5-1.056-5.217-6.894-5.279-11.18-6.894-.124-.062-.373.124-.248.248a12.768,12.768,0,0,0,3.975,3.54c2.3,1.366,5.59,1.3,7.329,3.478,0,.062.062.124.062.248,0,.062.062.062.062,0l.062.062A.189.189,0,0,0,182.88,92.083Z" transform="translate(-161.931 -34.813)" fill="#dcb64d"/>
                <path id="Path_777" data-name="Path 777" d="M195.449,90.083c-2.671,1.118-6.273,4.782-5.963,8.136l-.186,1.118a.133.133,0,0,0,.249.062c.994-1.242,2.36-2.05,3.354-3.354,1.3-1.677,1.8-3.789,2.857-5.528C195.884,90.269,195.759,89.959,195.449,90.083Z" transform="translate(-168.848 -36.849)" fill="#dcb64d"/>
                <path id="Path_778" data-name="Path 778" d="M182.638,101.121c-.062-.062-.186-.124-.248-.186a6.459,6.459,0,0,0-2.795-5.031,10.208,10.208,0,0,0-3.168-1.366c-.745-.248-2.484-.994-3.292-.683-1.056.373,1.3,2.857,1.615,3.168,2.112,2.36,4.969,2.546,7.515,4.037.062.248.062.5.124.745,0,.062.124.062.124,0a2.115,2.115,0,0,0-.062-.621c.062.062.124.062.186.124C182.638,101.246,182.7,101.183,182.638,101.121Z" transform="translate(-162.621 -38.261)" fill="#dcb64d"/>
                <path id="Path_779" data-name="Path 779" d="M195.918,97.7c-2.236.124-4.348,3.168-5.279,4.907a16.277,16.277,0,0,0-1.863,5.4,5.077,5.077,0,0,0,.062,1.677c0,.124.186.062.186,0,1.242-1.925,2.919-3.478,4.037-5.466,1.18-1.987,1.926-4.223,3.044-6.211C196.228,97.886,196.166,97.7,195.918,97.7Z" transform="translate(-168.633 -39.746)" fill="#dcb64d"/>
                <path id="Path_780" data-name="Path 780" d="M180.6,106.037c-1.18-1.491-3.789-3.727-5.714-4.037a.165.165,0,0,0-.186.186,17.406,17.406,0,0,0,2.484,4.907c1.3,1.987,3.478,2.484,5.031,4.037h0a9.861,9.861,0,0,0,.435,1.242c0,.062.062,0,.062-.062C182.464,109.888,182.153,107.963,180.6,106.037Z" transform="translate(-163.316 -41.376)" fill="#dcb64d"/>
                <path id="Path_781" data-name="Path 781" d="M194.723,110.1c-3.106.683-5.4,3.727-6.584,6.956a.061.061,0,0,0-.062.062,12.126,12.126,0,0,0-1.18,4.907c0,.311.311.248.5.062,1.3-1.739,3.043-3.23,4.286-5.031a19.049,19.049,0,0,0,1.428-2.422,14.587,14.587,0,0,1,1.863-3.975C195.1,110.532,195.034,110.035,194.723,110.1Z" transform="translate(-167.936 -44.441)" fill="#dcb64d"/>
                <path id="Path_782" data-name="Path 782" d="M181.859,122.285c.186-1.553-.932-3.6-1.677-4.782a12.019,12.019,0,0,0-4.534-3.913.183.183,0,0,0-.248.124c-.559,1.3.435,3.54,1.056,4.782,1.18,2.174,3.975,2.919,5.4,4.907.062.062.124,0,.124-.062A6.924,6.924,0,0,1,181.859,122.285Z" transform="translate(-163.518 -45.761)" fill="#dcb64d"/>
              </g>
              <path id="Path_783" data-name="Path 783" d="M178.046,67.818a112.363,112.363,0,0,0-.932-15.838,53.6,53.6,0,0,0-3.478-14.72c-1.8-4.286-3.913-9.068-7.267-12.36a.061.061,0,0,0-.062.062c3.23,3.478,5.093,8.323,6.832,12.608,2.05,4.969,2.484,10.372,3.043,15.652,1.056,10.869.249,21.428-1.3,32.173a247.031,247.031,0,0,1-7.143,32.111c-1.491,5.093-3.043,10.124-4.969,15.093-1.987,4.969-4.348,9.751-6.273,14.658-.062.124.186.186.248.062,2.174-4.6,4.534-9.13,6.584-13.85a140.837,140.837,0,0,0,5.59-15.838,216.987,216.987,0,0,0,7.515-33.291A147.247,147.247,0,0,0,178.046,67.818Z" transform="translate(-156.414 -12.162)" fill="#91704d"/>
            </g>
            <g id="Group_558" data-name="Group 558" transform="translate(0.425 1.186)">
              <path id="Path_784" data-name="Path 784" d="M195.149,110.8c-3.478,1.925-4.845,4.534-6.149,8.136,0,.062.062.062.062,0a28.761,28.761,0,0,1,2.112-4.41,12.043,12.043,0,0,1,3.975-3.727Z" transform="translate(-169.159 -45.896)" fill="#f2f2b3"/>
              <path id="Path_785" data-name="Path 785" d="M179.451,117.157a8.488,8.488,0,0,0-1.429-1.553c-.559-.435-1.18-.807-1.739-1.3h0a23.126,23.126,0,0,1,2.857,2.671,17.47,17.47,0,0,1,2.422,3.975h.062A16.258,16.258,0,0,0,179.451,117.157Z" transform="translate(-164.331 -47.222)" fill="#f2f2b3"/>
              <path id="Path_786" data-name="Path 786" d="M181.838,108.441a10.3,10.3,0,0,0-2.112-3.043,27.885,27.885,0,0,0-3.043-2.3h0c.807.683,1.615,1.18,2.36,1.925a23.554,23.554,0,0,1,2.671,3.478C181.776,108.566,181.838,108.5,181.838,108.441Z" transform="translate(-164.482 -42.978)" fill="#f2f2b3"/>
              <path id="Path_787" data-name="Path 787" d="M180.529,97.368a9.644,9.644,0,0,0-2.981-2.236,24.358,24.358,0,0,0-3.665-.932s-.062,0,0,.062c.994.5,2.05.559,3.044.994a14.653,14.653,0,0,1,3.54,2.174C180.529,97.492,180.591,97.368,180.529,97.368Z" transform="translate(-163.421 -39.606)" fill="#f2f2b3"/>
              <path id="Path_788" data-name="Path 788" d="M180.267,88.63c-2.174-1.615-4.969-1.863-7.267-3.23h0c2.05,1.553,4.845,2.112,7.143,3.354C180.2,88.816,180.329,88.692,180.267,88.63Z" transform="translate(-163.097 -36.271)" fill="#f2f2b3"/>
              <path id="Path_789" data-name="Path 789" d="M181.287,79.83a12.571,12.571,0,0,0-2.857-1.863A29.594,29.594,0,0,1,175.2,76.6h0a9.263,9.263,0,0,0,2.671,1.429,21.716,21.716,0,0,1,3.354,1.8C181.287,79.954,181.349,79.892,181.287,79.83Z" transform="translate(-163.931 -32.937)" fill="#f2f2b3"/>
              <path id="Path_790" data-name="Path 790" d="M179.877,69.83a28.133,28.133,0,0,0-2.857-1.863c-1.3-.683-2.733-.807-4.037-1.366,0,0-.062,0,0,.062a17.83,17.83,0,0,0,3.416,1.366,22.662,22.662,0,0,1,3.416,1.863C179.877,69.954,179.939,69.892,179.877,69.83Z" transform="translate(-163.08 -29.148)" fill="#f2f2b3"/>
              <path id="Path_791" data-name="Path 791" d="M178.953,59.709a11.89,11.89,0,0,0-6.77-2.609s-.062.062,0,.062c1.118.373,2.236.5,3.354.87a12.011,12.011,0,0,1,3.416,1.8C178.891,59.833,179.015,59.771,178.953,59.709Z" transform="translate(-162.777 -25.548)" fill="#f2f2b3"/>
              <path id="Path_792" data-name="Path 792" d="M177.37,49.881c-1.925-1.491-4.472-1.553-6.77-1.491h0c.994.186,2.05.124,3.043.311a19.6,19.6,0,0,1,3.664,1.242C177.308,50.068,177.432,49.943,177.37,49.881Z" transform="translate(-162.188 -22.243)" fill="#f2f2b3"/>
              <path id="Path_793" data-name="Path 793" d="M173.714,40.617A10,10,0,0,0,168,40v.062a21.984,21.984,0,0,1,2.857.124c.932.124,1.8.5,2.733.683C173.714,40.865,173.838,40.679,173.714,40.617Z" transform="translate(-161.202 -19.003)" fill="#f2f2b3"/>
              <path id="Path_794" data-name="Path 794" d="M166.832,32.452A19.4,19.4,0,0,0,160,32.265h0a61.026,61.026,0,0,1,6.77.311C166.832,32.576,166.894,32.452,166.832,32.452Z" transform="translate(-158.171 -16.055)" fill="#f2f2b3"/>
              <path id="Path_795" data-name="Path 795" d="M162.207,25c-1.491-.124-3.54-.435-4.907.311v.062c1.491-.621,3.354-.062,4.907-.186C162.269,25.12,162.331,25,162.207,25Z" transform="translate(-157.148 -13.319)" fill="#f2f2b3"/>
              <path id="Path_796" data-name="Path 796" d="M160.065,17.627a17.1,17.1,0,0,1-2.981-3.727h0a7.374,7.374,0,0,0,2.857,3.851C160.065,17.813,160.127,17.689,160.065,17.627Z" transform="translate(-157.056 -9.18)" fill="#f2f2b3"/>
              <path id="Path_797" data-name="Path 797" d="M169.415,6.3h0c-.807,1.925-.435,3.913.124,5.838.062.124.186.062.186-.062C169.353,10.151,168.856,8.288,169.415,6.3Z" transform="translate(-161.562 -6.3)" fill="#f2f2b3"/>
              <path id="Path_798" data-name="Path 798" d="M179.535,16.8c-.621.373-.745,1.242-.994,1.863a7.341,7.341,0,0,0-.311,3.664c.062.186.311.062.311-.062l.186-2.422a6.748,6.748,0,0,1,.807-3.043Z" transform="translate(-165.036 -10.278)" fill="#f2f2b3"/>
              <path id="Path_799" data-name="Path 799" d="M184.712,28.9a3.605,3.605,0,0,0-1.18,1.677,10.943,10.943,0,0,0-.932,3.975.093.093,0,0,0,.186,0c.248-.932.373-1.925.621-2.857a6.092,6.092,0,0,1,1.3-2.795Z" transform="translate(-166.734 -14.863)" fill="#f2f2b3"/>
              <path id="Path_800" data-name="Path 800" d="M188.164,38.9a9.577,9.577,0,0,0-1.366,5.031c0,.124.186.062.186-.062a19.965,19.965,0,0,1,1.18-4.969Z" transform="translate(-168.323 -18.652)" fill="#f2f2b3"/>
              <path id="Path_801" data-name="Path 801" d="M192.38,51.3a8.4,8.4,0,0,0-1.987,3.913c-.062.124.124.124.186,0a22.344,22.344,0,0,1,1.8-3.913Z" transform="translate(-169.682 -23.351)" fill="#f2f2b3"/>
              <path id="Path_802" data-name="Path 802" d="M193.66,62.8a8.217,8.217,0,0,0-2.36,4.6c0,.124.186.124.248,0a16.209,16.209,0,0,1,2.112-4.6Z" transform="translate(-170.031 -27.708)" fill="#f2f2b3"/>
              <path id="Path_803" data-name="Path 803" d="M195.074,72.8a5.677,5.677,0,0,0-2.174,3.043c0,.124.124.124.186.062.248-.559.5-1.118.807-1.677a11.963,11.963,0,0,1,1.18-1.429Z" transform="translate(-170.637 -31.497)" fill="#f2f2b3"/>
              <path id="Path_804" data-name="Path 804" d="M194.321,84.283a7.332,7.332,0,0,0-1.429,1.987c-.062.124.124.124.124,0a13.688,13.688,0,0,1,1.3-1.987C194.445,84.283,194.383,84.221,194.321,84.283Z" transform="translate(-170.629 -35.838)" fill="#f2f2b3"/>
              <path id="Path_805" data-name="Path 805" d="M193.977,94.1a3.348,3.348,0,0,0-.87.994,3.963,3.963,0,0,0-.807,1.615c0,.124.124.062.186,0a9.344,9.344,0,0,1,.683-1.366,8.541,8.541,0,0,1,.808-1.242Z" transform="translate(-170.41 -39.568)" fill="#f2f2b3"/>
              <path id="Path_806" data-name="Path 806" d="M194.418,101.383a6.29,6.29,0,0,0-1.925,2.671c-.062.124.124.124.186.062a12.384,12.384,0,0,1,.621-1.3c.311-.559.807-.932,1.118-1.429C194.48,101.383,194.48,101.321,194.418,101.383Z" transform="translate(-170.478 -42.317)" fill="#f2f2b3"/>
            </g>
          </g>
        </g>
        <g id="Group_564" data-name="Group 564" transform="translate(87.761 50.563)">
          <g id="Group_563" data-name="Group 563">
            <path id="Path_811" data-name="Path 811" d="M160.79,123.066a71.759,71.759,0,0,0-4.658-18.26c-2.609-6.459-6.025-13.6-10.931-19.006,5.9,14.906,6.894,30.558,6.087,46.52-.745,14.534-1.118,29.067.062,43.477.683-2.671,1.3-5.4,1.987-8.074,1.925-7.515,4.348-14.968,5.776-22.546A89,89,0,0,0,160.79,123.066Z" transform="translate(-145.2 -85.8)" fill="#b8d36b"/>
            <path id="Path_812" data-name="Path 812" d="M161.85,124.316a71.754,71.754,0,0,0-4.658-18.26c-2.3-5.652-5.217-11.863-9.192-16.956a90.794,90.794,0,0,1,9.813,41.862c0,14.1-4.348,27.949-5.776,41.924.062,1.366.186,2.733.311,4.1.683-2.671,1.3-5.4,1.987-8.074,1.925-7.515,4.348-14.968,5.776-22.546A85.512,85.512,0,0,0,161.85,124.316Z" transform="translate(-146.261 -87.05)" fill="#48b084"/>
          </g>
          <path id="Path_813" data-name="Path 813" d="M157.045,127.359c.124-4.907-.932-9.938-1.739-14.782-.683-3.975-1.056-8.074-3.043-11.677H152.2c1.8,3.789,1.863,7.888,2.236,11.925a121.247,121.247,0,0,1,.435,17.763c-.186,4.472.248,9.006-.311,13.416a124.3,124.3,0,0,0-.621,15.962c0,.435.621.311.621-.062a140.2,140.2,0,0,1,1.863-16.086C157.355,138.476,156.858,132.762,157.045,127.359Z" transform="translate(-147.852 -91.521)" fill="#b8d36b"/>
        </g>
      </g>
    </g>
    <g id="Group_571" data-name="Group 571" transform="translate(51.698 90.615)">
      <path id="Path_815" data-name="Path 815" d="M153.614,214.261a8.837,8.837,0,0,0-3.6.186,54.736,54.736,0,0,1-7.764.745c-1.242.062-2.422.062-3.664.124-.87.062-1.739-.062-2.547-.062a26.637,26.637,0,0,0,5.4-1.429.341.341,0,0,0,.186-.31,18.093,18.093,0,0,1-4.845.932,13.75,13.75,0,0,1-1.553.311,55,55,0,0,1-6.335.745,110.484,110.484,0,0,1-13.6.186c-4.348-.248-8.757-.559-13.105-1.118a49.36,49.36,0,0,1-6.025-1.242c-1.056-.311-4.223-1.056-4.161-2.546,0-.124-.186-.062-.186,0-.124,1.18,1.3,1.8,2.174,2.236a18.156,18.156,0,0,0,3.23,1.18.787.787,0,0,1-.373-.062,17.483,17.483,0,0,0-4.037-.435c-2.3.062-4.41.807-6.646,1.18-.87.124-4.161.745-4.472-.559-.124-.559.621-1.056,1.118-1.429l.062-.062c.062-.062.186-.124.248-.248a1.338,1.338,0,0,0,.311-.994c0,.062.062.186.062.248s0,.062.062.124a7.961,7.961,0,0,0,.311-1.677c-.435-1.988-.932-4.037-1.242-6.025a57.245,57.245,0,0,1-.559-8.012A104.873,104.873,0,0,1,83,179.729a90.763,90.763,0,0,1,3.6-15.776c.87-2.609,1.677-5.155,2.36-7.826a38.465,38.465,0,0,0,.994-4.472,9.482,9.482,0,0,0-.186-1.863v.683c-.87-.745-2.3-1.118-1.3-2.546a1.971,1.971,0,0,1,3.043-.311,1.653,1.653,0,0,0,.621.373c.745.124,1.491.311,2.3.435a14.608,14.608,0,0,0,5.341-1.491c1.366-.311,2.733-.621,4.037-.932a79.555,79.555,0,0,1,14.844-1.863,116.985,116.985,0,0,1,15.465.435c4.782.435,9.5,1.3,14.285,1.863a.061.061,0,0,1-.062.062,5.071,5.071,0,0,1-2.547.124c-.062,0-.124,0-.124.062a3.678,3.678,0,0,0,1.18.311h.621a16.42,16.42,0,0,0,3.478-.683c.124,0,.186-.186.186-.248.745-.249,2.546-.745,2.857.31.311,1.118-1.18,1.8-2.174,2.609a3.041,3.041,0,0,0-.807.745,4.835,4.835,0,0,0,.248-1.3c-.124.373-.373.683-.5.994a3.331,3.331,0,0,0-.311.683,7.225,7.225,0,0,0-.248,1.118,23.414,23.414,0,0,0-.248,3.6c-.186,2.733-.435,5.466-.5,8.261a77.332,77.332,0,0,0,1.18,16.521c.994,5.341,2.484,10.621,3.354,15.962a52.147,52.147,0,0,1,.683,8.2,25.144,25.144,0,0,1-.5,5.217c-.062-.124-.124-.124-.248-.062a5.847,5.847,0,0,1-.186,2.733.277.277,0,0,0,.248-.186V211.4a14.905,14.905,0,0,0,1.3,1.925,3.373,3.373,0,0,1,.559.932C155.726,214.7,153.863,214.324,153.614,214.261Z" transform="translate(-81.168 -143.529)" fill="url(#radial-gradient)"/>
      <path id="Path_816" data-name="Path 816" d="M155.413,214.061a2.086,2.086,0,0,0-.559-.932,14.888,14.888,0,0,1-1.3-1.925v.062a.333.333,0,0,1-.248.186,6.8,6.8,0,0,0,.186-2.733c.124-.062.186,0,.248.062a30.242,30.242,0,0,0,.5-5.217,45.19,45.19,0,0,0-.683-8.2c-.87-5.4-2.36-10.621-3.354-15.962a86.3,86.3,0,0,1-1.18-16.521c.062-2.733.311-5.528.5-8.261a35.109,35.109,0,0,1,.248-3.6c.062-.373.186-.745.248-1.118a3.327,3.327,0,0,0,.311-.683,7.426,7.426,0,0,0,.5-.994,9.648,9.648,0,0,1-.248,1.3,2.325,2.325,0,0,1,.807-.745c.994-.808,2.484-1.428,2.174-2.609-.311-1.056-2.112-.559-2.857-.311.062.062-.062.249-.186.249a16.424,16.424,0,0,1-3.478.683h-.621a3.672,3.672,0,0,1-1.18-.311c0-.062.062-.062.124-.062.559.311,1.863,0,2.546-.124a.061.061,0,0,1,.062-.062c-4.782-.559-9.5-1.491-14.285-1.863a116.671,116.671,0,0,0-15.465-.435,91.517,91.517,0,0,0-14.844,1.863c-.994.249-2.05.435-3.043.683a15.406,15.406,0,0,0,3.292-.5,60.52,60.52,0,0,1,8.757-1.18c4.1-.248,8.261-.31,12.36-.31,1.863,0,3.727.124,5.59.186a9.452,9.452,0,0,1,4.348.932.234.234,0,0,1,.062.373c-2.05,1.366-4.969.683-7.267.559-3.168-.186-6.4-.124-9.627-.124a61.286,61.286,0,0,0-8.261.373,15.744,15.744,0,0,0-6.894,2.36c4.223.932,8.633-1.18,12.795-1.429a48.268,48.268,0,0,1,14.658,1.056c3.913.994,7.577,2.795,10,6.149a19.949,19.949,0,0,1,3.416,9.316,45.707,45.707,0,0,1,.373,5.031.217.217,0,0,1,.062.124c.621,4.845.683,9.751,1.988,14.471a51.405,51.405,0,0,1,2.36,11.366,14.335,14.335,0,0,1-3.168,10.31,20.639,20.639,0,0,1-8.385,5.528,43.234,43.234,0,0,1-12.236,2.422,69.194,69.194,0,0,1-14.782-.621c-4.845-.745-9.938-1.988-14.161-4.6-3.913-2.422-6.087-6.273-8.509-10.062-.559,2.8.745,5.4,1.118,8.074,0,.186-.248.124-.311.124-2.547-1.615-3.6-5.155-4.658-7.826a45.667,45.667,0,0,1-1.677-4.907v2.422a57.241,57.241,0,0,0,.559,8.012c.311,2.05.87,4.037,1.242,6.025a5.325,5.325,0,0,1-.311,1.677.217.217,0,0,1-.062-.124c0-.062-.062-.186-.062-.248a1.035,1.035,0,0,1-.311.994l-.248.248-.062.062c-.5.373-1.242.87-1.118,1.429.311,1.3,3.6.683,4.472.559,2.236-.31,4.348-1.056,6.646-1.18a17.854,17.854,0,0,1,4.037.435c.124,0,.248.062.373.062a14.33,14.33,0,0,1-3.23-1.18c-.87-.435-2.3-1.056-2.174-2.236a.093.093,0,1,1,.186,0c-.062,1.49,3.105,2.3,4.161,2.546a39.879,39.879,0,0,0,6.025,1.242c4.348.621,8.757.932,13.105,1.118a124.229,124.229,0,0,0,13.6-.186,53.424,53.424,0,0,0,6.335-.745c.5-.124,1.056-.186,1.553-.31a21.547,21.547,0,0,0,4.845-.932c0,.124-.062.31-.186.31a26.617,26.617,0,0,1-5.4,1.429,17.42,17.42,0,0,0,2.546.062c1.242-.062,2.422-.062,3.664-.124a53.857,53.857,0,0,0,7.764-.745,8.829,8.829,0,0,1,3.6-.186C153.673,214.248,155.537,214.62,155.413,214.061Z" transform="translate(-80.978 -143.453)" opacity="0.4" fill="url(#radial-gradient-2)"/>
      <path id="Path_817" data-name="Path 817" d="M97.215,152.469c-.062,0-.062-.062-.124-.062a.217.217,0,0,1,.062-.124,6.125,6.125,0,0,0,1.491-.186c.062,0,.124,0,.124.062s0,.124-.062.124a6.524,6.524,0,0,1-1.491.186Zm-1.553-.062h0a4.5,4.5,0,0,1-1.491-.559c-.062-.062-.062-.062,0-.124s.062-.062.124,0a3.807,3.807,0,0,0,1.366.5c.062,0,.062.062.062.124C95.786,152.345,95.724,152.407,95.662,152.407Zm4.472-.435c-.062,0-.062,0-.062-.062s0-.124.062-.124c.124-.062.248-.062.311-.124a11.668,11.668,0,0,1,1.118-.373c.062,0,.124,0,.124.062s0,.124-.062.124l-1.118.373a2.584,2.584,0,0,1-.373.124Zm54.656-.124h0s-.373-.062-.932-.186c-.062,0-.062-.062-.062-.124s.062-.062.124-.062c.559.124.932.186.932.186.062,0,.062.062.062.124S154.853,151.848,154.791,151.848Zm-2.36-.5h0c-.435-.062-.932-.186-1.491-.311-.062,0-.062-.062-.062-.124s.062-.062.124-.062c.559.124,1.056.186,1.491.311.062,0,.062.062.062.124A.192.192,0,0,1,152.43,151.351Zm-49.377-.248c-.062,0-.062,0-.062-.062s0-.124.062-.124q.652-.186,1.491-.373c.062,0,.124,0,.124.062s0,.124-.062.124a6.3,6.3,0,0,0-1.553.373Zm46.4-.311h0a12.7,12.7,0,0,1-1.491-.311c-.062,0-.062-.062-.062-.124s.062-.062.124-.062c.5.124.994.186,1.491.311.062,0,.062.062.062.124C149.511,150.73,149.511,150.792,149.449,150.792Zm-43.477-.5c-.062,0-.062,0-.062-.062s0-.124.062-.124l1.491-.373c.062,0,.124,0,.124.062s0,.124-.062.124c-.559.124-1.056.248-1.553.373Zm40.5-.062h0c-.5-.062-.994-.186-1.491-.248-.062,0-.062-.062-.062-.124s.062-.062.124-.062c.5.062.994.186,1.491.248.062,0,.062.062.062.124C146.53,150.171,146.53,150.233,146.468,150.233Zm-2.981-.559h0c-.5-.062-.994-.186-1.491-.248-.062,0-.062-.062-.062-.124s.062-.062.124-.062c.5.062.994.186,1.491.248.062,0,.062.062.062.124C143.549,149.674,143.549,149.674,143.487,149.674Zm-34.533-.062c-.062,0-.062,0-.062-.062s0-.124.062-.124c.5-.124.994-.186,1.491-.311.062,0,.124,0,.124.062s0,.124-.062.124c-.559.124-1.056.186-1.553.311Zm31.552-.373h0c-.5-.062-.994-.186-1.491-.248-.062,0-.062-.062-.062-.124s.062-.062.124-.062a12.415,12.415,0,0,1,1.491.249c.062,0,.062.062.062.124A.217.217,0,0,0,140.505,149.239Zm-28.633-.248a.061.061,0,0,1-.062-.062c0-.062,0-.124.062-.124.5-.062.994-.186,1.491-.248.062,0,.124,0,.124.062s0,.124-.062.124c-.559.124-1.056.186-1.553.248Zm25.589-.248h0l-1.491-.186c-.062,0-.062-.062-.062-.124s.062-.062.124-.062l1.491.186c.062,0,.062.062.062.124S137.524,148.742,137.462,148.742Zm-22.608-.186c-.062,0-.062-.062-.124-.062,0-.062,0-.124.062-.124l1.491-.186c.062,0,.124,0,.124.062s0,.124-.062.124a6.965,6.965,0,0,0-1.491.186Zm19.627-.186h0l-1.491-.186c-.062,0-.062-.062-.062-.124s.062-.124.124-.062l1.491.186c.062,0,.062.062.062.124C134.543,148.307,134.543,148.37,134.481,148.37Zm-16.583-.249c-.062,0-.062-.062-.124-.062a.217.217,0,0,1,.062-.124l1.491-.186a.1.1,0,1,1,.062.186l-1.491.186ZM131.5,148h0a12.06,12.06,0,0,0-1.491-.124c-.062,0-.062-.062-.062-.124s.062-.062.124-.062c.5.062.994.062,1.491.124.062,0,.062.062.062.124A.192.192,0,0,1,131.5,148Zm-10.621-.124c-.062,0-.062-.062-.124-.062a.217.217,0,0,1,.062-.124c.5-.062.994-.062,1.491-.124h0c.062,0,.062.062.124.062a.217.217,0,0,1-.062.124,14.426,14.426,0,0,0-1.491.124Zm7.577-.062h0a13,13,0,0,0-1.491-.062c-.062,0-.062-.062-.062-.124s.062-.062.124-.062c.5,0,.994.062,1.491.062.062,0,.062.062.062.124C128.518,147.749,128.518,147.811,128.456,147.811Zm-4.534-.124c-.062,0-.062-.062-.124-.062a.217.217,0,0,1,.062-.124h1.491a.124.124,0,0,1,0,.249h-1.18l-.248-.062Z" transform="translate(-85.884 -144.84)" fill="#92501b"/>
      <g id="Group_570" data-name="Group 570" transform="translate(20.39 17.595)">
        <path id="Path_908" data-name="Path 908" d="M14.853,0c8.2,0,14.853,3.852,14.853,8.6s-6.65,8.6-14.853,8.6S0,13.357,0,8.6,6.65,0,14.853,0Z" transform="translate(0 0)" fill="#a15600"/>
        <path id="Path_907" data-name="Path 907" d="M13.592,0C21.1,0,27.184,3.533,27.184,7.892S21.1,15.784,13.592,15.784,0,12.251,0,7.892,6.085,0,13.592,0Z" transform="translate(1.261 0.603)" fill="#f8cf8e"/>
      </g>
      <path id="Path_901" data-name="Path 901" d="M85.774,245.747c-.062-2.112-1.366-4.037-2.112-5.962,0-.062-.062,0-.062.062.807,2.3,2.112,4.72,1.677,7.267-.186.994-.994,1.366-1.3,2.236q-.28.745.559.932a.139.139,0,0,0,.124-.248c-.994-.5.311-1.491.621-1.987A3.471,3.471,0,0,0,85.774,245.747Z" transform="translate(-81.896 -179.797)" fill="#fff"/>
      <path id="Path_902" data-name="Path 902" d="M108.98,253.232c-1.925-.435-3.851-.994-5.838-1.491a10.958,10.958,0,0,1-2.795-1.118c-.745-.435-2.05-.932-2.422-1.739,0-.062-.124,0-.124.062a2.9,2.9,0,0,0,1.366,1.491,14.518,14.518,0,0,0,3.106,1.553,26.105,26.105,0,0,0,3.168.745,34.03,34.03,0,0,0,3.478.621C108.98,253.356,109.042,253.294,108.98,253.232Z" transform="translate(-87.277 -183.245)" fill="#fff"/>
      <path id="Path_903" data-name="Path 903" d="M194.236,235.883c-.062-.062-.062,0,0,0,.621,3.851-1.677,7.888-4.161,10.621-.124.186.062.373.186.186a13.457,13.457,0,0,0,3.168-4.72A10.306,10.306,0,0,0,194.236,235.883Z" transform="translate(-122.225 -178.318)" fill="#fff"/>
      <path id="Path_904" data-name="Path 904" d="M112.807,146.7c-3.727.435-7.267,1.739-10.869,2.671-2.05.559-4.161.124-6.211,0-.745-.062-1.925-.248-1.739.807,0,.062.124.062.124-.062.062-.807,2.112-.31,2.484-.248.807.062,1.553.186,2.36.248a9.879,9.879,0,0,0,4.037-.683,65.965,65.965,0,0,1,9.875-2.609S112.869,146.7,112.807,146.7Z" transform="translate(-85.825 -144.536)" fill="#fff"/>
      <path id="Path_905" data-name="Path 905" d="M189,160.372a21.91,21.91,0,0,0-.683,8.757c0,.124.186.062.186-.062.248-2.919-.186-5.838.559-8.7C189.122,160.31,189.06,160.31,189,160.372Z" transform="translate(-121.52 -149.699)" fill="#fff"/>
      <path id="Path_906" data-name="Path 906" d="M91.145,163.456a13.66,13.66,0,0,1-1.366,4.161c-.621,1.429-1.056,2.919-1.553,4.348a39.063,39.063,0,0,0-1.925,8.882c0,.186.186.124.248,0a64.272,64.272,0,0,1,2.174-9.068c.5-1.491.994-2.919,1.553-4.41a10.79,10.79,0,0,0,1.056-3.913C91.269,163.332,91.145,163.394,91.145,163.456Z" transform="translate(-82.919 -150.858)" fill="#fff"/>
    </g>
  </g>
</svg>
