<svg xmlns="http://www.w3.org/2000/svg" width="30.165" height="24.133" viewBox="0 0 30.165 24.133">
  <g id="pay" transform="translate(0)">
    <g id="Group_3587" data-name="Group 3587" transform="translate(0 0)">
      <g id="Group_3586" data-name="Group 3586">
        <path id="Path_58122" data-name="Path 58122" d="M29.662,48H20.11a.5.5,0,0,0-.5.5v1.508H18.1a.5.5,0,0,0-.5.5v5.722l-3.638,1.819H.5a.5.5,0,0,0-.5.5V71.629a.5.5,0,0,0,.5.5H10.558a.5.5,0,0,0,.5-.5V70.211l5.447.908a.517.517,0,0,0,.083.007h7.541a2,2,0,0,0,1.731-1.005h1.788a.5.5,0,0,0,.5-.5V68.11h1.508a.5.5,0,0,0,.5-.5V48.5A.5.5,0,0,0,29.662,48ZM10.055,71.126H1.005V59.061h9.049ZM20.613,49.006h8.547v11a2,2,0,0,0-1.005-1.674v-7.82a.5.5,0,0,0-.5-.5H20.613ZM18.6,51.017h8.547v7.039H26.143V53.53a.5.5,0,0,0-.5-.5.5.5,0,0,1-.5-.5.5.5,0,0,0-.5-.5H21.115a.5.5,0,0,0-.5.5.5.5,0,0,1-.5.5.5.5,0,0,0-.5.5v4.525H18.6Zm6.536,2.931v4.108H20.613V53.947a1.516,1.516,0,0,0,.92-.92h2.686A1.516,1.516,0,0,0,25.137,53.947Zm2.011,15.168H26.143A2,2,0,0,0,25.8,68a2.011,2.011,0,0,0,1.005-3.016,1.97,1.97,0,0,0,.34-.161Zm0-8.044H25.137a.5.5,0,0,0,0,1.006h1.006a1.005,1.005,0,1,1,0,2.011H24.132a.5.5,0,1,0,0,1.005h1.005a1.006,1.006,0,1,1,0,2.011H23.126a.5.5,0,0,0,0,1.006h1.006a1.006,1.006,0,0,1,0,2.011h-7.5l-5.572-.929V59.061h3.017a.5.5,0,0,0,.225-.053L17.6,57.36v1.2a.5.5,0,0,0,.5.5h9.049a1.005,1.005,0,1,1,0,2.011ZM28.154,67.1V61.8a2,2,0,0,0,1.005-1.674V67.1Z" transform="translate(0 -48)" fill="#fff"/>
      </g>
    </g>
    <g id="Group_3589" data-name="Group 3589" transform="translate(5.027 18.099)">
      <g id="Group_3588" data-name="Group 3588">
        <path id="Path_58123" data-name="Path 58123" d="M82.011,336a2.011,2.011,0,1,0,2.011,2.011A2.011,2.011,0,0,0,82.011,336Zm0,3.016a1.006,1.006,0,1,1,1.005-1.006A1.005,1.005,0,0,1,82.011,339.017Z" transform="translate(-80 -336)" fill="#fff"/>
      </g>
    </g>
  </g>
</svg>
