<svg xmlns="http://www.w3.org/2000/svg" width="29.73" height="29.73" viewBox="0 0 29.73 29.73">
  <g id="phone-call" transform="translate(0)">
    <path id="Path_1062" data-name="Path 1062" d="M23.9,29.731a12.769,12.769,0,0,1-4.374-.93A32.815,32.815,0,0,1,8.486,21.245,32.839,32.839,0,0,1,.928,10.208C-.307,6.933-.31,4.245.921,3.015c.177-.177.357-.367.543-.563C2.587,1.271,3.856-.058,5.538,0,6.7.05,7.82.77,8.97,2.2c3.4,4.226,1.866,5.732.093,7.478l-.313.31c-.29.29-.838,1.633,4.26,6.731a28.268,28.268,0,0,0,4.217,3.619c.714.464,1.991,1.166,2.515.642l.315-.318c1.744-1.769,3.25-3.3,7.473.1,1.431,1.15,2.15,2.272,2.2,3.433.069,1.681-1.27,2.953-2.452,4.075-.195.186-.385.366-.562.542A3.9,3.9,0,0,1,23.9,29.731ZM5.418,1c-1.2,0-2.274,1.136-3.229,2.141-.192.2-.378.4-.561.581C.711,4.638.8,7.045,1.864,9.856a31.833,31.833,0,0,0,7.33,10.683,31.81,31.81,0,0,0,10.681,7.327c2.811,1.062,5.218,1.152,6.133.237.183-.183.379-.369.581-.56,1.027-.976,2.192-2.082,2.141-3.309A4.043,4.043,0,0,0,26.9,21.539c-3.519-2.83-4.5-1.831-6.135-.176l-.32.323c-.78.781-2.047.608-3.767-.51A29.2,29.2,0,0,1,12.3,17.425c-4.231-4.23-5.584-6.819-4.26-8.146l.319-.315c1.659-1.632,2.66-2.617-.171-6.138A4.056,4.056,0,0,0,5.5,1Z"/>
  </g>
</svg>
