<svg xmlns="http://www.w3.org/2000/svg" width="71.197" height="94.918" viewBox="0 0 71.197 94.918">
  <g id="placeholder_1_" data-name="placeholder (1)" transform="translate(0.001)">
    <g id="Group_766" data-name="Group 766" transform="translate(0 0)">
      <g id="Group_765" data-name="Group 765" transform="translate(0 0)">
        <path id="Path_1025" data-name="Path 1025" d="M134.948,91.575l-12.514-26.47a2.342,2.342,0,0,0-1.2-1.154l-6.225-2.771L125.794,43.1c.026-.043.05-.087.073-.132A29.544,29.544,0,0,0,120.306,8.5,29.531,29.531,0,0,0,73.279,42.969q.034.067.073.132L84.139,61.18l-6.261,2.787A2.341,2.341,0,0,0,76.712,65.1L64.2,91.575a2.342,2.342,0,0,0,3.07,3.141l15.676-6.979,15.676,6.979a2.344,2.344,0,0,0,1.905,0L116.2,87.736l15.676,6.979a2.342,2.342,0,0,0,3.069-3.141ZM77.415,40.768a24.565,24.565,0,0,1-2.683-11.393A24.966,24.966,0,0,1,99.221,4.686a24.851,24.851,0,0,1,22.512,36.081L101.585,74.535a2.342,2.342,0,0,1-4.023,0Zm39.74,42.265a2.344,2.344,0,0,0-1.905,0L99.573,90.012,83.9,83.033a2.344,2.344,0,0,0-1.905,0l-10.86,4.835,9.443-19.975,5.98-2.661,6.983,11.7a7.026,7.026,0,0,0,12.068,0l6.983-11.7,5.981,2.662,9.443,19.974Z" transform="translate(-63.974 0)"/>
      </g>
    </g>
    <g id="Group_768" data-name="Group 768" transform="translate(24.911 18.837)">
      <g id="Group_767" data-name="Group 767">
        <path id="Path_1026" data-name="Path 1026" d="M209.034,101.607A10.689,10.689,0,1,0,219.723,112.3,10.7,10.7,0,0,0,209.034,101.607Zm0,16.694a6.005,6.005,0,1,1,6.005-6.005A6.012,6.012,0,0,1,209.034,118.3Z" transform="translate(-198.345 -101.607)"/>
      </g>
    </g>
  </g>
</svg>
