<svg xmlns="http://www.w3.org/2000/svg" width="13.736" height="13.736" viewBox="0 0 13.736 13.736">
  <g id="search" transform="translate(0 0)">
    <path id="Path_1057" data-name="Path 1057" d="M3.044,142.859l-.478,1.785-1.748.037a6.88,6.88,0,0,1-.051-6.413h0l1.556.285.682,1.547a4.1,4.1,0,0,0,.039,2.76Z" transform="translate(0 -134.558)" fill="#fbbb00"/>
    <path id="Path_1058" data-name="Path 1058" d="M268.225,208.176a6.865,6.865,0,0,1-2.448,6.639h0l-1.96-.1-.277-1.731a4.093,4.093,0,0,0,1.761-2.09h-3.673v-2.717h6.6Z" transform="translate(-254.609 -202.591)" fill="#518ef8"/>
    <path id="Path_1059" data-name="Path 1059" d="M40.858,313.332h0a6.87,6.87,0,0,1-10.349-2.1l2.226-1.822a4.085,4.085,0,0,0,5.886,2.091Z" transform="translate(-29.69 -301.108)" fill="#28b446"/>
    <path id="Path_1060" data-name="Path 1060" d="M39.108,1.581,36.883,3.4a4.084,4.084,0,0,0-6.021,2.139L28.624,3.71h0A6.87,6.87,0,0,1,39.108,1.581Z" transform="translate(-27.856)" fill="#f14336"/>
  </g>
</svg>
