<svg xmlns="http://www.w3.org/2000/svg" xmlns:xlink="http://www.w3.org/1999/xlink" width="111.422" height="111.422" viewBox="0 0 111.422 111.422">
  <defs>
    <clipPath id="clip-path">
      <rect id="Rectangle_15" data-name="Rectangle 15" width="111.421" height="111.422"/>
    </clipPath>
    <clipPath id="clip-path-2">
      <rect id="Rectangle_14" data-name="Rectangle 14" width="26.968" height="24.469" transform="translate(0 0)"/>
    </clipPath>
  </defs>
  <g id="smiley-white" transform="translate(186.508 114.492)">
    <g id="Group_246" data-name="Group 246" transform="translate(-186.507 -114.492)">
      <g id="Group_238" data-name="Group 238" clip-path="url(#clip-path)">
        <g id="Group_237" data-name="Group 237" transform="translate(42.227 28.896)" clip-path="url(#clip-path-2)">
          <path id="Path_10" data-name="Path 10" d="M18.362,35.723A12.645,12.645,0,0,1,8.486,15.179,13.562,13.562,0,1,0,29.95,28.144a12.649,12.649,0,0,1-11.588,7.579" transform="translate(-2.982 -15.179)" fill="#f57142"/>
        </g>
      </g>
      <g id="Group_239" data-name="Group 239" clip-path="url(#clip-path)">
        <path id="Path_11" data-name="Path 11" d="M36.622,60.592c0,.856-.507,1.55-1.132,1.55s-1.132-.694-1.132-1.55.507-1.55,1.132-1.55,1.132.694,1.132,1.55" transform="translate(14.861 -20.371)" fill="#fff"/>
      </g>
      <g id="Group_240" data-name="Group 240" clip-path="url(#clip-path)">
        <path id="Path_12" data-name="Path 12" d="M84.73,60.592c0,.856-.507,1.55-1.132,1.55s-1.132-.694-1.132-1.55.507-1.55,1.132-1.55,1.132.694,1.132,1.55" transform="translate(-22.526 -20.371)" fill="#fff"/>
      </g>
      <g id="Group_241" data-name="Group 241" clip-path="url(#clip-path)">
        <path id="Path_13" data-name="Path 13" d="M48.332,84.5c0,.012,0,.024,0,.036a3.379,3.379,0,1,0,6.757,0c0-.012,0-.024,0-.036Z" transform="translate(4.002 -40.16)" fill="#fff"/>
      </g>
      <g id="Group_242" data-name="Group 242" clip-path="url(#clip-path)">
        <path id="Path_14" data-name="Path 14" d="M27.445,9.249a13.537,13.537,0,1,1-6.672-5.191" transform="translate(39.513 22.975)" fill="none" stroke="#fff" stroke-linecap="round" stroke-linejoin="round" stroke-miterlimit="10" stroke-width="2"/>
      </g>
      <g id="Group_243" data-name="Group 243" clip-path="url(#clip-path)">
        <path id="Path_15" data-name="Path 15" d="M96.424,12.938a13.628,13.628,0,0,1,2.258,1.824" transform="translate(-33.375 15.459)" fill="none" stroke="#fff" stroke-linecap="round" stroke-linejoin="round" stroke-miterlimit="10" stroke-width="2"/>
      </g>
      <g id="Group_244" data-name="Group 244" clip-path="url(#clip-path)">
        <path id="Path_16" data-name="Path 16" d="M86.249,20.852c-.54.684-1.823.571-3.306-.6s-1.95-2.44-1.41-3.124,1.882-.524,3.366.648,1.89,2.393,1.35,3.077" transform="translate(-21.634 12.518)" fill="#f57142"/>
      </g>
      <g id="Group_245" data-name="Group 245" clip-path="url(#clip-path)">
        <path id="Path_17" data-name="Path 17" d="M106.857,46.105a1.388,1.388,0,1,1-1.388-1.388,1.388,1.388,0,0,1,1.388,1.388" transform="translate(-39.325 -9.238)" fill="#f57142"/>
      </g>
    </g>
  </g>
</svg>
