<svg xmlns="http://www.w3.org/2000/svg" width="42.012" height="41.549" viewBox="0 0 42.012 41.549">
  <g id="tax" transform="translate(0 -2.821)">
    <g id="Group_808" data-name="Group 808" transform="translate(0 2.82)">
      <g id="Group_807" data-name="Group 807" transform="translate(0 0)">
        <path id="Path_1063" data-name="Path 1063" d="M57.145,164.6H52.579c-.3,0-.442.324-.442.626,0,.345.162.637.442.637h1.587v6.185c0,.292.345.443.7.443s.7-.151.7-.443v-6.185h1.576C57.729,165.865,57.741,164.6,57.145,164.6Z" transform="translate(-47.855 -151.316)"/>
        <path id="Path_1064" data-name="Path 1064" d="M117.429,164.292c-.1-.324-.5-.475-.906-.475a.877.877,0,0,0-.9.475c-2.133,6.967-2.1,6.823-2.1,6.9,0,.525,1.217.843,1.36.3l.41-1.436h2.471l.411,1.436c.053.2.237.28.474.28.378,0,.885-.248.885-.583a.476.476,0,0,0-.021-.108Zm-1.846,4.662.939-3.314.939,3.314Z" transform="translate(-104.199 -150.596)"/>
        <path id="Path_1065" data-name="Path 1065" d="M189.624,171.242c0,.389.54.7.917.7a.449.449,0,0,0,.389-.227l1.576-2.774,1.587,2.774a.419.419,0,0,0,.378.227c.451,0,1.138-.428.842-.961l-1.867-3.044,1.8-3.033a.584.584,0,0,0,.1-.3c0-.378-.5-.658-.9-.658-.507,0-.458.4-1.943,2.947l-1.468-2.644a.509.509,0,0,0-.464-.3c-.4,0-.9.281-.9.658a.583.583,0,0,0,.1.3l1.8,3.033-1.867,3.044A.562.562,0,0,0,189.624,171.242Z" transform="translate(-174.052 -150.714)"/>
        <path id="Path_1066" data-name="Path 1066" d="M41.175,19.762a3.744,3.744,0,0,0-5.264-.538L29.9,24.11V6.644A3.828,3.828,0,0,0,26.08,2.82H8.193A3.828,3.828,0,0,0,4.37,6.644v1.44H3.846A3.85,3.85,0,0,0,0,11.929V34.651a.657.657,0,1,0,1.315,0V11.929A2.534,2.534,0,0,1,3.846,9.4H18.085a2.537,2.537,0,0,1,.727.108v5.042a.657.657,0,0,0,.657.657h4.756c.139.543.051-.1.077,14.759l-4.049,3.294H9.88a.616.616,0,1,0,0,1.233h8.867a2.737,2.737,0,0,0-.6,3.209l-.783.637a1.137,1.137,0,0,1-.717.255H5.455a.616.616,0,0,0,0,1.233H16.648a2.375,2.375,0,0,0,1.495-.531l.783-.637a2.728,2.728,0,0,0,3.4-.039L24.3,37.01v3.513a2.534,2.534,0,0,1-2.531,2.53H3.846a2.534,2.534,0,0,1-2.531-2.53V37.117a.657.657,0,1,0-1.315,0v3.406a3.85,3.85,0,0,0,3.846,3.845H21.772a3.85,3.85,0,0,0,3.846-3.845V38.661h.463A3.828,3.828,0,0,0,29.9,34.837V32.454h0a1.631,1.631,0,0,0,1.8-.17l8.4-6.833a1.4,1.4,0,0,1-.413,1.608l-5.536,4.5a.616.616,0,1,0,.777.957l5.536-4.5a2.634,2.634,0,0,0,.591-3.4A3.745,3.745,0,0,0,41.175,19.762ZM20.127,13.891V10.408l3.285,3.474h0l.005.005h0l0,0H20.127ZM22.6,11.13c-1.578-1.637-1.971-2.289-2.883-2.68a3.828,3.828,0,0,0-1.635-.367H5.6V6.644a2.594,2.594,0,0,1,2.59-2.591H26.08a2.594,2.594,0,0,1,2.591,2.591V25.113l-1.682,1.368a1.633,1.633,0,0,0-.533,1.731l-.838.682c-.118-13.076.261-13.341-.324-14.609C24.856,13.284,24.3,12.981,22.6,11.13ZM21.548,37.662a1.5,1.5,0,0,1-2.439-1.317c.089-.861.784-1.145,1.093-1.455l1.893,2.327Zm7.124-2.825a2.594,2.594,0,0,1-2.591,2.591h-.463V35.941l3.054-2.484Zm-5.62,1.6-1.893-2.327,5.98-4.865.006.008,0,0,.017.021h0l1.868,2.295Zm7.589-5.025c-.2-.02,0,.192-2.93-3.417a.4.4,0,0,1,.058-.559l.52-.423,0,0,0,0,0,0h0l0,0,0,0h0l.007.009v0h0l0,0L31.452,30.9C30.993,31.241,30.9,31.44,30.64,31.413Zm1.769-1.289-3.164-3.889,6.97-5.671,3.164,3.889Zm7.877-6.508-3.066-3.769a2.506,2.506,0,0,1,3.066,3.769Z" transform="translate(0 -2.82)"/>
        <path id="Path_1067" data-name="Path 1067" d="M380.5,238.173l-4.1,3.336a.616.616,0,1,0,.777.957l4.1-3.337a.616.616,0,1,0-.778-.956Z" transform="translate(-345.278 -218.718)"/>
        <path id="Path_1068" data-name="Path 1068" d="M222.656,315.366a.616.616,0,1,0,0,1.233H224.2a.616.616,0,0,0,0-1.233Z" transform="translate(-203.806 -289.699)"/>
        <path id="Path_1069" data-name="Path 1069" d="M58.922,315.982a.617.617,0,0,0,.616.616h10.93a.616.616,0,0,0,0-1.233H59.538A.617.617,0,0,0,58.922,315.982Z" transform="translate(-54.083 -289.699)"/>
        <path id="Path_1070" data-name="Path 1070" d="M59.539,373.468a.616.616,0,1,0,0,1.233H61.5a.616.616,0,1,0,0-1.233Z" transform="translate(-54.084 -343.03)"/>
      </g>
    </g>
  </g>
</svg>
