<svg xmlns="http://www.w3.org/2000/svg" width="98.191" height="86.852" viewBox="0 0 98.191 86.852">
  <g id="thumb-up" transform="translate(0.001)">
    <g id="Group_793" data-name="Group 793" transform="translate(0 0)">
      <path id="Path_1055" data-name="Path 1055" d="M95.373,56.5c4.974-4.952,3.437-14.968-5.179-14.968l-22.67.015c.861-4.8,2.108-12.759,2.059-13.51-.476-7.116-5.012-15.777-5.208-16.131-.827-1.541-5-3.63-9.208-2.735-5.435,1.163-5.99,4.63-5.968,5.586,0,0,.234,9.484.257,12.015C46.858,32.481,37.9,47.48,35.183,48.635a4.141,4.141,0,0,0-2.153-.6H4.389A4.385,4.385,0,0,0,0,52.419L0,92A4.16,4.16,0,0,0,4.128,95.81H29.853a4.14,4.14,0,0,0,4.136-4.136V90.36a2.956,2.956,0,0,1,1.39.208,11.7,11.7,0,0,0,6.364,2.372H80.133c14.353,0,12.812-12.74,11.5-14.477,2.425-2.64,3.925-7.3,1.877-10.976C95.083,65.821,97.848,61.243,95.373,56.5ZM28.97,91.666H4.121v-39.5H28.97Zm59.707-35.5-.234.978c6.614,1.881,3.093,9.5-1.651,10l-.234.978c6.341,1.613,3.316,9.461-1.651,10l-.234.974c5.179.85,3.925,9.688-3.921,9.688L41.7,88.791c-2.757,0-5.269-3.142-7.3-3.142h-1.77V55.241a62.272,62.272,0,0,0,6.425-4.423c2.848-2.429,14.5-21.264,14.5-23.622s-.257-12.555-.257-12.555,2.285-2.946,7.388-.8c0,0,4.294,8.052,4.732,14.47,0,0-1.934,13.219-2.973,17.367h27.07C96.178,45.689,94.909,55.184,88.677,56.162Z" transform="translate(0 -8.958)"/>
    </g>
  </g>
</svg>
