<svg xmlns="http://www.w3.org/2000/svg" width="33.104" height="27.619" viewBox="0 0 33.104 27.619">
  <g id="twitter" transform="translate(0.801 2.343)">
    <path id="Path_460" data-name="Path 460" d="M60.36,117.164a17.141,17.141,0,0,0,26.3-14.486q0-.354-.014-.7a13.468,13.468,0,0,0,2.979-3.058,13.9,13.9,0,0,1-3.4.883h-.011l.009-.006c.155-.1,2.323-1.579,2.617-3.338a20.879,20.879,0,0,1-2.919,1.217c-.282.094-.577.186-.881.271a6.014,6.014,0,0,0-10.249,5.47,18.111,18.111,0,0,1-12.344-6.24s-2.875,3.924,1.713,7.959a6.179,6.179,0,0,1-2.6-.774,5.715,5.715,0,0,0,4.753,5.97,5.5,5.5,0,0,1-2.653.111,5.928,5.928,0,0,0,5.528,4.2,11.551,11.551,0,0,1-8.831,2.524Z" transform="translate(-60.358 -96.041)" fill="none" stroke="#000" stroke-width="3"/>
  </g>
</svg>
