<svg id="twitter_1h_" data-name="twitter (1h)" xmlns="http://www.w3.org/2000/svg" width="44.982" height="44.982" viewBox="0 0 44.982 44.982">
  <ellipse id="Ellipse_29" data-name="Ellipse 29" cx="22.491" cy="22.491" rx="22.491" ry="22.491" transform="translate(0 0)" fill="#55acee"/>
  <g id="Group_2989" data-name="Group 2989" transform="translate(10.064 13.643)">
    <path id="Path_2542" data-name="Path 2542" d="M51.307,36.549a10.726,10.726,0,0,1-3.088.846,5.391,5.391,0,0,0,2.364-2.974,10.762,10.762,0,0,1-3.414,1.3,5.381,5.381,0,0,0-9.161,4.9,15.261,15.261,0,0,1-11.081-5.618,5.382,5.382,0,0,0,1.663,7.178,5.338,5.338,0,0,1-2.435-.673c0,.023,0,.046,0,.068a5.379,5.379,0,0,0,4.313,5.271,5.4,5.4,0,0,1-2.428.093,5.382,5.382,0,0,0,5.022,3.733A10.853,10.853,0,0,1,25.1,52.908,15.289,15.289,0,0,0,48.64,40.027c0-.233-.005-.465-.016-.7a10.9,10.9,0,0,0,2.683-2.782Z" transform="translate(-25.103 -34.028)" fill="#f1f2f2"/>
  </g>
</svg>
