<svg xmlns="http://www.w3.org/2000/svg" width="28.926" height="12.979" viewBox="0 0 28.926 12.979">
  <g id="view_3_" data-name="view (3)" transform="translate(0 -0.001)">
    <path id="Path_486" data-name="Path 486" d="M25.494,21.972A3.5,3.5,0,0,0,22,25.466a.5.5,0,1,0,1,0,2.5,2.5,0,0,1,2.5-2.5.5.5,0,0,0,0-1Z" transform="translate(-11.018 -18.977)" fill="#28233e"/>
    <path id="Path_487" data-name="Path 487" d="M28.781,21.913a19.948,19.948,0,0,0-14.261-5.94h-.043l-.04,0A19.944,19.944,0,0,0,.26,21.913l-.115.116a.5.5,0,1,0,.709.7l.115-.116a18.945,18.945,0,0,1,9.432-5.2,6.491,6.491,0,1,0,8.114-.028,18.946,18.946,0,0,1,9.557,5.225.5.5,0,1,0,.709-.7Zm-8.813.549a5.491,5.491,0,1,1-5.532-5.489h.054A5.5,5.5,0,0,1,19.968,22.462Z" transform="translate(0 -15.973)" fill="#28233e"/>
  </g>
</svg>
