<svg id="volunteer" xmlns="http://www.w3.org/2000/svg" width="79.734" height="80.18" viewBox="0 0 79.734 80.18">
  <path id="Path_541" data-name="Path 541" d="M221.527,218.572A2.575,2.575,0,0,1,218.955,216h-2.572a5.144,5.144,0,1,0,10.288,0H224.1A2.575,2.575,0,0,1,221.527,218.572Zm0,0" transform="translate(-181.66 -181.277)"/>
  <path id="Path_542" data-name="Path 542" d="M202.955,153.286A1.286,1.286,0,1,1,201.669,152,1.286,1.286,0,0,1,202.955,153.286Zm0,0" transform="translate(-168.232 -127.565)"/>
  <path id="Path_543" data-name="Path 543" d="M282.955,153.286A1.286,1.286,0,1,1,281.669,152,1.286,1.286,0,0,1,282.955,153.286Zm0,0" transform="translate(-235.371 -127.565)"/>
  <path id="Path_544" data-name="Path 544" d="M73.376,7.716a6.7,6.7,0,0,0-4.767,1.974l-1.352,1.351L65.9,9.691a6.7,6.7,0,0,0-9.148-.33,19.271,19.271,0,0,0-35.8,9.93V23.36a6.56,6.56,0,0,0-1.6-.211,6.7,6.7,0,0,0-4.767,1.974l-1.352,1.351-1.351-1.351a6.742,6.742,0,0,0-9.535,9.535L13.242,45.544,23.848,34.938a6.376,6.376,0,0,0,2.783.994,14.181,14.181,0,0,0,5.9,8.06v2.664L19.4,51.035a8.992,8.992,0,0,0-6.155,8.539V74.59a2.575,2.575,0,0,0,2.572,2.572H32.533a5.1,5.1,0,0,0,3.142-1.1l4.574,4.118,4.573-4.118a5.1,5.1,0,0,0,3.143,1.1H64.684a2.575,2.575,0,0,0,2.572-2.572V59.575A8.989,8.989,0,0,0,61.1,51.035L47.965,46.656V43.992a14.191,14.191,0,0,0,5.9-8.06,6.416,6.416,0,0,0,5.672-6.353V22.4l7.716,7.716L78.143,19.225A6.743,6.743,0,0,0,73.375,7.716ZM40.249,2.572A16.738,16.738,0,0,1,56.968,19.291v5.177A6.366,6.366,0,0,0,54.4,23.28V19.291H51.824v1.286H50.538a11.63,11.63,0,0,1-9.259-4.631l-1.029-1.37-1.029,1.37a11.63,11.63,0,0,1-9.26,4.631H28.675V19.291H26.1v3.988a6.387,6.387,0,0,0-2.572,1.188V19.291A16.738,16.738,0,0,1,40.249,2.572ZM4.175,32.839a4.17,4.17,0,0,1,5.9-5.9l3.17,3.17,3.171-3.17a4.2,4.2,0,0,1,4.546-.882v3.52a6.39,6.39,0,0,0,1.071,3.54l-8.788,8.788Zm19.356-3.26A3.854,3.854,0,0,1,26.1,25.957v6.193c0,.36.027.713.054,1.066a3.853,3.853,0,0,1-2.626-3.638Zm9,45.011H15.815V66.874h5.144v2.572H32.533a2.572,2.572,0,1,1,0,5.144Zm4.733-.558a5.143,5.143,0,0,0-4.733-7.158H29.507a4.483,4.483,0,0,1-.832-2.577v-.638a4.5,4.5,0,0,1,7.2-3.6l4.371,3.279,4.373-3.279a4.5,4.5,0,0,1,7.2,3.6V64.3a4.478,4.478,0,0,1-.832,2.577H47.966a5.141,5.141,0,0,0-4.732,7.158l-2.984,2.685Zm10.7.558a2.572,2.572,0,1,1,0-5.144H59.54V66.874h5.144V74.59ZM60.287,53.475a6.423,6.423,0,0,1,4.4,6.1V64.3H59.54V59.158H56.968v7.716H53.906A7.059,7.059,0,0,0,54.4,64.3v-.638A7.072,7.072,0,0,0,43.079,58l-2.83,2.121L37.422,58A7.073,7.073,0,0,0,26.1,63.659V64.3a7.059,7.059,0,0,0,.49,2.577H23.531V59.158H20.959V64.3H15.815V59.575a6.421,6.421,0,0,1,4.4-6.1l13.26-4.42,6.777,6.777,6.777-6.777ZM45.394,47.051,40.249,52.2l-5.144-5.144V45.315a13.955,13.955,0,0,0,10.288,0Zm-5.144-3.326A11.587,11.587,0,0,1,28.675,32.151v-9h1.286a14.22,14.22,0,0,0,10.288-4.44,14.221,14.221,0,0,0,10.288,4.44h1.286v9A11.587,11.587,0,0,1,40.249,43.725ZM54.342,33.217c.027-.354.054-.706.054-1.066V25.957a3.834,3.834,0,0,1-.054,7.26ZM76.324,17.407l-9.068,9.068L59.512,18.73a19.157,19.157,0,0,0-1.5-6.96,4.1,4.1,0,0,1,6.074-.261l3.17,3.17,3.171-3.17a4.17,4.17,0,0,1,5.9,5.9Zm0,0" transform="translate(-0.382 0)"/>
</svg>
