<svg xmlns="http://www.w3.org/2000/svg" width="27.578" height="27.433" viewBox="0 0 27.578 27.433">
  <g id="whatsapp" transform="translate(2.301 1.5)">
    <path id="Path_452" data-name="Path 452" d="M0,23.777l2.045-6.134a11.682,11.682,0,1,1,4.613,4.382Z" fill="none" stroke="#000" stroke-width="3"/>
    <path id="Path_453" data-name="Path 453" d="M22.35,18.117a5.989,5.989,0,0,0-1.789-1.546c-.318-.182-.7-.2-.884.122a7.291,7.291,0,0,1-.574.627,1.069,1.069,0,0,1-1.52-.151l-1.155-1.155L15.273,14.86a1.069,1.069,0,0,1-.151-1.52,7.29,7.29,0,0,1,.627-.574c.324-.182.3-.566.122-.884a5.989,5.989,0,0,0-1.546-1.789.791.791,0,0,0-.929.14l-.51.51c-1.618,1.618-.821,3.444.8,5.061l1.478,1.478,1.478,1.478c1.618,1.618,3.444,2.414,5.061.8l.51-.51A.791.791,0,0,0,22.35,18.117Z" transform="translate(-4.922 -3.742)"/>
  </g>
</svg>
