<svg id="whatsapp2" xmlns="http://www.w3.org/2000/svg" width="45.697" height="45.697" viewBox="0 0 45.697 45.697">
  <path id="Path_582" data-name="Path 582" d="M0,45.7,3.93,33.908A22.452,22.452,0,1,1,12.8,42.33Z" fill="#2cb742"/>
  <path id="Path_583" data-name="Path 583" d="M37.513,30.009C36.572,28.231,33.1,26.2,33.1,26.2c-.785-.448-1.732-.5-2.18.3a17.972,17.972,0,0,1-1.414,1.547,2.635,2.635,0,0,1-3.748-.372l-2.846-2.846L20.067,21.98a2.636,2.636,0,0,1-.372-3.748,17.972,17.972,0,0,1,1.547-1.414c.8-.448.748-1.395.3-2.18,0,0-2.033-3.47-3.812-4.411a1.949,1.949,0,0,0-2.29.345l-1.257,1.257C10.2,15.816,12.159,20.317,16.147,24.3l3.644,3.644,3.644,3.644c3.987,3.987,8.489,5.951,12.476,1.963L37.169,32.3A1.951,1.951,0,0,0,37.513,30.009Z" transform="translate(-1.233 -0.809)" fill="#fff"/>
</svg>
